<svg width="11" height="12" viewBox="0 0 11 12" fill="none" xmlns="http://www.w3.org/2000/svg">
<path d="M5.16948 0C2.31465 0 0 2.49023 0 5.56162C0 8.633 2.31465 11.1232 5.16948 11.1232C8.02431 11.1232 10.339 8.633 10.339 5.56162C10.339 2.49023 8.02431 0 5.16948 0ZM5.16948 9.79196C2.9993 9.79196 1.24055 7.89979 1.24055 5.56499C1.24055 3.2302 2.9993 1.33803 5.16948 1.33803C7.33965 1.33803 9.0984 3.2302 9.0984 5.56499C9.0984 7.89979 7.33965 9.79196 5.16948 9.79196Z" fill="#FC6625"/>
<path d="M5.16961 2.94629C3.82857 2.94629 2.73877 4.11537 2.73877 5.56152C2.73877 7.00767 3.82542 8.17675 5.16961 8.17675C6.51379 8.17675 7.60044 7.00767 7.60044 5.56152C7.60044 4.11537 6.51379 2.94629 5.16961 2.94629Z" fill="#FC6625"/>
</svg>
