<svg width="151" height="41" viewBox="0 0 151 41" fill="none" xmlns="http://www.w3.org/2000/svg">
<path d="M4.43445 0.544896C4.22371 0.388664 3.94572 0.27707 3.61392 0.223505C2.78891 0.0806641 1.65003 0.0717366 0.609793 0.24136C0.385604 0.27707 0.179351 0.31278 0 0.344026V22.4263C0 22.9709 0.0672566 23.4039 0.192802 23.7074C0.30938 23.9841 0.461828 24.1895 0.663598 24.3412C0.874335 24.4975 1.15233 24.6091 1.48413 24.6626C2.30914 24.8055 3.44802 24.8099 4.49274 24.6403C4.71693 24.6046 4.92318 24.5689 5.10253 24.5377V2.45985C5.10253 1.91527 5.03527 1.48675 4.90973 1.17875C4.79315 0.901998 4.63622 0.6922 4.43445 0.544896Z" fill="white"/>
<path d="M45.5419 8.77146C44.7573 7.99923 43.8381 7.40554 42.8113 7.0038C41.78 6.5976 40.6726 6.39227 39.5202 6.39227C38.8611 6.39227 38.2558 6.44137 37.7088 6.53511C37.1752 6.62885 36.5968 6.79847 35.996 7.03952L34.9019 7.47696V2.45969C34.9019 1.90618 34.8392 1.46873 34.7181 1.15627C34.615 0.888443 34.467 0.687573 34.2742 0.544733C34.0635 0.388501 33.7855 0.276907 33.4537 0.223341C33.0412 0.151921 32.5614 0.116211 32.0323 0.116211C31.4719 0.116211 30.9204 0.160849 30.3823 0.24566C30.1447 0.28137 29.9519 0.31708 29.7949 0.348327V20.6228C29.7949 21.6405 30.2523 22.4529 31.1894 23.1135C31.9651 23.6715 32.9291 24.1447 34.059 24.5196C35.1799 24.8946 36.5789 25.0865 38.2154 25.0865C39.7265 25.0865 41.1209 24.8812 42.3629 24.4795C43.5736 24.0866 44.6093 23.5019 45.4433 22.7475C46.2683 21.9931 46.9229 21.029 47.3892 19.8773C47.86 18.7078 48.1022 17.3106 48.1022 15.7215C48.1022 14.1815 47.869 12.8156 47.4072 11.6595C46.9543 10.5079 46.3266 9.53922 45.5419 8.77146ZM41.659 19.8862C40.834 20.904 39.6772 21.4173 38.2199 21.4173C37.5339 21.4173 36.9645 21.3504 36.4802 21.2075C36.0005 21.0691 35.579 20.8861 35.2293 20.6629L34.8616 20.4308V10.9364L35.3189 10.7221C35.8032 10.4945 36.265 10.3204 36.6865 10.2043C37.1349 10.0793 37.6639 10.0168 38.2603 10.0168C39.6547 10.0168 40.7891 10.5213 41.6321 11.5167C42.4347 12.4719 42.8427 13.8825 42.8427 15.7171C42.8427 17.5204 42.4436 18.9221 41.659 19.8862Z" fill="white"/>
<path d="M61.4456 6.40104H55.9888V2.67826C55.9888 1.8971 55.8857 0.892754 55.3925 0.54458C54.8813 0.183015 54.1191 0 53.1192 0C52.5632 0 52.0341 0.0491015 51.5409 0.142841C51.3257 0.183015 51.1329 0.223188 50.9625 0.263362V18.4354C50.9625 20.7967 51.4961 22.4974 52.5498 23.4883C53.6438 24.5195 55.2669 25.0417 57.3743 25.0417C59.4772 25.0417 60.4098 24.582 60.8223 24.1936C61.3962 23.6535 61.6608 23.0018 61.6608 22.1403C61.6608 21.7207 61.6025 21.3681 61.4814 21.0913C61.4142 20.9395 61.3424 20.7922 61.2662 20.6494C61.06 20.703 60.8403 20.7521 60.6116 20.7922C60.1542 20.8726 59.7014 20.9128 59.2665 20.9128C58.3069 20.9128 57.5626 20.703 56.9887 20.2789C56.5314 19.9352 55.9843 19.2478 55.9843 17.9042V10.347H60.3695C60.8358 10.347 61.1855 10.2086 61.4411 9.92296C61.6877 9.6462 61.8177 9.0927 61.8177 8.32493C61.8177 7.83838 61.7594 7.38754 61.6429 6.99473C61.5801 6.78046 61.5128 6.5796 61.4456 6.40104Z" fill="white"/>
<path d="M79.6678 8.54369C78.919 7.88306 78.0088 7.35187 76.9685 6.96798C75.9193 6.5841 74.7311 6.3877 73.4398 6.3877C72.2965 6.3877 71.1576 6.56625 70.0591 6.91888C68.9874 7.26259 68.0189 7.80271 67.185 8.52584C66.3555 9.24451 65.6739 10.1819 65.1628 11.3157C64.6471 12.4495 64.3871 13.8377 64.3871 15.4402C64.3871 17.0784 64.6516 18.5158 65.1673 19.7165C65.6829 20.9083 66.3958 21.9082 67.2881 22.6894C68.1893 23.475 69.2609 24.0776 70.476 24.4704C71.7136 24.8722 73.0856 25.0775 74.5428 25.0775C75.4172 25.0775 76.3722 25.0016 77.3811 24.8498C78.3361 24.707 79.2059 24.4302 79.9637 24.033C80.8067 23.5955 81.1967 22.984 81.1967 22.1046C81.1967 21.7297 81.0936 21.377 80.8784 21.0289C80.7439 20.8101 80.5914 20.6227 80.4255 20.462C79.8471 20.7521 79.1611 21.0155 78.372 21.2387C77.3452 21.5333 76.2422 21.6806 75.0988 21.6806C73.8254 21.6806 72.6731 21.4351 71.6777 20.953C70.5881 20.4262 69.8528 19.6183 69.4941 18.547L69.1937 17.6498L79.8651 16.0562C80.5914 15.9491 81.1474 15.717 81.5241 15.3643C81.8603 15.0474 82.0218 14.5698 82.0218 13.9002C82.0218 12.8155 81.811 11.8022 81.403 10.8916C80.9905 9.98996 80.4076 9.19987 79.6678 8.54369ZM68.9202 14.8599L68.983 13.8645C69.0143 13.3735 69.113 12.8869 69.2834 12.4138C69.4627 11.9138 69.7317 11.4585 70.086 11.0568C70.4491 10.6461 70.9155 10.3113 71.4759 10.0569C72.0409 9.80248 72.7 9.67303 73.4443 9.67303C74.637 9.67303 75.5741 10.0212 76.2287 10.7042C76.843 11.3469 77.2017 12.021 77.3048 12.7039L77.4214 13.4806L68.9202 14.8599Z" fill="white"/>
<path d="M99.9029 8.18206C98.4546 6.9947 96.3159 6.39209 93.5494 6.39209C91.9756 6.39209 90.5363 6.58403 89.2629 6.95899C88.003 7.32948 86.9493 7.81603 86.1332 8.39632C85.6893 8.71325 85.3396 9.05696 85.093 9.42299C84.8823 9.73545 84.7747 10.1729 84.7747 10.7219V22.667C84.7747 23.2205 84.8419 23.6579 84.9675 23.9659C85.084 24.2472 85.2365 24.457 85.4383 24.6087C85.649 24.7694 85.927 24.881 86.2588 24.9346C86.6713 25.006 87.1511 25.0417 87.6801 25.0417C88.2451 25.0417 88.7966 25.006 89.3257 24.9301C89.5454 24.8989 89.7292 24.8721 89.8772 24.8453V11.2621L90.2135 11.021C90.6574 10.6996 91.1909 10.4586 91.7962 10.2979C92.3746 10.1506 92.962 10.0747 93.5539 10.0747C94.5269 10.0747 95.3295 10.3291 95.9348 10.838C96.5849 11.3826 96.9122 12.1995 96.9122 13.2708V22.667C96.9122 23.2205 96.9795 23.6579 97.105 23.9659C97.2216 24.2472 97.374 24.457 97.5758 24.6087C97.7866 24.7694 98.0646 24.881 98.3919 24.9346C98.8044 25.006 99.2841 25.0417 99.8132 25.0417C100.378 25.0417 100.93 25.006 101.459 24.9301C101.678 24.8989 101.862 24.8721 102.01 24.8453V13.0297C102.01 10.9317 101.324 9.34711 99.9029 8.18206Z" fill="white"/>
<path d="M120.9 8.2758C120.125 7.72676 119.161 7.27145 118.026 6.92328C116.887 6.57064 115.596 6.39209 114.184 6.39209C112.798 6.39209 111.507 6.57064 110.337 6.92328C109.202 7.26699 108.211 7.78925 107.391 8.48113C106.584 9.16409 105.938 10.0435 105.476 11.0969C105.01 12.1593 104.772 13.4448 104.772 14.9134C104.772 16.4132 104.997 17.7167 105.44 18.7835C105.88 19.8414 106.463 20.7119 107.18 21.3725C107.893 22.0331 108.736 22.5241 109.687 22.8366C110.664 23.158 111.713 23.3232 112.803 23.3232C114.233 23.3232 115.453 23.1089 116.421 22.6893L117.542 22.2028V24.0329C117.542 25.3542 116.964 26.3719 115.874 26.979C114.915 27.5102 113.646 27.7825 112.094 27.7825C110.996 27.7825 109.92 27.6262 108.888 27.3227C108.095 27.0861 107.355 26.8049 106.682 26.479C106.584 26.604 106.485 26.7558 106.391 26.9254C106.203 27.2647 106.113 27.6575 106.113 28.1262C106.113 29.2466 106.62 30.0054 107.705 30.5098C108.956 31.0946 110.74 31.3892 113 31.3892C114.318 31.3892 115.569 31.2419 116.722 30.9473C117.838 30.6616 118.82 30.2152 119.641 29.6171C120.443 29.0323 121.089 28.2824 121.555 27.3941C122.017 26.5103 122.255 25.4345 122.255 24.1936V10.5479C122.255 10.0122 122.147 9.58368 121.936 9.27568C121.69 8.91858 121.34 8.57934 120.9 8.2758ZM117.426 18.8014L117.121 19.0379C116.349 19.6406 115.318 19.9486 114.063 19.9486C112.843 19.9486 111.821 19.5334 111.023 18.7121C110.225 17.8908 109.835 16.6454 109.835 14.9134C109.835 13.3957 110.229 12.1905 111 11.329C111.798 10.4407 112.973 9.99435 114.493 9.99435C115.09 9.99435 115.61 10.0568 116.04 10.1818C116.457 10.3024 116.775 10.4273 117.018 10.5657L117.421 10.7934V18.8014H117.426Z" fill="white"/>
<path d="M24.3871 8.93204C23.562 8.13749 22.5577 7.5081 21.4053 7.06172C20.2396 6.61535 18.9213 6.3877 17.4776 6.3877C16.0293 6.3877 14.7066 6.60642 13.5408 7.04387C12.3885 7.47239 11.3886 8.09285 10.5636 8.89187C9.74306 9.68642 9.0974 10.6684 8.64005 11.8112C8.17822 12.9673 7.94507 14.2796 7.94507 15.717C7.94507 17.1811 8.17822 18.5068 8.63557 19.6629C9.08843 20.8057 9.73858 21.7877 10.5591 22.5822C11.3796 23.3768 12.384 23.9973 13.5363 24.4302C14.7021 24.8632 16.0248 25.0864 17.4731 25.0864C18.9258 25.0864 20.253 24.8766 21.4233 24.466C22.5711 24.0598 23.5665 23.4616 24.3871 22.6805C25.2031 21.9038 25.8488 20.9217 26.3016 19.7656C26.7635 18.5961 26.9966 17.2347 26.9966 15.7214C26.9966 14.3109 26.7635 13.0119 26.3061 11.8558C25.8532 10.7086 25.2076 9.72659 24.3871 8.93204ZM20.7148 19.8147C19.9795 20.8905 18.872 21.4574 17.5134 21.4574C16.1638 21.4574 15.0474 20.9039 14.2851 19.8549C13.5722 18.8729 13.209 17.4802 13.209 15.7214C13.209 13.9895 13.5632 12.6147 14.2627 11.6326C15.0115 10.5792 16.1235 10.0212 17.4776 10.0212C18.8317 10.0212 19.9392 10.5792 20.6924 11.6326C21.3919 12.6147 21.7461 13.9895 21.7461 15.7214C21.7416 17.4445 21.3964 18.8193 20.7148 19.8147Z" fill="white"/>
<path d="M149.623 35.8484C149.57 35.6342 149.57 35.3306 149.682 35.161C150.345 34.1745 150.395 33.0809 150.117 32.0096C149.731 30.5187 149.251 29.0501 148.718 27.6039C148.341 26.5772 147.409 26.2067 146.409 26.6084C146.077 26.7423 145.889 26.6665 145.664 26.4567C145.122 25.9523 144.467 25.8898 143.817 26.1531C143.485 26.287 143.279 26.2692 143.019 26.0326C142.53 25.5818 141.907 25.4077 141.329 25.7291C140.938 25.9433 140.804 25.6666 140.782 25.5952C140.508 24.7738 140.248 23.948 139.965 23.1312C139.844 22.7785 139.732 22.4036 139.526 22.1C139.042 21.3858 138.141 21.1939 137.356 21.5778C136.576 21.9572 136.275 22.8365 136.603 23.823C137.15 25.4836 137.706 27.1441 138.253 28.8046C138.445 29.3849 138.616 29.9696 138.795 30.5499C138.795 30.5499 138.836 30.6571 138.809 30.6749C138.768 30.6972 138.683 30.6258 138.683 30.6303C138.248 30.3803 137.822 30.117 137.378 29.8893C136.679 29.5322 135.746 29.7197 135.253 30.291C134.728 30.9026 134.675 31.6793 135.19 32.3667C135.455 32.7238 135.8 33.0407 136.159 33.3041C136.791 33.7772 137.49 34.1656 138.118 34.6432C140.019 36.1029 142.006 37.5 142.701 39.9819C142.835 40.455 143.064 40.4952 143.49 40.3568C145.602 39.656 147.722 38.9686 149.843 38.299C150.202 38.1874 150.287 38.0178 150.175 37.6786C149.978 37.076 149.78 36.4689 149.623 35.8484ZM148.736 36.1386C148.866 36.5983 149.18 37.1652 149.018 37.5C148.875 37.7991 148.207 37.8661 147.758 38.0134C146.485 38.433 145.207 38.8392 143.934 39.2498C143.696 39.3257 143.445 39.4373 143.328 39.0847C142.696 37.1251 141.158 35.9065 139.643 34.6879C138.75 33.9692 137.768 33.3576 136.836 32.6836C136.535 32.4649 136.248 32.2105 135.997 31.9382C135.719 31.6346 135.616 31.2731 135.93 30.9204C136.248 30.5633 136.647 30.4919 137.055 30.7374C137.719 31.1392 138.351 31.5855 139.015 31.9828C139.235 32.1123 139.531 32.3488 139.759 32.2194C140.006 32.081 140.01 31.648 139.948 31.407C139.674 30.3312 139.347 29.2733 139.006 28.2154C138.513 26.6754 137.975 25.1488 137.495 23.6043C137.405 23.3097 137.302 22.908 137.441 22.6357C137.585 22.3545 138.042 22.2741 138.23 22.3232C138.499 22.3946 138.8 22.6312 138.889 22.8767C139.356 24.1266 139.759 25.4032 140.181 26.6709C140.36 27.2066 140.544 27.7378 140.696 28.2823C140.782 28.5948 140.956 28.5993 141.207 28.5234C141.454 28.4475 141.701 28.3805 141.575 28.0324C141.499 27.8181 141.441 27.5994 141.364 27.3896C141.252 27.0771 141.225 26.7334 141.593 26.6397C141.862 26.5727 142.23 26.6218 142.458 26.7691C142.665 26.903 142.768 27.2244 142.871 27.4833C143.01 27.8315 143.118 28.1931 143.225 28.5546C143.31 28.8448 143.418 29.0233 143.781 28.9073C144.14 28.7912 144.225 28.6037 144.086 28.2734C144.037 28.1529 144.005 28.0234 143.956 27.8985C143.808 27.519 143.714 27.1485 144.221 26.97C144.687 26.8048 145.055 26.9834 145.261 27.403C145.436 27.7556 145.53 28.144 145.664 28.5145C145.763 28.7957 145.866 29.0769 145.978 29.3804C146.808 29.1974 146.794 29.2019 146.601 28.452C146.507 28.0949 146.158 27.653 146.812 27.4298C147.31 27.2557 147.731 27.4476 147.942 28.0681C148.408 29.4385 148.87 30.8133 149.247 32.2105C149.489 33.0988 149.431 34.0138 148.834 34.7994C148.498 35.2324 148.606 35.6743 148.736 36.1386Z" fill="white"/>
<path d="M134.016 19.7612C136.294 19.7612 138.141 17.9226 138.141 15.6545C138.141 13.3865 136.294 11.5479 134.016 11.5479C131.737 11.5479 129.891 13.3865 129.891 15.6545C129.891 17.9226 131.737 19.7612 134.016 19.7612Z" fill="white"/>
<path d="M134.015 6.42334C128.904 6.42334 124.743 10.5657 124.743 15.6544C124.743 20.7431 128.904 24.8855 134.015 24.8855C134.405 24.8855 134.813 24.8587 135.226 24.8051L135.589 24.756L135.472 24.4079C135.253 23.7517 135.037 23.0955 134.818 22.4393L134.741 22.2162L134.513 22.234C134.325 22.2474 134.168 22.2563 134.015 22.2563C130.361 22.2563 127.384 19.2968 127.384 15.6544C127.384 12.012 130.356 9.0525 134.015 9.0525C137.674 9.0525 140.647 12.012 140.647 15.6544C140.647 16.8105 140.337 17.9533 139.754 18.9576L139.678 19.0871L139.741 19.2254C139.875 19.5334 139.988 19.8727 140.082 20.145L140.162 20.386C140.292 20.7654 140.422 21.1538 140.552 21.5377L140.723 22.0465L141.073 21.6403C142.503 19.9709 143.292 17.8461 143.292 15.6544C143.292 10.5613 139.131 6.42334 134.015 6.42334Z" fill="white"/>
<path d="M139.168 5.09341L140.593 0.692136C140.759 0.169875 141.378 -0.0890237 141.934 0.120773C142.477 0.29486 142.79 0.843904 142.629 1.34385L141.203 5.74512C140.84 6.93695 138.764 6.27631 139.168 5.09341Z" fill="white"/>
<path d="M143.162 6.92313L146.687 3.91455C147.104 3.55745 147.767 3.66011 148.131 4.12881C148.503 4.56179 148.48 5.18672 148.081 5.53043L144.557 8.53901C143.62 9.36481 142.198 7.72214 143.162 6.92313Z" fill="white"/>
<path d="M145.444 10.4629L150.085 10.6548C150.637 10.6771 151.049 11.1994 150.995 11.7886C150.973 12.3555 150.524 12.8019 149.995 12.7796L145.355 12.5876C144.104 12.5564 144.193 10.387 145.444 10.4629Z" fill="white"/>
</svg>
