<svg width="703" height="108" viewBox="0 0 703 108" fill="none" xmlns="http://www.w3.org/2000/svg">
<mask id="mask0" mask-type="alpha" maskUnits="userSpaceOnUse" x="0" y="0" width="703" height="108">
<rect width="703" height="108" fill="#7F3A3A"/>
</mask>
<g mask="url(#mask0)">
<path d="M196.711 63.1101H185.832V39.844H184.22V63.1123H167.777V50.6945H166.739V63.1123H159.883V89.7229H146.126V96.4281H131.294V84.884H104.601V53.5167H100.425V50.3934H99.8291V53.5167H96.367V53.5144H79.0588V50.3934H78.4609V53.5144H73.949V69.2836L51.5309 69.1969V78.9318H32.5247V37.2683C30.5187 37.6835 18.3112 39.4744 6.57839 41.1673C6.45972 41.327 6.34104 41.4867 6.22237 41.6487C6.22241 80.2536 6.22237 121.754 0.499463 166.754C-0.614251 242.83 -5.50357 268.802 28.5012 268.813L432.426 268.922L698.017 269C730.83 269 755 244.254 730.5 201.527C688.489 217.254 699.583 166.007 699.583 117.254C697.597 86.3767 700.95 64.0774 699.583 18.7568H688.489V14.2464H687.818V18.7568H668.588V14.2464H667.917V18.7568H654.338V14.2464H653.662V18.7568H649.924V83.2254H632.725V48.3629H596.998V21.4466H562.075V41.8038H559.015V17.4792H554.633V14H554.113V17.4792H530.102V14H529.586V17.4792H526.341V63.1123H515.464V39.844H513.852V63.1123H497.402V50.6945H496.366V63.1123H489.506V89.7229H475.749V96.4281H460.919V84.884H434.226V53.5167H430.052V50.3934H429.454V53.5167H425.997V53.5144H408.689V50.3934H408.091V53.5144H403.579V69.2836L381.161 69.1969V78.9318H362.159V18.7568H357.186V14.2464H356.515V18.7568H344.417V14.2464H343.742V18.7568H324.514V14.2464H323.839V18.7568H310.262V14.2464H309.591V18.7568H305.848V83.2232H288.652V48.3629H267.366V21.4329H232.466L232.441 41.8038H229.381V17.4792H224.999V14H224.481V17.4792H200.47V14H199.949V17.4792H196.711V63.1101Z" fill="#3A487F"/>
</g>
</svg>
