<svg width="414" height="83" viewBox="0 0 414 83" fill="none" xmlns="http://www.w3.org/2000/svg">
<mask id="mask0" mask-type="alpha" maskUnits="userSpaceOnUse" x="0" y="0" width="414" height="83">
<rect width="414" height="83" fill="#C4C4C4"/>
</mask>
<g mask="url(#mask0)">
<path d="M-13.7798 60.1101H-2.90051V14.4792H0.337936V11H0.858292V14.4792H24.8693V11H25.3874V14.4792H29.7692V38.8038H32.8297L32.8547 18.4329H67.7542V45.3629H89.0403V80.2232H106.237V15.7568H109.979V11.2464H110.65V15.7568H124.227V11.2464H124.903V15.7568H144.13V11.2464H144.806V15.7568H156.904V11.2464H157.575V15.7568H162.548V75.9318H181.549V66.1969L203.967 66.2836V50.5144H208.479V47.3934H209.077V50.5144H226.385V50.5167H229.843V47.3934H230.441V50.5167H234.615V81.884H261.308V93.4281H276.137V86.7229H289.894V60.1123H296.755V47.6945H297.791V60.1123H314.241V36.844H315.852V60.1123H326.729V14.4792H329.975V11H330.49V14.4792H354.501V11H355.022V14.4792H359.404V38.8038H362.464V18.4466H397.386V45.3629H433.114V80.2254H450.313V15.7568H454.051V11.2464H454.726V15.7568H468.306V11.2464H468.977V15.7568H488.206V11.2464H488.877V15.7568H499.971C501.338 61.0774 497.986 83.3767 499.971 114.254C499.971 163.007 488.877 214.254 530.888 198.527C555.388 241.254 531.219 266 498.406 266L232.814 265.922L-171.11 265.813C-205.115 265.802 -224.614 274.603 -223.5 198.527C-217.777 153.527 -193.389 77.2536 -193.389 38.6487C-193.27 38.4867 -193.152 38.327 -193.033 38.1673C-181.3 36.4744 -169.093 34.6835 -167.087 34.2683V75.9318H-148.08V66.1969L-125.662 66.2836V50.5144H-121.151V47.3934H-120.553V50.5144H-103.244V50.5167H-99.7823V47.3934H-99.1866V50.5167H-95.0102V81.884H-68.3175V93.4281H-53.4855V86.7229H-39.7284V60.1123H-32.8727V47.6945H-31.8343V60.1123H-15.391V36.844H-13.7798V60.1101Z" fill="#3A487F"/>
</g>
</svg>
