<svg width="332" height="217" viewBox="0 0 332 217" fill="none" xmlns="http://www.w3.org/2000/svg">
<g clip-path="url(#clip0)">
<path d="M24.0477 216.788C24.0477 216.788 -13.773 176.769 10.3127 129.708C34.3985 82.6478 66.7198 106.329 65.1739 51.5441C63.6281 -3.24099 139.544 -7.92087 163.702 7.97269C187.859 23.8663 189.99 34.1011 239.874 27.7906C289.76 21.4778 312.959 68.1075 296.565 100.463C277.416 138.254 335.096 141.914 291.268 216.883L24.0477 216.788Z" fill="url(#paint0_linear)"/>
<path d="M104.543 144.801H99.9097L105.582 216.77H116.851L104.543 144.801Z" fill="#B7D3F3"/>
<path d="M196.673 123.802L195.679 124.002C191.25 124.9 186.894 122.002 186.001 117.563L184.95 112.353C184.054 107.915 186.946 103.548 191.374 102.653L192.369 102.452C196.797 101.555 201.153 104.453 202.047 108.891L203.097 114.101C203.993 118.54 201.101 122.904 196.673 123.802Z" fill="#FC6625"/>
<path d="M99.9097 144.801C99.9097 144.801 125.21 132.897 159.874 140.816L104.543 144.801H99.9097Z" fill="#B7D3F3"/>
<path d="M116.545 216.878L104.543 144.801C104.543 144.801 143.306 131.752 173.382 144.801L191.271 216.998L116.545 216.878Z" fill="#D2E3FC"/>
<path d="M227.321 217H156.49C155.444 214.456 154.524 211.738 153.72 208.908C151.702 201.828 150.392 194.027 149.56 186.386C149.548 186.289 149.537 186.189 149.528 186.092C148.099 172.838 148.09 160.088 148.284 152.429C148.394 147.997 148.57 145.268 148.581 145.135V145.131C148.732 145.065 148.885 145.004 149.035 144.943C152.791 143.365 156.393 142.002 159.847 140.823C159.865 140.818 159.877 140.816 159.877 140.816C162.779 139.824 165.574 138.967 168.261 138.229C172.986 136.928 177.383 135.994 181.449 135.344C186.242 134.584 190.58 134.224 194.468 134.14C194.644 134.133 194.815 134.133 194.99 134.129C196.017 134.111 197.009 134.115 197.972 134.136C207.668 134.343 214.119 136.278 217.382 137.568C217.836 137.746 218.226 137.916 218.55 138.067C218.592 138.085 218.635 138.103 218.678 138.121C219.047 138.285 219.333 138.425 219.533 138.527C219.558 138.538 219.587 138.552 219.612 138.57C219.708 138.619 219.801 138.673 219.891 138.728L224.999 192.532L227.321 217Z" fill="#3A487F"/>
<path d="M297.904 205.369C290.807 208.671 248.596 211.443 244.541 210.272C242.462 209.67 233.761 201.988 225.005 192.536C224.998 192.529 224.998 192.529 224.998 192.529C216.713 183.589 208.361 173.068 205.544 165.494C199.749 149.932 204.729 136.116 204.729 136.116C204.729 136.116 215.498 136.071 219.891 138.728C224.283 141.391 249.386 187.732 252.743 188.955C256.1 190.184 295.867 192.462 300.419 194.629C300.417 194.631 304.994 202.067 297.904 205.369Z" fill="#3A487F"/>
<path d="M194.972 138.635C194.972 138.635 195.697 146.829 185.632 148.04C175.567 149.256 167.934 144.871 168.198 138.549C169.098 133.653 170.088 130.29 170.148 126.237C170.166 125.087 170.108 123.885 169.955 122.577C170.344 123.202 170.785 123.774 171.271 124.295C177.531 131.048 190.962 129.562 195.006 128.932L194.981 136.017L194.972 138.635Z" fill="url(#paint1_linear)"/>
<path d="M195.033 121.844L195.006 128.933C190.962 129.562 177.531 131.048 171.271 124.295C170.785 123.774 170.344 123.202 169.955 122.577C169.907 122.173 169.849 121.758 169.784 121.332L189.288 120.912L195.033 121.844Z" fill="url(#paint2_linear)"/>
<path d="M195.033 121.844L195.006 128.932C190.962 129.562 177.531 131.048 171.271 124.295C170.38 122.852 169.849 121.751 169.784 121.332L195.033 121.844Z" fill="url(#paint3_linear)"/>
<path d="M196.183 128.729C196.183 128.729 195.755 128.817 195.006 128.932C190.962 129.562 177.531 131.048 171.271 124.295C170.785 123.774 170.344 123.202 169.955 122.577C169.179 121.336 168.6 119.884 168.283 118.188C165.356 102.551 160.16 92.6797 175.983 88.7644C191.802 84.8491 196.028 90.2304 198.271 95.2125C200.514 100.192 202.605 127 196.183 128.729Z" fill="url(#paint4_linear)"/>
<path d="M203.109 83.5838C203.109 83.5838 196.142 83.0583 187.92 79.4904C181.246 76.5945 172.837 79.8084 170.11 81.254C170.182 80.812 170.358 80.2098 170.774 79.6054C170.774 79.6054 169.55 80.4782 169.37 81.6984C169.244 81.7908 169.187 81.8562 169.219 81.8788C169.219 81.8788 167.828 81.6262 166.935 82.0299C166.935 82.0299 167.561 81.9397 167.783 82.3411C167.808 82.384 167.842 82.4201 167.885 82.4516C157.489 87.5059 156.555 103.986 159.908 107.793C163.942 112.374 168.787 122.699 168.787 122.699C168.787 122.699 170.544 120.256 169.806 116.219C169.068 112.184 172.547 112.177 176.937 110.337C181.327 108.494 177.659 103.363 181.498 100.237C185.337 97.1115 199.436 98.9248 199.25 96.5409C204.481 94.6193 203.111 84.1206 203.109 83.5838Z" fill="black"/>
<path d="M156.49 217C155.444 214.456 154.523 211.738 153.72 208.908C151.701 201.828 150.392 194.027 149.559 186.386C149.548 186.289 149.537 186.189 149.528 186.092C149.582 186.117 149.67 186.264 149.728 186.192C152.487 182.833 160.014 179.159 169.131 192.536C170.949 195.202 178.928 213.879 180.2 217H156.49Z" fill="#3A487F"/>
<path d="M163.891 217C163.686 215.793 163.913 214.273 164.852 212.379C164.852 212.379 166.019 211.619 167.572 210.735C169.885 209.426 173.047 207.843 174.48 208.098C174.737 208.145 175.083 208.22 175.495 208.321C178.895 209.138 186.818 211.585 188.015 213.017C189 214.197 190.346 215.696 191.271 217H163.891Z" fill="url(#paint5_linear)"/>
<path d="M169.131 217H102.392C102.214 216.141 102.205 215.349 102.441 214.749C104.433 209.708 108.316 201.413 112.792 192.509C116.084 185.959 119.691 179.083 123.095 172.932C127.823 164.391 132.154 157.249 134.699 154.319C136.704 152.016 139.238 150.081 141.88 148.487C144.121 147.133 146.441 146.021 148.578 145.133V145.128C148.729 145.063 148.882 145.002 149.033 144.941C153.68 143.053 157.363 142.226 157.363 142.226C157.363 142.226 157.413 144.339 157.417 147.589C157.431 157.019 157.071 176.018 154.069 180.655C153.232 181.947 151.675 183.9 149.726 186.189C149.67 186.255 149.616 186.318 149.557 186.383C148.502 187.624 147.334 188.957 146.108 190.328C139.141 198.147 130.321 207.334 129.245 208.45C129.171 208.524 129.135 208.565 129.135 208.565H129.263L147.978 208.827L153.718 208.906L165.619 209.07C166.44 209.424 167.081 210.008 167.57 210.732C168.724 212.422 169.077 214.878 169.131 217Z" fill="#3A487F"/>
<path d="M297.903 205.369C290.806 208.671 248.596 211.443 244.541 210.272C242.462 209.67 233.76 201.988 225.005 192.536C225.437 192.592 229.44 185.903 247.698 201.912C247.698 201.912 252.479 204.045 265.49 202.85C278.5 201.657 295.21 201.217 297.903 205.369Z" fill="#3A487F"/>
<path d="M256.435 216.871H208.181C208.181 214.742 209.902 213.015 212.026 213.015H256.435V216.871Z" fill="#ED7D2B"/>
<path d="M256.298 164.195H330.902L313.007 216.871H237.919L256.298 164.195Z" fill="#ED7D2B"/>
<path d="M332 164.195L314.107 216.871H239.017L257.396 164.195H332Z" fill="#F99746"/>
<path d="M332.001 164.195L314.107 216.871H279.176L321.015 164.195H332.001Z" fill="#ED7D2B"/>
<path d="M175.54 123.802L174.545 124.002C170.117 124.9 165.761 122.002 164.867 117.563L163.817 112.353C162.921 107.915 165.812 103.548 170.241 102.653L171.235 102.452C175.664 101.555 180.02 104.453 180.913 108.891L181.964 114.101C182.86 118.54 179.968 122.904 175.54 123.802Z" fill="#FC6625"/>
<path d="M167.802 105.037C167.136 103.833 166.159 94.1344 168.819 86.4121C170.104 82.6794 172.183 80.5526 174.791 79.116C175.733 78.5972 176.791 78.3198 177.867 78.3198L180.488 78.3627C171.859 82.0254 169.858 101.618 170.529 103.708C170.509 103.643 170.482 103.598 170.461 103.562L167.802 105.037Z" fill="#FC6625"/>
<path d="M192.987 125.432C178.483 125.432 171.305 113.943 171.233 113.828L172.529 113.034L171.881 113.431L172.529 113.034C172.597 113.143 179.356 123.912 192.987 123.912C193.077 123.912 193.17 123.912 193.262 123.91L193.278 125.432C193.181 125.432 193.084 125.432 192.987 125.432Z" fill="#FC6625"/>
<path d="M173.202 118.7L172.707 118.801C170.5 119.248 168.33 117.804 167.885 115.592L167.361 112.996C166.915 110.784 168.355 108.609 170.563 108.163L171.058 108.064C173.265 107.617 175.434 109.06 175.88 111.273L176.404 113.869C176.85 116.077 175.407 118.253 173.202 118.7Z" fill="#C4471C"/>
<path d="M194.79 125.94H193.422C192.725 125.94 192.155 125.369 192.155 124.67C192.155 123.971 192.725 123.4 193.422 123.4H194.79C195.486 123.4 196.057 123.971 196.057 124.67C196.057 125.369 195.488 125.94 194.79 125.94Z" fill="#FC6625"/>
<path d="M43.4641 107.324C43.4641 107.324 31.7408 113.332 40.2846 126.237C40.2846 126.237 30.2129 127.403 27.6792 124.501C27.6792 124.501 28.0617 125.773 28.5073 126.391C28.5073 126.391 18.7506 125.107 15.2538 121.402C11.7571 117.696 22.6591 68.3895 48.6485 78.48C48.6485 78.48 71.7554 80.5932 65.1984 106.697C58.6414 132.8 67.2551 134.251 67.2551 134.251C67.2551 134.251 64.6606 135.031 63.504 134.837C63.504 134.837 61.9222 133.906 61.7444 132.913C61.7444 132.913 61.8322 134.44 62.1877 134.981C62.1877 134.981 52.7415 134.3 48.6867 129.999C44.6319 125.703 41.2252 112.561 43.4641 107.324Z" fill="black"/>
<path d="M60.1985 120.222L59.2602 120.353C55.0816 120.935 51.1866 117.983 50.6061 113.792L49.9265 108.876C49.346 104.687 52.2915 100.783 56.4722 100.201L57.4106 100.071C61.5891 99.4887 65.4841 102.441 66.0624 106.629L66.742 111.546C67.3225 115.739 64.3771 119.64 60.1985 120.222Z" fill="#FC6625"/>
<path d="M62.8762 159.642C59.3772 162.348 57.1653 172.118 51.5241 173.731C30.3816 179.78 19.0341 154.614 15.3213 142.332C18.1542 140.509 20.8792 140 22.4566 139.729C23.9934 139.467 25.6135 139.262 26.9569 139.127C29.2565 137.169 32.4338 129.492 32.652 117.814C33.2596 118.932 34.0606 119.911 34.9944 120.768C39.2675 124.699 46.3128 126.075 50.4035 126.553C50.2978 128.26 50.1988 130.234 50.1538 132.162C50.0615 136.147 49.9333 137.101 50.2415 137.577C51.5714 137.796 53.1375 141.204 53.1375 141.204C53.1375 141.204 53.1397 141.208 53.1465 141.22C53.3918 141.578 58.6931 149.393 62.8762 159.642Z" fill="url(#paint6_linear)"/>
<path d="M50.7724 121.65C50.7724 121.65 50.7724 121.652 50.7724 121.654C50.7724 121.654 50.7724 121.666 50.7679 121.69C50.7679 121.704 50.7657 121.722 50.7634 121.742V121.756C50.7589 121.79 50.7567 121.835 50.7499 121.889C50.7409 122.011 50.7274 122.173 50.7094 122.376C50.7027 122.466 50.6936 122.566 50.6846 122.669C50.6801 122.717 50.6756 122.769 50.6734 122.818C50.6666 122.893 50.6599 122.972 50.6531 123.053C50.6396 123.233 50.6239 123.427 50.6081 123.632C50.6014 123.729 50.5924 123.831 50.5834 123.935V123.959C50.5744 124.063 50.5676 124.169 50.5586 124.28C50.5091 124.952 50.4551 125.721 50.4034 126.553C46.3126 126.075 39.2673 124.699 34.9943 120.768C34.0605 119.911 33.2594 118.932 32.6519 117.814C32.6519 117.766 32.6541 117.717 32.6541 117.669L33.6757 117.888L50.7724 121.65Z" fill="url(#paint7_linear)"/>
<path d="M50.7725 121.654C50.7725 121.654 50.7725 121.666 50.768 121.691C50.768 121.704 50.7658 121.72 50.7635 121.742V121.756C50.759 121.79 50.7568 121.835 50.75 121.889C50.741 122.011 50.7275 122.173 50.7095 122.376C50.7005 122.466 50.6938 122.563 50.6848 122.669C50.6803 122.717 50.6757 122.769 50.6735 122.818C50.6667 122.893 50.66 122.972 50.6532 123.053C50.6397 123.233 50.624 123.427 50.6082 123.632C50.5992 123.732 50.5925 123.831 50.5835 123.935V123.959C50.5745 124.063 50.5655 124.169 50.5587 124.28C50.5092 124.952 50.4552 125.721 50.4035 126.553C46.3127 126.075 39.2674 124.699 34.9944 120.768C34.4566 119.733 34.0223 118.752 33.6758 117.892L50.7725 121.654Z" fill="url(#paint8_linear)"/>
<path d="M137.728 210.523C137.728 210.523 127.674 210.892 116.756 210.931C115.465 210.938 114.157 210.938 112.857 210.931C103.966 210.892 95.2268 210.581 91.5096 209.62C87.8778 208.682 73.9043 199.189 62.721 187.692C62.7165 187.687 62.7165 187.685 62.7165 187.685C61.8502 189.755 61.1954 191.338 61.1774 191.465C60.8489 194.045 60.2998 196.634 59.636 199.117C57.1023 208.592 52.8765 216.547 52.7303 216.822L46.7426 216.813L0 216.743C0 216.743 8.82963 203.111 6.45796 168.187C6.39721 167.303 14.5968 139.124 14.5968 139.124C14.5968 139.124 20.967 138.008 28.3295 137.413C29.0248 138.049 30.4537 156.586 39.6636 157.657C41.1622 157.83 50.7704 172.542 50.7704 172.542L53.6798 157.515L50.2371 137.575C54.6564 138.872 57.0776 139.336 60.7521 140.809C63.252 141.815 65.3222 143.662 66.6138 146.028C73.0492 157.812 93.9307 195.827 96.0616 196.713C98.0575 197.541 105.58 199.05 113.539 200.507H113.545C124.195 202.455 135.628 204.307 135.628 204.307L137.728 210.523Z" fill="#FC6625"/>
<path d="M56.0719 216.824L52.7236 216.833C52.7236 216.833 52.7304 216.824 52.7349 216.82L56.0719 216.824Z" fill="#FC6625"/>
<path d="M53.6233 126.806C53.6233 126.806 52.3452 126.781 50.4033 126.553C46.3125 126.075 39.2672 124.699 34.9942 120.768C34.0604 119.911 33.2593 118.932 32.6517 117.814C31.7877 116.23 31.3084 114.365 31.3849 112.173C31.8799 97.9866 29.2788 88.3765 43.8148 88.0608C58.3508 87.7473 60.979 93.2594 61.9646 98.034C62.9479 102.809 59.5479 126.555 53.6233 126.806Z" fill="url(#paint9_linear)"/>
<path d="M116.759 210.931C115.467 210.938 114.16 210.938 112.859 210.931C103.969 210.892 95.2291 210.581 91.5118 209.62C87.8801 208.682 73.9066 199.189 62.7232 187.692C62.7187 187.687 62.7188 187.685 62.7188 187.685C62.7188 187.685 65.0769 178.634 66.094 177.118C67.1111 175.6 71.1231 190.326 80.495 196.318C89.867 202.309 104.536 206.508 111.658 204.81C116.457 203.664 116.948 207.988 116.759 210.931Z" fill="#C4471C"/>
<path d="M50.3876 124.645C37.4717 120.554 34.3035 108.3 34.272 108.176L35.6491 107.834L34.9605 108.005L35.6491 107.834C35.6783 107.951 38.6755 119.446 50.8152 123.29C50.8962 123.314 50.9772 123.341 51.0604 123.366L50.6464 124.726C50.5609 124.699 50.4731 124.672 50.3876 124.645Z" fill="#FC6625"/>
<path d="M51.8505 125.606L50.6331 125.22C50.0121 125.024 49.6656 124.354 49.8613 123.732C50.0571 123.109 50.7254 122.762 51.3464 122.958L52.5638 123.344C53.1848 123.54 53.5313 124.21 53.3356 124.832C53.1398 125.452 52.4715 125.802 51.8505 125.606Z" fill="#FC6625"/>
<path d="M54.9127 86.1775C54.9127 86.1775 49.0916 103.458 40.361 106.39C31.6303 109.322 28.7344 105.851 28.7344 105.851C28.7344 105.851 35.1676 99.9285 35.9056 90.3432C35.9079 90.3454 50.0141 79.1137 54.9127 86.1775Z" fill="black"/>
<path d="M44.0444 91.2656C44.0444 91.2656 55.8983 90.6003 59.44 93.9811C61.994 96.4214 61.9355 97.6934 62.1335 100.946C62.1335 100.946 67.3178 92.9324 61.9827 87.3233C56.3258 81.3759 44.0444 91.2656 44.0444 91.2656Z" fill="black"/>
<path d="M54.4091 88.0066C54.4091 88.0066 51.4411 104.541 40.5908 110.547C40.5908 110.547 51.1013 99.7661 51.2881 88.9787C51.4726 78.1913 54.4091 88.0066 54.4091 88.0066Z" fill="black"/>
<path d="M15.2516 121.4C18.7461 125.107 28.5028 126.391 28.5028 126.391C28.0573 125.773 27.6793 124.498 27.6793 124.498C32.6949 128.574 45.01 125.615 45.01 125.615C35.1858 123.441 38.3676 109.23 41.709 108.625C43.6554 97.9077 47.519 84.5649 49.3258 78.5724C48.8916 78.5003 48.644 78.4777 48.644 78.4777C22.6592 68.3895 11.7571 117.696 15.2516 121.4Z" fill="black"/>
<path d="M36.5923 118.765L35.654 118.896C31.4754 119.478 27.5804 116.526 27.0021 112.335L26.3225 107.419C25.742 103.23 28.6875 99.3263 32.866 98.7444L33.8043 98.6136C37.9829 98.0317 41.8779 100.984 42.4584 105.174L43.138 110.091C43.7163 114.279 40.7708 118.183 36.5923 118.765Z" fill="#FC6625"/>
<path d="M30.454 100.826C29.896 99.7774 31.8536 91.6332 34.7293 85.316C36.1199 82.2622 39.6302 78.1755 42.1346 77.1222C43.0414 76.7411 44.243 76.8967 45.2218 77.12C45.9351 77.2824 47.931 78.2161 47.931 78.2161C39.6977 80.7872 32.5444 98.0813 33.062 99.8721C33.0462 99.818 33.0237 99.7751 33.008 99.7458L30.454 100.826Z" fill="#FC6625"/>
<path d="M34.7045 113.873L34.2365 113.939C32.1551 114.227 30.2132 112.757 29.9252 110.671L29.5854 108.221C29.2974 106.135 30.7645 104.189 32.8459 103.9L33.3139 103.835C35.3953 103.546 37.3372 105.017 37.6253 107.103L37.965 109.552C38.2553 111.641 36.7882 113.585 34.7045 113.873Z" fill="#C4471C"/>
<path d="M29.6726 134.693C29.6726 134.693 23.1539 136.598 21.6665 138.098C21.6665 138.098 28.4822 155.562 38.3087 163.712L40.9346 161.845V166.09L50.7723 172.542C50.7723 172.544 29.1685 139.977 29.6726 134.693Z" fill="#C4471C"/>
<path d="M59.6382 199.115C57.1045 208.59 52.8787 216.544 52.7325 216.82L56.0695 216.824L52.7212 216.833H21.6668C21.6668 216.833 25.2693 216.826 25.2625 216.811C25.177 216.495 30.5144 201.995 21.6668 196.05C12.8034 190.096 9.58789 175.456 9.58789 175.456L37.7937 168.55C37.7937 168.55 49.4157 185.547 52.7235 188.788C55.2639 191.275 61.1818 191.462 61.1818 191.462L59.6382 199.115Z" fill="#C4471C"/>
<path d="M50.2418 137.575C50.2418 137.575 53.2413 161.335 50.7751 172.542C50.7751 172.542 54.8029 165.127 55.3654 163.769L54.6881 159.693L57.2848 160.598C57.2848 160.598 54.9941 141.655 52.9195 138.333C50.8471 135.013 50.082 134.69 50.082 134.69L50.2418 137.575Z" fill="#C4471C"/>
<path d="M137.728 210.523C137.728 210.523 125.149 210.987 112.857 210.931C109.808 206.19 113.541 200.507 113.541 200.507H113.547C124.197 202.455 135.631 204.307 135.631 204.307L137.728 210.523Z" fill="url(#paint10_linear)"/>
<path d="M138.921 216.833H92.439C92.439 214.783 94.0973 213.119 96.145 213.119H138.923V216.833H138.921Z" fill="#ED7D2B"/>
<path d="M210.653 166.092L193.417 216.835H121.083L138.788 166.092H210.653Z" fill="#ED7D2B"/>
<path d="M210.653 166.092L193.575 216.364L193.417 216.835H122.141L139.845 166.092H210.653Z" fill="#F99746"/>
<path d="M210.653 166.092L193.575 216.364H160.826L200.757 166.092H210.653Z" fill="#ED7D2B"/>
<path d="M111.129 212.376C111.129 212.376 110.2 212.634 109.779 212.257C109.365 211.885 106.277 208.596 106.181 208.493L109.446 213.466C109.446 213.466 108.316 213.416 107.868 212.922C107.418 212.426 104.367 209.316 104.367 209.316L103.325 209.111C103.325 209.111 104.385 209.961 104.959 210.732C105.535 211.504 105.915 212.331 105.915 212.331C105.915 212.331 104.984 212.174 104.693 212.036C104.412 211.901 101.836 209.643 101.674 209.501L103.118 211.479C103.118 211.479 102.139 211.429 101.818 211.213C101.496 210.994 99.3627 209.025 98.9847 209.03C98.6067 209.034 95.884 208.921 94.7161 208.299C93.5461 207.679 89.876 206.255 89.876 206.255C89.5925 206.28 65.8691 208.346 52.7236 207.76V194.735C61.389 197.132 89.867 202.309 89.867 202.309V202.311C89.867 202.311 99.6147 201.747 100.564 202.259C102.101 203.091 107.337 206.472 108.159 207.453C108.98 208.434 111.129 212.376 111.129 212.376Z" fill="url(#paint11_linear)"/>
<path d="M21.6669 138.098C21.6669 138.098 7.98145 138.41 3.74665 142.995C-0.488156 147.58 7.94995 173.494 7.94995 173.494C7.94995 173.494 33.4578 204.807 46.2184 207.015C46.2184 207.015 51.7943 207.78 54.3978 207.821C54.3978 207.821 51.8461 200.373 56.5917 195.698C56.5917 195.698 51.1283 194.167 50.901 193.486C50.676 192.807 21.6669 138.098 21.6669 138.098Z" fill="#FC6625"/>
<path d="M267.749 189.117C267.704 189.07 267.632 189.036 267.54 189.02C267.308 188.977 266.966 188.975 266.638 189.027C266.566 189.038 266.503 189.047 266.444 189.056L264.03 195.707C263.971 195.872 263.942 196 263.949 196.093C263.953 196.176 263.976 196.239 264.021 196.284C264.066 196.332 264.138 196.366 264.23 196.381C264.462 196.424 264.804 196.427 265.132 196.375C265.204 196.363 265.267 196.354 265.326 196.343L267.74 189.692C267.799 189.527 267.828 189.399 267.821 189.306C267.817 189.225 267.794 189.162 267.749 189.117Z" fill="white"/>
<path d="M279.162 191.596C279.011 191.363 278.802 191.185 278.539 191.063C278.273 190.941 277.965 190.878 277.621 190.878C277.423 190.878 277.236 190.892 277.063 190.921C276.892 190.95 276.7 191 276.493 191.075L276.118 191.205L276.667 189.694C276.727 189.527 276.757 189.397 276.754 189.302C276.752 189.221 276.732 189.162 276.689 189.117C276.644 189.07 276.572 189.036 276.48 189.02C276.365 189 276.223 188.988 276.066 188.988C275.899 188.988 275.728 189.002 275.557 189.027C275.483 189.038 275.422 189.047 275.371 189.058L273.152 195.166C273.042 195.473 273.089 195.716 273.298 195.915C273.469 196.081 273.708 196.224 274.005 196.339C274.3 196.451 274.698 196.51 275.188 196.51C275.641 196.51 276.082 196.449 276.496 196.327C276.901 196.208 277.276 196.034 277.607 195.804C277.938 195.578 278.237 195.288 278.503 194.94C278.773 194.588 278.996 194.167 279.169 193.689C279.338 193.226 279.416 192.813 279.405 192.464C279.396 192.119 279.313 191.826 279.162 191.596ZM276.784 194.942C276.426 195.249 276.023 195.403 275.587 195.403C275.382 195.403 275.218 195.382 275.089 195.339C274.961 195.299 274.855 195.242 274.774 195.175L274.689 195.105L275.726 192.247L275.886 192.184C276.057 192.117 276.212 192.062 276.352 192.029C276.5 191.99 276.664 191.972 276.842 191.972C277.261 191.972 277.544 192.126 277.688 192.423C277.826 192.71 277.792 193.136 277.592 193.689C277.398 194.23 277.126 194.652 276.784 194.942Z" fill="white"/>
<path d="M284.185 190.881H282.551L282.958 189.762C283.044 189.525 283.123 189.223 283.015 189.119C282.902 189.011 282.693 188.955 282.394 188.955C282.227 188.955 282.063 188.968 281.905 188.997C281.835 189.011 281.775 189.022 281.718 189.033L279.732 194.507C279.473 195.218 279.448 195.73 279.655 196.03C279.869 196.341 280.299 196.499 280.931 196.499C281.561 196.499 281.892 196.359 282.056 196.244C282.286 196.081 282.439 195.885 282.533 195.626C282.578 195.5 282.598 195.394 282.594 195.31C282.589 195.265 282.585 195.22 282.578 195.177C282.511 195.193 282.439 195.209 282.367 195.22C282.22 195.245 282.081 195.256 281.95 195.256C281.662 195.256 281.462 195.193 281.338 195.064C281.239 194.963 281.149 194.753 281.298 194.349L282.124 192.074H283.438C283.577 192.074 283.699 192.033 283.804 191.945C283.908 191.862 284.007 191.697 284.092 191.465C284.146 191.318 284.176 191.183 284.185 191.063C284.185 190.996 284.185 190.935 284.185 190.881Z" fill="white"/>
<path d="M289.409 191.528C289.259 191.329 289.043 191.169 288.773 191.054C288.5 190.939 288.165 190.881 287.778 190.881C287.436 190.881 287.076 190.935 286.707 191.041C286.347 191.144 286 191.307 285.67 191.526C285.343 191.742 285.037 192.024 284.758 192.365C284.479 192.705 284.25 193.122 284.074 193.607C283.897 194.099 283.816 194.534 283.84 194.895C283.863 195.254 283.969 195.556 284.149 195.791C284.331 196.027 284.587 196.208 284.909 196.327C285.235 196.449 285.625 196.51 286.061 196.51C286.324 196.51 286.617 196.487 286.937 196.442C287.24 196.399 287.528 196.316 287.798 196.196C288.098 196.063 288.282 195.881 288.379 195.617C288.419 195.502 288.428 195.398 288.401 195.292C288.383 195.227 288.361 195.17 288.327 195.121C288.122 195.209 287.888 195.288 287.627 195.355C287.288 195.443 286.941 195.488 286.597 195.488C286.216 195.488 285.897 195.414 285.652 195.27C285.382 195.112 285.251 194.868 285.26 194.546L285.269 194.275L288.64 193.797C288.869 193.765 289.061 193.695 289.214 193.587C289.349 193.492 289.45 193.348 289.522 193.147C289.641 192.822 289.688 192.516 289.666 192.241C289.646 191.963 289.56 191.724 289.409 191.528ZM285.499 193.429L285.625 193.129C285.688 192.983 285.771 192.834 285.874 192.692C285.982 192.541 286.113 192.405 286.264 192.283C286.417 192.159 286.594 192.058 286.79 191.981C286.986 191.905 287.2 191.866 287.423 191.866C287.78 191.866 288.023 191.97 288.145 192.177C288.257 192.371 288.293 192.572 288.248 192.78L288.199 193.014L285.499 193.429Z" fill="white"/>
<path d="M295.51 191.417C295.206 191.061 294.632 190.878 293.802 190.878C293.331 190.878 292.879 190.935 292.456 191.05C292.038 191.163 291.669 191.307 291.36 191.483C291.194 191.577 291.05 191.681 290.935 191.792C290.838 191.886 290.757 192.017 290.699 192.184L289.391 195.781C289.331 195.948 289.301 196.079 289.308 196.174C289.313 196.257 289.335 196.321 289.38 196.368C289.425 196.415 289.497 196.449 289.589 196.467C289.706 196.487 289.844 196.499 290.003 196.499C290.172 196.499 290.343 196.487 290.507 196.465C290.577 196.456 290.636 196.447 290.683 196.44L292.168 192.347L292.294 192.274C292.463 192.177 292.647 192.105 292.848 192.058C293.037 192.013 293.221 191.99 293.397 191.99C293.689 191.99 293.901 192.067 294.027 192.22C294.162 192.385 294.171 192.631 294.054 192.953L293.025 195.784C292.965 195.951 292.935 196.081 292.942 196.176C292.947 196.26 292.969 196.323 293.014 196.37C293.059 196.417 293.131 196.451 293.223 196.469C293.34 196.49 293.478 196.501 293.637 196.501C293.806 196.501 293.977 196.49 294.141 196.467C294.211 196.458 294.27 196.449 294.317 196.442L295.609 192.883C295.84 192.245 295.807 191.767 295.51 191.417Z" fill="white"/>
<path d="M301.787 191.447C301.614 191.282 301.376 191.144 301.074 191.038C300.77 190.932 300.404 190.878 299.981 190.878C299.567 190.878 299.159 190.932 298.77 191.038C298.392 191.142 298.036 191.3 297.717 191.508C297.4 191.713 297.109 191.979 296.857 192.295C296.601 192.615 296.389 193.003 296.23 193.443C296.065 193.896 295.989 194.286 296.007 194.609C296.023 194.927 296.104 195.188 296.245 195.387C296.387 195.585 296.585 195.734 296.835 195.827C297.094 195.924 297.388 195.973 297.715 195.973C298.144 195.973 298.531 195.91 298.869 195.781L299.258 195.635L299.058 196.187C298.914 196.584 298.631 196.893 298.237 197.074C297.892 197.234 297.481 197.315 297.017 197.315C296.689 197.315 296.383 197.268 296.108 197.175C295.897 197.105 295.705 197.02 295.539 196.92C295.496 196.959 295.449 197.004 295.404 197.054C295.309 197.155 295.239 197.275 295.19 197.417C295.068 197.755 295.136 197.983 295.406 198.134C295.717 198.31 296.218 198.398 296.896 198.398C297.292 198.398 297.681 198.353 298.059 198.265C298.423 198.179 298.768 198.044 299.078 197.863C299.382 197.687 299.657 197.462 299.895 197.193C300.131 196.927 300.318 196.602 300.453 196.23L301.945 192.123C302.004 191.961 302.019 191.832 301.99 191.74C301.956 191.638 301.889 191.537 301.787 191.447ZM299.596 194.615L299.479 194.685C299.182 194.868 298.84 194.961 298.464 194.961C298.099 194.961 297.838 194.834 297.69 194.588C297.541 194.34 297.559 193.966 297.748 193.445C297.915 192.987 298.165 192.624 298.489 192.367C298.824 192.098 299.227 191.965 299.681 191.965C299.861 191.965 300.01 191.986 300.125 192.022C300.237 192.058 300.318 192.096 300.374 192.137L300.471 192.204L299.596 194.615Z" fill="white"/>
<path d="M272.808 191.643C272.648 191.404 272.416 191.214 272.119 191.081C271.82 190.948 271.449 190.878 271.017 190.878C270.582 190.878 270.164 190.944 269.765 191.077C269.374 191.205 269.007 191.393 268.672 191.632C268.339 191.871 268.037 192.166 267.776 192.511C267.513 192.859 267.299 193.255 267.142 193.689C266.982 194.128 266.906 194.53 266.919 194.877C266.93 195.222 267.016 195.518 267.176 195.757C267.335 195.996 267.567 196.183 267.864 196.312C268.166 196.442 268.539 196.51 268.971 196.51C269.405 196.51 269.826 196.447 270.222 196.323C270.609 196.201 270.974 196.021 271.307 195.784C271.638 195.549 271.937 195.254 272.2 194.906C272.466 194.555 272.684 194.144 272.85 193.689C273.003 193.265 273.078 192.872 273.066 192.525C273.053 192.18 272.967 191.882 272.808 191.643ZM270.519 194.922C270.182 195.247 269.788 195.416 269.381 195.416C268.976 195.416 268.701 195.249 268.589 194.933C268.481 194.638 268.526 194.219 268.719 193.689C268.908 193.168 269.165 192.753 269.482 192.457C269.822 192.139 270.216 191.972 270.621 191.972C271.026 191.972 271.298 192.139 271.406 192.457C271.507 192.753 271.464 193.168 271.275 193.689C271.084 194.207 270.83 194.622 270.519 194.922Z" fill="white"/>
<path d="M307.377 199.751C307.384 199.688 307.417 199.595 307.471 199.543C307.777 199.246 307.912 198.916 307.946 198.594C307.993 198.145 308.011 197.703 308.009 197.268C308.007 196.959 307.768 196.846 307.426 196.968C307.312 197.008 307.264 196.986 307.219 196.923C307.111 196.772 306.922 196.751 306.7 196.832C306.585 196.873 306.524 196.869 306.475 196.796C306.378 196.661 306.209 196.609 306.002 196.704C305.862 196.769 305.851 196.684 305.853 196.663C305.862 196.415 305.874 196.167 305.878 195.921C305.88 195.815 305.887 195.703 305.858 195.61C305.79 195.396 305.541 195.337 305.266 195.452C304.992 195.567 304.807 195.831 304.794 196.129C304.776 196.63 304.762 197.128 304.744 197.629C304.737 197.802 304.724 197.978 304.715 198.154C304.715 198.154 304.715 198.186 304.706 198.192C304.69 198.199 304.674 198.179 304.672 198.179C304.569 198.105 304.472 198.023 304.364 197.956C304.193 197.847 303.894 197.904 303.684 198.077C303.462 198.262 303.36 198.495 303.439 198.702C303.48 198.81 303.547 198.905 303.626 198.984C303.765 199.126 303.932 199.243 304.067 199.388C304.476 199.828 304.917 200.249 304.857 200.996C304.845 201.138 304.908 201.152 305.052 201.109C305.761 200.897 306.472 200.691 307.181 200.488C307.3 200.455 307.345 200.405 307.348 200.301C307.348 200.121 307.354 199.938 307.377 199.751ZM307.078 199.837C307.066 199.976 307.098 200.146 307.015 200.247C306.94 200.337 306.731 200.358 306.583 200.4C306.155 200.527 305.727 200.649 305.302 200.773C305.221 200.795 305.136 200.829 305.14 200.723C305.165 200.134 304.839 199.767 304.517 199.399C304.328 199.183 304.101 198.998 303.896 198.795C303.831 198.729 303.772 198.653 303.727 198.569C303.678 198.479 303.687 198.371 303.817 198.262C303.952 198.154 304.08 198.134 304.175 198.206C304.33 198.328 304.47 198.461 304.625 198.58C304.677 198.619 304.74 198.689 304.823 198.65C304.911 198.61 304.96 198.479 304.969 198.407C305.005 198.082 305.021 197.764 305.037 197.446C305.057 196.981 305.064 196.521 305.088 196.057C305.093 195.969 305.106 195.847 305.178 195.766C305.253 195.68 305.399 195.657 305.448 195.671C305.52 195.691 305.586 195.763 305.586 195.838C305.588 196.215 305.57 196.598 305.556 196.979C305.552 197.139 305.55 197.302 305.534 197.464C305.525 197.559 305.577 197.559 305.66 197.536C305.743 197.514 305.822 197.493 305.822 197.39C305.822 197.326 305.829 197.259 305.829 197.196C305.829 197.101 305.858 196.997 305.98 196.97C306.067 196.95 306.173 196.963 306.225 197.008C306.272 197.049 306.268 197.146 306.272 197.225C306.277 197.329 306.268 197.439 306.261 197.547C306.254 197.635 306.268 197.687 306.389 197.653C306.511 197.62 306.556 197.561 306.549 197.462C306.547 197.426 306.551 197.385 306.551 197.349C306.549 197.234 306.56 197.123 306.733 197.069C306.891 197.017 306.981 197.074 306.997 197.2C307.01 197.306 306.997 197.423 306.994 197.536C306.994 197.62 306.994 197.705 306.992 197.798C307.26 197.741 307.255 197.744 307.28 197.518C307.291 197.41 307.235 197.277 307.453 197.209C307.622 197.157 307.726 197.214 307.723 197.401C307.712 197.814 307.701 198.229 307.66 198.648C307.636 198.916 307.519 199.192 307.253 199.428C307.107 199.564 307.089 199.699 307.078 199.837Z" fill="white"/>
<path d="M304.46 194.904C305.142 194.904 305.898 194.349 306.146 193.668C306.393 192.985 306.042 192.432 305.358 192.432C304.676 192.432 303.92 192.987 303.673 193.668C303.425 194.352 303.779 194.904 304.46 194.904Z" fill="white"/>
<path d="M305.919 190.887C304.386 190.887 302.688 192.135 302.132 193.668C301.576 195.202 302.368 196.449 303.9 196.449C304.017 196.449 304.143 196.44 304.272 196.424L304.386 196.411L304.391 196.307C304.398 196.109 304.404 195.912 304.411 195.714L304.413 195.646L304.341 195.653C304.283 195.657 304.236 195.66 304.191 195.66C303.095 195.66 302.528 194.767 302.926 193.67C303.324 192.574 304.539 191.681 305.635 191.681C306.731 191.681 307.298 192.574 306.9 193.67C306.774 194.02 306.556 194.363 306.27 194.665L306.232 194.703L306.234 194.746C306.241 194.839 306.238 194.94 306.236 195.024L306.234 195.096C306.232 195.211 306.229 195.326 306.225 195.443L306.22 195.597L306.369 195.475C306.981 194.972 307.449 194.331 307.687 193.673C308.245 192.135 307.453 190.887 305.919 190.887Z" fill="white"/>
<path d="M307.609 190.488L308.518 189.162C308.624 189.004 308.837 188.927 308.981 188.991C309.125 189.042 309.157 189.207 309.056 189.358L308.147 190.684C307.906 191.043 307.359 190.842 307.609 190.488Z" fill="white"/>
<path d="M308.606 191.038L309.992 190.132C310.156 190.024 310.343 190.055 310.399 190.195C310.464 190.326 310.388 190.513 310.23 190.617L308.846 191.523C308.475 191.774 308.23 191.28 308.606 191.038Z" fill="white"/>
<path d="M308.9 192.103L310.268 192.162C310.43 192.168 310.498 192.326 310.417 192.504C310.347 192.676 310.165 192.809 310.01 192.802L308.641 192.743C308.27 192.734 308.533 192.083 308.9 192.103Z" fill="white"/>
<path d="M148.383 187.306C148.338 187.258 148.266 187.225 148.173 187.209C147.942 187.166 147.599 187.164 147.271 187.216C147.199 187.227 147.136 187.236 147.077 187.245L144.663 193.896C144.605 194.061 144.575 194.189 144.582 194.282C144.587 194.365 144.609 194.428 144.654 194.473C144.699 194.521 144.771 194.555 144.863 194.57C145.095 194.613 145.437 194.615 145.766 194.564C145.838 194.552 145.901 194.543 145.959 194.532L148.374 187.881C148.432 187.716 148.461 187.588 148.455 187.495C148.45 187.414 148.428 187.351 148.383 187.306Z" fill="white"/>
<path d="M159.795 189.784C159.645 189.552 159.435 189.374 159.172 189.252C158.907 189.13 158.598 189.067 158.254 189.067C158.056 189.067 157.869 189.081 157.696 189.11C157.525 189.139 157.334 189.189 157.127 189.264L156.751 189.394L157.3 187.883C157.361 187.716 157.39 187.586 157.388 187.491C157.385 187.41 157.365 187.351 157.322 187.306C157.277 187.258 157.205 187.225 157.113 187.209C156.998 187.189 156.857 187.177 156.699 187.177C156.533 187.177 156.362 187.191 156.191 187.216C156.116 187.227 156.056 187.236 156.004 187.247L153.785 193.355C153.675 193.661 153.722 193.905 153.931 194.104C154.103 194.27 154.341 194.413 154.638 194.528C154.933 194.64 155.331 194.699 155.822 194.699C156.274 194.699 156.715 194.638 157.129 194.516C157.534 194.397 157.91 194.223 158.241 193.993C158.571 193.767 158.871 193.477 159.136 193.129C159.406 192.777 159.629 192.356 159.802 191.877C159.971 191.415 160.05 191.002 160.038 190.653C160.029 190.308 159.946 190.015 159.795 189.784ZM157.417 193.131C157.059 193.438 156.656 193.592 156.22 193.592C156.015 193.592 155.851 193.571 155.723 193.528C155.594 193.488 155.489 193.431 155.408 193.364L155.322 193.294L156.359 190.436L156.519 190.373C156.69 190.306 156.845 190.251 156.985 190.218C157.133 190.179 157.298 190.161 157.475 190.161C157.894 190.161 158.178 190.315 158.322 190.612C158.459 190.899 158.425 191.325 158.225 191.877C158.031 192.419 157.759 192.841 157.417 193.131Z" fill="white"/>
<path d="M164.817 189.07H163.184L163.591 187.951C163.677 187.714 163.755 187.412 163.647 187.308C163.535 187.2 163.326 187.143 163.026 187.143C162.86 187.143 162.696 187.157 162.538 187.186C162.468 187.2 162.408 187.211 162.351 187.222L160.364 192.696C160.106 193.407 160.081 193.919 160.288 194.219C160.502 194.53 160.931 194.688 161.564 194.688C162.194 194.688 162.525 194.548 162.689 194.433C162.918 194.27 163.071 194.074 163.166 193.815C163.211 193.689 163.231 193.583 163.227 193.499C163.222 193.454 163.218 193.409 163.211 193.366C163.143 193.382 163.071 193.398 162.999 193.409C162.853 193.434 162.714 193.445 162.583 193.445C162.295 193.445 162.095 193.382 161.971 193.253C161.872 193.152 161.782 192.942 161.931 192.538L162.756 190.263H164.07C164.21 190.263 164.331 190.222 164.437 190.134C164.541 190.051 164.64 189.886 164.725 189.654C164.779 189.507 164.808 189.372 164.817 189.252C164.817 189.185 164.82 189.124 164.817 189.07Z" fill="white"/>
<path d="M170.043 189.717C169.892 189.518 169.676 189.358 169.406 189.243C169.134 189.128 168.798 189.07 168.411 189.07C168.069 189.07 167.709 189.124 167.34 189.23C166.98 189.333 166.634 189.496 166.303 189.715C165.977 189.931 165.671 190.213 165.392 190.554C165.113 190.894 164.883 191.311 164.708 191.796C164.53 192.288 164.449 192.723 164.474 193.084C164.498 193.443 164.602 193.745 164.782 193.979C164.964 194.216 165.221 194.397 165.542 194.516C165.869 194.638 166.258 194.699 166.695 194.699C166.958 194.699 167.25 194.676 167.57 194.631C167.874 194.588 168.162 194.505 168.432 194.385C168.731 194.252 168.915 194.07 169.012 193.806C169.053 193.691 169.062 193.587 169.035 193.481C169.017 193.416 168.994 193.359 168.96 193.31C168.756 193.398 168.522 193.477 168.261 193.544C167.921 193.632 167.574 193.677 167.23 193.677C166.85 193.677 166.53 193.603 166.285 193.458C166.015 193.301 165.884 193.057 165.893 192.734L165.902 192.464L169.273 191.986C169.503 191.954 169.694 191.884 169.847 191.776C169.982 191.681 170.083 191.537 170.155 191.336C170.275 191.011 170.322 190.705 170.299 190.43C170.281 190.152 170.194 189.913 170.043 189.717ZM166.132 191.618L166.258 191.318C166.321 191.172 166.404 191.023 166.508 190.881C166.616 190.729 166.746 190.594 166.897 190.472C167.05 190.348 167.228 190.247 167.424 190.17C167.619 190.093 167.833 190.055 168.056 190.055C168.414 190.055 168.657 190.159 168.778 190.366C168.891 190.56 168.927 190.761 168.882 190.969L168.832 191.203L166.132 191.618Z" fill="white"/>
<path d="M176.143 189.606C175.839 189.25 175.265 189.067 174.435 189.067C173.965 189.067 173.512 189.124 173.089 189.239C172.671 189.351 172.302 189.496 171.994 189.672C171.827 189.766 171.683 189.87 171.568 189.981C171.471 190.075 171.39 190.206 171.332 190.373L170.025 193.97C169.964 194.137 169.935 194.268 169.941 194.363C169.946 194.446 169.968 194.509 170.013 194.557C170.058 194.604 170.13 194.638 170.223 194.656C170.34 194.676 170.477 194.688 170.637 194.688C170.805 194.688 170.976 194.676 171.141 194.654C171.21 194.645 171.269 194.636 171.316 194.629L172.801 190.536L172.927 190.463C173.096 190.366 173.281 190.294 173.481 190.247C173.67 190.202 173.854 190.179 174.03 190.179C174.322 190.179 174.534 190.256 174.66 190.409C174.795 190.574 174.804 190.82 174.687 191.142L173.659 193.973C173.598 194.14 173.569 194.27 173.575 194.365C173.58 194.449 173.602 194.512 173.647 194.559C173.692 194.606 173.764 194.64 173.857 194.658C173.971 194.679 174.111 194.69 174.271 194.69C174.439 194.69 174.61 194.679 174.775 194.656C174.844 194.647 174.903 194.638 174.95 194.631L176.242 191.072C176.474 190.434 176.44 189.956 176.143 189.606Z" fill="white"/>
<path d="M182.421 189.633C182.247 189.469 182.009 189.331 181.707 189.225C181.404 189.119 181.037 189.065 180.614 189.065C180.2 189.065 179.793 189.119 179.403 189.225C179.025 189.329 178.67 189.487 178.35 189.694C178.033 189.9 177.743 190.166 177.491 190.481C177.234 190.802 177.023 191.19 176.863 191.629C176.699 192.083 176.622 192.473 176.64 192.795C176.656 193.113 176.737 193.375 176.879 193.574C177.02 193.772 177.218 193.921 177.468 194.013C177.727 194.11 178.022 194.16 178.348 194.16C178.778 194.16 179.165 194.097 179.502 193.968L179.892 193.822L179.691 194.374C179.547 194.771 179.264 195.08 178.87 195.261C178.526 195.421 178.114 195.502 177.65 195.502C177.322 195.502 177.016 195.454 176.741 195.362C176.53 195.292 176.339 195.206 176.172 195.107C176.129 195.145 176.082 195.191 176.037 195.24C175.943 195.342 175.873 195.461 175.823 195.603C175.702 195.942 175.769 196.169 176.039 196.321C176.35 196.496 176.852 196.584 177.529 196.584C177.925 196.584 178.314 196.539 178.692 196.451C179.057 196.366 179.401 196.23 179.712 196.05C180.015 195.874 180.29 195.648 180.528 195.38C180.765 195.114 180.951 194.789 181.086 194.417L182.578 190.31C182.637 190.148 182.653 190.019 182.623 189.927C182.59 189.827 182.522 189.726 182.421 189.633ZM180.229 192.804L180.112 192.874C179.815 193.057 179.473 193.149 179.097 193.149C178.733 193.149 178.472 193.023 178.323 192.777C178.175 192.529 178.193 192.155 178.382 191.634C178.548 191.176 178.798 190.813 179.122 190.556C179.457 190.287 179.86 190.154 180.315 190.154C180.495 190.154 180.643 190.172 180.758 190.211C180.87 190.247 180.951 190.285 181.008 190.326L181.104 190.393L180.229 192.804Z" fill="white"/>
<path d="M153.441 189.832C153.281 189.593 153.049 189.403 152.752 189.27C152.453 189.137 152.082 189.067 151.65 189.067C151.216 189.067 150.797 189.133 150.399 189.266C150.007 189.394 149.64 189.582 149.305 189.821C148.972 190.06 148.671 190.355 148.41 190.7C148.146 191.047 147.933 191.444 147.775 191.877C147.615 192.317 147.539 192.719 147.552 193.066C147.564 193.411 147.649 193.707 147.809 193.946C147.969 194.185 148.2 194.372 148.497 194.5C148.799 194.631 149.172 194.699 149.604 194.699C150.039 194.699 150.46 194.636 150.856 194.512C151.243 194.39 151.607 194.209 151.94 193.973C152.271 193.738 152.57 193.443 152.833 193.095C153.099 192.744 153.317 192.333 153.484 191.877C153.639 191.453 153.711 191.061 153.7 190.714C153.686 190.366 153.601 190.071 153.441 189.832ZM151.153 193.109C150.815 193.434 150.421 193.603 150.014 193.603C149.609 193.603 149.334 193.436 149.222 193.12C149.114 192.825 149.159 192.405 149.352 191.875C149.541 191.354 149.798 190.939 150.115 190.644C150.455 190.326 150.849 190.159 151.254 190.159C151.659 190.159 151.931 190.326 152.039 190.644C152.14 190.939 152.098 191.354 151.909 191.875C151.717 192.394 151.463 192.811 151.153 193.109Z" fill="white"/>
<path d="M188.01 197.94C188.017 197.877 188.051 197.784 188.105 197.732C188.411 197.435 188.546 197.105 188.58 196.783C188.627 196.334 188.645 195.892 188.643 195.457C188.64 195.148 188.402 195.035 188.06 195.157C187.945 195.197 187.898 195.175 187.853 195.112C187.745 194.961 187.556 194.94 187.333 195.021C187.218 195.062 187.157 195.058 187.108 194.985C187.011 194.85 186.842 194.798 186.635 194.893C186.496 194.958 186.485 194.875 186.487 194.852C186.496 194.604 186.507 194.356 186.512 194.11C186.514 194.004 186.521 193.892 186.491 193.799C186.424 193.585 186.174 193.526 185.9 193.641C185.625 193.756 185.441 194.02 185.427 194.318C185.409 194.818 185.396 195.317 185.378 195.818C185.371 195.991 185.357 196.167 185.348 196.343C185.348 196.343 185.348 196.375 185.339 196.381C185.323 196.388 185.308 196.368 185.305 196.368C185.202 196.293 185.105 196.212 184.997 196.145C184.826 196.036 184.527 196.093 184.318 196.266C184.095 196.451 183.994 196.684 184.072 196.891C184.113 196.999 184.18 197.094 184.259 197.173C184.399 197.315 184.565 197.432 184.7 197.577C185.11 198.017 185.551 198.438 185.49 199.185C185.479 199.327 185.542 199.34 185.686 199.298C186.395 199.086 187.106 198.88 187.814 198.677C187.934 198.644 187.979 198.594 187.981 198.49C187.981 198.31 187.988 198.127 188.01 197.94ZM187.711 198.026C187.7 198.165 187.731 198.335 187.648 198.436C187.574 198.526 187.364 198.547 187.216 198.589C186.788 198.716 186.361 198.838 185.936 198.962C185.855 198.984 185.769 199.018 185.774 198.912C185.798 198.323 185.472 197.956 185.15 197.588C184.961 197.372 184.734 197.187 184.529 196.984C184.464 196.918 184.405 196.842 184.36 196.758C184.311 196.668 184.32 196.56 184.45 196.451C184.585 196.343 184.714 196.323 184.808 196.395C184.963 196.517 185.103 196.65 185.258 196.769C185.31 196.808 185.373 196.878 185.456 196.839C185.544 196.799 185.594 196.668 185.603 196.596C185.639 196.271 185.654 195.953 185.67 195.635C185.69 195.17 185.697 194.71 185.722 194.246C185.726 194.158 185.74 194.036 185.812 193.955C185.886 193.869 186.032 193.846 186.082 193.86C186.154 193.88 186.219 193.952 186.219 194.027C186.221 194.403 186.203 194.787 186.19 195.168C186.185 195.328 186.183 195.491 186.167 195.653C186.158 195.748 186.21 195.748 186.293 195.725C186.377 195.703 186.455 195.682 186.455 195.579C186.455 195.515 186.462 195.448 186.462 195.385C186.462 195.29 186.491 195.186 186.613 195.159C186.701 195.139 186.806 195.152 186.858 195.197C186.905 195.238 186.901 195.335 186.905 195.414C186.91 195.518 186.901 195.628 186.894 195.736C186.887 195.824 186.901 195.876 187.022 195.842C187.144 195.809 187.189 195.75 187.182 195.651C187.18 195.615 187.184 195.574 187.184 195.538C187.182 195.423 187.193 195.312 187.367 195.258C187.524 195.206 187.614 195.263 187.63 195.389C187.643 195.495 187.63 195.612 187.628 195.725C187.628 195.809 187.628 195.894 187.625 195.987C187.893 195.93 187.889 195.933 187.913 195.707C187.925 195.599 187.868 195.466 188.087 195.398C188.255 195.346 188.359 195.403 188.357 195.59C188.345 196.003 188.334 196.418 188.294 196.837C188.269 197.105 188.152 197.381 187.886 197.617C187.74 197.753 187.722 197.888 187.711 198.026Z" fill="white"/>
<path d="M185.094 193.093C185.776 193.093 186.532 192.538 186.78 191.857C187.027 191.174 186.676 190.621 185.992 190.621C185.31 190.621 184.554 191.176 184.307 191.857C184.059 192.541 184.412 193.093 185.094 193.093Z" fill="white"/>
<path d="M186.552 189.076C185.02 189.076 183.321 190.324 182.765 191.857C182.209 193.391 183.001 194.638 184.534 194.638C184.651 194.638 184.777 194.629 184.905 194.613L185.02 194.6L185.024 194.496C185.031 194.297 185.038 194.101 185.044 193.903L185.047 193.835L184.975 193.842C184.916 193.846 184.869 193.849 184.824 193.849C183.728 193.849 183.161 192.956 183.559 191.859C183.958 190.763 185.173 189.87 186.269 189.87C187.364 189.87 187.931 190.763 187.533 191.859C187.407 192.209 187.189 192.552 186.903 192.854L186.865 192.892L186.867 192.935C186.874 193.028 186.872 193.129 186.869 193.213L186.867 193.285C186.865 193.4 186.863 193.515 186.858 193.632L186.854 193.785L187.002 193.664C187.614 193.161 188.082 192.52 188.321 191.862C188.879 190.324 188.087 189.076 186.552 189.076Z" fill="white"/>
<path d="M188.242 188.677L189.151 187.351C189.256 187.193 189.47 187.116 189.614 187.18C189.758 187.231 189.79 187.396 189.689 187.547L188.779 188.873C188.539 189.232 187.992 189.031 188.242 188.677Z" fill="white"/>
<path d="M189.239 189.227L190.625 188.321C190.789 188.212 190.976 188.244 191.032 188.384C191.097 188.515 191.021 188.702 190.863 188.806L189.48 189.712C189.108 189.963 188.863 189.469 189.239 189.227Z" fill="white"/>
<path d="M189.533 190.292L190.902 190.351C191.064 190.357 191.131 190.515 191.05 190.693C190.98 190.865 190.798 190.998 190.643 190.991L189.275 190.932C188.903 190.923 189.169 190.272 189.533 190.292Z" fill="white"/>
</g>
<defs>
<linearGradient id="paint0_linear" x1="2.29005" y1="108.44" x2="308.139" y2="108.44" gradientUnits="userSpaceOnUse">
<stop stop-color="#DAE3FE"/>
<stop offset="1" stop-color="#E9EFFD"/>
</linearGradient>
<linearGradient id="paint1_linear" x1="168.191" y1="135.409" x2="195.006" y2="135.409" gradientUnits="userSpaceOnUse">
<stop stop-color="#FEBBBA"/>
<stop offset="1" stop-color="#FF928E"/>
</linearGradient>
<linearGradient id="paint2_linear" x1="169.783" y1="125.216" x2="195.032" y2="125.216" gradientUnits="userSpaceOnUse">
<stop stop-color="#FEBBBA"/>
<stop offset="1" stop-color="#FF928E"/>
</linearGradient>
<linearGradient id="paint3_linear" x1="169.783" y1="125.426" x2="195.032" y2="125.426" gradientUnits="userSpaceOnUse">
<stop stop-color="#FEBBBA"/>
<stop offset="1" stop-color="#FF928E"/>
</linearGradient>
<linearGradient id="paint4_linear" x1="165.069" y1="108.469" x2="200.476" y2="108.469" gradientUnits="userSpaceOnUse">
<stop stop-color="#FEBBBA"/>
<stop offset="1" stop-color="#FF928E"/>
</linearGradient>
<linearGradient id="paint5_linear" x1="163.822" y1="212.535" x2="191.272" y2="212.535" gradientUnits="userSpaceOnUse">
<stop stop-color="#FEBBBA"/>
<stop offset="1" stop-color="#FF928E"/>
</linearGradient>
<linearGradient id="paint6_linear" x1="15.321" y1="146.233" x2="62.8759" y2="146.233" gradientUnits="userSpaceOnUse">
<stop stop-color="#FEBBBA"/>
<stop offset="1" stop-color="#FF928E"/>
</linearGradient>
<linearGradient id="paint7_linear" x1="32.6515" y1="122.11" x2="50.7721" y2="122.11" gradientUnits="userSpaceOnUse">
<stop stop-color="#FEBBBA"/>
<stop offset="1" stop-color="#FF928E"/>
</linearGradient>
<linearGradient id="paint8_linear" x1="33.6754" y1="122.222" x2="50.7722" y2="122.222" gradientUnits="userSpaceOnUse">
<stop stop-color="#FEBBBA"/>
<stop offset="1" stop-color="#FF928E"/>
</linearGradient>
<linearGradient id="paint9_linear" x1="31.3766" y1="107.426" x2="62.1324" y2="107.426" gradientUnits="userSpaceOnUse">
<stop stop-color="#FEBBBA"/>
<stop offset="1" stop-color="#FF928E"/>
</linearGradient>
<linearGradient id="paint10_linear" x1="111.659" y1="205.722" x2="137.728" y2="205.722" gradientUnits="userSpaceOnUse">
<stop stop-color="#FEBBBA"/>
<stop offset="1" stop-color="#FF928E"/>
</linearGradient>
<linearGradient id="paint11_linear" x1="52.7233" y1="204.099" x2="111.128" y2="204.099" gradientUnits="userSpaceOnUse">
<stop stop-color="#FEBBBA"/>
<stop offset="1" stop-color="#FF928E"/>
</linearGradient>
<clipPath id="clip0">
<rect width="332" height="217" fill="white"/>
</clipPath>
</defs>
</svg>
