<svg width="15" height="9" viewBox="0 0 15 9" fill="none" xmlns="http://www.w3.org/2000/svg">
<path fill-rule="evenodd" clip-rule="evenodd" d="M13.7084 0.293768C13.8015 0.386653 13.8754 0.496998 13.9258 0.61848C13.9762 0.739962 14.0021 0.870195 14.0021 1.00172C14.0021 1.13325 13.9762 1.26348 13.9258 1.38496C13.8754 1.50644 13.8015 1.61679 13.7084 1.70967L7.70876 7.70928C7.61588 7.8024 7.50553 7.87628 7.38405 7.92669C7.26257 7.9771 7.13234 8.00305 7.00081 8.00305C6.86928 8.00305 6.73905 7.9771 6.61757 7.92669C6.49609 7.87628 6.38574 7.8024 6.29286 7.70928L0.293253 1.70967C0.105492 1.52191 9.48135e-06 1.26725 9.49296e-06 1.00172C9.50456e-06 0.736184 0.105492 0.481526 0.293253 0.293765C0.481013 0.106004 0.735672 0.000520887 1.00121 0.00052094C1.26674 0.000520993 1.5214 0.106004 1.70916 0.293765L7.00081 5.58742L12.2925 0.293767C12.3853 0.200647 12.4957 0.126767 12.6172 0.0763573C12.7387 0.0259478 12.8689 -2.2601e-07 13.0004 -1.99779e-07C13.1319 -1.73548e-07 13.2622 0.0259479 13.3837 0.0763574C13.5051 0.126767 13.6155 0.200647 13.7084 0.293768Z" fill="white"/>
</svg>
