<svg width="22" height="22" viewBox="0 0 22 22" fill="none" xmlns="http://www.w3.org/2000/svg">
<path d="M1.25084 9.87593C1.24968 9.87709 1.24854 9.87827 1.24742 9.87946C0.992949 10.1358 0.850072 10.4824 0.850072 10.8438C0.850072 11.2068 0.994268 11.5549 1.25094 11.8116L1.35701 11.7055L1.25094 11.8116L5.51571 16.0763C5.51586 16.0765 5.516 16.0766 5.51615 16.0768C5.64278 16.2054 5.79359 16.3077 5.9599 16.3777C6.1264 16.4479 6.30515 16.4844 6.48583 16.4851C6.66652 16.4859 6.84556 16.4508 7.01263 16.382C7.1797 16.3132 7.3315 16.212 7.45926 16.0842C7.58702 15.9565 7.68823 15.8047 7.75703 15.6376C7.82584 15.4705 7.86088 15.2915 7.86015 15.1108C7.85941 14.9301 7.82291 14.7514 7.75275 14.5849C7.68267 14.4186 7.58039 14.2678 7.4518 14.1411C7.45165 14.141 7.4515 14.1408 7.45135 14.1407L5.52316 12.2125L13.5967 12.2125C13.9597 12.2125 14.3079 12.0683 14.5646 11.8116C14.8213 11.5549 14.9655 11.2068 14.9655 10.8437C14.9655 10.4807 14.8213 10.1326 14.5646 9.8759C14.3079 9.61921 13.9597 9.475 13.5967 9.475L5.52316 9.475L7.45193 7.54623C7.45199 7.54617 7.45205 7.54611 7.45211 7.54605C7.57969 7.41911 7.68098 7.26826 7.75019 7.10212C7.81943 6.93591 7.85519 6.75766 7.85543 6.5776C7.85567 6.39754 7.82038 6.21921 7.75158 6.05281C7.68278 5.88641 7.58183 5.73522 7.45451 5.6079C7.32718 5.48058 7.17598 5.37964 7.00958 5.31085C6.84318 5.24206 6.66484 5.20678 6.48478 5.20703C6.30472 5.20728 6.12648 5.24306 5.96027 5.31231C5.79406 5.38156 5.64314 5.48292 5.51617 5.61059L1.25084 9.87593ZM11.9717 3.275L18.728 3.275L18.728 18.4125L11.9717 18.4125C11.6087 18.4125 11.2605 18.5567 11.0039 18.8134C10.7472 19.0701 10.603 19.4182 10.603 19.7813C10.603 20.1443 10.7472 20.4924 11.0039 20.7491C11.2605 21.0058 11.6087 21.15 11.9717 21.15L19.2842 21.15L19.2844 21.15C19.8626 21.1494 20.417 20.9194 20.8259 20.5105C21.2348 20.1016 21.4648 19.5472 21.4655 18.9689L21.4655 18.9687L21.4655 2.71875L21.4655 2.71858C21.4648 2.14032 21.2348 1.58592 20.8259 1.17702C20.417 0.768129 19.8626 0.538134 19.2844 0.537499L19.2842 0.537499L11.9717 0.537499C11.6087 0.537499 11.2605 0.681706 11.0039 0.938397C10.7472 1.19509 10.603 1.54323 10.603 1.90625C10.603 2.26926 10.7472 2.61741 11.0039 2.8741C11.2605 3.13079 11.6087 3.275 11.9717 3.275Z" fill="white" stroke="white" stroke-width="0.3" stroke-linecap="round" stroke-linejoin="round"/>
</svg>
