<svg width="18" height="19" viewBox="0 0 18 19" fill="none" xmlns="http://www.w3.org/2000/svg">
<path d="M17.1818 4.75H13.7045V4.37C13.7045 1.957 11.5977 0 9 0C6.40227 0 4.29545 1.957 4.29545 4.37V4.75H0.818182C0.365625 4.75 0 5.08962 0 5.51V18.24C0 18.6604 0.365625 19 0.818182 19H17.1818C17.6344 19 18 18.6604 18 18.24V5.51C18 5.08962 17.6344 4.75 17.1818 4.75ZM6.13636 4.37C6.13636 2.89987 7.41733 1.71 9 1.71C10.5827 1.71 11.8636 2.89987 11.8636 4.37V4.75H6.13636V4.37ZM16.1591 17.29H1.84091V6.46H4.29545V8.55C4.29545 8.6545 4.3875 8.74 4.5 8.74H5.93182C6.04432 8.74 6.13636 8.6545 6.13636 8.55V6.46H11.8636V8.55C11.8636 8.6545 11.9557 8.74 12.0682 8.74H13.5C13.6125 8.74 13.7045 8.6545 13.7045 8.55V6.46H16.1591V17.29Z" fill="white"/>
</svg>
