<svg width="18" height="18" viewBox="0 0 18 18" fill="none" xmlns="http://www.w3.org/2000/svg">
<path d="M9 0C4.02977 0 0 4.02977 0 9C0 13.9702 4.02977 18 9 18C13.9702 18 18 13.9702 18 9C18 4.02977 13.9702 0 9 0ZM9 15.8457C5.22175 15.8457 2.15978 12.7837 2.15978 9.00547C2.15978 5.22722 5.22175 2.16525 9 2.16525C12.7783 2.16525 15.8402 5.22722 15.8402 9.00547C15.8402 12.7837 12.7783 15.8457 9 15.8457Z" fill="white"/>
<path d="M9.00013 4.76819C6.66539 4.76819 4.76807 6.66004 4.76807 9.00025C4.76807 11.3405 6.65992 13.2323 9.00013 13.2323C11.3403 13.2323 13.2322 11.3405 13.2322 9.00025C13.2322 6.66004 11.3403 4.76819 9.00013 4.76819Z" fill="white"/>
</svg>
