<svg width="21" height="16" viewBox="0 0 21 16" fill="none" xmlns="http://www.w3.org/2000/svg">
<path d="M16.0905 7.85207L14.7777 6.53815L14.7777 6.53812C14.6456 6.40602 14.4664 6.33181 14.2796 6.33181C14.0928 6.33181 13.9136 6.40602 13.7816 6.53812C13.6495 6.67022 13.5752 6.84938 13.5752 7.03619C13.5752 7.223 13.6495 7.40217 13.7815 7.53426L15.5923 9.34503L16.0905 7.85207ZM16.0905 7.85207L19.214 4.72735L16.0905 7.85207ZM20.2103 4.72732C20.2758 4.79265 20.3277 4.87024 20.3632 4.95566C20.3986 5.04114 20.4169 5.13278 20.4169 5.22533C20.4169 5.31789 20.3986 5.40953 20.3632 5.49501C20.3277 5.58045 20.2758 5.65807 20.2103 5.72341L20.2103 4.72732ZM20.2103 4.72732C20.145 4.66181 20.0673 4.60983 19.9819 4.57437C19.8964 4.53889 19.8047 4.52064 19.7122 4.52064C19.6196 4.52064 19.528 4.53889 19.4425 4.57437C19.3571 4.60982 19.2795 4.66178 19.2141 4.72727L20.2103 4.72732ZM20.2103 4.72732C20.2103 4.72733 20.2103 4.72734 20.2104 4.72735L20.1396 4.79797L20.2103 4.72732ZM14.2796 15.4869C14.2796 15.5869 14.2797 15.5869 14.2797 15.5869L14.2799 15.5869L14.2802 15.5869L14.2813 15.5869L14.2847 15.5868L14.2965 15.5865C14.3065 15.5862 14.3208 15.5855 14.3386 15.5842C14.3743 15.5817 14.4246 15.5767 14.4847 15.5666C14.6044 15.5467 14.7656 15.5066 14.928 15.4254C15.0907 15.344 15.2565 15.2204 15.3814 15.033C15.5067 14.8451 15.5869 14.5989 15.5869 14.2796C15.5869 13.6503 15.2751 12.4174 14.1994 11.3417C13.1208 10.2631 11.2826 9.35067 8.24343 9.35067C5.20425 9.35067 3.36604 10.2631 2.28743 11.3417C1.21176 12.4174 0.9 13.6503 0.9 14.2796C0.9 14.5989 0.980114 14.8451 1.10543 15.033C1.23032 15.2204 1.39613 15.344 1.5589 15.4254C1.72127 15.5066 1.88244 15.5467 2.00217 15.5666C2.06227 15.5767 2.11257 15.5817 2.14824 15.5842C2.16609 15.5855 2.18033 15.5862 2.19035 15.5865L2.20216 15.5868L2.20557 15.5869L2.20662 15.5869L2.20699 15.5869L2.20713 15.5869C2.20718 15.5869 2.20724 15.5869 2.20724 15.4869V15.5869H14.2796V15.4869ZM13.2045 12.3367C13.926 13.0581 14.1386 13.8355 14.174 14.1796H2.3132C2.34931 13.835 2.56121 13.0578 3.28237 12.3367C4.04725 11.5718 5.50001 10.7579 8.24343 10.7579C10.9857 10.7579 12.4396 11.5718 13.2045 12.3367ZM9.88001 6.2583C9.44596 6.69235 8.85727 6.93619 8.24343 6.93619C7.62959 6.93619 7.0409 6.69235 6.60685 6.2583C6.1728 5.82425 5.92895 5.23555 5.92895 4.62172C5.92895 4.00788 6.1728 3.41918 6.60685 2.98513C7.0409 2.55108 7.62959 2.30724 8.24343 2.30724C8.85727 2.30724 9.44596 2.55108 9.88001 2.98513C10.3141 3.41918 10.5579 4.00788 10.5579 4.62172C10.5579 5.23555 10.3141 5.82425 9.88001 6.2583ZM10.8751 7.25336C11.573 6.55541 11.9651 5.60878 11.9651 4.62172C11.9651 3.63465 11.573 2.68802 10.8751 1.99007C10.1771 1.29211 9.23049 0.9 8.24343 0.9C7.25637 0.9 6.30974 1.29211 5.61178 1.99007C4.91382 2.68802 4.52172 3.63465 4.52172 4.62172C4.52172 5.60878 4.91382 6.55541 5.61178 7.25336C6.30974 7.95132 7.25637 8.34343 8.24343 8.34343C9.23049 8.34343 10.1771 7.95132 10.8751 7.25336ZM16.5886 9.34503L20.2102 5.7235L16.5886 9.34503ZM16.3602 9.49802C16.4456 9.46256 16.5232 9.41061 16.5886 9.34512H15.5924C15.6577 9.41061 15.7354 9.46256 15.8208 9.49802C15.9063 9.53349 15.9979 9.55175 16.0905 9.55175C16.183 9.55175 16.2747 9.53349 16.3602 9.49802Z" fill="white" stroke="white" stroke-width="0.2"/>
</svg>
