<svg width="201" height="54" viewBox="0 0 201 54" fill="none" xmlns="http://www.w3.org/2000/svg">
<path d="M5.90463 0.726578C5.62386 0.514147 5.25802 0.369694 4.81559 0.293219C3.71379 0.106279 2.19509 0.097782 0.812525 0.322959C0.510487 0.369694 0.242481 0.416429 0 0.454666V29.9444C0 30.6709 0.0850812 31.2487 0.259498 31.6566C0.412644 32.0262 0.616838 32.3023 0.889098 32.502C1.16987 32.7145 1.53571 32.8589 1.97814 32.9354C3.07568 33.1223 4.59438 33.1308 5.98121 32.9057C6.28324 32.8547 6.55125 32.8122 6.79373 32.7697V3.28425C6.79373 2.55773 6.70865 1.98417 6.53423 1.57205C6.37683 1.20242 6.17264 0.926264 5.90463 0.726578Z" fill="#FC6625"/>
<path d="M60.6241 11.7135C59.5776 10.6853 58.3567 9.89082 56.9912 9.35125C55.6171 8.81167 54.1452 8.53551 52.6095 8.53551C51.7332 8.53551 50.9249 8.59924 50.1975 8.7267C49.487 8.85416 48.717 9.07933 47.913 9.40223L46.4539 9.98429V3.28421C46.4539 2.54495 46.3731 1.96289 46.2114 1.54653C46.0753 1.18964 45.8796 0.921979 45.6201 0.730791C45.3393 0.51836 44.9735 0.373906 44.5311 0.297431C43.9823 0.203961 43.3442 0.157227 42.638 0.157227C41.8935 0.157227 41.1576 0.212459 40.4429 0.327171C40.1281 0.378155 39.8729 0.420641 39.6602 0.463127V27.5439C39.6602 28.9034 40.2685 29.9868 41.5192 30.8663C42.5529 31.6098 43.8376 32.2386 45.3393 32.7442C46.8325 33.2455 48.6915 33.5004 50.8738 33.5004C52.886 33.5004 54.7408 33.2285 56.3914 32.6889C58.0036 32.1621 59.382 31.3846 60.488 30.3734C61.5898 29.3708 62.4576 28.0792 63.0787 26.5454C63.7083 24.9862 64.0231 23.1168 64.0231 20.9967C64.0231 18.9446 63.7126 17.1177 63.1 15.5712C62.5044 14.0332 61.6664 12.7374 60.6241 11.7135ZM55.4555 26.5539C54.3579 27.9092 52.818 28.5975 50.8781 28.5975C49.9635 28.5975 49.2063 28.5083 48.5639 28.3214C47.9258 28.1387 47.3685 27.8922 46.9006 27.5948L46.4071 27.2804V14.6068L47.0154 14.3221C47.662 14.0205 48.2746 13.7868 48.8362 13.6296C49.436 13.4639 50.1379 13.3832 50.9292 13.3832C52.7882 13.3832 54.2984 14.0587 55.4129 15.3843C56.4849 16.6589 57.0252 18.5453 57.0252 20.9925C57.0295 23.3929 56.502 25.2666 55.4555 26.5539Z" fill="#FC6625"/>
<path d="M81.7928 8.544H74.5311V3.58161C74.5311 2.53645 74.395 1.19389 73.7399 0.730787C73.0592 0.246444 72.0425 0.00427246 70.7152 0.00427246C69.975 0.00427246 69.2689 0.0680018 68.6137 0.19546C68.3287 0.250693 68.0735 0.301676 67.8438 0.35266V24.625C67.8438 27.7775 68.5542 30.0463 69.958 31.3719C71.4129 32.7484 73.574 33.4494 76.3817 33.4494C79.1808 33.4494 80.423 32.8334 80.9675 32.315C81.729 31.5928 82.0863 30.7218 82.0863 29.5747C82.0863 29.0139 82.0055 28.5423 81.8524 28.1769C81.763 27.973 81.6694 27.7775 81.5674 27.5906C81.2908 27.6628 81.0016 27.7265 80.691 27.7775C80.0827 27.8837 79.4786 27.939 78.9001 27.939C77.6238 27.939 76.6326 27.6628 75.8712 27.0892C75.2628 26.6346 74.5311 25.7127 74.5311 23.9155V13.8208H80.3677C80.9888 13.8208 81.4567 13.6381 81.7928 13.2557C82.1204 12.8861 82.2948 12.1511 82.2948 11.1229C82.2948 10.4729 82.214 9.87382 82.0608 9.34699C81.9715 9.05384 81.8822 8.78618 81.7928 8.544Z" fill="#FC6625"/>
<path d="M106.05 11.4118C105.054 10.5281 103.842 9.81861 102.455 9.30877C101.06 8.79469 99.4774 8.53552 97.7588 8.53552C96.2358 8.53552 94.7214 8.77345 93.258 9.24504C91.8286 9.70389 90.5439 10.4262 89.4336 11.3906C88.3318 12.3508 87.4257 13.6041 86.7408 15.1124C86.0559 16.6249 85.707 18.4773 85.707 20.6229C85.707 22.8067 86.0559 24.7313 86.7493 26.333C87.4342 27.9262 88.3828 29.2603 89.5697 30.3055C90.7651 31.3591 92.1945 32.1579 93.8153 32.6847C95.4658 33.2243 97.2866 33.4962 99.2307 33.4962C100.396 33.4962 101.668 33.3942 103.008 33.1945C104.284 33.0033 105.437 32.638 106.446 32.1026C107.564 31.5163 108.083 30.7006 108.083 29.528C108.083 29.0224 107.947 28.555 107.662 28.0919C107.479 27.7988 107.284 27.5481 107.058 27.3357C106.288 27.7266 105.374 28.0749 104.323 28.3766C102.957 28.7675 101.49 28.9672 99.9624 28.9672C98.2693 28.9672 96.7335 28.64 95.4063 27.9942C93.9556 27.2932 92.9772 26.2098 92.5008 24.7823L92.1009 23.5841L106.309 21.4598C107.275 21.3196 108.015 21.0052 108.517 20.5336C108.964 20.1088 109.181 19.4715 109.181 18.5793C109.181 17.1347 108.904 15.7794 108.356 14.5601C107.811 13.345 107.037 12.2828 106.05 11.4118ZM91.7393 19.8411L91.8201 18.5155C91.8584 17.8613 91.9945 17.207 92.22 16.5739C92.454 15.9069 92.8156 15.2993 93.2878 14.7598C93.7685 14.2117 94.3938 13.7613 95.1383 13.4214C95.887 13.0773 96.7676 12.9074 97.7588 12.9074C99.3498 12.9074 100.596 13.3705 101.468 14.2839C102.285 15.1421 102.766 16.0386 102.902 16.952L103.059 17.9887L91.7393 19.8411Z" fill="#FC6625"/>
<path d="M132.987 10.9275C131.055 9.34276 128.214 8.53552 124.53 8.53552C122.437 8.53552 120.518 8.79044 118.821 9.29178C117.14 9.78887 115.737 10.4347 114.652 11.2122C114.06 11.6328 113.592 12.0959 113.265 12.5845C112.984 13.0051 112.844 13.5871 112.844 14.3221V30.2715C112.844 31.0107 112.929 31.5928 113.103 32.0092C113.256 32.383 113.465 32.6635 113.733 32.8674C114.014 33.0798 114.379 33.2285 114.822 33.305C115.371 33.3985 116.009 33.4494 116.715 33.4494C117.468 33.4494 118.204 33.3985 118.902 33.3007C119.195 33.2583 119.438 33.22 119.637 33.186V15.0402L120.084 14.7173C120.68 14.2882 121.386 13.9653 122.194 13.7528C122.96 13.5531 123.747 13.4512 124.53 13.4512C125.827 13.4512 126.895 13.7953 127.699 14.4708C128.562 15.1974 129.001 16.2893 129.001 17.721V30.2672C129.001 31.0065 129.086 31.5886 129.26 32.0049C129.413 32.3788 129.622 32.6592 129.89 32.8631C130.171 33.0756 130.536 33.2243 130.979 33.3007C131.528 33.3942 132.166 33.4452 132.872 33.4452C133.625 33.4452 134.361 33.3942 135.058 33.2965C135.352 33.254 135.594 33.2158 135.794 33.1818V17.4024C135.794 14.5983 134.876 12.4782 132.987 10.9275Z" fill="#FC6625"/>
<path d="M160.934 11.0507C159.901 10.3157 158.62 9.70817 157.11 9.24507C155.591 8.77772 153.873 8.53979 151.997 8.53979C150.155 8.53979 148.432 8.77772 146.879 9.24932C145.369 9.70817 144.046 10.4092 142.957 11.3311C141.88 12.2446 141.021 13.4215 140.409 14.8235C139.787 16.2425 139.473 17.959 139.473 19.9176C139.473 21.923 139.77 23.6606 140.362 25.0839C140.949 26.4987 141.727 27.6586 142.676 28.5381C143.625 29.4175 144.748 30.0761 146.011 30.4924C147.313 30.9215 148.708 31.1425 150.159 31.1425C152.065 31.1425 153.685 30.8578 154.979 30.297L156.468 29.647V32.0942C156.468 33.8573 155.702 35.2212 154.247 36.0284C152.971 36.7379 151.278 37.099 149.214 37.099C147.755 37.099 146.317 36.8909 144.948 36.483C143.893 36.1686 142.906 35.7905 142.012 35.3571C141.88 35.5271 141.749 35.7267 141.625 35.9519C141.374 36.4065 141.255 36.9291 141.255 37.5579C141.255 39.0534 141.927 40.0646 143.374 40.7401C145.041 41.5176 147.411 41.9127 150.423 41.9127C152.18 41.9127 153.843 41.7131 155.374 41.3222C156.859 40.9398 158.165 40.345 159.258 39.5463C160.326 38.7645 161.185 37.7661 161.806 36.5765C162.423 35.3996 162.734 33.9593 162.734 32.3023V14.0885C162.734 13.3705 162.593 12.8012 162.313 12.389C161.989 11.909 161.526 11.4586 160.934 11.0507ZM156.31 25.1052L155.906 25.4196C154.877 26.2268 153.511 26.6347 151.835 26.6347C150.21 26.6347 148.849 26.0781 147.789 24.982C146.726 23.8858 146.207 22.2246 146.207 19.9091C146.207 17.8825 146.73 16.2723 147.76 15.1252C148.823 13.9398 150.389 13.3407 152.409 13.3407C153.205 13.3407 153.898 13.4257 154.468 13.5914C155.025 13.7529 155.447 13.9228 155.766 14.1012L156.302 14.4029V25.1052H156.31Z" fill="#FC6625"/>
<path d="M32.4626 11.9302C31.3651 10.868 30.0293 10.0268 28.4936 9.43625C26.9451 8.84145 25.1839 8.53979 23.2653 8.53979C21.3382 8.53979 19.5771 8.83295 18.0243 9.41501C16.4929 9.98858 15.1614 10.8171 14.0638 11.8792C12.9705 12.9414 12.1112 14.2499 11.5071 15.7794C10.8945 17.3217 10.584 19.0764 10.584 20.9968C10.584 22.9511 10.8945 24.7228 11.5071 26.2651C12.1112 27.7946 12.9748 29.1031 14.0638 30.1653C15.1571 31.2274 16.4886 32.0559 18.0243 32.6295C19.5771 33.2115 21.3382 33.5047 23.2653 33.5047C25.1967 33.5047 26.9664 33.2243 28.5234 32.6762C30.0506 32.1366 31.3778 31.3337 32.4711 30.2885C33.5602 29.2476 34.4195 27.939 35.0236 26.3968C35.6361 24.8333 35.9467 23.0149 35.9467 20.9968C35.9467 19.1146 35.6361 17.3769 35.0236 15.8347C34.4152 14.3009 33.5559 12.9881 32.4626 11.9302ZM27.579 26.4605C26.6005 27.8965 25.1244 28.6528 23.3164 28.6528C21.5169 28.6528 20.0322 27.9135 19.0198 26.5115C18.0669 25.1986 17.5862 23.342 17.5862 20.9925C17.5862 18.6813 18.0584 16.8459 18.99 15.533C19.9855 14.1267 21.4659 13.3832 23.2653 13.3832C25.0648 13.3832 26.5452 14.1267 27.5407 15.533C28.4723 16.8459 28.9445 18.6855 28.9445 20.9925C28.9403 23.291 28.4808 25.1349 27.579 26.4605Z" fill="#FC6625"/>
<path d="M199.171 47.8735C199.099 47.5888 199.099 47.1852 199.252 46.9557C200.137 45.6344 200.201 44.1771 199.835 42.7454C199.324 40.757 198.682 38.7941 197.972 36.8653C197.465 35.493 196.227 35.0001 194.9 35.5397C194.458 35.7181 194.211 35.6162 193.909 35.3358C193.186 34.6645 192.318 34.5795 191.45 34.9321C191.008 35.1106 190.731 35.0893 190.391 34.7707C189.74 34.1674 188.91 33.938 188.145 34.3628C187.626 34.6517 187.447 34.2779 187.417 34.1844C187.056 33.0882 186.707 31.9879 186.328 30.896C186.167 30.4244 186.018 29.9273 185.741 29.5194C185.095 28.5677 183.895 28.3085 182.853 28.8184C181.819 29.3282 181.419 30.4966 181.849 31.8179C182.576 34.0357 183.321 36.2492 184.048 38.467C184.303 39.2402 184.529 40.022 184.767 40.7995C184.767 40.7995 184.822 40.9439 184.784 40.9652C184.729 40.9992 184.618 40.9015 184.614 40.9057C184.035 40.5743 183.47 40.2174 182.878 39.9158C181.947 39.4399 180.704 39.6906 180.049 40.4511C179.352 41.2668 179.284 42.3035 179.964 43.2212C180.317 43.6971 180.772 44.1177 181.249 44.4746C182.095 45.1033 183.023 45.6217 183.857 46.2675C186.388 48.2133 189.03 50.087 189.957 53.3967C190.136 54.0297 190.442 54.0849 191.012 53.8938C193.824 52.9548 196.644 52.0413 199.469 51.1449C199.946 50.9919 200.06 50.771 199.907 50.3164C199.643 49.5134 199.38 48.7019 199.171 47.8735ZM197.989 48.2601C198.163 48.8761 198.576 49.6324 198.367 50.0827C198.18 50.4864 197.287 50.5713 196.691 50.7668C194.998 51.3233 193.296 51.8672 191.599 52.4152C191.28 52.5172 190.948 52.6616 190.795 52.1943C189.953 49.5814 187.907 47.9499 185.89 46.327C184.699 45.3668 183.393 44.551 182.155 43.6503C181.755 43.3572 181.372 43.0215 181.04 42.6519C180.675 42.2483 180.534 41.7682 180.951 41.2966C181.377 40.8165 181.908 40.723 182.449 41.0502C183.329 41.5855 184.171 42.1803 185.056 42.7114C185.346 42.8856 185.745 43.1957 186.047 43.0258C186.375 42.8431 186.384 42.261 186.298 41.9424C185.933 40.5063 185.494 39.0915 185.044 37.681C184.384 35.6247 183.669 33.5853 183.036 31.5247C182.917 31.1339 182.78 30.5943 182.963 30.2332C183.155 29.855 183.767 29.7488 184.014 29.8168C184.371 29.9103 184.771 30.2289 184.89 30.5561C185.511 32.2258 186.047 33.9295 186.605 35.6204C186.843 36.3342 187.09 37.048 187.29 37.7745C187.405 38.1908 187.639 38.1993 187.97 38.0974C188.302 37.9954 188.625 37.9104 188.455 37.4431C188.353 37.1584 188.277 36.8653 188.175 36.5849C188.021 36.1642 187.987 35.7096 188.481 35.5864C188.838 35.4972 189.332 35.5609 189.634 35.7564C189.91 35.9348 190.046 36.3682 190.187 36.7123C190.374 37.1754 190.514 37.6598 190.659 38.1441C190.774 38.5307 190.914 38.7687 191.403 38.6115C191.884 38.4585 191.99 38.2036 191.807 37.766C191.739 37.6045 191.697 37.4303 191.633 37.2689C191.437 36.7633 191.31 36.2705 191.986 36.0283C192.607 35.8031 193.096 36.0453 193.369 36.6061C193.598 37.0777 193.726 37.596 193.905 38.0931C194.037 38.467 194.173 38.8409 194.322 39.253C195.423 39.0066 195.406 39.0151 195.147 38.0124C195.024 37.5323 194.556 36.946 195.423 36.6443C196.087 36.4149 196.644 36.6656 196.929 37.4983C197.55 39.3295 198.167 41.1649 198.665 43.0258C198.984 44.2154 198.912 45.4347 198.112 46.4842C197.674 47.0492 197.814 47.644 197.989 48.2601Z" fill="#FC6625"/>
<path d="M178.394 26.3883C181.427 26.3883 183.886 23.9326 183.886 20.9033C183.886 17.874 181.427 15.4183 178.394 15.4183C175.361 15.4183 172.902 17.874 172.902 20.9033C172.902 23.9326 175.361 26.3883 178.394 26.3883Z" fill="#FC6625"/>
<path d="M178.394 8.57373C171.588 8.57373 166.049 14.1054 166.049 20.9032C166.049 27.701 171.588 33.2327 178.394 33.2327C178.913 33.2327 179.458 33.1945 180.006 33.1265L180.491 33.0628L180.338 32.5997C180.049 31.7245 179.76 30.8493 179.47 29.9698L179.373 29.6681L179.058 29.6936C178.807 29.7106 178.598 29.7191 178.398 29.7191C173.532 29.7191 169.571 25.7637 169.571 20.9032C169.571 16.0428 173.532 12.0873 178.398 12.0873C183.265 12.0873 187.226 16.0428 187.226 20.9032C187.226 22.4497 186.813 23.975 186.034 25.3176L185.932 25.4917L186.013 25.6787C186.192 26.0908 186.345 26.5412 186.468 26.9065L186.575 27.2252C186.749 27.735 186.923 28.2491 187.094 28.7632L187.319 29.443L187.783 28.8991C189.689 26.6686 190.739 23.8305 190.739 20.9075C190.739 14.1054 185.205 8.57373 178.394 8.57373Z" fill="#FC6625"/>
<path d="M185.252 6.80209L187.15 0.926247C187.371 0.229473 188.196 -0.114666 188.936 0.165743C189.66 0.399418 190.072 1.13018 189.859 1.79721L187.962 7.67306C187.477 9.26629 184.716 8.37833 185.252 6.80209Z" fill="#FC6625"/>
<path d="M190.574 9.24503L195.266 5.22583C195.824 4.74574 196.704 4.88594 197.185 5.51049C197.683 6.0883 197.649 6.92528 197.117 7.38413L192.425 11.4033C191.178 12.5037 189.289 10.3114 190.574 9.24503Z" fill="#FC6625"/>
<path d="M193.606 13.9695L199.782 14.2286C200.514 14.2584 201.067 14.9551 200.991 15.7454C200.961 16.5059 200.365 17.0964 199.663 17.0667L193.486 16.8075C191.823 16.7651 191.942 13.8717 193.606 13.9695Z" fill="#FC6625"/>
</svg>
