<svg width="354" height="896" viewBox="0 0 354 896" fill="none" xmlns="http://www.w3.org/2000/svg">
<path d="M1.22223 677C1.22223 721.5 0.722229 698 1.22223 721C1.22223 743.214 1.22223 729.5 1.22223 757C23.4351 757 37.815 739.386 37.815 717.172C37.815 694.958 23.4351 677 1.22223 677Z" fill="#B2B2B2" fill-opacity="0.06"/>
<path fill-rule="evenodd" clip-rule="evenodd" d="M1.22217 802.709C46.7413 800.79 83.0742 763.338 83.0742 717.357C83.0742 671.375 46.7413 633.874 1.22217 632V652.524C35.4217 654.379 62.574 682.692 62.574 717.357C62.574 752.021 35.4217 780.334 1.22217 782.189V802.709Z" fill="#B2B2B2" fill-opacity="0.06"/>
<path d="M353 476C353 520.5 353.5 497 353 520C353 542.214 353 528.5 353 556C330.787 556 316.407 538.386 316.407 516.172C316.407 493.958 330.787 476 353 476Z" fill="#B2B2B2" fill-opacity="0.06"/>
<path fill-rule="evenodd" clip-rule="evenodd" d="M353 601.709C307.481 599.79 271.148 562.338 271.148 516.357C271.148 470.375 307.481 432.874 353 431V451.524C318.8 453.379 291.648 481.692 291.648 516.357C291.648 551.021 318.8 579.334 353 581.189V601.709Z" fill="#B2B2B2" fill-opacity="0.06"/>
<path d="M52.9046 0.222167C97.4046 0.222167 73.9046 -0.277832 96.9046 0.222167C119.118 0.222165 105.405 0.222167 132.905 0.222168C132.905 22.4351 115.29 36.8149 93.0763 36.8149C70.8626 36.8149 52.9046 22.4351 52.9046 0.222167Z" fill="#B2B2B2" fill-opacity="0.06"/>
<path fill-rule="evenodd" clip-rule="evenodd" d="M178.614 0.222168C176.695 45.7413 139.242 82.0742 93.2612 82.0742C47.28 82.0742 9.77843 45.7413 7.9046 0.222168L28.429 0.222168C30.2838 34.4217 58.5965 61.574 93.2612 61.574C127.926 61.574 156.239 34.4217 158.093 0.222168L178.614 0.222168Z" fill="#B2B2B2" fill-opacity="0.06"/>
</svg>
