<svg width="57" height="51" viewBox="0 0 57 51" fill="none" xmlns="http://www.w3.org/2000/svg">
<path d="M19.8813 10.2C18.9258 9.51701 17.7349 8.95599 16.3382 8.51965C14.9333 8.0833 13.339 7.86377 11.6013 7.86377C9.8933 7.86377 8.29901 8.08601 6.859 8.52236C5.45688 8.94786 4.23612 9.59832 3.22649 10.4575C2.23039 11.3058 1.4346 12.398 0.866172 13.7016C0.292333 15.0215 0 16.6124 0 18.4337C0 20.2956 0.276092 21.9082 0.82557 23.2308C1.36693 24.5425 2.08964 25.6239 2.96934 26.4397C3.84905 27.2555 4.88846 27.868 6.05779 28.2555C7.26231 28.6539 8.55615 28.8572 9.90143 28.8572C11.6663 28.8572 13.1685 28.5916 14.3649 28.0712L15.7454 27.4696V29.7407C15.7454 31.3804 15.0335 32.6434 13.6882 33.3968C12.5054 34.0581 10.9381 34.3915 9.02713 34.3915C7.67374 34.3915 6.34471 34.1991 5.07522 33.8196C4.09537 33.5269 3.18318 33.1746 2.3549 32.7735C2.23039 32.9307 2.11129 33.115 1.99761 33.3264C1.76753 33.7492 1.65385 34.2343 1.65385 34.817C1.65385 36.2074 2.27641 37.1451 3.61627 37.7739C5.16184 38.4975 7.35705 38.8634 10.145 38.8634C11.7718 38.8634 13.3147 38.6791 14.733 38.3159C16.1108 37.9636 17.3207 37.408 18.3304 36.6654C19.321 35.939 20.1141 35.0094 20.6907 33.9091C21.2618 32.8141 21.5514 31.4807 21.5514 29.9386V13.0268C21.5514 12.36 21.4188 11.8288 21.1617 11.4494C20.8585 10.9995 20.4281 10.5821 19.8813 10.2ZM15.5992 23.2579L15.2257 23.5506C14.2729 24.3013 13.0061 24.6807 11.4551 24.6807C9.95015 24.6807 8.68878 24.1658 7.70893 23.1468C6.72366 22.1277 6.24456 20.5856 6.24456 18.4337C6.24456 16.5501 6.72907 15.0567 7.68457 13.9889C8.66984 12.8885 10.118 12.3329 11.9911 12.3329C12.73 12.3329 13.3715 12.4115 13.8993 12.566C14.4136 12.7178 14.8061 12.8723 15.1039 13.0403L15.6019 13.3222V23.2579H15.5992Z" fill="#FC6625"/>
<path d="M55.3051 44.4028C55.2374 44.1372 55.2374 43.7632 55.3782 43.5518C56.1983 42.3268 56.2579 40.969 55.9168 39.6437C55.4431 37.7953 54.8477 35.974 54.1926 34.1826C53.7243 32.906 52.5767 32.4507 51.3478 32.9494C50.9391 33.1147 50.709 33.0199 50.4302 32.7597C49.7589 32.1336 48.955 32.055 48.1511 32.383C47.7396 32.551 47.4852 32.5293 47.1685 32.2339C46.5676 31.6729 45.7962 31.4588 45.087 31.8545C44.6052 32.1228 44.4428 31.7759 44.413 31.6919C44.0774 30.6728 43.7552 29.6511 43.4061 28.6374C43.2545 28.1984 43.1164 27.7349 42.862 27.3609C42.2638 26.4774 41.1513 26.2362 40.1877 26.7105C39.2295 27.182 38.8587 28.2688 39.2593 29.4939C39.9333 31.5536 40.6208 33.6107 41.2975 35.6705C41.533 36.3887 41.7441 37.115 41.9661 37.836C41.9661 37.836 42.0175 37.9688 41.9796 37.9904C41.9309 38.0202 41.8253 37.9308 41.8226 37.9335C41.2867 37.6246 40.7642 37.2966 40.2148 37.0148C39.354 36.573 38.2009 36.8061 37.5946 37.5134C36.9477 38.2696 36.8827 39.2344 37.5161 40.0882C37.8436 40.5299 38.2659 40.9229 38.7071 41.2536C39.4893 41.839 40.3501 42.3214 41.1242 42.9176C43.4683 44.7254 45.9153 46.4626 46.7733 49.5387C46.9357 50.1241 47.2226 50.1756 47.7477 50.0022C50.3544 49.1322 52.9664 48.2812 55.5839 47.4491C56.0251 47.3082 56.1307 47.1022 55.9899 46.6794C55.7436 45.926 55.4973 45.1725 55.3051 44.4028ZM54.2088 44.7606C54.3685 45.3324 54.7556 46.0344 54.558 46.4518C54.3821 46.8258 53.5565 46.9071 53.007 47.0887C51.4371 47.6063 49.8617 48.1104 48.2891 48.62C47.9941 48.7148 47.6855 48.8503 47.5447 48.414C46.7625 45.9856 44.8704 44.4733 43.0028 42.9637C41.9011 42.072 40.6885 41.3159 39.5435 40.4757C39.1699 40.2047 38.8181 39.8903 38.5095 39.5488C38.1684 39.1748 38.0412 38.7276 38.4283 38.2886C38.8208 37.8441 39.3134 37.7574 39.8142 38.0609C40.6289 38.5569 41.4112 39.1125 42.2286 39.603C42.4966 39.7629 42.8674 40.0556 43.1489 39.8957C43.4521 39.725 43.4575 39.1856 43.3844 38.8875C43.0461 37.5568 42.64 36.2396 42.2232 34.9279C41.6142 33.0172 40.951 31.1254 40.3609 29.2093C40.25 28.8461 40.1227 28.3474 40.2933 28.0087C40.4719 27.659 41.0376 27.5615 41.265 27.6211C41.5952 27.7078 41.9633 28.0059 42.077 28.3068C42.6536 29.857 43.1489 31.4398 43.6659 33.0117C43.8852 33.6757 44.1152 34.337 44.302 35.0119C44.4076 35.3995 44.6241 35.4076 44.9327 35.3127C45.2386 35.2206 45.539 35.1393 45.3847 34.7029C45.29 34.44 45.2196 34.169 45.1249 33.9034C44.9841 33.5131 44.9516 33.0903 45.4091 32.9765C45.7393 32.8925 46.1968 32.9548 46.4783 33.1337C46.7354 33.299 46.8599 33.7001 46.9899 34.0199C47.1631 34.4509 47.2957 34.9008 47.4256 35.348C47.5312 35.7057 47.6638 35.9279 48.1132 35.7843C48.5571 35.6407 48.6572 35.4076 48.4867 35.001C48.4244 34.852 48.3838 34.6894 48.327 34.5376C48.1484 34.0687 48.0266 33.608 48.6518 33.383C49.2284 33.1771 49.6804 33.3993 49.9348 33.9197C50.1487 34.356 50.2678 34.8384 50.4302 35.2992C50.552 35.6461 50.6792 35.993 50.8172 36.3751C51.8377 36.1475 51.8215 36.1529 51.5833 35.2233C51.4696 34.7788 51.0338 34.2341 51.8404 33.9522C52.4549 33.7381 52.9718 33.9739 53.2344 34.7436C53.8082 36.4429 54.3794 38.1476 54.8449 39.8795C55.14 40.9825 55.0723 42.1154 54.3334 43.0911C53.9165 43.6386 54.0464 44.1887 54.2088 44.7606Z" fill="#FC6625"/>
<path d="M36.0572 24.4475C38.8662 24.4475 41.1433 22.1675 41.1433 19.355C41.1433 16.5425 38.8662 14.2625 36.0572 14.2625C33.2483 14.2625 30.9712 16.5425 30.9712 19.355C30.9712 22.1675 33.2483 24.4475 36.0572 24.4475Z" fill="#FC6625"/>
<path d="M36.0568 7.90137C29.75 7.90137 24.6206 13.0373 24.6206 19.3521C24.6206 25.6669 29.75 30.8028 36.0568 30.8028C36.5386 30.8028 37.042 30.7676 37.5509 30.7025L38.0002 30.6429L37.8568 30.212C37.5888 29.3989 37.3181 28.5858 37.0529 27.7701L36.9608 27.4909L36.6685 27.5126C36.4357 27.5289 36.2408 27.537 36.0568 27.537C31.5473 27.537 27.8796 23.8646 27.8796 19.3494C27.8796 14.8341 31.5473 11.1618 36.0568 11.1618C40.5663 11.1618 44.234 14.8341 44.234 19.3494C44.234 20.7858 43.8523 22.2033 43.1323 23.4472L43.0376 23.6099L43.1134 23.7833C43.2785 24.1655 43.4192 24.5855 43.5356 24.9243L43.6358 25.2197C43.7982 25.6913 43.9579 26.171 44.1149 26.648L44.3233 27.2795L44.7537 26.7754C46.5212 24.7048 47.4929 22.0677 47.4929 19.3521C47.4957 13.04 42.3636 7.90137 36.0568 7.90137Z" fill="#FC6625"/>
<path d="M42.4101 6.25638L44.1668 0.797983C44.3725 0.150238 45.1358 -0.169569 45.8206 0.090613C46.4919 0.307431 46.8736 0.984989 46.676 1.60563L44.9193 7.06403C44.47 8.54382 41.9148 7.72262 42.4101 6.25638Z" fill="#FC6625"/>
<path d="M47.3385 8.52492L51.6856 4.79293C52.1999 4.34846 53.0174 4.47584 53.464 5.05583C53.9241 5.59245 53.8944 6.37029 53.4017 6.79579L49.0546 10.5278C47.8988 11.5522 46.1475 9.51415 47.3385 8.52492Z" fill="#FC6625"/>
<path d="M50.1511 12.9128L55.8732 13.154C56.5526 13.1811 57.0615 13.8316 56.9938 14.5607C56.9641 15.2653 56.4119 15.8155 55.7622 15.7884L50.0401 15.5472C48.4999 15.5092 48.6082 12.8234 50.1511 12.9128Z" fill="#FC6625"/>
</svg>
