<svg width="45" height="47" viewBox="0 0 45 47" fill="none" xmlns="http://www.w3.org/2000/svg">
<path d="M43.7192 20.7692L38.0769 6.92308H41.5385V3.46154H24.2308V0H20.7692V3.46154H3.46154V6.92308H6.92308L1.31539 20.7692H0V24.2308H0.519231C1.05923 25.9546 2.15654 27.45 3.63462 28.4885C5.09417 29.5468 6.85094 30.1168 8.65385 30.1168C10.4568 30.1168 12.2135 29.5468 13.6731 28.4885C15.1524 27.4437 16.2567 25.951 16.8231 24.2308H17.3077V20.7692H15.75L9.96923 6.92308H20.7692V34.6154H13.8462L12.4962 35.2385L5.57308 43.9269L6.92308 46.7308H38.0769L39.4269 43.9269L32.5038 35.2385L31.1538 34.6154H24.2308V6.92308H35.0654L29.2846 20.7692H27.6923V24.2308H28.2115C28.7777 25.9458 29.8703 27.4385 31.3339 28.4966C32.7974 29.5547 34.5574 30.1243 36.3635 30.1243C38.1695 30.1243 39.9295 29.5547 41.3931 28.4966C42.8567 27.4385 43.9492 25.9458 44.5154 24.2308H45V20.7692H43.7192ZM11.1462 25.9962C10.3828 26.4186 9.5263 26.6447 8.65385 26.6538C7.79173 26.6493 6.9453 26.4228 6.19615 25.9962C5.43223 25.5774 4.78861 24.9695 4.32692 24.2308H12.9808C12.523 24.9606 11.893 25.5668 11.1462 25.9962ZM12.0115 20.7692H5.08846L8.55 12.4615L12.0115 20.7692ZM30.3231 38.0769L34.6154 43.2692H10.3846L14.6769 38.0769H30.3231ZM36.4846 12.5308L39.9462 20.8385H33.0231L36.4846 12.5308ZM38.8385 26.0654C38.0816 26.504 37.2209 26.7311 36.3462 26.7231C35.4819 26.7354 34.6311 26.5077 33.8885 26.0654C33.1234 25.6176 32.4812 24.9873 32.0192 24.2308H40.6731C40.244 25.001 39.6087 25.6363 38.8385 26.0654Z" fill="#FC6625"/>
</svg>
