<svg width="48" height="56" viewBox="0 0 48 56" fill="none" xmlns="http://www.w3.org/2000/svg">
<path d="M24.0791 0.762829L24 0.736477L23.9209 0.762829L0.920943 8.4295L0.75 8.48648V8.66667V31.6667C0.75 44.5086 11.158 54.9167 24 54.9167C36.842 54.9167 47.25 44.5086 47.25 31.6667V8.66667V8.48648L47.0791 8.4295L24.0791 0.762829ZM42.4375 31.6667C42.4375 41.8486 34.182 50.1042 24 50.1042C13.818 50.1042 5.5625 41.8486 5.5625 31.6667V12.078L24 5.57758L42.4375 12.078V31.6667Z" fill="#FC6625" stroke="#FC6625" stroke-width="0.5"/>
<path d="M15.3955 24.9237C15.6874 25.045 15.9525 25.2228 16.1755 25.4468C16.1756 25.4469 16.1757 25.4469 16.1757 25.447L22.2637 31.535L33.8682 19.9364C34.0805 19.7237 34.3326 19.555 34.6102 19.4399C34.8877 19.3248 35.1852 19.2655 35.4857 19.2655C35.7861 19.2655 36.0837 19.3248 36.3612 19.4399C36.6387 19.555 36.8909 19.7237 37.1031 19.9364L37.2705 20.1037C37.4832 20.316 37.6519 20.5681 37.767 20.8456C37.8821 21.1232 37.9414 21.4207 37.9414 21.7212C37.9414 22.0216 37.8821 22.3191 37.767 22.5967C37.6519 22.8742 37.4832 23.1262 37.2706 23.3385C37.2706 23.3385 37.2705 23.3386 37.2705 23.3386L23.8841 36.725L15.3955 24.9237ZM15.3955 24.9237C15.1035 24.8024 14.7904 24.7399 14.4742 24.7399C14.158 24.7399 13.8449 24.8024 13.5529 24.9237C13.2611 25.045 12.9961 25.2227 12.7731 25.4466M15.3955 24.9237L12.7731 25.4466M12.7731 25.4466C12.5492 25.6696 12.3715 25.9346 12.2502 26.2264C12.1289 26.5184 12.0664 26.8315 12.0664 27.1477C12.0664 27.4639 12.1289 27.777 12.2502 28.069C12.3715 28.3609 12.5493 28.626 12.7733 28.8491C12.7734 28.8491 12.7734 28.8492 12.7735 28.8492L20.5236 36.5994L20.6492 36.725L12.7731 25.4466ZM21.3911 37.2215C21.1137 37.1064 20.8616 36.9377 20.6494 36.7251L21.3911 37.2215ZM21.3911 37.2215C21.6687 37.3366 21.9662 37.3958 22.2667 37.3958M21.3911 37.2215L22.2667 37.3958M22.2667 37.3958C22.5671 37.3958 22.8646 37.3366 23.1422 37.2215M22.2667 37.3958L23.1422 37.2215M23.1422 37.2215C23.4196 37.1064 23.6717 36.9377 23.8839 36.7251L23.1422 37.2215Z" fill="#FC6625" stroke="#FC6625" stroke-width="0.5"/>
</svg>
