<svg width="325" height="232" viewBox="0 0 325 232" fill="none" xmlns="http://www.w3.org/2000/svg">
<path d="M23.1221 229.564C23.1221 229.564 -17.0669 187.187 8.52703 137.353C34.1209 87.5166 68.4661 112.596 66.8235 54.5822C65.1808 -3.43156 145.848 -8.38724 171.518 8.44298C197.189 25.2732 199.453 36.1112 252.461 29.4288C305.47 22.744 330.122 72.1217 312.701 106.384C292.353 146.402 353.645 150.278 307.072 229.665L23.1221 229.564Z" fill="url(#paint0_linear)"/>
<g opacity="0.4">
<path opacity="0.4" d="M300.841 82.9928C300.841 85.5578 300.609 88.0727 300.164 90.5135C299.098 96.3695 296.807 101.798 293.567 106.529C286.04 117.525 273.384 124.742 259.043 124.742C241.982 124.742 227.306 114.535 220.812 99.8947C219.956 97.9673 219.241 95.9612 218.684 93.8905C217.744 90.418 217.242 86.7615 217.242 82.9928C217.242 79.943 217.57 76.9695 218.191 74.1084C218.199 74.0749 218.206 74.0439 218.213 74.0105C219.949 66.0957 223.935 59.0264 229.463 53.4951C231.031 51.926 232.724 50.4787 234.527 49.1747C235.386 48.5514 236.273 47.9615 237.179 47.405C243.539 43.4954 251.025 41.2433 259.043 41.2433C260.107 41.2433 261.159 41.2839 262.201 41.3627C263.674 41.4701 265.123 41.6564 266.546 41.9144C272.543 42.9986 278.09 45.363 282.903 48.7114H282.905C285.904 50.7964 288.615 53.2611 290.968 56.041C292.204 57.5003 293.342 59.0455 294.371 60.6695C295.011 61.6798 295.609 62.7163 296.164 63.7839C297.496 66.3465 298.567 69.0619 299.349 71.9016C300.322 75.4291 300.841 79.1524 300.841 82.9928Z" fill="#D3E4FF"/>
<g opacity="0.4">
<path opacity="0.4" d="M244.845 64.3021C243.176 66.9411 245.54 71.5218 240.536 70.2728C235.531 69.0237 232.473 68.4672 232.196 71.2424C231.916 74.02 235.95 74.02 235.95 76.9361C235.95 79.8522 234.142 80.817 231.364 79.4318C228.583 78.0466 227.784 76.0333 224.552 77.2824C221.319 78.5314 219.444 77.6979 218.713 75.1998C218.584 74.7603 218.404 74.4045 218.194 74.106C218.201 74.0725 218.208 74.0415 218.215 74.008C219.951 66.0933 223.937 59.024 229.465 53.4927C231.034 51.9236 232.727 50.4763 234.53 49.1723C235.388 48.549 236.275 47.9591 237.181 47.4026C238.484 47.4504 240.041 47.9447 241.37 49.5855C244.29 53.1966 246.234 51.391 245.54 55.5562C244.845 59.7213 245.956 60.2778 248.319 60.1369C250.681 59.9984 253.462 59.9984 253.739 61.8039C254.017 63.6095 246.511 61.6654 244.845 64.3021Z" fill="#A9C2FF"/>
<path opacity="0.4" d="M262.149 89.2931C262.149 89.2931 258.464 90.4729 257.493 87.9055C256.52 85.3381 257.632 84.7816 254.366 84.0174C251.099 83.2531 250.822 81.032 248.737 81.3091C246.652 81.5861 247.695 82.4196 245.263 84.2252C242.831 86.0307 240.608 85.1972 240.677 88.5288C240.746 91.8605 244.362 92.3811 245.091 94.5688C245.82 96.7565 244.57 97.6927 246.133 99.3597C247.697 101.027 250.617 100.296 249.261 102.589C247.905 104.879 245.82 106.649 246.863 110.191C247.905 113.73 247.176 113.94 248.948 116.438C250.719 118.936 254.16 119.77 254.681 118.105C255.203 116.438 252.283 114.253 253.223 112.586C254.16 110.919 255.724 112.065 256.35 109.567C256.977 107.069 259.511 107.069 259.722 105.333C259.93 103.597 256.664 100.96 257.914 99.8493C259.165 98.7387 261.668 101.863 263.612 99.0851C265.558 96.3075 264.238 94.0864 266.252 91.4497C268.265 88.8083 263.538 87.767 262.149 89.2931Z" fill="#A9C2FF"/>
<path opacity="0.4" d="M300.841 82.9928C300.841 85.5578 300.609 88.0727 300.164 90.5135C299.098 96.3696 296.807 101.798 293.567 106.529C292.463 106.892 291.334 106.883 290.225 106.439C285.012 104.356 288.869 98.734 290.954 95.9206C293.039 93.1096 287.721 94.3587 283.864 91.7554C280.008 89.1522 284.281 82.176 280.321 83.32C276.359 84.4664 271.565 85.9233 269.269 82.071C266.976 78.2187 271.354 77.5929 269.375 74.3664C267.395 71.1374 270.522 69.265 274.482 68.9521C278.444 68.6393 277.923 65.8283 282.822 65.4127C287.721 64.9971 287.618 71.2449 293.039 70.8269C298.46 70.4114 298.216 71.6604 298.216 71.6604C298.605 71.6509 298.986 71.7321 299.347 71.8969C300.322 75.4291 300.841 79.1525 300.841 82.9928Z" fill="#A9C2FF"/>
<path opacity="0.4" d="M296.166 63.7815C291.659 65.9715 289.849 60.0151 285.995 61.8064C282.112 63.6119 282.791 60.1393 279.732 57.9182C276.674 55.6971 270.558 59.7238 270.835 56.2512C271.113 52.781 275.699 53.7531 276.674 50.9755C277.647 48.2003 282.095 48.8929 282.095 48.8929C282.348 48.7974 282.618 48.7353 282.903 48.709C282.903 48.709 282.903 48.7066 282.905 48.709C285.904 50.794 288.615 53.2587 290.968 56.0386C292.204 57.4979 293.342 59.0431 294.371 60.6671C295.011 61.6774 295.611 62.7139 296.166 63.7815Z" fill="#A9C2FF"/>
<path opacity="0.4" d="M258.187 51.8066C258.187 51.8066 260.549 48.4009 256.798 47.3955C253.044 46.39 253.113 47.7059 250.196 47.3955C247.276 47.085 246.131 49.3419 248.319 51.8066C250.509 54.2713 252.281 59.0001 254.261 56.4781C256.24 53.9561 255.86 52.0502 258.187 51.8066Z" fill="#A9C2FF"/>
</g>
</g>
<path d="M274.037 76.6567V206.613C274.037 208.886 272.394 210.73 270.367 210.73H82.6517C80.6265 210.73 78.9814 208.886 78.9814 206.613V76.6567C78.9814 74.3806 80.6241 72.5393 82.6517 72.5393H270.367C272.392 72.5393 274.037 74.383 274.037 76.6567Z" fill="#A9C2FF"/>
<path d="M274.036 76.2053V86.0187H78.9834V76.2053C78.9834 74.18 80.6261 72.5393 82.6537 72.5393H270.369C272.391 72.5393 274.036 74.18 274.036 76.2053Z" fill="#3A487F"/>
<path d="M84.9492 79.279C84.9492 78.3356 85.7144 77.5737 86.6564 77.5737C87.6009 77.5737 88.3636 78.338 88.3636 79.279C88.3636 80.2223 87.5985 80.9842 86.6564 80.9842C85.7144 80.9842 84.9492 80.22 84.9492 79.279Z" fill="url(#paint1_linear)"/>
<path d="M91.6802 79.279C91.6802 78.3356 92.4453 77.5737 93.3874 77.5737C94.3295 77.5737 95.0946 78.338 95.0946 79.279C95.0946 80.2223 94.3295 80.9842 93.3874 80.9842C92.4453 80.9842 91.6802 80.22 91.6802 79.279Z" fill="url(#paint2_linear)"/>
<path d="M98.5811 79.279C98.5811 78.3356 99.3462 77.5737 100.288 77.5737C101.23 77.5737 101.995 78.338 101.995 79.279C101.995 80.2223 101.23 80.9842 100.288 80.9842C99.3462 80.9842 98.5811 80.22 98.5811 79.279Z" fill="url(#paint3_linear)"/>
<path opacity="0.5" d="M204.507 170.273H183.935V190.821H204.507V170.273Z" fill="#E8F2FA"/>
<path d="M185.481 188.474L191.557 177.531L196.026 183.618L198.257 181.182L202.984 188.474H185.481Z" fill="#6B98F6"/>
<path d="M194.453 175.961C194.453 175.094 195.156 174.39 196.026 174.39C196.894 174.39 197.599 175.092 197.599 175.961C197.599 176.828 196.896 177.533 196.026 177.533C195.156 177.53 194.453 176.828 194.453 175.961Z" fill="#6B98F6"/>
<path opacity="0.5" d="M235.228 132.66H183.935V162.355H235.228V132.66Z" fill="#E8F2FA"/>
<path d="M203.792 139.901V155.114L215.37 147.507L203.792 139.901Z" fill="#6B98F6"/>
<path d="M258.696 110.549C258.696 113.9 257.357 116.945 255.195 119.156C253.036 121.365 250.059 122.734 246.781 122.734H107.978C100.893 122.734 95.0972 117.25 95.0972 110.549C95.0972 107.198 96.5438 104.153 98.8822 101.944C101.216 99.7346 104.437 98.3661 107.978 98.3661H246.781C253.335 98.3661 258.696 103.847 258.696 110.549Z" fill="#E8F2FA"/>
<path d="M258.696 110.549C258.696 113.9 257.357 116.945 255.196 119.156C253.037 121.365 250.06 122.734 246.782 122.734H221.664V98.3661H246.782C253.336 98.3661 258.696 103.847 258.696 110.549Z" fill="#FC6625"/>
<path d="M242.797 114.979C242.489 114.979 242.178 114.955 241.867 114.91C240.224 114.666 238.775 113.797 237.788 112.462C235.748 109.71 236.329 105.813 239.086 103.776C241.841 101.738 245.743 102.319 247.783 105.072C249.822 107.824 249.241 111.721 246.484 113.759C245.401 114.559 244.119 114.979 242.797 114.979ZM239.696 104.6C237.393 106.302 236.908 109.555 238.613 111.855C239.438 112.968 240.648 113.694 242.02 113.9C243.39 114.103 244.76 113.763 245.877 112.939C248.18 111.237 248.665 107.984 246.96 105.684C245.255 103.384 241.996 102.897 239.696 104.6Z" fill="white"/>
<path d="M238.493 112.571L237.884 111.749L231.065 116.79L231.674 117.612L238.493 112.571Z" fill="white"/>
<path d="M229.01 118.953C228.709 118.547 228.795 117.976 229.202 117.675L233.219 114.707C233.625 114.406 234.197 114.492 234.498 114.898C234.799 115.304 234.713 115.875 234.307 116.176L230.29 119.144C229.883 119.443 229.312 119.359 229.01 118.953Z" fill="white"/>
<path d="M133.053 138.382H101.235C100.42 138.382 99.7598 137.723 99.7598 136.908C99.7598 136.094 100.42 135.435 101.235 135.435H133.053C133.868 135.435 134.528 136.094 134.528 136.908C134.528 137.72 133.868 138.382 133.053 138.382Z" fill="#FC6625"/>
<path d="M116.72 148.513H100.766C100.212 148.513 99.7598 148.064 99.7598 147.507C99.7598 146.953 100.209 146.502 100.766 146.502H116.72C117.274 146.502 117.726 146.951 117.726 147.507C117.726 148.061 117.274 148.513 116.72 148.513Z" fill="#6B98F6"/>
<path d="M128.864 144.295H100.766C100.212 144.295 99.7598 143.846 99.7598 143.29C99.7598 142.733 100.209 142.284 100.766 142.284H128.864C129.418 142.284 129.87 142.733 129.87 143.29C129.87 143.846 129.421 144.295 128.864 144.295Z" fill="#6B98F6"/>
<path d="M159.725 144.295H133.622C133.067 144.295 132.615 143.846 132.615 143.29C132.615 142.736 133.065 142.284 133.622 142.284H159.727C160.282 142.284 160.734 142.733 160.734 143.29C160.732 143.846 160.282 144.295 159.725 144.295Z" fill="#6B98F6"/>
<path d="M136.616 148.513H120.662C120.105 148.513 119.656 148.064 119.656 147.507C119.656 146.953 120.105 146.502 120.662 146.502H136.616C137.17 146.502 137.622 146.951 137.622 147.507C137.622 148.061 137.173 148.513 136.616 148.513Z" fill="#6B98F6"/>
<path d="M172.424 138.382H140.604C139.788 138.382 139.128 137.723 139.128 136.908C139.128 136.094 139.788 135.435 140.604 135.435H172.421C173.237 135.435 173.897 136.094 173.897 136.908C173.897 137.72 173.237 138.382 172.424 138.382Z" fill="#FC6625"/>
<path d="M133.053 191.134H101.235C100.42 191.134 99.7598 190.475 99.7598 189.661C99.7598 188.846 100.42 188.187 101.235 188.187H133.053C133.868 188.187 134.528 188.846 134.528 189.661C134.528 190.475 133.868 191.134 133.053 191.134Z" fill="#FC6625"/>
<path d="M116.72 201.265H100.766C100.212 201.265 99.7598 200.816 99.7598 200.26C99.7598 199.706 100.209 199.254 100.766 199.254H116.72C117.274 199.254 117.726 199.703 117.726 200.26C117.726 200.816 117.274 201.265 116.72 201.265Z" fill="#6B98F6"/>
<path d="M128.864 197.05H100.766C100.212 197.05 99.7598 196.601 99.7598 196.044C99.7598 195.49 100.209 195.039 100.766 195.039H128.864C129.418 195.039 129.87 195.488 129.87 196.044C129.87 196.599 129.421 197.05 128.864 197.05Z" fill="#6B98F6"/>
<path d="M159.725 197.05H133.622C133.065 197.05 132.615 196.601 132.615 196.044C132.615 195.49 133.065 195.039 133.622 195.039H159.727C160.282 195.039 160.734 195.488 160.734 196.044C160.732 196.599 160.282 197.05 159.725 197.05Z" fill="#6B98F6"/>
<path d="M136.616 201.265H120.662C120.105 201.265 119.656 200.816 119.656 200.26C119.656 199.706 120.105 199.254 120.662 199.254H136.616C137.17 199.254 137.622 199.703 137.622 200.26C137.622 200.816 137.173 201.265 136.616 201.265Z" fill="#6B98F6"/>
<path d="M172.424 191.134H140.604C139.788 191.134 139.128 190.475 139.128 189.661C139.128 188.846 139.788 188.187 140.604 188.187H172.421C173.237 188.187 173.897 188.846 173.897 189.661C173.897 190.475 173.237 191.134 172.424 191.134Z" fill="#FC6625"/>
<path d="M133.053 164.758H101.235C100.42 164.758 99.7598 164.099 99.7598 163.284C99.7598 162.47 100.42 161.811 101.235 161.811H133.053C133.868 161.811 134.528 162.47 134.528 163.284C134.528 164.099 133.868 164.758 133.053 164.758Z" fill="#FC6625"/>
<path d="M116.72 174.889H100.766C100.212 174.889 99.7598 174.44 99.7598 173.884C99.7598 173.33 100.209 172.878 100.766 172.878H116.72C117.274 172.878 117.726 173.33 117.726 173.884C117.726 174.44 117.274 174.889 116.72 174.889Z" fill="#6B98F6"/>
<path d="M128.864 170.671H100.766C100.212 170.671 99.7598 170.222 99.7598 169.666C99.7598 169.112 100.209 168.66 100.766 168.66H128.864C129.418 168.66 129.87 169.109 129.87 169.666C129.87 170.222 129.421 170.671 128.864 170.671Z" fill="#6B98F6"/>
<path d="M159.725 170.671H133.622C133.067 170.671 132.615 170.222 132.615 169.666C132.615 169.112 133.065 168.66 133.622 168.66H159.727C160.282 168.66 160.734 169.109 160.734 169.666C160.732 170.222 160.282 170.671 159.725 170.671Z" fill="#6B98F6"/>
<path d="M136.616 174.889H120.662C120.105 174.889 119.656 174.44 119.656 173.884C119.656 173.33 120.105 172.878 120.662 172.878H136.616C137.17 172.878 137.622 173.33 137.622 173.884C137.622 174.44 137.173 174.889 136.616 174.889Z" fill="#6B98F6"/>
<path d="M172.424 164.758H140.604C139.788 164.758 139.128 164.099 139.128 163.284C139.128 162.47 139.788 161.811 140.604 161.811H172.421C173.237 161.811 173.897 162.47 173.897 163.284C173.897 164.099 173.237 164.758 172.424 164.758Z" fill="#FC6625"/>
<path d="M81.877 150.569C81.877 150.569 82.2404 149.75 82.4771 149.363C82.7138 148.976 83.7228 147.839 83.8926 148.097C84.0647 148.355 84.751 150.087 84.3852 150.572C84.0193 151.056 84.4091 151.899 82.5943 152.411L81.877 150.569Z" fill="#FFAE73"/>
<path d="M61.7109 145.399C61.7109 145.399 71.0002 153.144 74.6227 152.427C77.4561 151.866 81.803 150.378 81.803 150.378L82.6734 152.599C82.6734 152.599 78.7759 157.882 74.7111 157.916C68.3581 157.97 63.6644 155.169 63.6644 155.169L61.7109 145.399Z" fill="#8EB2F3"/>
<path d="M45.418 227.097C45.418 227.097 45.6882 231.441 46.5298 231.503C46.6422 231.51 50.7978 231.51 50.7978 231.51L56.1036 231.479C56.1036 231.479 56.0677 230.202 54.5183 229.932C52.9665 229.662 50.3699 228.573 49.4326 226.526C48.4427 224.374 45.418 227.097 45.418 227.097Z" fill="black"/>
<path d="M45.1119 227.398C45.1119 227.398 46.7259 227.938 47.9835 227.938C49.3895 227.938 50.6663 227.555 50.6663 227.555C50.6663 227.555 50.97 224.623 52.6413 218.158C53.5165 214.769 54.7694 210.415 56.5483 205C61.4715 190.04 62.9683 181.29 63.1046 180.461C63.1118 180.418 63.1142 180.396 63.1142 180.396L63.0974 180.389L47.9644 173.752C47.9644 173.752 49.8342 194.37 47.448 202.283C47.1132 203.388 46.8263 204.678 46.5824 206.073C45.076 214.673 45.1119 227.398 45.1119 227.398Z" fill="#3A487F"/>
<path d="M52.6412 218.158C53.5163 214.769 54.7692 210.415 56.5481 205C61.4713 190.04 62.9681 181.29 63.1044 180.461C63.102 180.437 63.102 180.413 63.0996 180.389L47.9666 173.752C47.9666 173.752 49.8364 194.37 47.4502 202.283C47.1154 203.391 52.6412 218.158 52.6412 218.158Z" fill="#3A487F"/>
<path d="M57.2368 227.097C57.2368 227.097 57.507 231.441 58.3487 231.503C58.461 231.51 62.6167 231.51 62.6167 231.51L67.9225 231.479C67.9225 231.479 67.8866 230.202 66.3372 229.932C64.7854 229.662 62.1911 228.573 61.2514 226.526C60.2615 224.374 57.2368 227.097 57.2368 227.097Z" fill="black"/>
<path d="M65.816 174.239C65.816 174.239 66.0121 187.599 63.6975 204.005C61.383 220.41 62.1673 227.371 62.1673 227.371C62.1673 227.371 60.5772 227.885 59.9364 227.938C58.3009 228.071 56.6248 227.555 56.6248 227.555C56.6248 227.555 53.3132 211.146 54.2624 202.935C55.2117 194.724 49.7266 174.76 49.7266 174.76L65.816 174.239Z" fill="#3A487F"/>
<path d="M55.085 142.974L58.0379 144.909L60.7279 144.149C61.2204 143.45 61.3495 142.098 61.3567 140.928C61.3639 139.767 61.2515 138.783 61.2515 138.783L57.2656 137.025L55.7784 136.371C55.7831 136.395 55.8931 137.591 55.9099 137.766C56.192 140.866 55.085 142.974 55.085 142.974Z" fill="#FFAE73"/>
<path d="M65.8832 177.953C62.2058 181.5 48.2922 180.903 47.4338 176.995C46.5778 173.088 48.3687 143.741 54.65 141.897C55.9532 141.515 62.9207 143.765 62.9207 143.765C62.9207 143.765 64.0134 146.621 64.7307 150.259C64.8694 150.966 65.2759 158.467 65.5796 165.484C65.7206 168.765 65.8402 171.942 65.9024 174.268C65.9597 176.446 65.9621 177.877 65.8832 177.953Z" fill="#A8CCFF"/>
<path d="M56.2114 137.821C57.0196 139.187 59.8578 140.381 61.3594 140.928C61.3665 139.767 61.2541 138.783 61.2541 138.783L57.2682 137.025C56.3883 137.013 55.8503 137.209 56.2114 137.821Z" fill="#FFA05E"/>
<path d="M62.758 138.539C62.758 138.539 56.338 140.541 55.152 136.526C53.966 132.514 52.3377 130.068 56.3882 128.621C60.4386 127.174 61.6915 128.468 62.4136 129.712C63.1334 130.957 64.3982 137.916 62.758 138.539Z" fill="#FFAE73"/>
<path d="M62.158 129.328C62.158 129.328 61.7491 133.999 60.7807 133.796C59.8147 133.593 58.7483 133.161 58.8918 134.568C59.0329 135.974 57.9521 138.389 56.5581 138.384C53.5669 138.372 50.3174 130.708 51.1376 129.254C53.4999 125.058 65.5724 124.212 62.158 129.328Z" fill="black"/>
<path d="M61.2134 142C61.1297 141.964 56.4336 139.86 55.8837 140.042C55.3337 140.223 54.6499 141.9 54.6499 141.9L62.9206 143.767C62.923 143.765 62.2702 142.444 61.2134 142Z" fill="#8EB2F3"/>
<path d="M90.4581 164.729L64.1254 189.491C63.6089 189.976 62.9585 190.131 62.6788 189.835L61.7893 188.892C61.5095 188.595 61.7032 187.955 62.2197 187.471L88.5501 162.709C89.0665 162.224 89.7169 162.069 89.9966 162.365L90.8861 163.308C91.1683 163.604 90.9746 164.242 90.4581 164.729Z" fill="#0B4D87"/>
<path d="M75.6814 178.624L64.1278 189.491C63.6113 189.976 62.961 190.131 62.6812 189.835L61.7917 188.892C61.512 188.595 61.7057 187.955 62.2221 187.471L73.7757 176.604L75.6814 178.624Z" fill="#6B98F6"/>
<path d="M84.4066 155.379C85.418 158.706 87.2902 161.823 90.0065 164.378C98.3082 172.178 111.371 171.78 119.18 163.49C126.886 155.305 126.602 142.497 118.613 134.663C118.508 134.558 118.398 134.453 118.288 134.35C109.989 126.55 96.9262 126.944 89.117 135.236C83.8638 140.815 82.324 148.544 84.4066 155.379ZM90.3053 136.354C94.8507 131.527 101.326 129.605 107.409 130.658C110.952 131.272 114.362 132.891 117.176 135.537C124.823 142.724 125.189 154.739 117.994 162.374C115.345 165.185 112.042 167.01 108.544 167.839C102.538 169.26 95.9554 167.734 91.1231 163.194C83.4765 156.007 83.1106 143.992 90.3053 136.354Z" fill="#0B4D87"/>
<g opacity="0.5">
<path opacity="0.5" d="M117.994 162.372C115.344 165.183 112.042 167.01 108.544 167.836C102.538 169.255 95.9552 167.731 91.1229 163.191C83.4763 156.005 83.1104 143.989 90.3051 136.352C94.8505 131.527 101.325 129.602 107.408 130.656C110.952 131.267 114.362 132.889 117.176 135.535C124.82 142.719 125.186 154.737 117.994 162.372Z" fill="#ACCEFC"/>
</g>
<path d="M65.9046 174.266C51.3957 163.939 52.6032 150.161 52.6032 150.161C57.9066 153.149 63.1693 159.754 65.5819 165.484C65.7229 168.763 65.8425 171.942 65.9046 174.266Z" fill="#8EB2F3"/>
<path d="M80.2247 169.563C81.248 169.327 81.9343 168.555 82.0777 168.419C82.0777 168.419 82.5129 168.448 82.006 169.379C81.963 169.458 81.8697 169.656 81.798 169.797C81.7693 169.855 81.8099 169.921 81.8745 169.926C82.4651 169.972 83.0581 169.738 84.1962 169.974C84.354 170.007 84.3995 170.382 84.3923 170.542C84.3827 170.812 84.4019 171.118 84.0862 171.531C83.9021 171.772 83.3904 172.033 82.2523 172.491C81.8195 172.666 80.5786 172.534 79.4165 172.135L78.4888 171.706L78.7757 169.981L79.01 170.029C79.3782 170.11 79.8373 169.659 80.2247 169.563Z" fill="#FFAE73"/>
<path d="M57.1054 143.765C57.1054 143.765 44.0694 146.244 60.9407 165.099C63.6402 168.116 78.2185 172.042 78.2185 172.042C78.2185 172.042 79.6961 170.786 78.9525 169.769C78.9525 169.769 68.9149 162.489 66.7055 161.331C65.7108 160.81 62.8487 149.709 61.23 147.037C59.6089 144.364 57.1054 143.765 57.1054 143.765Z" fill="#A8CCFF"/>
<path d="M82.2305 150.798C82.2305 150.798 82.6561 149.984 82.7398 149.554C82.8234 149.124 83.359 147.873 83.5814 147.653C83.6699 147.565 83.9616 147.679 83.9974 148.059C84.0118 148.224 83.9305 148.525 83.787 148.883C83.5527 149.466 83.5934 150.256 83.5121 150.519C83.3088 151.176 82.2305 150.798 82.2305 150.798Z" fill="#FFAE73"/>
<path d="M256.537 125.946L249.155 127.661L245.507 134.293L242.719 119.178L256.537 125.946Z" fill="#3A487F"/>
<path d="M248.737 126.202L247.663 127.015L252.376 133.228L253.451 132.415L248.737 126.202Z" fill="#3A487F"/>
<path d="M232.201 195.813C232.201 195.813 235.252 192.235 232.371 189.976C232.371 189.976 230.266 188.712 228.557 188.822C228.557 188.822 230.996 192.878 230.212 193.284C229.427 193.69 227.82 188.569 227.82 188.569C227.82 188.569 223.043 188.122 221.508 188.865C221.508 188.865 225.602 192.19 224.743 192.393C223.885 192.593 219.461 189.331 219.461 189.331C219.461 189.331 215.019 190.1 215.263 192.808C215.507 195.517 217.044 196.348 217.716 196.274C218.39 196.2 222.323 194.685 222.409 195.235C222.498 195.786 220.131 197.594 218.471 197.683C218.471 197.683 221.618 201.127 223.696 200.124C225.776 199.121 225.948 197.539 227.244 196.945C228.54 196.348 229.65 196.345 229.116 196.952C228.583 197.559 226.233 198.153 225.496 199.467C224.758 200.78 224.095 201.669 226.25 201.337C228.404 201.007 231.902 199.419 232.05 197.616C232.201 195.813 232.201 195.813 232.201 195.813Z" fill="#73B471"/>
<path d="M217.448 192.873C217.448 192.873 229.523 192.369 232.201 195.81C232.201 195.81 232.796 197.573 234.616 199.173L234.901 199.942C234.901 199.942 232.801 197.745 232.053 197.613C232.053 197.616 233.21 193.338 217.448 192.873Z" fill="#73B471"/>
<path d="M234.616 199.175C234.616 199.175 237.216 201.081 237.404 204.501L236.933 204.544C236.933 204.544 236.094 201.01 234.595 199.632C233.093 198.254 234.616 199.175 234.616 199.175Z" fill="#73B471"/>
<path d="M248.391 186.372C248.391 186.372 243.511 183.661 245.773 179.957C245.773 179.957 247.585 177.681 249.531 177.091C249.531 177.091 248.51 182.61 249.548 182.737C250.588 182.864 250.244 176.506 250.244 176.506C250.244 176.506 255.368 174.024 257.381 174.213C257.381 174.213 254.215 179.608 255.253 179.475C256.293 179.341 259.849 173.879 259.849 173.879C259.849 173.879 265.107 172.888 265.963 176C266.819 179.112 265.458 180.673 264.679 180.869C263.899 181.068 258.897 181.017 259.029 181.667C259.16 182.314 262.541 183.344 264.423 182.754C264.423 182.754 262.359 187.886 259.631 187.635C256.903 187.385 256.052 185.701 254.364 185.577C252.673 185.452 251.442 185.911 252.288 186.362C253.135 186.814 255.992 186.498 257.36 187.654C258.727 188.808 259.834 189.52 257.302 190.045C254.77 190.573 250.222 190.262 249.307 188.318C248.391 186.372 248.391 186.372 248.391 186.372Z" fill="#9BD399"/>
<path d="M263.563 176.981C263.563 176.981 249.936 181.435 248.391 186.372C248.391 186.372 248.463 188.579 247.107 191.113L247.11 192.087C247.11 192.087 248.528 188.774 249.307 188.316C249.307 188.316 246.239 184.043 263.563 176.981Z" fill="#73B471"/>
<path d="M247.107 191.113C247.107 191.113 245.012 194.311 246.225 198.191L246.765 198.043C246.765 198.043 246.227 193.766 247.32 191.612C248.415 189.458 247.107 191.113 247.107 191.113Z" fill="#73B471"/>
<path d="M240.629 182.639C240.629 182.639 247.04 179.026 244.027 174.161C244.027 174.161 241.619 171.175 239.049 170.413C239.049 170.413 240.443 177.679 239.073 177.855C237.703 178.03 238.104 169.647 238.104 169.647C238.104 169.647 231.33 166.418 228.676 166.683C228.676 166.683 232.894 173.769 231.524 173.602C230.154 173.435 225.422 166.265 225.422 166.265C225.422 166.265 218.483 165.004 217.381 169.112C216.281 173.22 218.086 175.269 219.114 175.522C220.143 175.775 226.737 175.67 226.567 176.525C226.4 177.38 221.95 178.763 219.466 178.001C219.466 178.001 222.228 184.75 225.824 184.397C229.42 184.043 230.525 181.815 232.751 181.638C234.977 181.459 236.605 182.054 235.493 182.656C234.381 183.258 230.613 182.868 228.82 184.399C227.026 185.932 225.573 186.878 228.915 187.552C232.258 188.225 238.25 187.779 239.441 185.209C240.629 182.639 240.629 182.639 240.629 182.639Z" fill="#9BD399"/>
<path d="M220.551 170.387C220.551 170.387 238.551 176.145 240.627 182.639C240.627 182.639 240.55 185.548 242.36 188.877L242.365 190.16C242.365 190.16 240.466 185.803 239.438 185.209C239.438 185.209 243.443 179.551 220.551 170.387Z" fill="#73B471"/>
<path d="M242.36 188.877C242.36 188.877 245.146 193.076 243.582 198.199L242.867 198.01C242.867 198.01 243.541 192.369 242.083 189.536C240.624 186.704 242.36 188.877 242.36 188.877Z" fill="#73B471"/>
<path d="M292.047 231.838H226.228C217.051 221.353 219.475 207.188 231.656 195.242C233.186 193.74 236.124 192.675 239.293 191.922C245.132 190.537 251.752 190.219 251.805 190.191C251.824 190.184 255.303 187.365 257.398 184.834C263.904 176.967 269.437 177.643 269.437 177.643C276.067 176.353 281.722 175.976 285.916 178.307C285.916 178.309 285.916 178.309 285.918 178.309C289.801 180.473 292.431 184.963 293.417 193.214C293.603 194.774 293.732 196.47 293.797 198.309C294.036 205.005 295.358 210.962 296.142 216.008C296.145 216.008 296.145 216.008 296.145 216.008C297.278 223.319 298.082 228.876 292.047 231.838Z" fill="#FC6625"/>
<path d="M282.628 186.723C278.604 188.911 278.159 196.123 271.864 197.986C265.568 199.849 254.877 199.679 248.814 206.247C242.965 212.586 236.514 196.46 239.29 191.925C245.129 190.539 251.75 190.222 251.803 190.193C251.822 190.186 255.301 187.368 257.395 184.836C263.901 176.969 269.434 177.645 269.434 177.645C276.065 176.355 281.719 175.978 285.913 178.309C285.913 178.311 285.913 178.311 285.916 178.311C290.533 183.078 286.652 184.533 282.628 186.723Z" fill="#FF8A3A"/>
<path d="M239.082 217.9C239.082 217.9 240.242 220.969 240 222.11C239.759 223.252 240.161 225.458 239.697 226.45C239.233 227.438 238.403 228.878 239.204 229.239C239.508 229.375 243.035 226.626 243.235 225.817C243.436 225.007 243.585 222.624 244.259 221.327C244.931 220.03 244.362 218.989 243.381 218.516C242.401 218.043 241.031 215.44 241.031 215.44L239.082 217.9Z" fill="url(#paint4_linear)"/>
<path d="M257.931 188.796C257.931 188.796 238.673 187.609 236.191 190.16C233.575 192.849 237.836 219.287 237.836 219.287C237.836 219.287 243.058 219.438 243.47 218.055C243.47 218.055 242.489 205.254 243.305 203.04C244.12 200.826 243.603 197.762 243.603 197.762C243.603 197.762 253.82 199.285 257.063 198.509C260.303 197.733 257.931 188.796 257.931 188.796Z" fill="#3A487F"/>
<path d="M264.992 178.037C264.624 180.277 261.941 184.688 261.432 184.939C260.927 185.19 252.212 189.436 252.016 189.534H252.013C251.717 189.84 251.351 190.21 251.279 190.243C250.61 190.556 249.763 190.375 249.354 190.477C248.945 190.58 249.015 190.327 249.316 190.119C249.617 189.911 250.361 189.993 250.057 189.918C249.754 189.842 248.116 189.539 247.499 189.704C246.523 189.964 245.751 189.658 245.691 189.558C245.629 189.46 247.92 188.34 248.575 188.378C249.23 188.414 251.109 188.323 251.109 188.323L251.114 188.325C252.51 187.848 257.065 182.663 258.373 181.999C259.758 181.294 262.596 174.693 262.596 174.679C262.596 174.679 265.36 175.799 264.992 178.037Z" fill="url(#paint5_linear)"/>
<path d="M235.527 222.965C235.527 222.965 234.429 226.058 233.509 226.774C232.588 227.491 231.467 229.437 230.474 229.894C229.48 230.35 227.916 230.916 228.296 231.709C228.44 232.01 232.911 232.182 233.585 231.692C234.259 231.202 235.916 229.478 237.267 228.919C238.618 228.363 238.855 227.197 238.413 226.206C237.97 225.213 238.604 222.342 238.604 222.342L235.527 222.965Z" fill="url(#paint6_linear)"/>
<path d="M268.396 171.746C267.985 171.271 278.415 172.441 279.802 177.762C279.802 177.762 287.812 171.457 280.464 166.141C277.92 164.302 277.664 162.336 277.296 160.54C276.928 158.742 274.388 153.578 269.984 156.143C269.984 156.143 267.973 156.153 266.699 157.254C263.805 159.764 260.647 175.691 268.396 171.746Z" fill="black"/>
<path d="M266.369 189.73C266.369 189.73 245.433 191.863 243.594 193.998C241.755 196.133 234.532 223.894 234.532 223.894C234.532 223.894 236.669 225.084 238.611 223.971C238.611 223.971 244.146 214.551 246.597 211.595C249.048 208.638 249.961 199.51 250.365 199.417C250.769 199.324 263.892 201.241 268.408 197.776C272.923 194.311 266.369 189.73 266.369 189.73Z" fill="#3A487F"/>
<path d="M278.02 170.748C278.02 170.748 273.026 168.522 266.694 169.542C265.4 169.749 264.234 170.177 263.308 171.698C262 173.85 261.391 175.004 261.391 175.004C261.391 175.004 261.517 176 263.303 176.792C262.818 178.577 263.751 181.691 262.892 182.899C262.034 184.108 256.714 187.107 256.451 188.774C255.968 191.836 265.546 197.384 268.401 196.792C276.619 195.087 282.193 173.093 278.02 170.748Z" fill="white"/>
<path d="M275.192 164.44C275.192 164.44 276.177 162.506 276.307 160.918C276.4 159.783 275.439 155.706 271.34 156.693C271.34 156.693 270.145 156.927 269.081 157.798C268.237 158.493 267.058 159.931 268.856 163.399L269.349 164.581L275.192 164.44Z" fill="black"/>
<path d="M271.261 172.749C269.322 172.857 269.157 171.405 269.573 170.967C269.746 170.788 269.922 169.644 269.841 168.66C269.746 167.493 269.559 166.258 269.559 166.258L273.447 165.164L273.679 165.099C273.908 168.166 274.889 169.499 275.011 170.015C275.266 171.101 272.536 172.677 271.261 172.749Z" fill="url(#paint7_linear)"/>
<path d="M269.475 168.051C269.475 168.051 274.563 166.771 273.717 163.619C272.87 160.466 272.956 158.178 269.671 158.861C266.386 159.547 266.082 160.918 266.108 162.038C266.135 163.16 268.129 168.305 269.475 168.051Z" fill="url(#paint8_linear)"/>
<path d="M267.342 159.406C267.342 159.406 269.052 162.656 272.275 163.007C274.162 163.213 274.68 164.452 274.68 164.452C274.68 164.452 274.114 160.903 273.164 158.732C273.164 158.732 267.914 157.364 267.342 159.406Z" fill="black"/>
<path d="M267.926 159.836C267.926 159.836 266.812 160.973 266.467 161.773C265.958 162.96 266.953 165.458 267.361 165.995C267.361 165.995 264.992 161.983 265.783 160.244C266.625 158.403 267.926 159.836 267.926 159.836Z" fill="black"/>
<path d="M284.304 189.054C282.564 191.129 270.412 188.607 270.412 188.607C270.412 188.607 268.569 188.634 268.107 188.524C267.646 188.416 266.465 186.952 266.78 186.587C266.976 186.355 268.079 186.768 268.602 186.768C268.746 186.768 268.954 186.711 269.198 186.661C269.179 186.637 269.167 186.616 269.155 186.599C269.002 186.358 267.617 186.033 267.617 185.792C267.617 185.553 269.994 185.844 270.403 186.205C270.814 186.563 271.828 187.22 271.828 187.22C271.828 187.22 271.828 187.22 271.828 187.222C274.205 187.072 279.857 186.701 280.359 186.561C281.275 186.3 275.831 176.315 275.831 176.315L279.742 172.725C279.742 172.725 286.057 186.964 284.304 189.054Z" fill="url(#paint9_linear)"/>
<path d="M277.387 170.514C277.538 170.518 279.427 171.135 280.782 173.814C282.114 176.446 282.6 177.724 282.6 177.724C282.6 177.724 276.696 182.295 274.348 180.614C272 178.932 275.223 170.459 277.387 170.514Z" fill="white"/>
<path d="M269.056 189.36L266.332 188.973C265.926 188.915 265.512 188.576 265.412 188.213L263.908 182.902C263.805 182.541 264.054 182.295 264.46 182.352L267.184 182.739C267.59 182.797 268.004 183.136 268.104 183.499L269.608 188.81C269.711 189.173 269.465 189.419 269.056 189.36Z" fill="#104995"/>
<path d="M268.49 189.281L265.766 188.894C265.36 188.837 264.946 188.497 264.846 188.134L263.342 182.823C263.239 182.462 263.485 182.216 263.894 182.274L266.617 182.661C267.024 182.718 267.438 183.057 267.538 183.42L269.042 188.732C269.145 189.092 268.896 189.338 268.49 189.281Z" fill="#1E3865"/>
<path d="M263.806 182.952C263.763 182.801 263.865 182.699 264.035 182.723C264.205 182.747 264.375 182.887 264.418 183.038C264.461 183.188 264.358 183.291 264.188 183.267C264.021 183.243 263.849 183.102 263.806 182.952Z" fill="#104995"/>
<path d="M278.32 192.109C278.32 192.109 276.337 193.964 268.036 194.232C259.736 194.499 248.917 203.661 248.814 206.247C248.714 208.834 265.525 212.762 265.786 212.392C266.046 212.022 276.447 203.097 276.447 203.097L278.32 192.109Z" fill="#FC6625"/>
<path d="M296.14 216.01C286.906 204.499 267.937 220.192 263.028 219.751C258.516 219.342 271.83 203.608 288.34 201.265C295.014 200.319 293.416 193.429 293.412 193.217C293.598 194.776 293.727 196.472 293.792 198.311C294.033 205.008 295.356 210.966 296.14 216.01Z" fill="#FF8A3A"/>
<path d="M186.601 159.676C186.601 159.167 187.012 158.756 187.521 158.756C188.03 158.756 188.442 159.167 188.442 159.676C188.442 160.184 188.03 160.595 187.521 160.595C187.014 160.595 186.601 160.184 186.601 159.676Z" fill="#D3E4FF"/>
<path d="M229.405 159.924H187.77C187.633 159.924 187.521 159.814 187.521 159.676C187.521 159.54 187.631 159.427 187.77 159.427H229.405C229.541 159.427 229.654 159.537 229.654 159.676C229.654 159.812 229.544 159.924 229.405 159.924Z" fill="#D3E4FF"/>
<path d="M107.318 109.223C107.608 109.166 108.191 109.123 108.739 109.123C109.41 109.123 109.822 109.187 110.173 109.398C110.513 109.577 110.757 109.909 110.757 110.348C110.757 110.78 110.503 111.184 109.956 111.385V111.399C110.51 111.549 110.922 111.967 110.922 112.596C110.922 113.035 110.721 113.381 110.417 113.625C110.063 113.907 109.473 114.064 108.507 114.064C107.966 114.064 107.562 114.028 107.316 113.993V109.223H107.318ZM108.406 111.084H108.767C109.344 111.084 109.654 110.845 109.654 110.487C109.654 110.119 109.372 109.925 108.875 109.925C108.636 109.925 108.499 109.94 108.406 109.954V111.084ZM108.406 113.238C108.514 113.252 108.645 113.252 108.832 113.252C109.329 113.252 109.769 113.064 109.769 112.553C109.769 112.063 109.329 111.867 108.782 111.867H108.406V113.238Z" fill="#A9C2FF"/>
<path d="M114.965 112.885C114.965 113.345 114.979 113.72 114.993 114.017H114.042L113.992 113.52H113.97C113.834 113.735 113.501 114.095 112.865 114.095C112.151 114.095 111.625 113.649 111.625 112.56V110.491H112.729V112.385C112.729 112.896 112.894 113.207 113.277 113.207C113.58 113.207 113.753 112.997 113.824 112.825C113.853 112.76 113.86 112.674 113.86 112.586V110.489H114.965V112.885Z" fill="#A9C2FF"/>
<path d="M115.838 113.056C116.038 113.178 116.457 113.324 116.782 113.324C117.114 113.324 117.251 113.209 117.251 113.028C117.251 112.846 117.143 112.76 116.732 112.624C116.003 112.378 115.723 111.984 115.73 111.566C115.73 110.909 116.292 110.413 117.165 110.413C117.576 110.413 117.944 110.506 118.159 110.613L117.966 111.37C117.808 111.284 117.504 111.17 117.201 111.17C116.933 111.17 116.782 111.277 116.782 111.459C116.782 111.624 116.918 111.712 117.351 111.862C118.023 112.092 118.303 112.431 118.31 112.949C118.31 113.606 117.791 114.088 116.78 114.088C116.318 114.088 115.907 113.988 115.639 113.842L115.838 113.056Z" fill="#A9C2FF"/>
<path d="M121.624 113.928C121.43 114.014 121.062 114.086 120.644 114.086C119.503 114.086 118.776 113.393 118.776 112.285C118.776 111.256 119.484 110.413 120.797 110.413C121.086 110.413 121.402 110.463 121.634 110.549L121.462 111.363C121.332 111.306 121.136 111.256 120.849 111.256C120.273 111.256 119.898 111.667 119.905 112.242C119.905 112.889 120.338 113.228 120.871 113.228C121.132 113.228 121.332 113.185 121.497 113.121L121.624 113.928Z" fill="#A9C2FF"/>
<path d="M124.264 114.014L124.199 113.661H124.178C123.946 113.943 123.587 114.093 123.169 114.093C122.454 114.093 122.028 113.575 122.028 113.011C122.028 112.096 122.851 111.657 124.099 111.664V111.614C124.099 111.428 123.999 111.16 123.456 111.16C123.095 111.16 122.712 111.282 122.483 111.428L122.282 110.721C122.528 110.585 123.011 110.41 123.652 110.41C124.828 110.41 125.204 111.103 125.204 111.932V113.157C125.204 113.496 125.218 113.821 125.254 114.014H124.264ZM124.135 112.352C123.559 112.345 123.111 112.481 123.111 112.906C123.111 113.188 123.298 113.324 123.544 113.324C123.819 113.324 124.042 113.145 124.113 112.92C124.128 112.863 124.135 112.799 124.135 112.732V112.352Z" fill="#A9C2FF"/>
<path d="M126.067 111.652C126.067 111.134 126.052 110.795 126.038 110.491H126.983L127.018 111.141H127.047C127.226 110.63 127.659 110.413 127.999 110.413C128.099 110.413 128.149 110.413 128.231 110.427V111.456C128.152 111.442 128.059 111.428 127.934 111.428C127.53 111.428 127.255 111.645 127.183 111.982C127.169 112.053 127.162 112.139 127.162 112.228V114.014H126.067V111.652Z" fill="#A9C2FF"/>
<path d="M128.259 113.431C128.259 113.042 128.527 112.76 128.907 112.76C129.289 112.76 129.55 113.035 129.55 113.431C129.55 113.814 129.289 114.095 128.902 114.095C128.527 114.095 128.259 113.814 128.259 113.431Z" fill="#A9C2FF"/>
<path d="M130.136 113.431C130.136 113.042 130.404 112.76 130.784 112.76C131.167 112.76 131.427 113.035 131.427 113.431C131.427 113.814 131.167 114.095 130.779 114.095C130.402 114.095 130.136 113.814 130.136 113.431Z" fill="#A9C2FF"/>
<path d="M132.011 113.431C132.011 113.042 132.279 112.76 132.659 112.76C133.041 112.76 133.302 113.035 133.302 113.431C133.302 113.814 133.041 114.095 132.654 114.095C132.279 114.095 132.011 113.814 132.011 113.431Z" fill="#A9C2FF"/>
<path d="M40.8344 131.893L40.7985 130.971C40.6885 129.089 41.315 127.283 42.9409 125.292C44.1603 123.854 45.1191 122.784 45.1191 121.53C45.1191 120.24 44.2703 119.39 42.4244 119.354C41.1691 119.354 39.7297 119.76 38.7326 120.424L37.5132 116.405C38.8426 115.631 41.0591 114.893 43.6797 114.893C48.5551 114.893 50.7692 117.585 50.7692 120.646C50.7692 123.486 48.9974 125.184 47.5939 126.77C46.2645 128.282 45.7097 129.574 45.7097 131.269L45.7456 131.895H40.8344V131.893ZM39.8732 137.204C39.8732 135.248 41.1643 133.849 43.1609 133.849C45.1168 133.849 46.4462 135.251 46.4844 137.204C46.4844 139.16 45.1191 140.56 43.1609 140.56C41.2026 140.56 39.8732 139.16 39.8732 137.204Z" fill="#FC6625"/>
<path d="M282.026 153.043L281.99 152.122C281.88 150.24 282.506 148.434 284.132 146.442C285.352 145.005 286.311 143.935 286.311 142.681C286.311 141.391 285.462 140.541 283.616 140.505C282.361 140.505 280.921 140.911 279.924 141.575L278.705 137.555C280.034 136.782 282.251 136.044 284.871 136.044C289.746 136.044 291.961 138.735 291.961 141.797C291.961 144.637 290.189 146.335 288.785 147.921C287.456 149.432 286.901 150.724 286.901 152.42L286.939 153.046H282.026V153.043ZM281.065 158.355C281.065 156.399 282.356 154.999 284.352 154.999C286.308 154.999 287.638 156.401 287.676 158.355C287.676 160.311 286.311 161.711 284.352 161.711C282.394 161.711 281.065 160.311 281.065 158.355Z" fill="#FC6625"/>
<path d="M142.534 31.1313L142.498 30.1712C142.388 28.2892 143.014 26.3714 144.676 24.382C145.857 22.9801 146.818 21.8002 146.818 20.5464C146.818 19.2543 145.97 18.4065 144.124 18.3325C142.904 18.3325 141.429 18.7743 140.468 19.4406L139.212 15.4211C140.542 14.6473 142.758 13.9094 145.379 13.9094C150.254 13.9094 152.468 16.601 152.468 19.6627C152.468 22.4666 150.733 24.3103 149.329 25.8579C147.964 27.3697 147.409 28.8098 147.445 30.4697V31.1336H142.534V31.1313ZM141.575 36.2207C141.575 34.2671 142.94 32.8651 144.86 32.8651C146.854 32.8651 148.145 34.2671 148.184 36.2207C148.184 38.1385 146.854 39.5762 144.86 39.5762C142.904 39.5786 141.575 38.1385 141.575 36.2207Z" fill="#FC6625"/>
<path d="M136.152 93.7591C135.889 94.06 135.855 94.3944 135.987 94.7526C135.987 94.755 135.987 94.7574 135.989 94.7574C136.228 95.4189 137.02 96.1593 137.94 96.8973C138.057 96.9928 138.162 97.0788 138.253 97.1576C138.277 97.1791 138.301 97.2006 138.323 97.2197C138.342 97.2364 138.358 97.2531 138.378 97.2675C139.236 98.058 138.913 98.2395 140.453 99.842C142.21 101.669 143.42 101.702 143.765 101.535C144.056 101.394 143.466 100.425 142.811 99.3357C142.78 99.2832 142.748 99.2306 142.715 99.1781C142.629 99.0324 142.54 98.8867 142.454 98.741C141.687 97.4299 141.883 96.8161 142.067 94.8648C142.215 93.2814 144.537 86.0139 144.537 86.0139L141.17 85.4335C141.17 85.4335 140.154 91.2203 139.038 92.1112C138.44 92.5864 137.77 92.5912 137.196 92.9447C137.156 92.9686 137.115 92.9948 137.077 93.0211C136.747 93.2337 136.415 93.4581 136.152 93.7591Z" fill="url(#paint10_linear)"/>
<path d="M136.152 93.7591C135.889 94.06 135.855 94.3944 135.987 94.7526C135.987 94.755 135.987 94.7574 135.989 94.7574C136.283 95.4189 137.053 96.1545 137.942 96.8901C138.06 96.9857 138.16 97.074 138.253 97.1576C138.277 97.1791 138.301 97.2006 138.323 97.2197C138.342 97.2364 138.358 97.2531 138.378 97.2675C139.236 98.058 138.913 98.2395 140.453 99.842C142.21 101.669 143.42 101.703 143.765 101.535C144.056 101.394 143.466 100.425 142.811 99.3357C142.469 99.2115 140.879 98.5643 139.678 97.0286C138.66 95.7294 137.966 94.0719 137.273 93.0545C137.196 93.0402 137.151 93.0307 137.075 93.0163C136.747 93.2337 136.415 93.4582 136.152 93.7591Z" fill="#1E3865"/>
<path d="M163.307 91.6669C163.515 92.7058 164.998 92.5315 166.652 92.1303C168.307 91.7267 167.915 92.2067 170.27 91.9464C172.625 91.686 173.34 90.8096 173.412 90.4585C173.476 90.148 172.312 90.0381 171.064 89.8948C170.906 89.8781 170.748 89.8566 170.59 89.8375C169.18 89.6608 168.149 88.7508 166.867 88.0057C165.655 87.2988 163.845 84.4185 163.845 84.4185L160.615 84.6741C160.615 84.6741 162.31 87.2462 162.965 88.3663C163.35 89.0231 163.331 89.8948 163.281 90.5659C163.259 90.9266 163.235 91.3015 163.307 91.6669Z" fill="url(#paint11_linear)"/>
<path d="M166.652 92.1279C168.307 91.7243 167.915 92.2043 170.27 91.944C172.625 91.6837 173.34 90.8072 173.412 90.4561C173.476 90.1456 172.312 90.0358 171.064 89.8925L171.052 89.9164C171.052 89.9164 169.639 90.917 167.678 90.9624C166.078 91.0006 164.385 90.5421 163.283 90.5612C163.259 90.9266 163.233 91.2992 163.307 91.6646C163.515 92.7059 164.998 92.5315 166.652 92.1279Z" fill="#1E3865"/>
<path d="M150.931 71.025L147.909 79.1428L143.961 89.742C143.961 89.742 142.89 89.8447 141.867 89.5509C140.922 89.2787 139.841 88.5646 139.841 88.5646C139.841 88.5646 140.941 77.182 142.986 70.6501C143.509 68.9735 144.097 67.617 144.745 66.8527C147.911 63.1151 150.931 71.025 150.931 71.025Z" fill="#FC6625"/>
<path d="M147.866 58.1307C146.147 57.5766 141.661 58.1212 136.793 58.9977C135.449 59.2413 134.094 58.6275 133.386 57.4596L121.139 56.4995C121.139 56.4995 117.095 65.4484 119.305 71.154C119.63 71.9923 120.343 72.5153 121.445 72.5344C121.445 72.5344 128.845 72.5464 131.212 72.5488C137.302 72.5512 144.102 68.3717 144.982 68.1973C146.422 67.9107 146.998 70.7862 148.435 73.8074C149.875 76.8286 161.964 87.1842 161.964 87.1842C161.964 87.1842 163.822 87.2033 164.589 86.9167C165.414 86.6086 165.718 86.205 165.718 86.205C165.718 86.205 152.328 59.5709 147.866 58.1307Z" fill="#FC6625"/>
<path d="M132.097 21.5399C131.189 20.9977 130.302 20.9165 129.759 20.9309C129.381 20.9404 129.003 20.9165 128.63 20.8616C123.956 20.1762 121.139 26.9565 120.974 29.0056C120.67 32.7672 118.679 33.3404 115.872 35.6952C110.248 40.4168 111.893 45.9075 114.968 47.9471C116.811 49.1723 120.063 47.9495 120.063 47.9495C120.109 47.9805 128.958 43.0129 133.319 40.6151C139.859 39.6884 134.723 23.1018 132.097 21.5399Z" fill="black"/>
<path d="M130.222 33.412C130.222 33.412 130.21 33.4598 130.191 33.5553C130.186 33.5792 130.179 33.6055 130.174 33.6341C130.16 33.6938 130.143 33.7679 130.126 33.8562C130.117 33.892 130.11 33.9326 130.102 33.9756C130.1 33.99 130.098 34.0019 130.093 34.0162C130.074 34.0998 130.057 34.1906 130.038 34.2861C129.973 34.5942 129.904 34.962 129.835 35.3513C129.818 35.4349 129.804 35.5232 129.787 35.6116C129.753 35.8003 129.722 35.9937 129.694 36.1848C129.517 37.3216 129.423 38.4107 129.665 38.5707C129.684 38.585 127.52 39.3206 126.071 38.6806C124.723 38.0835 123.699 35.8815 123.699 35.8385C124.319 35.8122 125 35.2701 125.524 31.7211L125.789 31.8166L130.222 33.412Z" fill="url(#paint12_linear)"/>
<path d="M129.835 35.3513C129.904 34.962 129.974 34.5942 130.038 34.2861C129.981 34.5727 129.911 34.9286 129.835 35.3513Z" fill="url(#paint13_linear)"/>
<path d="M130.038 34.2861C130.057 34.1906 130.074 34.0998 130.093 34.0162C130.076 34.0974 130.06 34.1882 130.038 34.2861Z" fill="url(#paint14_linear)"/>
<path d="M130.882 34.8211C130.882 34.8211 124.813 34.0043 125.38 30.238C125.947 26.4716 125.545 23.8302 129.443 24.1908C133.34 24.5515 133.876 26.1015 133.993 27.4055C134.112 28.7095 132.477 34.9357 130.882 34.8211Z" fill="url(#paint15_linear)"/>
<path d="M133.775 25.342C133.775 25.342 129.89 28.6856 127.248 28.9531C124.605 29.2229 123.606 28.3751 123.606 28.3751C123.606 28.3751 125.165 27.083 126.102 25.0004C126.38 24.3867 126.963 23.9639 127.635 23.9066C129.519 23.7442 133.096 23.6702 133.775 25.342Z" fill="black"/>
<path d="M131.346 25.0411C131.346 25.0411 132.644 26.2973 133.053 27.2287C133.447 28.1267 133.565 30.2762 133.251 31.1288C133.251 31.1288 135.277 27.1977 134.131 25.2871C132.917 23.2594 131.346 25.0411 131.346 25.0411Z" fill="black"/>
<path d="M134.772 47.5005C134.586 59.7691 134.72 57.2065 133.373 58.3695C133.051 58.649 132.14 58.8162 130.942 58.895C127.176 59.1434 120.555 58.5224 120.301 57.825C119.434 55.42 120.048 54.6725 119.324 50.9874C119.247 50.5957 119.154 50.1706 119.046 49.7096C118.444 47.1805 117.855 46.3183 120 42.2558C121.947 38.5755 123.967 35.5878 124.149 35.6952C129.278 38.7379 129.691 36.1824 129.691 36.1824C129.691 36.1824 134.863 41.5178 134.772 47.5005Z" fill="#A8CCFF"/>
<path d="M147.909 79.1428L143.961 89.742C143.961 89.742 142.89 89.8447 141.867 89.5509C140.922 89.2787 139.841 88.5646 139.841 88.5646C139.841 88.5646 140.941 77.182 142.986 70.6501L147.909 79.1428Z" fill="#FC6625"/>
<path d="M129.694 36.1848C129.694 36.1848 134.973 37.0804 135.59 39.3517C136.21 41.6229 138.244 55.4009 138.244 55.4009C138.244 55.4009 136.755 56.853 135.516 55.6135C134.278 54.374 131.619 42.7192 131.619 42.7192L129.694 36.1848Z" fill="#A8CCFF"/>
<path d="M130.941 58.8974C127.175 59.1457 120.555 58.5248 120.301 57.8274C119.433 55.4224 120.048 54.6749 119.323 50.9897L121.143 45.8812C121.143 45.8812 120.842 51.5701 122.52 53.0675C124.199 54.565 129.397 55.9598 130.215 57.2088C130.607 57.8107 130.867 58.4125 130.941 58.8974Z" fill="#8EB2F3"/>
<path d="M133.189 57.954C133.292 58.1904 132.857 58.059 132.367 57.8752L132.575 58.2525C132.575 58.2525 132.41 58.2835 132.156 58.1641C132.032 58.102 131.779 57.8298 131.554 57.5671C131.48 57.5408 131.415 57.5193 131.363 57.505C131.042 57.419 130.201 57.7104 129.785 57.8489C128.03 58.4316 126.956 58.1307 126.956 58.1307L126.626 56.5019C126.626 56.5019 130.344 55.6779 130.942 56.0075L133.206 57.1061C133.206 57.1061 133.111 57.2637 132.831 57.2494C132.747 57.2446 132.625 57.2184 132.494 57.1849C132.84 57.493 133.118 57.7868 133.189 57.954Z" fill="url(#paint16_linear)"/>
<path d="M124.146 35.6952C124.146 35.6952 119.156 36.0009 117.427 38.4059C114.996 41.7924 110.166 56.2272 112.93 58.1522C116.043 60.3207 127.097 58.7254 127.097 58.7254C127.097 58.7254 127.465 57.0082 126.953 56.1771C126.442 55.3459 118.123 54.0013 117.741 53.6168C117.356 53.2323 122.542 46.1415 122.542 44.9904C122.544 43.8416 124.146 35.6952 124.146 35.6952Z" fill="#A8CCFF"/>
<path d="M150.274 58.594L126.626 58.5869V59.1075L150.063 59.1147L150.274 58.594Z" fill="#1E3865"/>
<path d="M132.156 59.1099L150.063 59.1147L155.452 45.7379L137.574 45.7308L132.156 59.1099Z" fill="#1E3865"/>
<path d="M145.544 52.4228C145.68 51.9523 145.408 51.5701 144.937 51.5701C144.466 51.5701 143.976 51.9499 143.839 52.4204C143.703 52.8909 143.976 53.273 144.447 53.273C144.918 53.2754 145.41 52.8932 145.544 52.4228Z" fill="white"/>
<defs>
<linearGradient id="paint0_linear" x1="0.000513583" y1="114.832" x2="325.001" y2="114.832" gradientUnits="userSpaceOnUse">
<stop stop-color="#DAE3FE"/>
<stop offset="1" stop-color="#E9EFFD"/>
</linearGradient>
<linearGradient id="paint1_linear" x1="84.9491" y1="79.2788" x2="88.3654" y2="79.2788" gradientUnits="userSpaceOnUse">
<stop stop-color="#DAE3FE"/>
<stop offset="1" stop-color="#E9EFFD"/>
</linearGradient>
<linearGradient id="paint2_linear" x1="91.6801" y1="79.2788" x2="95.0965" y2="79.2788" gradientUnits="userSpaceOnUse">
<stop stop-color="#DAE3FE"/>
<stop offset="1" stop-color="#E9EFFD"/>
</linearGradient>
<linearGradient id="paint3_linear" x1="98.5812" y1="79.2788" x2="101.998" y2="79.2788" gradientUnits="userSpaceOnUse">
<stop stop-color="#DAE3FE"/>
<stop offset="1" stop-color="#E9EFFD"/>
</linearGradient>
<linearGradient id="paint4_linear" x1="238.869" y1="222.342" x2="244.55" y2="222.342" gradientUnits="userSpaceOnUse">
<stop stop-color="#A22B25"/>
<stop offset="1" stop-color="#C0423C"/>
</linearGradient>
<linearGradient id="paint5_linear" x1="245.69" y1="182.589" x2="265.026" y2="182.589" gradientUnits="userSpaceOnUse">
<stop stop-color="#A22B25"/>
<stop offset="1" stop-color="#C0423C"/>
</linearGradient>
<linearGradient id="paint6_linear" x1="228.237" y1="227.171" x2="238.616" y2="227.171" gradientUnits="userSpaceOnUse">
<stop stop-color="#A22B25"/>
<stop offset="1" stop-color="#C0423C"/>
</linearGradient>
<linearGradient id="paint7_linear" x1="269.387" y1="168.927" x2="275.028" y2="168.927" gradientUnits="userSpaceOnUse">
<stop stop-color="#A22B25"/>
<stop offset="1" stop-color="#C0423C"/>
</linearGradient>
<linearGradient id="paint8_linear" x1="266.106" y1="163.401" x2="273.812" y2="163.401" gradientUnits="userSpaceOnUse">
<stop stop-color="#A22B25"/>
<stop offset="1" stop-color="#C0423C"/>
</linearGradient>
<linearGradient id="paint9_linear" x1="266.728" y1="181.299" x2="284.612" y2="181.299" gradientUnits="userSpaceOnUse">
<stop stop-color="#A22B25"/>
<stop offset="1" stop-color="#C0423C"/>
</linearGradient>
<linearGradient id="paint10_linear" x1="135.912" y1="93.5161" x2="144.535" y2="93.5161" gradientUnits="userSpaceOnUse">
<stop stop-color="#FEBBBA"/>
<stop offset="1" stop-color="#FF928E"/>
</linearGradient>
<linearGradient id="paint11_linear" x1="160.617" y1="88.4302" x2="173.416" y2="88.4302" gradientUnits="userSpaceOnUse">
<stop stop-color="#FEBBBA"/>
<stop offset="1" stop-color="#FF928E"/>
</linearGradient>
<linearGradient id="paint12_linear" x1="123.699" y1="35.3309" x2="130.222" y2="35.3309" gradientUnits="userSpaceOnUse">
<stop stop-color="#FEBBBA"/>
<stop offset="1" stop-color="#FF928E"/>
</linearGradient>
<linearGradient id="paint13_linear" x1="129.835" y1="34.8182" x2="130.038" y2="34.8182" gradientUnits="userSpaceOnUse">
<stop stop-color="#FEBBBA"/>
<stop offset="1" stop-color="#FF928E"/>
</linearGradient>
<linearGradient id="paint14_linear" x1="130.038" y1="34.1506" x2="130.093" y2="34.1506" gradientUnits="userSpaceOnUse">
<stop stop-color="#FEBBBA"/>
<stop offset="1" stop-color="#FF928E"/>
</linearGradient>
<linearGradient id="paint15_linear" x1="125.344" y1="29.4914" x2="134.001" y2="29.4914" gradientUnits="userSpaceOnUse">
<stop stop-color="#FEBBBA"/>
<stop offset="1" stop-color="#FF928E"/>
</linearGradient>
<linearGradient id="paint16_linear" x1="126.626" y1="57.0924" x2="133.206" y2="57.0924" gradientUnits="userSpaceOnUse">
<stop stop-color="#FEBBBA"/>
<stop offset="1" stop-color="#FF928E"/>
</linearGradient>
</defs>
</svg>
