<svg width="117" height="117" viewBox="0 0 117 117" fill="none" xmlns="http://www.w3.org/2000/svg">
<path fill-rule="evenodd" clip-rule="evenodd" d="M101.971 97.7808C111.313 87.3994 117 73.6545 117 58.5796C117 26.227 90.8087 0 58.5 0C26.1913 0 0 26.227 0 58.5796C0 73.3146 5.43302 86.779 14.4025 97.0736C21.9192 89.0481 35.1857 81.9796 57.8641 81.9796C81.2065 81.9796 94.5778 89.4681 101.971 97.7808ZM95.6474 103.835C95.2287 103.354 94.7821 102.873 94.3058 102.397C88.6052 96.6882 77.8773 90.7347 57.8641 90.7347C37.8422 90.7347 27.123 96.6882 21.4224 102.397C21.1471 102.672 20.8817 102.949 20.6259 103.227C29.7989 111.037 41.4095 116.063 54.1548 117H62.8452C75.2562 116.088 86.5913 111.298 95.6474 103.835ZM70.2289 59.3408C66.9495 62.6246 62.5018 64.4694 57.8641 64.4694C53.2264 64.4694 48.7787 62.6246 45.4994 59.3408C42.22 56.057 40.3777 51.6032 40.3777 46.9592C40.3777 42.3152 42.22 37.8614 45.4994 34.5776C48.7787 31.2938 53.2264 29.449 57.8641 29.449C62.5018 29.449 66.9495 31.2938 70.2289 34.5776C73.5082 37.8614 75.3505 42.3152 75.3505 46.9592C75.3505 51.6032 73.5082 56.057 70.2289 59.3408ZM76.4113 65.5316C81.3303 60.6059 84.0937 53.9252 84.0937 46.9592C84.0937 39.9932 81.3303 33.3125 76.4113 28.3868C71.4923 23.4611 64.8206 20.6939 57.8641 20.6939C50.9076 20.6939 44.236 23.4611 39.317 28.3868C34.398 33.3125 31.6345 39.9932 31.6345 46.9592C31.6345 53.9252 34.398 60.6059 39.317 65.5316C44.236 70.4573 50.9076 73.2245 57.8641 73.2245C64.8206 73.2245 71.4923 70.4573 76.4113 65.5316Z" fill="#3A487F"/>
</svg>
