<svg width="40" height="40" viewBox="0 0 40 40" fill="none" xmlns="http://www.w3.org/2000/svg">
<path fill-rule="evenodd" clip-rule="evenodd" d="M27.1346 17.8647C27.251 17.9808 27.3434 18.1187 27.4064 18.2706C27.4694 18.4224 27.5019 18.5853 27.5019 18.7497C27.5019 18.9141 27.4694 19.0769 27.4064 19.2288C27.3434 19.3806 27.251 19.5186 27.1346 19.6347L19.6346 27.1347C19.5185 27.2511 19.3806 27.3434 19.2287 27.4065C19.0768 27.4695 18.914 27.5019 18.7496 27.5019C18.5852 27.5019 18.4224 27.4695 18.2705 27.4065C18.1187 27.3434 17.9807 27.2511 17.8646 27.1347L14.1146 23.3847C13.9984 23.2685 13.9062 23.1305 13.8433 22.9786C13.7804 22.8268 13.748 22.664 13.748 22.4997C13.748 22.3353 13.7804 22.1726 13.8433 22.0207C13.9062 21.8689 13.9984 21.7309 14.1146 21.6147C14.3493 21.38 14.6677 21.2481 14.9996 21.2481C15.164 21.2481 15.3267 21.2805 15.4786 21.3434C15.6304 21.4063 15.7684 21.4984 15.8846 21.6147L18.7496 24.4822L25.3646 17.8647C25.4807 17.7483 25.6187 17.6559 25.7705 17.5929C25.9224 17.5299 26.0852 17.4974 26.2496 17.4974C26.414 17.4974 26.5768 17.5299 26.7287 17.5929C26.8806 17.6559 27.0185 17.7483 27.1346 17.8647Z" fill="#FC6625"/>
<path fill-rule="evenodd" clip-rule="evenodd" d="M2.5 10V35C2.5 35.663 2.76339 36.2989 3.23223 36.7678C3.70107 37.2366 4.33696 37.5 5 37.5H35C35.663 37.5 36.2989 37.2366 36.7678 36.7678C37.2366 36.2989 37.5 35.663 37.5 35V10H2.5ZM5 2.5C3.67392 2.5 2.40215 3.02678 1.46447 3.96447C0.526784 4.90215 0 6.17392 0 7.5L0 35C0 36.3261 0.526784 37.5979 1.46447 38.5355C2.40215 39.4732 3.67392 40 5 40H35C36.3261 40 37.5979 39.4732 38.5355 38.5355C39.4732 37.5979 40 36.3261 40 35V7.5C40 6.17392 39.4732 4.90215 38.5355 3.96447C37.5979 3.02678 36.3261 2.5 35 2.5H5Z" fill="#FC6625"/>
<path fill-rule="evenodd" clip-rule="evenodd" d="M8.75 0C9.08152 0 9.39946 0.131696 9.63388 0.366117C9.8683 0.600537 10 0.918479 10 1.25V2.5C10 2.83152 9.8683 3.14946 9.63388 3.38388C9.39946 3.6183 9.08152 3.75 8.75 3.75C8.41848 3.75 8.10054 3.6183 7.86612 3.38388C7.6317 3.14946 7.5 2.83152 7.5 2.5V1.25C7.5 0.918479 7.6317 0.600537 7.86612 0.366117C8.10054 0.131696 8.41848 0 8.75 0V0ZM31.25 0C31.5815 0 31.8995 0.131696 32.1339 0.366117C32.3683 0.600537 32.5 0.918479 32.5 1.25V2.5C32.5 2.83152 32.3683 3.14946 32.1339 3.38388C31.8995 3.6183 31.5815 3.75 31.25 3.75C30.9185 3.75 30.6005 3.6183 30.3661 3.38388C30.1317 3.14946 30 2.83152 30 2.5V1.25C30 0.918479 30.1317 0.600537 30.3661 0.366117C30.6005 0.131696 30.9185 0 31.25 0V0Z" fill="#FC6625"/>
</svg>
