<svg width="24" height="24" viewBox="0 0 24 24" fill="none" xmlns="http://www.w3.org/2000/svg">
<path d="M3.75 4.68756V12.9751H3.9M3.75 4.68756L0.75 13.1251V13.2751V14.4751V14.6251H0.9H2.1V14.7751M3.75 4.68756C3.74913 4.36981 3.81129 4.05504 3.9329 3.76148C4.0545 3.46792 4.23312 3.20139 4.45842 2.97733M3.75 4.68756L4.45842 2.97733M3.9 12.9751V13.1251H21.75H23.1H23.25V13.2751V14.4751V14.6251H23.1H21.9V14.7751M3.9 12.9751H21.75H23.25H23.4V13.1251V14.6251V14.7751H23.25H21.9M3.9 12.9751L3.9 4.68756L3.9 4.68715C3.89918 4.38924 3.95747 4.09412 4.07148 3.81888C4.18549 3.54365 4.35296 3.29376 4.5642 3.08368L4.56449 3.08339L4.58316 3.06472M21.9 14.7751H21.75V16.0641C21.75 16.185 21.7304 16.3052 21.6922 16.4199L20.2969 20.6058M21.9 14.7751V16.0641V16.0642C21.9 16.2012 21.8778 16.3374 21.8344 16.4674L20.4392 20.6531M20.2969 20.6058C20.2224 20.8299 20.0792 21.0249 19.8876 21.163C19.696 21.3011 19.4657 21.3753 19.2295 21.3751M20.2969 20.6058L20.4392 20.6531M20.2969 20.6058L20.4392 20.6531M19.2295 21.3751H18.4144L18.4594 21.5251M19.2295 21.3751V21.5251H19.2294M19.2295 21.3751L19.2294 21.5251M18.4594 21.5251H18.3028L18.7753 23.1001H18.8203V23.2501L18.6766 23.2932L18.6637 23.2501H17.2547L16.6922 21.3751M18.4594 21.5251L18.964 23.207L19.0219 23.4001H18.8203H17.2547H17.1431L17.111 23.2932L16.5806 21.5251M18.4594 21.5251H19.2294M16.6922 21.3751H6.9375M16.6922 21.3751L16.5485 21.4182L16.5806 21.5251M16.6922 21.3751V21.5251H16.5806M6.9375 21.3751L6.39061 23.2501H4.98437L4.97213 23.2921L4.82812 23.2501V23.1001H4.87187L5.33122 21.5251H5.17497M6.9375 21.3751V21.5251H7.05M6.9375 21.3751L7.0815 21.4171L7.05 21.5251M5.17497 21.5251L5.21872 21.3751H4.77028M5.17497 21.5251H4.77041M5.17497 21.5251L4.68412 23.2081L4.62813 23.4001H4.82812H6.39061H6.50311L6.53461 23.2921L7.05 21.5251M4.77028 21.3751C4.53413 21.3753 4.30392 21.301 4.11235 21.1629C3.92078 21.0248 3.77759 20.8299 3.70312 20.6058L2.30775 16.4199C2.26947 16.3052 2.24997 16.185 2.25 16.0641V14.7751H2.1M4.77028 21.3751V21.5251H4.77041M4.77028 21.3751L4.77041 21.5251M2.1 14.7751H0.75H0.6V14.6251V13.1251V12.9751H0.75H2.1L20.4392 20.6532C20.3547 20.9072 20.1924 21.1282 19.9753 21.2847C19.7581 21.4412 19.4971 21.5253 19.2294 21.5251M2.1 14.7751V16.0641C2.1 16.0641 2.1 16.0641 2.1 16.0641C2.09997 16.2012 2.12207 16.3373 2.16547 16.4673L3.56078 20.6531C3.64518 20.9071 3.80749 21.1281 4.02463 21.2846C4.24178 21.4412 4.50272 21.5253 4.77041 21.5251M7.05 21.5251H16.5806M20.4392 20.6531L2.25 4.68756L2.1 4.68797C2.1 4.68791 2.1 4.68785 2.1 4.68779C2.09857 4.15318 2.20318 3.62359 2.40777 3.12968C2.61236 2.63576 2.91288 2.18732 3.29192 1.81032L3.29176 1.81048L3.39783 1.91655M4.58316 3.06472C4.91439 2.73397 5.33966 2.51355 5.80087 2.43357C6.20849 2.36289 6.62661 2.40495 7.01047 2.55369M4.58316 3.06472L4.47717 2.95858M4.58316 3.06472L4.58324 3.06464L4.47717 2.95858M7.01047 2.55369C6.62892 3.25698 6.47481 4.06301 6.57196 4.86006C6.67604 5.71392 7.0625 6.5085 7.66993 7.11755L7.67007 7.11769L8.07734 7.52495M7.01047 2.55369C7.05722 2.5718 7.10345 2.59149 7.1491 2.61276C6.77743 3.29164 6.62691 4.07114 6.72086 4.84191C6.82089 5.66257 7.19233 6.42626 7.77614 7.01162L8.1834 7.41889L8.07734 7.52495M7.01047 2.55369C7.03452 2.50935 7.05948 2.46543 7.08533 2.42194C6.67051 2.25681 6.21708 2.20916 5.77524 2.28578C5.2836 2.37104 4.83026 2.606 4.47717 2.95858M8.07734 7.52495L7.23854 8.36379L7.13248 8.46986L7.23854 8.57592L8.29914 9.63652L8.4052 9.74258L8.51127 9.63652L9.45613 8.69166L14.6916 3.45633L15.6364 2.51147L15.7425 2.4054L15.6364 2.29934L14.5758 1.2387L14.4697 1.13263L14.3636 1.2387L13.5248 2.07749M8.07734 7.52495L8.1834 7.63102L7.45068 8.36379L7.34461 8.46986L7.45068 8.57592M13.5248 2.07749L13.1175 1.67023L13.1174 1.67008C12.4779 1.03241 11.635 0.63932 10.7355 0.559322C9.86871 0.482239 9.00238 0.700556 8.27662 1.17714M13.5248 2.07749L13.6309 2.18356L14.3636 1.45083L14.4697 1.34476L14.5758 1.45083L15.4243 2.29934L15.5303 2.4054L15.4243 2.51147L14.5855 3.35026L9.35006 8.58559L8.51127 9.42439L8.4052 9.53045L8.29914 9.42439L7.45068 8.57592M13.5248 2.07749L13.4187 2.18355L13.0115 1.7763M8.27662 1.17714C7.51393 0.720908 6.62189 0.526443 5.73684 0.625114C4.81913 0.727426 3.9635 1.13882 3.31052 1.79172L3.31051 1.79173L3.29205 1.81019L3.39783 1.91655M8.27662 1.17714C8.30476 1.19398 8.33273 1.21117 8.36052 1.22872L8.28042 1.35555M8.27662 1.17714C8.24918 1.19516 8.22194 1.21355 8.19491 1.23231L8.28042 1.35555M3.39783 1.91655L3.41658 1.8978M3.39783 1.91655L3.41658 1.8978M3.41658 1.8978C4.04549 1.26896 4.86958 0.872731 5.75346 0.77419C6.63734 0.67565 7.52846 0.880661 8.28042 1.35555M3.41658 1.8978L13.0115 1.7763M8.28042 1.35555C8.99353 0.860746 9.85764 0.631845 10.7222 0.708732C11.5867 0.785619 12.3969 1.16342 13.0115 1.7763M13.0115 1.7763L7.45068 8.57592M4.45842 2.97733L4.47717 2.95858M4.45842 2.97733L7.45068 8.57592M10.3939 2.34301C9.84987 2.34301 9.3281 2.55876 8.943 2.94295C8.55877 3.32808 8.34298 3.84989 8.34298 4.39391C8.34298 4.93797 8.55879 5.4598 8.94306 5.84494L9.35019 6.252L12.2519 3.35025L11.8449 2.94312L10.3939 2.34301ZM10.3939 2.34301C10.9379 2.34301 11.4596 2.55878 11.8448 2.94299L10.3939 2.34301ZM3.9 15.9788V14.7751H20.1V15.9788L18.8513 19.7251H5.14868L3.9 15.9788Z" fill="#FC6625" stroke="#FC6625" stroke-width="0.3"/>
</svg>
