<svg width="24" height="24" viewBox="0 0 24 24" fill="none" xmlns="http://www.w3.org/2000/svg">
<path d="M17.2312 13.35H6.76879C6.6186 12.8497 6.34657 12.3938 5.97637 12.0236C5.60617 11.6534 5.15027 11.3814 4.65 11.2312L4.65 7.12518L4.65 7.125M17.2312 13.35L4.65 7.125M17.2312 13.35C17.3814 12.8497 17.6534 12.3938 18.0236 12.0236C18.3938 11.6534 18.8497 11.3814 19.35 11.2312V7.12518C19.3498 6.96606 19.2865 6.81351 19.174 6.701C19.0615 6.5885 18.909 6.52521 18.7499 6.525C18.7499 6.525 18.7499 6.525 18.7498 6.525H5.25018C5.25015 6.525 5.25011 6.525 5.25008 6.525C5.091 6.52521 4.93849 6.5885 4.826 6.701C4.71352 6.81347 4.65024 6.96595 4.65 7.125M17.2312 13.35L4.65 7.125M21.15 7.125V7.12483C21.1493 6.48858 20.8962 5.87859 20.4463 5.4287C19.9964 4.9788 19.3864 4.72573 18.7502 4.725H18.75L5.25 4.725L5.24983 4.725C4.61358 4.72573 4.00359 4.9788 3.5537 5.4287C3.1038 5.87859 2.85073 6.48858 2.85 7.12483V7.125V11.2311C2.2204 11.4197 1.66435 11.8006 1.26072 12.3217C0.833259 12.8736 0.60089 13.5517 0.6 14.2498V14.25L0.6 19.5L0.6 19.5002C0.600491 19.9376 0.77447 20.3569 1.08377 20.6662C1.39306 20.9755 1.81242 21.1495 2.24983 21.15H2.25H2.85V23.25V23.4H3H4.5H4.65V23.25V21.15H19.35V23.25V23.4H19.5H21H21.15V23.25V21.15H21.75H21.7502C22.1876 21.1495 22.6069 20.9755 22.9162 20.6662C23.2255 20.3569 23.3995 19.9376 23.4 19.5002V19.5V14.25V14.2498C23.3991 13.5517 23.1667 12.8736 22.7393 12.3217C22.3356 11.8006 21.7796 11.4197 21.15 11.2311V7.125ZM2.4 19.35V14.25C2.4 13.892 2.54223 13.5486 2.79541 13.2954C3.04858 13.0422 3.39196 12.9 3.75 12.9C4.10804 12.9 4.45142 13.0422 4.70459 13.2954C4.95777 13.5486 5.1 13.892 5.1 14.25V19.35H2.4ZM17.1 19.35H6.9V15.15H17.1V19.35ZM21.6 14.25L21.6009 19.35H18.9V14.25C18.9 13.892 19.0422 13.5486 19.2954 13.2954C19.5486 13.0422 19.892 12.9 20.25 12.9C20.608 12.9 20.9514 13.0422 21.2046 13.2954C21.4578 13.5486 21.6 13.892 21.6 14.25Z" fill="#FC6625" stroke="#FC6625" stroke-width="0.3"/>
</svg>
