<svg width="24" height="25" viewBox="0 0 24 25" fill="none" xmlns="http://www.w3.org/2000/svg">
<path d="M6.65035 8.45355C6.55311 8.51935 6.47538 8.6137 6.42742 8.72586L6.65035 8.45355ZM6.65035 8.45355C6.74753 8.38779 6.86028 8.35316 6.975 8.35312C6.97501 8.35312 6.97502 8.35312 6.97504 8.35312H17.0249C17.1396 8.35319 17.2524 8.38784 17.3495 8.4536C17.4468 8.51941 17.5245 8.61378 17.5724 8.72595L19.1073 12.3233H4.89251L6.42738 8.72594L6.65035 8.45355ZM21.0759 12.3252L19.2192 7.97336L19.2192 7.97326C19.0311 7.5333 18.7243 7.15859 18.335 6.89512C17.9456 6.63159 17.4906 6.49085 17.0251 6.49062H17.025L6.975 6.49062L6.97492 6.49063C6.50943 6.49088 6.05448 6.63164 5.66513 6.89516C5.27585 7.15864 4.96906 7.53333 4.781 7.97327L4.78096 7.97336L2.92407 12.3252C2.51236 12.3453 2.12261 12.5245 1.83162 12.8276C1.52304 13.1491 1.35049 13.5836 1.35 14.0357V14.0358L1.35 19.5046L1.35 19.5048C1.35049 19.9568 1.52304 20.3914 1.83162 20.7128C2.1051 20.9977 2.46581 21.1731 2.85 21.2099L2.85 23.0469L2.85 23.047C2.85039 23.3955 2.9834 23.7308 3.22168 23.979C3.46016 24.2274 3.78482 24.3683 4.12482 24.3687H4.125H6.75H6.75018C7.09018 24.3683 7.41484 24.2274 7.65332 23.979C7.8916 23.7308 8.02461 23.3955 8.025 23.047V23.0469V21.2171H15.975L15.975 23.0469L15.975 23.047C15.9754 23.3955 16.1084 23.7308 16.3467 23.979C16.5852 24.2274 16.9098 24.3683 17.2498 24.3687H17.25H19.875H19.8752C20.2152 24.3683 20.5398 24.2274 20.7783 23.979C21.0166 23.7308 21.1496 23.3955 21.15 23.047V23.0469V21.2099C21.5342 21.1731 21.8949 20.9977 22.1684 20.7128C22.477 20.3914 22.6495 19.9568 22.65 19.5048V19.5046V14.0358V14.0357C22.6495 13.5836 22.477 13.1491 22.1684 12.8276C21.8774 12.5245 21.4876 12.3453 21.0759 12.3252ZM6.225 22.5063H4.65V21.2171H6.225V22.5063ZM19.35 22.5063H17.775V21.2171H19.35V22.5063ZM20.85 19.3546H3.15V14.1858H20.85V19.3546Z" fill="#FC6625" stroke="#FC6625" stroke-width="0.3"/>
<path d="M4.5 15.8656H4.35V16.0156V17.5781V17.7281H4.5H8.25H8.4V17.5781V16.0156V15.8656H8.25H4.5Z" fill="#FC6625" stroke="#FC6625" stroke-width="0.3"/>
<path d="M15.75 15.8656H15.6V16.0156V17.5781V17.7281H15.75H19.5H19.65V17.5781V16.0156V15.8656H19.5H15.75Z" fill="#FC6625" stroke="#FC6625" stroke-width="0.3"/>
<path d="M12.0579 0.582197L12 0.55799L11.9421 0.582197L0.692122 5.28742L0.6 5.32595V5.42581V7.10955V7.33487L0.807878 7.24793L12 2.56696L23.1921 7.24793L23.4 7.33487V7.10955V5.42581V5.32595L23.3079 5.28742L12.0579 0.582197Z" fill="#FC6625" stroke="#FC6625" stroke-width="0.3"/>
</svg>
