<svg width="24" height="25" viewBox="0 0 24 25" fill="none" xmlns="http://www.w3.org/2000/svg">
<path d="M23.4 20.3125H22.8C21.8235 20.3125 21.0825 19.9014 20.6966 19.4385C20.3629 19.0376 19.9594 18.75 19.5053 18.75H18.894C18.4399 18.75 18.0364 19.0376 17.7026 19.4385C17.3175 19.9014 16.5765 20.3125 15.6 20.3125C14.6235 20.3125 13.8825 19.9014 13.4966 19.4385C13.1629 19.0376 12.7594 18.75 12.3053 18.75H11.694C11.2399 18.75 10.8364 19.0376 10.5026 19.4385C10.1175 19.9014 9.3765 20.3125 8.4 20.3125C7.4235 20.3125 6.6825 19.9014 6.29663 19.4385C5.96288 19.0376 5.55938 18.75 5.10525 18.75H4.494C4.03988 18.75 3.63638 19.0376 3.30263 19.4385C2.9175 19.9014 2.1765 20.3125 1.2 20.3125H0.6C0.2685 20.3125 0 20.6621 0 21.0938V22.6562C0 23.0879 0.2685 23.4375 0.6 23.4375H1.2C2.64825 23.4375 3.927 22.8423 4.8 21.8828C5.673 22.8428 6.95175 23.4375 8.4 23.4375C9.84825 23.4375 11.127 22.8423 12 21.8828C12.873 22.8428 14.1518 23.4375 15.6 23.4375C17.0483 23.4375 18.327 22.8423 19.2 21.8828C20.073 22.8428 21.3518 23.4375 22.8 23.4375H23.4C23.7315 23.4375 24 23.0879 24 22.6562V21.0938C24 20.6621 23.7315 20.3125 23.4 20.3125ZM8.4 18.75V14.0625H15.6V18.75C16.317 18.75 16.7573 18.4492 16.8896 18.29C17.2335 17.877 17.6096 17.5898 18 17.4077V6.25C18 5.38867 18.5385 4.6875 19.2 4.6875C19.8615 4.6875 20.4 5.38867 20.4 6.25V7.03125C20.4 7.46289 20.6685 7.8125 21 7.8125H22.2C22.5315 7.8125 22.8 7.46289 22.8 7.03125V6.25C22.8 3.66504 21.1853 1.5625 19.2 1.5625C17.2148 1.5625 15.6 3.66504 15.6 6.25V10.9375H8.4V6.25C8.4 5.38867 8.9385 4.6875 9.6 4.6875C10.2615 4.6875 10.8 5.38867 10.8 6.25V7.03125C10.8 7.46289 11.0685 7.8125 11.4 7.8125H12.6C12.9315 7.8125 13.2 7.46289 13.2 7.03125V6.25C13.2 3.66504 11.5853 1.5625 9.6 1.5625C7.61475 1.5625 6 3.66504 6 6.25V17.4072C6.39038 17.5894 6.7665 17.877 7.11038 18.2896C7.24275 18.4492 7.683 18.75 8.4 18.75Z" fill="#FC6625"/>
</svg>
