<svg width="26" height="26" viewBox="0 0 26 26" fill="none" xmlns="http://www.w3.org/2000/svg">
<path d="M7.31258 4.18334V4.18328L7.30812 4.18341L7.12612 4.18883L7.12612 4.18875L7.12142 4.18904C6.32606 4.23772 5.57924 4.58799 5.03329 5.16842C4.48733 5.74883 4.18338 6.51567 4.18341 7.31251C4.18341 7.31251 4.18341 7.31252 4.18341 7.31252V10.8337C2.92657 11.2402 2.01675 12.4197 2.01675 13.8125V21.9375H2.0164L2.0171 21.9478L2.02468 22.0583L2.02434 22.0583L2.02573 22.0684C2.05736 22.2988 2.17136 22.51 2.34665 22.6629C2.52194 22.8158 2.74665 22.9 2.97924 22.9L2.97924 22.9004L2.98952 22.8997L3.10002 22.8921L3.10004 22.8924L3.11015 22.891C3.34057 22.8594 3.55175 22.7454 3.70463 22.5701C3.85751 22.3948 3.94174 22.1701 3.94175 21.9375V19.65H22.0584V21.9375H22.0581L22.0588 21.9478L22.0664 22.0583L22.066 22.0583L22.0674 22.0685C22.1006 22.31 22.2243 22.53 22.4135 22.6839C22.6027 22.8378 22.8432 22.9141 23.0865 22.8975C23.3298 22.8809 23.5577 22.7725 23.7242 22.5944C23.8907 22.4162 23.9833 22.1814 23.9834 21.9376V21.9375V13.8125H23.9835L23.9833 13.8077L23.9768 13.6051L23.9769 13.6051L23.9766 13.5997C23.9324 12.9564 23.6908 12.3425 23.2848 11.8418C22.9026 11.3705 22.3924 11.0211 21.8167 10.8348V7.31251H21.8168L21.8167 7.30805L21.8113 7.12605L21.8113 7.12605L21.8111 7.12135C21.7624 6.32599 21.4121 5.57917 20.8317 5.03322C20.2513 4.48726 19.4844 4.1833 18.6876 4.18334H7.31258ZM5.14585 12.6083H5.14591H20.8501L20.981 12.6155C21.2761 12.6467 21.5493 12.7858 21.7481 13.0061C21.9477 13.2273 22.0583 13.5146 22.0584 13.8125C22.0584 13.8125 22.0584 13.8125 22.0584 13.8126V17.725H3.94175V13.816L3.94788 13.6852C3.97925 13.3902 4.11843 13.1171 4.3388 12.9183C4.56017 12.7187 4.84774 12.6082 5.14585 12.6083ZM19.8917 10.6833H18.5574C18.521 10.3855 18.3771 10.1112 18.1528 9.91169C17.9271 9.71096 17.6355 9.60005 17.3334 9.60001H17.3334H15.1667C14.8396 9.60001 14.5259 9.72995 14.2947 9.96124C14.099 10.1569 13.9759 10.4115 13.9426 10.6833H12.0575C12.021 10.3855 11.8771 10.1112 11.6528 9.91169C11.4271 9.71096 11.1355 9.60005 10.8334 9.60001H10.8334H8.66675C8.33965 9.60001 8.02594 9.72995 7.79465 9.96124C7.599 10.1569 7.47587 10.4115 7.44257 10.6833H6.10841V7.31602L6.11455 7.18516C6.14592 6.89017 6.2851 6.61707 6.50547 6.41832C6.72684 6.21866 7.0144 6.10821 7.31251 6.10834H7.31258H18.6841L18.8149 6.11448C19.1099 6.14585 19.383 6.28503 19.5818 6.50539C19.7814 6.72677 19.8919 7.01433 19.8917 7.31244V7.31251V10.6833Z" fill="#FC6625" stroke="#FC6625" stroke-width="0.3"/>
</svg>
