<svg width="19" height="25" viewBox="0 0 19 25" fill="none" xmlns="http://www.w3.org/2000/svg">
<path d="M9.50022 6.22622H9.50005C8.85173 6.22622 8.21796 6.41847 7.6789 6.77866C7.13984 7.13885 6.7197 7.6508 6.47159 8.24977C6.22349 8.84874 6.15858 9.50784 6.28506 10.1437C6.41154 10.7796 6.72374 11.3636 7.18217 11.8221C7.6406 12.2805 8.22468 12.5927 8.86055 12.7192C9.49641 12.8457 10.1555 12.7808 10.7545 12.5327C11.3534 12.2846 11.8654 11.8644 12.2256 11.3253C12.5858 10.7863 12.778 10.1525 12.778 9.5042V9.50403C12.777 8.635 12.4314 7.80186 11.8169 7.18736C11.2024 6.57287 10.3692 6.22721 9.50022 6.22622ZM9.49988 10.9182C9.22028 10.9182 8.94696 10.8352 8.71448 10.6799C8.48195 10.5245 8.30072 10.3037 8.19369 10.0453C8.08667 9.78694 8.05867 9.50263 8.11323 9.22834C8.16779 8.95406 8.30246 8.70211 8.50021 8.50436C8.69796 8.30661 8.94991 8.17194 9.22419 8.11738C9.49848 8.06282 9.78279 8.09082 10.0412 8.19784C10.2995 8.30487 10.5204 8.4861 10.6757 8.71863C10.8311 8.95111 10.914 9.22443 10.914 9.50403C10.9136 9.87895 10.7645 10.2384 10.4994 10.5035C10.2342 10.7686 9.8748 10.9178 9.49988 10.9182Z" fill="#FC6625" stroke="#FC6625" stroke-width="0.3"/>
<path d="M15.6164 3.38288L15.6164 3.38287C14.104 1.87088 12.0852 0.9727 9.9495 0.861674C7.81384 0.750647 5.71276 1.43465 4.05176 2.78166C2.39075 4.12867 1.28759 6.04321 0.955168 8.15576C0.62275 10.2683 1.08464 12.4291 2.25171 14.2211L2.25171 14.2211L8.161 23.2929L8.28669 23.211L8.16101 23.2929C8.30614 23.5157 8.50457 23.6987 8.73832 23.8254C8.97208 23.9521 9.23375 24.0185 9.49964 24.0185C9.76552 24.0185 10.0272 23.9521 10.261 23.8254C10.4947 23.6987 10.6931 23.5157 10.8383 23.2929L16.7478 14.2211C17.8307 12.5588 18.3092 10.5747 18.1032 8.60147C17.8973 6.62823 17.0193 4.78576 15.6164 3.38288ZM15.186 13.2037L9.49966 21.9328L3.81332 13.2037C2.07298 10.5321 2.44636 6.9556 4.70096 4.7009C5.33113 4.07071 6.07925 3.57082 6.90262 3.22977C7.72598 2.88871 8.60846 2.71317 9.49966 2.71317C10.3909 2.71317 11.2733 2.88871 12.0967 3.22977C12.9201 3.57082 13.6682 4.07071 14.2984 4.7009C16.553 6.9556 16.9263 10.5321 15.186 13.2037Z" fill="#FC6625" stroke="#FC6625" stroke-width="0.3"/>
</svg>
