<svg width="26" height="21" viewBox="0 0 26 21" fill="none" xmlns="http://www.w3.org/2000/svg">
<path d="M23.0161 7.47045L18.7744 1.41349L20.7942 0L25.0347 6.05695L23.0161 7.47045Z" fill="#FC6625"/>
<path d="M20.6946 10.6005L18.575 7.57017L8.47968 14.6389L10.5993 17.6667L8.58074 19.0815L2.92676 11.0047L4.94533 9.59121L7.06496 12.6203L17.1603 5.5516L15.0407 2.5225L17.0592 1.10901L22.7132 9.18454L20.6946 10.5993V10.6005Z" fill="#FC6625"/>
<path d="M23.6215 4.03742L25.6401 2.62392L24.2266 0.605347L22.208 2.01884L23.6215 4.03742Z" fill="#FC6625"/>
<path d="M6.86576 18.7799L2.62404 12.723L0.605469 14.1365L4.84595 20.1934L6.86576 18.7799Z" fill="#FC6625"/>
<path d="M3.43207 18.1744L1.41349 19.5879L0 17.5693L2.01857 16.1558L3.43207 18.1744Z" fill="#FC6625"/>
</svg>
