<svg width="26" height="26" viewBox="0 0 26 26" fill="none" xmlns="http://www.w3.org/2000/svg">
<path d="M7.58333 2.16666L11.9167 6.49999H8.66667V10.8333H6.5V6.49999H3.25L7.58333 2.16666ZM18.4167 10.8333L14.0833 6.49999H17.3333V2.16666H19.5V6.49999H22.75L18.4167 10.8333ZM7.58333 13H18.4167C18.9913 13 19.5424 13.2283 19.9487 13.6346C20.3551 14.0409 20.5833 14.592 20.5833 15.1667V21.6667C20.5833 22.2413 20.3551 22.7924 19.9487 23.1987C19.5424 23.6051 18.9913 23.8333 18.4167 23.8333H7.58333C7.0087 23.8333 6.4576 23.6051 6.05127 23.1987C5.64494 22.7924 5.41667 22.2413 5.41667 21.6667V15.1667C5.41667 14.592 5.64494 14.0409 6.05127 13.6346C6.4576 13.2283 7.0087 13 7.58333 13ZM7.58333 15.1667V21.6667H18.4167V15.1667H7.58333Z" fill="#FC6625"/>
</svg>
