<svg width="16" height="21" viewBox="0 0 16 21" fill="none" xmlns="http://www.w3.org/2000/svg">
<path d="M13.9865 7.98398H13.3673V5.51945C13.3673 2.80134 11.1379 0.59436 8.40109 0.59436C5.66032 0.59436 3.43494 2.8053 3.43494 5.51945V7.98398H2.81567C1.78887 7.98398 0.953857 8.8121 0.953857 9.8304V18.4523C0.953857 19.4706 1.78887 20.2987 2.81567 20.2987H13.9905C15.0173 20.2987 15.8523 19.4706 15.8523 18.4523V9.8304C15.8483 8.8121 15.0133 7.98398 13.9865 7.98398ZM4.67348 5.51945C4.67348 3.48285 6.34351 1.82266 8.40109 1.82266C10.4547 1.82266 12.1247 3.47889 12.1247 5.51945V7.98398H4.67348V5.51945ZM14.6058 18.4523C14.6058 18.793 14.3261 19.0664 13.9865 19.0664H2.80768C2.46408 19.0664 2.1884 18.7891 2.1884 18.4523V9.8304C2.1884 9.48964 2.46808 9.21625 2.80768 9.21625H13.9825C14.3261 9.21625 14.6018 9.4936 14.6018 9.8304V18.4523H14.6058Z" fill="#808080"/>
<path d="M8.39697 11.2687C7.48205 11.2687 6.74292 12.0057 6.74292 12.9091C6.74292 13.5985 7.17042 14.1889 7.7777 14.4306V16.3998C7.7777 16.7406 8.05737 17.014 8.39697 17.014C8.74057 17.014 9.01625 16.7366 9.01625 16.3998V14.4306C9.62353 14.1849 10.051 13.5945 10.051 12.9091C10.055 12.0057 9.3119 11.2687 8.39697 11.2687ZM8.39697 12.5009C8.62471 12.5009 8.81249 12.6832 8.81249 12.913C8.81249 13.1389 8.62471 13.3251 8.39697 13.3251C8.16924 13.3251 7.98146 13.1428 7.98146 12.913C7.98146 12.6832 8.16924 12.5009 8.39697 12.5009Z" fill="#808080"/>
</svg>
