<svg width="233" height="233" viewBox="0 0 233 233" fill="none" xmlns="http://www.w3.org/2000/svg">
<g clip-path="url(#clip0)">
<path d="M116.5 233C52.2613 233 0 180.739 0 116.5C0 52.2613 52.2613 0 116.5 0C180.739 0 233 52.2613 233 116.5C233 180.739 180.739 233 116.5 233ZM116.5 19.2562C62.8779 19.2562 19.2562 62.8779 19.2562 116.5C19.2562 170.122 62.8779 213.744 116.5 213.744C170.122 213.744 213.744 170.122 213.744 116.5C213.744 62.8779 170.122 19.2562 116.5 19.2562Z" fill="#B2B2B2" fill-opacity="0.6"/>
<path d="M116.5 233C52.2613 233 0 180.739 0 116.5H19.2562C19.2562 170.122 62.8779 213.744 116.5 213.744C170.122 213.744 213.744 170.122 213.744 116.5C213.744 62.8779 170.122 19.2562 116.5 19.2562V0C180.739 0 233 52.2613 233 116.5C233 180.739 180.739 233 116.5 233Z" fill="#3A487F"/>
<path d="M153.5 73.25H116C114.343 73.2517 112.754 73.9107 111.582 75.0824C110.411 76.2542 109.752 77.8429 109.75 79.5V110.75H78.5C76.8429 110.752 75.2542 111.411 74.0824 112.582C72.9107 113.754 72.2517 115.343 72.25 117V160.75H159.75V79.5C159.748 77.8429 159.089 76.2542 157.918 75.0824C156.746 73.9107 155.157 73.2517 153.5 73.25ZM94.125 154.5V132.625H106.625V154.5H94.125ZM153.5 154.5H112.875V129.5C112.875 128.671 112.546 127.876 111.96 127.29C111.374 126.704 110.579 126.375 109.75 126.375H91C90.1712 126.375 89.3763 126.704 88.7903 127.29C88.2042 127.876 87.875 128.671 87.875 129.5V154.5H78.5V117H116V79.5H153.5V154.5Z" fill="#3A487F"/>
<path d="M122.25 92H128.5V98.25H122.25V92Z" fill="#3A487F"/>
<path d="M141 92H147.25V98.25H141V92Z" fill="#3A487F"/>
<path d="M122.25 110.75H128.5V117H122.25V110.75Z" fill="#3A487F"/>
<path d="M141 110.75H147.25V117H141V110.75Z" fill="#3A487F"/>
<path d="M122.25 129.5H128.5V135.75H122.25V129.5Z" fill="#3A487F"/>
<path d="M141 129.5H147.25V135.75H141V129.5Z" fill="#3A487F"/>
<path d="M83.1875 104.5C80.2867 104.5 77.5047 103.348 75.4535 101.296C73.4023 99.2453 72.25 96.4633 72.25 93.5625C72.25 90.6617 73.4023 87.8797 75.4535 85.8285C77.5047 83.7773 80.2867 82.625 83.1875 82.625H85.1469C85.8426 79.9434 87.4082 77.5683 89.5983 75.8718C91.7885 74.1753 94.4796 73.2532 97.25 73.25H103.5V79.5H97.25C95.5929 79.5017 94.0042 80.1607 92.8324 81.3324C91.6607 82.5042 91.0017 84.0929 91 85.75V88.875H83.1875C81.9443 88.875 80.752 89.3689 79.8729 90.2479C78.9939 91.127 78.5 92.3193 78.5 93.5625C78.5 94.8057 78.9939 95.998 79.8729 96.8771C80.752 97.7561 81.9443 98.25 83.1875 98.25H103.5V104.5H83.1875Z" fill="#3A487F"/>
</g>
<defs>
<clipPath id="clip0">
<rect width="233" height="233" fill="white"/>
</clipPath>
</defs>
</svg>
