<svg width="20" height="20" viewBox="0 0 20 20" fill="none" xmlns="http://www.w3.org/2000/svg">
<path d="M6.03697 13.3077V8.17265H4.83838V6.85718H7.68703V13.3117L6.03697 13.3077Z" fill="#808080"/>
<path d="M13.8956 8.52125C13.8956 9.08389 13.5879 9.57917 13.0805 9.85653C13.7957 10.1497 14.2392 10.7679 14.2392 11.485C14.2392 12.646 13.2004 13.3829 11.5743 13.3829C9.9482 13.3829 8.90942 12.6539 8.90942 11.5128C8.90942 10.7758 9.39286 10.1497 10.144 9.85653C9.59662 9.55144 9.24503 9.03634 9.24503 8.47766C9.24503 7.44747 10.156 6.7937 11.5663 6.7937C12.9966 6.7937 13.8956 7.46332 13.8956 8.52125ZM10.4716 11.3503C10.4716 11.8931 10.8631 12.1982 11.5743 12.1982C12.2855 12.1982 12.689 11.905 12.689 11.3503C12.689 10.8154 12.2894 10.5143 11.5743 10.5143C10.8631 10.5103 10.4716 10.8154 10.4716 11.3503ZM10.6394 8.61634C10.6394 9.07597 10.975 9.33351 11.5783 9.33351C12.1816 9.33351 12.5172 9.07597 12.5172 8.61634C12.5172 8.13691 12.1816 7.87144 11.5783 7.87144C10.971 7.86747 10.6394 8.13691 10.6394 8.61634Z" fill="#808080"/>
<path d="M16.988 7.58621C17.2637 8.39055 17.4035 9.23055 17.4035 10.0904C17.4035 14.3894 13.8757 17.8881 9.54078 17.8881C5.20587 17.8881 1.67403 14.3894 1.67403 10.0864C1.67403 5.78734 5.20188 2.28866 9.53678 2.28866C10.3998 2.28866 11.2508 2.42734 12.0618 2.70074V0.961304C11.2428 0.739417 10.3958 0.624512 9.53678 0.624512C4.27897 0.628474 0 4.87206 0 10.0864C0 15.3007 4.27897 19.5483 9.54078 19.5483C14.8026 19.5483 19.0816 15.3047 19.0816 10.0864C19.0816 9.23451 18.9697 8.39451 18.742 7.58225C18.738 7.58621 16.988 7.58621 16.988 7.58621Z" fill="#808080"/>
<path d="M16.5124 3.16433V1.34961H15.198V3.16433H13.3801V4.46791H15.198V6.28263H16.5124V4.46791H18.3423V3.16433H16.5124Z" fill="#808080"/>
</svg>
