<svg width="139" height="21" viewBox="0 0 139 21" fill="none" xmlns="http://www.w3.org/2000/svg">
<path d="M135.996 8.68922C135.788 9.4896 135.716 10.3137 135.572 11.1221C135.44 11.8788 135.324 12.6356 135.208 13.3964C135.169 13.6658 135.021 13.7926 134.753 13.7926C133.698 13.7926 133.866 13.856 133.998 12.9922C134.218 11.5341 134.465 10.076 134.685 8.6179C134.725 8.36431 134.805 8.27318 135.073 8.30488C135.38 8.34054 135.692 8.32865 136 8.33658C135.996 8.45149 135.996 8.57035 135.996 8.68922Z" fill="#1399D5"/>
<path d="M101.316 14.0225C100.781 14.0185 100.241 14.0106 99.7061 14.0185C99.4025 14.0225 99.2946 13.8838 99.3385 13.5985C99.7141 11.1577 100.094 8.72095 100.469 6.28019C100.505 6.03849 100.621 5.82849 100.893 5.83246C102.179 5.8483 103.474 5.70963 104.748 5.9117C106.023 6.10981 106.554 6.83491 106.478 8.12264C106.394 8.19 106.294 8.18208 106.206 8.15038C105.315 7.84132 104.393 7.96415 103.478 7.94038C103.286 7.93642 103.098 7.93642 102.906 7.94038C102.527 7.95227 102.435 8.01962 102.375 8.37623C102.227 9.30736 102.071 10.2385 101.947 11.1775C101.72 11.9502 101.656 12.7545 101.5 13.5391C101.468 13.7094 101.476 13.8957 101.316 14.0225Z" fill="#263B80"/>
<path d="M101.316 14.0225C101.46 13.1706 101.612 12.3227 101.744 11.4708C101.764 11.344 101.82 11.2568 101.888 11.1657C101.951 10.8645 102.199 10.8804 102.419 10.8685C102.906 10.8447 103.394 10.8804 103.881 10.7972C105.152 10.5832 105.963 9.87002 106.306 8.63775C106.35 8.48322 106.342 8.30096 106.506 8.2019C107.213 8.78832 107.193 9.557 107.033 10.3455C106.754 11.7204 105.867 12.4376 104.385 12.5089C104.253 12.5168 104.121 12.5168 103.993 12.5128C103.717 12.5089 103.594 12.6317 103.558 12.9091C103.482 13.5074 103.362 14.0978 103.286 14.6921C103.254 14.9536 103.106 15.0408 102.886 15.0487C102.423 15.0606 101.955 15.0566 101.492 15.0527C101.236 15.0527 101.16 14.91 101.204 14.6762C101.244 14.4662 101.28 14.2444 101.316 14.0225Z" fill="#1399D5"/>
<path d="M114.157 8.32868C113.662 8.20189 113.158 8.27321 112.735 8.24943C112.327 8.24943 111.992 8.26924 111.656 8.24547C111.293 8.21773 111.149 8.38019 111.093 8.72094C110.857 10.2504 110.605 11.7798 110.362 13.3092C110.302 13.7015 110.334 13.7292 110.745 13.7292H111.317C111.556 13.7332 111.696 13.6223 111.736 13.3845C111.8 13.024 111.888 12.6674 111.92 12.3028C111.952 11.9621 112.116 11.8591 112.435 11.8789C112.827 11.8987 113.222 11.8908 113.61 11.8075C114.521 11.6094 114.996 11.0072 115.176 9.84226C115.3 9.01811 114.972 8.53472 114.157 8.32868ZM112.867 10.8209C112.783 10.8289 112.703 10.8249 112.619 10.8249C112.188 10.8368 112.188 10.8368 112.267 10.4247C112.315 10.1592 112.367 9.89377 112.403 9.62434C112.427 9.45 112.519 9.37868 112.691 9.39849C112.751 9.40245 112.807 9.39849 112.867 9.39849C113.422 9.40641 113.642 9.54906 113.658 9.9017C113.686 10.4564 113.406 10.7813 112.867 10.8209Z" fill="#263B80"/>
<path d="M128.444 8.33662C127.937 8.2019 127.425 8.27322 126.986 8.24945C126.566 8.24945 126.223 8.26133 125.875 8.24548C125.572 8.2336 125.416 8.34454 125.372 8.65756C125.288 9.29152 125.172 9.91756 125.068 10.5476C124.916 11.4787 124.773 12.4138 124.613 13.3449C124.565 13.6421 124.665 13.7372 124.968 13.7372C125.975 13.7332 125.975 13.7411 126.115 12.7466C126.119 12.711 126.119 12.6753 126.127 12.6396C126.287 11.8947 126.063 11.867 127.03 11.8828C127.15 11.8828 127.27 11.8828 127.39 11.8749C128.025 11.8194 128.604 11.6411 129.004 11.0944C129.267 10.7298 129.367 10.3059 129.435 9.87001C129.567 9.04586 129.251 8.55058 128.444 8.33662ZM127.485 10.7457C127.282 10.8368 127.066 10.8249 126.854 10.8328C126.403 10.8368 126.403 10.8368 126.471 10.3891C126.495 10.2504 126.503 10.1077 126.547 9.97303C126.606 9.78284 126.511 9.47379 126.754 9.42228C127.086 9.35492 127.453 9.33511 127.741 9.58077C128.073 9.86209 127.913 10.5555 127.485 10.7457Z" fill="#1399D5"/>
<path d="M118.828 10.0959C118.572 10.0919 118.3 10.0404 118.228 10.401C117.913 10.1276 117.821 10.084 117.489 10.0127C116.139 9.73534 114.768 10.9002 114.908 12.4257C114.996 13.3925 115.715 13.8997 116.686 13.7769C117.082 13.7253 117.445 13.5906 117.849 13.2736C117.713 13.6897 117.881 13.7531 118.148 13.7333C118.316 13.7214 118.484 13.7214 118.648 13.7333C118.964 13.7531 119.107 13.5986 119.151 13.3093C119.279 12.505 119.383 11.6967 119.539 10.8963C119.727 9.94138 119.547 10.1078 118.828 10.0959ZM116.99 12.8616C116.462 12.8774 116.163 12.5802 116.155 12.0335C116.147 11.4906 116.61 11.031 117.178 11.0231C117.701 11.0152 118.073 11.3638 118.069 11.867C118.065 12.3584 117.537 12.8457 116.99 12.8616Z" fill="#263B80"/>
<path d="M133.558 10.0998C133.319 10.0919 133.079 10.1077 132.843 10.0958C132.619 10.084 132.46 10.1394 132.476 10.4604C132.24 10.2226 132.036 10.0919 131.784 10.0324C130.438 9.7115 129.124 10.7694 129.104 12.2038C129.088 13.1626 129.667 13.7649 130.634 13.7887C131.113 13.8006 131.545 13.6381 131.992 13.3449C131.916 13.7491 132.152 13.7372 132.392 13.7292C132.572 13.7253 132.751 13.7292 132.931 13.7292C133.175 13.7292 133.303 13.5985 133.343 13.3687C133.502 12.39 133.658 11.4074 133.822 10.4287C133.854 10.2147 133.758 10.1117 133.558 10.0998ZM131.173 12.8655C130.658 12.8655 130.342 12.5406 130.35 12.0057C130.354 11.4707 130.846 11.0151 131.413 11.023C131.908 11.027 132.284 11.3558 132.284 11.7758C132.28 12.3504 131.76 12.8615 131.173 12.8655Z" fill="#1399D5"/>
<path d="M106.51 8.20579C106.171 10.0205 105.056 10.9477 103.182 10.9596C102.918 10.9635 102.659 10.9675 102.395 10.9596C102.191 10.9516 102.019 11.0031 101.892 11.1696C101.816 10.805 101.956 10.4603 101.995 10.1077C102.063 9.52522 102.179 8.95069 102.259 8.3722C102.323 7.92446 102.415 7.8373 102.878 7.8373C103.378 7.8373 103.881 7.86107 104.377 7.83333C105.1 7.78975 105.795 7.91258 106.478 8.12258C106.49 8.15031 106.502 8.17805 106.51 8.20579Z" fill="#232C65"/>
<path d="M121.972 12.1642C122.379 11.5382 122.759 10.9795 123.115 10.4049C123.254 10.1751 123.422 10.0642 123.694 10.0959C123.87 10.1157 124.053 10.0919 124.229 10.0999C124.353 10.1078 124.509 10.0404 124.589 10.1831C124.669 10.3257 124.537 10.4248 124.465 10.5278C123.95 11.2648 123.43 12.0017 122.915 12.7427C122.439 13.4202 121.952 14.0938 121.488 14.7833C121.325 15.0289 121.133 15.1438 120.841 15.1121C120.713 15.0963 120.578 15.1161 120.45 15.1082C120.314 15.0963 120.142 15.1755 120.058 15.017C119.966 14.8427 120.126 14.7317 120.21 14.6129C120.418 14.3078 120.626 14.0066 120.853 13.7174C121.001 13.5312 121.033 13.3687 120.949 13.1389C120.645 12.3068 120.366 11.4668 120.082 10.6268C119.942 10.2108 119.982 10.1514 120.434 10.1593C121.52 10.1712 121.273 10.0166 121.608 11.0151C121.72 11.3678 121.832 11.7283 121.972 12.1642Z" fill="#263B80"/>
<path d="M17.6987 15.0289L19.3128 6.01868H21.8379L20.2717 15.0289H17.6987Z" fill="#3C58BF"/>
<path d="M17.6987 15.0289L19.7683 6.01868H21.8379L20.2717 15.0289H17.6987Z" fill="#293688"/>
<path d="M29.409 6.12175C28.9056 5.91967 28.0985 5.72156 27.0877 5.72156C24.5627 5.72156 22.7448 6.97363 22.7448 8.77646C22.7448 10.1276 24.0073 10.8289 25.0181 11.2806C26.0289 11.7323 26.3286 12.0334 26.3286 12.4336C26.3286 13.0359 25.5215 13.3331 24.8144 13.3331C23.8036 13.3331 23.2482 13.1825 22.3932 12.8338L22.0376 12.6793L21.686 14.7317C22.2933 14.9814 23.404 15.231 24.5627 15.231C27.2395 15.231 29.0055 13.9789 29.0055 12.077C29.0055 11.027 28.3502 10.2267 26.836 9.57288C25.9291 9.12118 25.3737 8.87156 25.3737 8.41986C25.3737 8.01967 25.8292 7.61948 26.836 7.61948C27.695 7.61948 28.2983 7.77005 28.7537 7.96816L29.0055 8.06722L29.409 6.12175Z" fill="#3C58BF"/>
<path d="M29.409 6.12175C28.9056 5.91967 28.0985 5.72156 27.0877 5.72156C24.5627 5.72156 23.2003 6.97363 23.2003 8.77646C23.2003 10.1276 24.0073 10.8289 25.0181 11.2806C26.0289 11.7323 26.3286 12.0334 26.3286 12.4336C26.3286 13.0359 25.5215 13.3331 24.8144 13.3331C23.8036 13.3331 23.2482 13.1825 22.3932 12.8338L22.0376 12.6793L21.686 14.7317C22.2933 14.9814 23.404 15.231 24.5627 15.231C27.2395 15.231 29.0055 13.9789 29.0055 12.077C29.0055 11.027 28.3502 10.2267 26.836 9.57288C25.9291 9.12118 25.3737 8.87156 25.3737 8.41986C25.3737 8.01967 25.8292 7.61948 26.836 7.61948C27.695 7.61948 28.2983 7.77005 28.7537 7.96816L29.0055 8.06722L29.409 6.12175Z" fill="#293688"/>
<path d="M33.7477 6.01868C33.1404 6.01868 32.6889 6.07019 32.4372 6.66849L28.6497 15.0289H31.3745L31.8779 13.5272H35.1101L35.4137 15.0289H37.8349L35.7134 6.01868H33.7477ZM32.589 12.0255C32.7409 11.5738 33.5999 9.37075 33.5999 9.37075C33.5999 9.37075 33.8036 8.82 33.9514 8.47132L34.1033 9.32321C34.1033 9.32321 34.6067 11.5777 34.7105 12.077H32.589V12.0255Z" fill="#3C58BF"/>
<path d="M34.3551 6.01868C33.7478 6.01868 33.2964 6.07019 33.0446 6.66849L28.6538 15.0289H31.3786L31.882 13.5272H35.1142L35.4179 15.0289H37.839L35.7175 6.01868H34.3551ZM32.5892 12.0255C32.793 11.5262 33.6 9.37075 33.6 9.37075C33.6 9.37075 33.8038 8.82 33.9516 8.47132L34.1034 9.32321C34.1034 9.32321 34.6068 11.5777 34.7107 12.077H32.5892V12.0255Z" fill="#293688"/>
<path d="M13.0562 12.3266L12.8046 11.027C12.3491 9.52529 10.8868 7.87302 9.27271 7.07264L11.546 15.0804H14.2708L18.358 6.07019H15.6332L13.0562 12.3266Z" fill="#3C58BF"/>
<path d="M13.0562 12.3266L12.8046 11.027C12.3491 9.52529 10.8868 7.87302 9.27271 7.07264L11.546 15.0804H14.2708L18.358 6.07019H16.1366L13.0562 12.3266Z" fill="#293688"/>
<path d="M6.03638 6.01873L6.49184 6.11779C9.72405 6.87062 11.9415 8.77251 12.8005 11.0231L11.8935 6.7676C11.7417 6.16534 11.2862 6.01477 10.7309 6.01477H6.03638V6.01873Z" fill="#FFBC00"/>
<path d="M6.03638 6.01868C9.26859 6.77151 11.9415 8.72094 12.8005 10.9755L11.9415 7.42132C11.7896 6.81905 11.2862 6.47038 10.7309 6.47038L6.03638 6.01868Z" fill="#F7981D"/>
<path d="M6.03638 6.01868C9.26859 6.77151 11.9415 8.72094 12.8005 10.9755L12.1932 9.02207C12.0413 8.41981 11.8416 7.82151 11.1344 7.57188L6.03638 6.01868Z" fill="#ED7C00"/>
<path d="M15.577 12.0255L13.8591 10.3217L13.052 12.2236L12.8482 10.9716C12.3928 9.46985 10.9305 7.81759 9.31641 7.01721L11.5897 15.0249H14.3145L15.577 12.0255Z" fill="#051244"/>
<path d="M20.2715 15.0289L18.102 12.8259L17.6985 15.0289H20.2715Z" fill="#051244"/>
<path d="M26.0768 11.9265C26.2805 12.1286 26.3804 12.2752 26.3285 12.4773C26.3285 13.0795 25.5214 13.3767 24.8143 13.3767C23.8035 13.3767 23.2481 13.2261 22.3931 12.8775L22.0415 12.7269L21.6899 14.7793C22.2972 15.029 23.4079 15.2786 24.5666 15.2786C26.1807 15.2786 27.4951 14.8269 28.2502 14.0265L26.0768 11.9265Z" fill="#051244"/>
<path d="M29.0054 15.0289H31.3786L31.882 13.5272H35.1142L35.4178 15.0289H37.839L36.98 11.3757L33.9516 8.47131L34.1034 9.27169C34.1034 9.27169 34.6068 11.5262 34.7107 12.0255H32.5892C32.7929 11.5262 33.6 9.37075 33.6 9.37075C33.6 9.37075 33.8037 8.81999 33.9516 8.47131" fill="#051244"/>
<path d="M39.1774 20.8019H4.69801C2.63644 20.8019 0.962402 19.1417 0.962402 17.0972V3.90284C0.962402 1.85831 2.63644 0.19812 4.69801 0.19812H39.1774C41.239 0.19812 42.913 1.85831 42.913 3.90284V17.0972C42.913 19.1417 41.239 20.8019 39.1774 20.8019Z" stroke="#808080" stroke-miterlimit="10"/>
<path d="M87.121 20.8019H52.6416C50.58 20.8019 48.906 19.1417 48.906 17.0972V3.90284C48.906 1.85831 50.58 0.19812 52.6416 0.19812H87.121C89.1826 0.19812 90.8566 1.85831 90.8566 3.90284V17.0972C90.8566 19.1417 89.1826 20.8019 87.121 20.8019Z" stroke="#808080" stroke-miterlimit="10"/>
<path d="M135.065 20.8019H100.585C98.5236 20.8019 96.8496 19.1417 96.8496 17.0972V3.90284C96.8496 1.85831 98.5236 0.19812 100.585 0.19812H135.065C137.126 0.19812 138.8 1.85831 138.8 3.90284V17.0972C138.8 19.1417 137.126 20.8019 135.065 20.8019Z" stroke="#808080" stroke-miterlimit="10"/>
<path d="M65.047 18.2185C69.3453 18.2185 72.8298 14.7628 72.8298 10.5C72.8298 6.23718 69.3453 2.78149 65.047 2.78149C60.7487 2.78149 57.2642 6.23718 57.2642 10.5C57.2642 14.7628 60.7487 18.2185 65.047 18.2185Z" fill="#EE0005"/>
<path d="M74.7155 18.2185C79.0138 18.2185 82.4983 14.7628 82.4983 10.5C82.4983 6.23718 79.0138 2.78149 74.7155 2.78149C70.4171 2.78149 66.9326 6.23718 66.9326 10.5C66.9326 14.7628 70.4171 18.2185 74.7155 18.2185Z" fill="#F9A000"/>
<path d="M66.9326 10.5C66.9326 12.9487 68.0833 15.1359 69.8811 16.5464C71.675 15.1319 72.8297 12.9487 72.8297 10.5C72.8297 8.05135 71.679 5.86418 69.8811 4.45361C68.0873 5.86418 66.9326 8.05135 66.9326 10.5Z" fill="#FF6300"/>
</svg>
