<svg width="9" height="7" viewBox="0 0 9 7" fill="none" xmlns="http://www.w3.org/2000/svg">
<path fill-rule="evenodd" clip-rule="evenodd" d="M8.28293 1.10272C8.33688 1.16553 8.37968 1.24015 8.40889 1.32231C8.43809 1.40446 8.45312 1.49253 8.45312 1.58148C8.45312 1.67042 8.43809 1.75849 8.40889 1.84065C8.37968 1.9228 8.33688 1.99742 8.28293 2.06024L4.80698 6.11752C4.75317 6.1805 4.68924 6.23046 4.61886 6.26455C4.54848 6.29864 4.47302 6.31619 4.39682 6.31619C4.32062 6.31619 4.24517 6.29864 4.17479 6.26455C4.1044 6.23046 4.04048 6.1805 3.98666 6.11752L0.510718 2.06024C0.401936 1.93326 0.340824 1.76105 0.340824 1.58148C0.340824 1.40191 0.401937 1.22969 0.510718 1.10272C0.619499 0.97574 0.767039 0.904406 0.920879 0.904406C1.07472 0.904406 1.22226 0.97574 1.33104 1.10272L4.39682 4.6826L7.4626 1.10272C7.51642 1.03974 7.58035 0.98978 7.65073 0.95569C7.72111 0.9216 7.79656 0.904053 7.87277 0.904053C7.94897 0.904053 8.02442 0.9216 8.0948 0.95569C8.16518 0.98978 8.22911 1.03974 8.28293 1.10272Z" fill="#3A487F"/>
</svg>
