<svg width="24" height="25" viewBox="0 0 24 25" fill="none" xmlns="http://www.w3.org/2000/svg">
<g clip-path="url(#clip0)">
<path d="M11.1068 0.148993L11.1068 0.148987C11.6801 -0.0898316 12.3199 -0.0898316 12.8932 0.148987L12.8932 0.148993L23.5867 4.60524L23.5868 4.60528C23.7543 4.67523 23.8969 4.7954 23.9969 4.94931C24.0969 5.10316 24.15 5.28404 24.15 5.46867V5.4687V19.0031V19.0032C24.1498 19.344 24.0516 19.6775 23.8674 19.9606C23.6831 20.2437 23.421 20.4638 23.1141 20.5916L12.3368 25.0821L11.1068 0.148993ZM11.1068 0.148993L0.413301 4.60524L0.413214 4.60528C0.245659 4.67523 0.103065 4.7954 0.00307423 4.94931C-0.0968765 5.10316 -0.149959 5.28404 -0.15 5.46867V5.4687L-0.15 19.0031L-0.15 19.0032M11.1068 0.148993L-0.15 19.0032M-0.15 19.0032C-0.149662 19.3443 -0.0512168 19.6779 0.133295 19.961C0.317815 20.2441 0.580216 20.4641 0.887354 20.5916C0.88741 20.5916 0.887466 20.5916 0.887521 20.5916L11.6632 25.0821M-0.15 19.0032L11.6632 25.0821M11.6632 25.0821C11.8792 25.1723 12.1207 25.1723 12.3367 25.0822L11.6632 25.0821ZM12.2212 1.87744L12.2213 1.87748L15.2159 3.12495L6.37499 6.80778L3.15912 5.46867L11.7787 1.87748L11.7788 1.87744C11.9209 1.81812 12.0791 1.81812 12.2212 1.87744ZM20.8409 5.46873L12 9.15152L8.78414 7.81243L17.625 4.12963L20.8409 5.46873ZM12.9 22.839V10.7859L22.35 6.84839V18.9015L12.9 22.839ZM1.65 6.84836L11.1 10.7843V22.8406L1.65 18.9031V6.84836Z" fill="#FC6625" stroke="#FC6625" stroke-width="0.3"/>
</g>
<defs>
<clipPath id="clip0">
<rect width="24" height="25" fill="white"/>
</clipPath>
</defs>
</svg>
