<svg width="24" height="24" viewBox="0 0 24 24" fill="none" xmlns="http://www.w3.org/2000/svg">
<path d="M21.7117 17.2655C21.344 16.9038 20.8934 16.6385 20.4001 16.4923V7.50766C20.8934 7.36147 21.344 7.09621 21.7117 6.73452C22.1072 6.34545 22.3927 5.85864 22.5392 5.32354C22.6857 4.78843 22.6881 4.22408 22.5459 3.68779C22.4038 3.1515 22.1223 2.66237 21.73 2.27006C21.3377 1.87776 20.8485 1.59625 20.3123 1.45412C19.776 1.31199 19.2116 1.31431 18.6765 1.46083C18.1414 1.60736 17.6546 1.89287 17.2655 2.28838C16.9038 2.65606 16.6386 3.10663 16.4924 3.59999H7.50772C7.36153 3.10663 7.09627 2.65606 6.73458 2.28838C6.34551 1.89287 5.8587 1.60736 5.3236 1.46083C4.78849 1.31431 4.22414 1.31199 3.68785 1.45412C3.15156 1.59625 2.66243 1.87776 2.27012 2.27006C1.87782 2.66237 1.59631 3.1515 1.45418 3.68779C1.31205 4.22408 1.31437 4.78843 1.46089 5.32354C1.60742 5.85864 1.89293 6.34545 2.28844 6.73452C2.65612 7.09621 3.10669 7.36147 3.60006 7.50766V16.4923C3.10669 16.6385 2.65612 16.9038 2.28844 17.2655C1.89293 17.6545 1.60742 18.1413 1.46089 18.6765C1.31437 19.2116 1.31205 19.7759 1.45418 20.3122C1.59631 20.8485 1.87782 21.3376 2.27012 21.7299C2.66243 22.1222 3.15156 22.4037 3.68785 22.5459C4.22414 22.688 4.78849 22.6857 5.3236 22.5392C5.8587 22.3926 6.34551 22.1071 6.73458 21.7116C7.09627 21.3439 7.36153 20.8934 7.50772 20.4H16.4924C16.6386 20.8934 16.9038 21.3439 17.2655 21.7116C17.6546 22.1071 18.1414 22.3926 18.6765 22.5392C19.2116 22.6857 19.776 22.688 20.3123 22.5459C20.8485 22.4037 21.3377 22.1222 21.73 21.7299C22.1223 21.3376 22.4038 20.8485 22.5459 20.3122C22.6881 19.7759 22.6857 19.2116 22.5392 18.6765C22.3927 18.1413 22.1072 17.6545 21.7117 17.2655ZM19.5002 3.14999C19.7672 3.15002 20.0281 3.2292 20.2501 3.37751C20.4721 3.52585 20.6451 3.73669 20.7473 3.98337C20.8495 4.23005 20.8762 4.50149 20.8241 4.76337C20.772 5.02524 20.6434 5.26579 20.4546 5.45459C20.2658 5.64339 20.0253 5.77197 19.7634 5.82405C19.5016 5.87614 19.2301 5.84941 18.9834 5.74723C18.7368 5.64505 18.5259 5.47202 18.3776 5.25001C18.2293 5.02805 18.1501 4.7671 18.1501 4.50014C18.1504 4.14217 18.2928 3.79896 18.5459 3.54584C18.799 3.29271 19.1422 3.15035 19.5002 3.14999ZM3.15006 4.49984C3.15009 4.23289 3.22926 3.97194 3.37757 3.74997C3.52591 3.52797 3.73675 3.35494 3.98343 3.25276C4.23011 3.15058 4.50155 3.12384 4.76343 3.17593C5.0253 3.22802 5.26585 3.3566 5.45465 3.5454C5.64345 3.7342 5.77203 3.97475 5.82412 4.23662C5.87621 4.4985 5.84947 4.76994 5.74729 5.01662C5.64511 5.2633 5.47208 5.47414 5.25008 5.62248C5.02811 5.77079 4.76716 5.84996 4.50021 5.84999C4.14223 5.84964 3.79902 5.70727 3.5459 5.45415C3.29278 5.20103 3.15041 4.85782 3.15006 4.49984ZM4.49991 20.85C4.23295 20.85 3.972 20.7708 3.75004 20.6225C3.52803 20.4741 3.355 20.2633 3.25282 20.0166C3.15064 19.7699 3.12391 19.4985 3.176 19.2366C3.22809 18.9747 3.35666 18.7342 3.54546 18.5454C3.73426 18.3566 3.97481 18.228 4.23668 18.1759C4.49856 18.1238 4.77 18.1506 5.01668 18.2528C5.26336 18.3549 5.4742 18.528 5.62254 18.75C5.77085 18.9719 5.85003 19.2329 5.85006 19.4998C5.8497 19.8578 5.70734 20.201 5.45421 20.4541C5.20109 20.7073 4.85788 20.8496 4.49991 20.85ZM17.281 17.2809C16.9128 17.6491 16.6423 18.1025 16.4928 18.6H7.50725C7.35777 18.1025 7.08719 17.6492 6.71903 17.281C6.35087 16.9129 5.89753 16.6423 5.40006 16.4928V7.50717C5.89749 7.35763 6.3508 7.08703 6.71894 6.71888C7.08709 6.35074 7.35769 5.89743 7.50724 5.39999H16.4929C16.6423 5.89747 16.9129 6.35081 17.2811 6.71897C17.6492 7.08713 18.1026 7.35771 18.6001 7.50719V16.4928C18.1025 16.6422 17.6492 16.9128 17.281 17.2809ZM19.4998 20.85C19.2329 20.8499 18.972 20.7708 18.75 20.6225C18.528 20.4741 18.355 20.2633 18.2528 20.0166C18.1506 19.7699 18.1239 19.4985 18.176 19.2366C18.2281 18.9747 18.3567 18.7342 18.5455 18.5454C18.7343 18.3566 18.9748 18.228 19.2367 18.1759C19.4986 18.1238 19.77 18.1506 20.0167 18.2528C20.2634 18.3549 20.4742 18.528 20.6225 18.75C20.7708 18.9719 20.85 19.2328 20.8501 19.4998C20.8495 19.8577 20.7071 20.2008 20.454 20.4539C20.2009 20.707 19.8578 20.8495 19.4998 20.85Z" fill="#FC6625" stroke="#FC6625" stroke-width="0.3"/>
</svg>
