<svg width="28" height="28" viewBox="0 0 28 28" fill="none" xmlns="http://www.w3.org/2000/svg">
<path d="M9.09769 7.93103C9.34461 7.68411 9.48333 7.34921 9.48333 7.00001C9.48333 6.65081 9.34461 6.31591 9.09769 6.06899C8.85077 5.82206 8.51587 5.68334 8.16667 5.68334C7.81747 5.68334 7.48257 5.82206 7.23564 6.06899C6.98872 6.31591 6.85 6.65081 6.85 7.00001C6.85 7.34921 6.98872 7.68411 7.23564 7.93103C7.48257 8.17796 7.81747 8.31668 8.16667 8.31668C8.51587 8.31668 8.85077 8.17796 9.09769 7.93103Z" fill="#FC6625" stroke="#FC6625" stroke-width="0.3"/>
<path d="M8.16667 11.8167C8.51587 11.8167 8.85077 11.678 9.09769 11.431C9.34461 11.1841 9.48333 10.8492 9.48333 10.5C9.48333 10.1508 9.34461 9.81591 9.09769 9.56899C8.85077 9.32206 8.51587 9.18334 8.16667 9.18334C7.81747 9.18334 7.48257 9.32206 7.23564 9.56899C6.98872 9.81591 6.85 10.1508 6.85 10.5C6.85 10.8492 6.98872 11.1841 7.23564 11.431C7.48257 11.678 7.81747 11.8167 8.16667 11.8167Z" fill="#FC6625" stroke="#FC6625" stroke-width="0.3"/>
<path d="M9.09769 14.931C9.34461 14.6841 9.48333 14.3492 9.48333 14C9.48333 13.6508 9.34461 13.3159 9.09769 13.069C8.85077 12.8221 8.51587 12.6833 8.16667 12.6833C7.81747 12.6833 7.48257 12.8221 7.23564 13.069C6.98872 13.3159 6.85 13.6508 6.85 14C6.85 14.3492 6.98872 14.6841 7.23564 14.931C7.48257 15.178 7.81747 15.3167 8.16667 15.3167C8.51587 15.3167 8.85077 15.178 9.09769 14.931Z" fill="#FC6625" stroke="#FC6625" stroke-width="0.3"/>
<path d="M9.09769 18.431C9.34461 18.1841 9.48333 17.8492 9.48333 17.5C9.48333 17.1508 9.34461 16.8159 9.09769 16.569C8.85077 16.3221 8.51587 16.1833 8.16667 16.1833C7.81747 16.1833 7.48257 16.3221 7.23564 16.569C6.98872 16.8159 6.85 17.1508 6.85 17.5C6.85 17.8492 6.98872 18.1841 7.23564 18.431C7.48257 18.678 7.81747 18.8167 8.16667 18.8167C8.51587 18.8167 8.85077 18.678 9.09769 18.431Z" fill="#FC6625" stroke="#FC6625" stroke-width="0.3"/>
<path d="M8.16667 22.3167C8.51587 22.3167 8.85077 22.178 9.09769 21.931C9.34461 21.6841 9.48333 21.3492 9.48333 21C9.48333 20.6508 9.34461 20.3159 9.09769 20.069C8.85077 19.8221 8.51587 19.6833 8.16667 19.6833C7.81747 19.6833 7.48257 19.8221 7.23564 20.069C6.98872 20.3159 6.85 20.6508 6.85 21C6.85 21.3492 6.98872 21.6841 7.23564 21.931C7.48257 22.178 7.81747 22.3167 8.16667 22.3167Z" fill="#FC6625" stroke="#FC6625" stroke-width="0.3"/>
<path d="M16.3332 18.8167C16.6824 18.8167 17.0173 18.678 17.2642 18.431C17.5111 18.1841 17.6498 17.8492 17.6498 17.5C17.6498 17.1508 17.5111 16.8159 17.2642 16.569C17.0173 16.3221 16.6824 16.1833 16.3332 16.1833C15.984 16.1833 15.6491 16.3221 15.4021 16.569C15.1552 16.8159 15.0165 17.1508 15.0165 17.5C15.0165 17.8492 15.1552 18.1841 15.4021 18.431C15.6491 18.678 15.984 18.8167 16.3332 18.8167Z" fill="#FC6625" stroke="#FC6625" stroke-width="0.3"/>
<path d="M19.8332 18.8167C20.1824 18.8167 20.5173 18.678 20.7642 18.431C21.0111 18.1841 21.1498 17.8492 21.1498 17.5C21.1498 17.1508 21.0111 16.8159 20.7642 16.569C20.5173 16.3221 20.1824 16.1833 19.8332 16.1833C19.484 16.1833 19.1491 16.3221 18.9021 16.569C18.6552 16.8159 18.5165 17.1508 18.5165 17.5C18.5165 17.8492 18.6552 18.1841 18.9021 18.431C19.1491 18.678 19.484 18.8167 19.8332 18.8167Z" fill="#FC6625" stroke="#FC6625" stroke-width="0.3"/>
<path d="M19.8332 15.3167C20.1824 15.3167 20.5173 15.178 20.7642 14.931C21.0111 14.6841 21.1498 14.3492 21.1498 14C21.1498 13.6508 21.0111 13.3159 20.7642 13.069C20.5173 12.8221 20.1824 12.6833 19.8332 12.6833C19.484 12.6833 19.1491 12.8221 18.9021 13.069C18.6552 13.3159 18.5165 13.6508 18.5165 14C18.5165 14.3492 18.6552 14.6841 18.9021 14.931C19.1491 15.178 19.484 15.3167 19.8332 15.3167Z" fill="#FC6625" stroke="#FC6625" stroke-width="0.3"/>
<path d="M17.2642 14.931C17.5111 14.6841 17.6498 14.3492 17.6498 14C17.6498 13.6508 17.5111 13.3159 17.2642 13.069C17.0173 12.8221 16.6824 12.6833 16.3332 12.6833C15.984 12.6833 15.6491 12.8221 15.4021 13.069C15.1552 13.3159 15.0165 13.6508 15.0165 14C15.0165 14.3492 15.1552 14.6841 15.4021 14.931C15.6491 15.178 15.984 15.3167 16.3332 15.3167C16.6824 15.3167 17.0173 15.178 17.2642 14.931Z" fill="#FC6625" stroke="#FC6625" stroke-width="0.3"/>
<path d="M19.8332 11.8167C20.1824 11.8167 20.5173 11.678 20.7642 11.431C21.0111 11.1841 21.1498 10.8492 21.1498 10.5C21.1498 10.1508 21.0111 9.81591 20.7642 9.56899C20.5173 9.32206 20.1824 9.18334 19.8332 9.18334C19.484 9.18334 19.1491 9.32206 18.9021 9.56899C18.6552 9.81591 18.5165 10.1508 18.5165 10.5C18.5165 10.8492 18.6552 11.1841 18.9021 11.431C19.1491 11.678 19.484 11.8167 19.8332 11.8167Z" fill="#FC6625" stroke="#FC6625" stroke-width="0.3"/>
<path d="M17.2642 11.431C17.5111 11.1841 17.6498 10.8492 17.6498 10.5C17.6498 10.1508 17.5111 9.81591 17.2642 9.56899C17.0173 9.32206 16.6824 9.18334 16.3332 9.18334C15.984 9.18334 15.6491 9.32206 15.4021 9.56899C15.1552 9.81591 15.0165 10.1508 15.0165 10.5C15.0165 10.8492 15.1552 11.1841 15.4021 11.431C15.6491 11.678 15.984 11.8167 16.3332 11.8167C16.6824 11.8167 17.0173 11.678 17.2642 11.431Z" fill="#FC6625" stroke="#FC6625" stroke-width="0.3"/>
<path d="M16.4833 5.68334V4.95834C16.4833 4.22237 16.191 3.51654 15.6706 2.99612C15.1501 2.47571 14.4443 2.18334 13.7083 2.18334H6.125C5.38902 2.18334 4.68319 2.47571 4.16278 2.99612C3.64237 3.51654 3.35 4.22237 3.35 4.95834V24.2083C3.35 24.7742 3.80916 25.2333 4.375 25.2333H23.625C23.8968 25.2333 24.1576 25.1254 24.3498 24.9331C24.542 24.7409 24.65 24.4802 24.65 24.2083V8.45834C24.65 7.72237 24.3576 7.01654 23.8372 6.49612C23.3168 5.97571 22.611 5.68334 21.875 5.68334H16.4833ZM5.4 4.95834C5.4 4.76606 5.47638 4.58165 5.61235 4.44569C5.74831 4.30973 5.93272 4.23334 6.125 4.23334H13.7083C13.9006 4.23334 14.085 4.30973 14.221 4.44569C14.3569 4.58166 14.4333 4.76606 14.4333 4.95834V5.68334H14.2917C13.5557 5.68334 12.8499 5.97571 12.3294 6.49612C11.809 7.01654 11.5167 7.72237 11.5167 8.45834V23.1833H5.4V4.95834ZM17.0667 23.1833V21.7333H19.1V23.1833H17.0667ZM21.15 20.7083C21.15 20.4365 21.042 20.1758 20.8498 19.9836C20.6576 19.7913 20.3968 19.6833 20.125 19.6833H16.0417C15.7698 19.6833 15.5091 19.7913 15.3169 19.9836C15.1247 20.1758 15.0167 20.4365 15.0167 20.7083V23.1833H13.5667V8.45834C13.5667 8.26606 13.6431 8.08166 13.779 7.94569C13.915 7.80973 14.0994 7.73334 14.2917 7.73334H21.875C22.0673 7.73334 22.2517 7.80973 22.3877 7.94569C22.5236 8.08166 22.6 8.26606 22.6 8.45834V23.1833H21.15V20.7083Z" fill="#FC6625" stroke="#FC6625" stroke-width="0.3"/>
</svg>
