<svg width="81" height="84" viewBox="0 0 81 84" fill="none" xmlns="http://www.w3.org/2000/svg">
<path d="M75.1109 14.2222H52.8887V19.7777H75.1109V78.1111H52.8887V83.6666H80.6665V19.7777C80.6665 18.3043 80.0811 16.8912 79.0393 15.8494C77.9974 14.8075 76.5843 14.2222 75.1109 14.2222Z" fill="#FC6625"/>
<path d="M44.2224 0.333496H6.00022C4.43839 0.333496 2.94052 0.953931 1.83614 2.05831C0.731763 3.16269 0.111328 4.66055 0.111328 6.22238V83.6668H50.1113V6.22238C50.1113 4.66055 49.4909 3.16269 48.3865 2.05831C47.2821 0.953931 45.7843 0.333496 44.2224 0.333496ZM44.5558 78.1113H36.2224V69.7779H14.0002V78.1113H5.66688V6.22238C5.66688 6.17861 5.67551 6.13527 5.69226 6.09482C5.70901 6.05438 5.73356 6.01764 5.76451 5.98668C5.79547 5.95573 5.83221 5.93118 5.87266 5.91442C5.9131 5.89767 5.95644 5.88905 6.00022 5.88905H44.2224C44.2662 5.88905 44.3096 5.89767 44.35 5.91442C44.3904 5.93118 44.4272 5.95573 44.4581 5.98668C44.4891 6.01764 44.5136 6.05438 44.5304 6.09482C44.5471 6.13527 44.5558 6.17861 44.5558 6.22238V78.1113Z" fill="#FC6625"/>
<path d="M11.2227 14.2222H16.7782V19.7777H11.2227V14.2222Z" fill="#FC6625"/>
<path d="M22.334 14.2222H27.8895V19.7777H22.334V14.2222Z" fill="#FC6625"/>
<path d="M33.4453 14.2222H39.0009V19.7777H33.4453V14.2222Z" fill="#FC6625"/>
<path d="M11.2227 28.1113H16.7782V33.6669H11.2227V28.1113Z" fill="#FC6625"/>
<path d="M22.334 28.1113H27.8895V33.6669H22.334V28.1113Z" fill="#FC6625"/>
<path d="M33.4453 28.1113H39.0009V33.6669H33.4453V28.1113Z" fill="#FC6625"/>
<path d="M11.2227 42H16.7782V47.5556H11.2227V42Z" fill="#FC6625"/>
<path d="M22.334 42H27.8895V47.5556H22.334V42Z" fill="#FC6625"/>
<path d="M33.4453 42H39.0009V47.5556H33.4453V42Z" fill="#FC6625"/>
<path d="M11.2227 55.8887H16.7782V61.4442H11.2227V55.8887Z" fill="#FC6625"/>
<path d="M22.334 55.8887H27.8895V61.4442H22.334V55.8887Z" fill="#FC6625"/>
<path d="M33.4453 55.8887H39.0009V61.4442H33.4453V55.8887Z" fill="#FC6625"/>
<path d="M52.8887 28.1113H58.4442V33.6669H52.8887V28.1113Z" fill="#FC6625"/>
<path d="M64 28.1113H69.5556V33.6669H64V28.1113Z" fill="#FC6625"/>
<path d="M52.8887 42H58.4442V47.5556H52.8887V42Z" fill="#FC6625"/>
<path d="M64 42H69.5556V47.5556H64V42Z" fill="#FC6625"/>
<path d="M52.8887 55.8887H58.4442V61.4442H52.8887V55.8887Z" fill="#FC6625"/>
<path d="M64 55.8887H69.5556V61.4442H64V55.8887Z" fill="#FC6625"/>
</svg>
