<svg width="82" height="85" viewBox="0 0 82 85" fill="none" xmlns="http://www.w3.org/2000/svg">
<path d="M79.4375 37.5L69.25 12.5H75.5V6.25H44.25V0H38V6.25H6.75V12.5H13L2.875 37.5H0.5V43.75H1.4375C2.4125 46.8625 4.39375 49.5625 7.0625 51.4375C9.6978 53.3485 12.8697 54.3775 16.125 54.3775C19.3803 54.3775 22.5522 53.3485 25.1875 51.4375C27.8585 49.551 29.8524 46.856 30.875 43.75H31.75V37.5H28.9375L18.5 12.5H38V62.5H25.5L23.0625 63.625L10.5625 79.3125L13 84.375H69.25L71.6875 79.3125L59.1875 63.625L56.75 62.5H44.25V12.5H63.8125L53.375 37.5H50.5V43.75H51.4375C52.4597 46.8465 54.4324 49.5417 57.075 51.4522C59.7176 53.3627 62.8954 54.3912 66.1562 54.3912C69.4171 54.3912 72.5949 53.3627 75.2375 51.4522C77.8801 49.5417 79.8528 46.8465 80.875 43.75H81.75V37.5H79.4375ZM20.625 46.9375C19.2467 47.7003 17.7003 48.1084 16.125 48.125C14.5684 48.1168 13.0401 47.7079 11.6875 46.9375C10.3082 46.1814 9.14609 45.0839 8.3125 43.75H23.9375C23.1109 45.0677 21.9735 46.1622 20.625 46.9375ZM22.1875 37.5H9.6875L15.9375 22.5L22.1875 37.5ZM55.25 68.75L63 78.125H19.25L27 68.75H55.25ZM66.375 22.625L72.625 37.625H60.125L66.375 22.625ZM70.625 47.0625C69.2585 47.8544 67.7043 48.2646 66.125 48.25C64.5645 48.2722 63.0284 47.8611 61.6875 47.0625C60.3061 46.2541 59.1466 45.116 58.3125 43.75H73.9375C73.1627 45.1406 72.0156 46.2877 70.625 47.0625Z" fill="#FC6625"/>
</svg>
