<svg width="99" height="87" viewBox="0 0 99 87" fill="none" xmlns="http://www.w3.org/2000/svg">
<g clip-path="url(#clip0)">
<path d="M34.5311 17.7134C32.8715 16.5272 30.8029 15.5528 28.3771 14.7949C25.9371 14.0371 23.168 13.6558 20.1498 13.6558C17.1833 13.6558 14.4142 14.0418 11.9131 14.7996C9.47782 15.5387 7.35754 16.6684 5.60395 18.1606C3.87387 19.634 2.49169 21.531 1.50442 23.7953C0.507741 26.0877 0 28.8509 0 32.0142C0 35.2481 0.479533 38.0489 1.4339 40.3461C2.37416 42.6244 3.62941 44.5026 5.15733 45.9195C6.68525 47.3364 8.49055 48.4002 10.5215 49.0734C12.6136 49.7653 14.8608 50.1184 17.1974 50.1184C20.2626 50.1184 22.8718 49.6571 24.9498 48.7533L27.3475 47.7083V51.653C27.3475 54.5009 26.111 56.6945 23.7745 58.0031C21.72 59.1517 18.998 59.7307 15.6788 59.7307C13.3282 59.7307 11.0199 59.3964 8.81494 58.7374C7.11307 58.229 5.52873 57.6171 4.09013 56.9204C3.87387 57.1934 3.66702 57.5135 3.46956 57.8807C3.06995 58.615 2.8725 59.4576 2.8725 60.4697C2.8725 62.8845 3.95379 64.5133 6.28094 65.6053C8.96538 66.8622 12.7781 67.4977 17.6205 67.4977C20.446 67.4977 23.1257 67.1776 25.5892 66.5468C27.9821 65.9349 30.0836 64.9699 31.8372 63.6801C33.5579 62.4185 34.9354 60.8039 35.9368 58.8928C36.9287 56.991 37.4318 54.675 37.4318 51.9966V22.6231C37.4318 21.4651 37.2014 20.5425 36.7548 19.8835C36.2282 19.1021 35.4807 18.3772 34.5311 17.7134ZM27.0936 40.3931L26.4448 40.9015C24.79 42.2054 22.5898 42.8645 19.8959 42.8645C17.282 42.8645 15.0912 41.9701 13.3893 40.2001C11.678 38.4302 10.8459 35.7518 10.8459 32.0142C10.8459 28.7426 11.6874 26.1489 13.347 24.2942C15.0583 22.3831 17.5735 21.4181 20.8268 21.4181C22.1102 21.4181 23.2244 21.5546 24.1412 21.8229C25.0344 22.0865 25.7161 22.3548 26.2333 22.6467L27.0983 23.1362V40.3931H27.0936Z" fill="#FC6625"/>
<path d="M96.0579 77.1195C95.9403 76.6582 95.9403 76.0086 96.1848 75.6414C97.6093 73.5137 97.7127 71.1554 97.1203 68.8535C96.2976 65.6432 95.2633 62.4799 94.1256 59.3684C93.3123 57.1512 91.3189 56.3604 89.1846 57.2265C88.4747 57.5137 88.075 57.3489 87.5908 56.897C86.4249 55.8096 85.0286 55.6731 83.6323 56.2427C82.9177 56.5346 82.4758 56.4969 81.9257 55.9838C80.8821 55.0094 79.5422 54.6375 78.3105 55.3248C77.4736 55.7908 77.1915 55.1883 77.1398 55.0424C76.5569 53.2724 75.9974 51.4978 75.3909 49.7373C75.1277 48.9747 74.8879 48.1697 74.446 47.5201C73.407 45.9855 71.4748 45.5666 69.8011 46.3904C68.1368 47.2094 67.4928 49.0971 68.1885 51.2248C69.3592 54.8023 70.5533 58.3751 71.7286 61.9527C72.1376 63.2001 72.5043 64.4616 72.8898 65.7138C72.8898 65.7138 72.9792 65.9444 72.9134 65.9821C72.8287 66.0339 72.6454 65.8785 72.6407 65.8832C71.7098 65.3466 70.8025 64.777 69.8481 64.2875C68.3531 63.5202 66.3503 63.925 65.2973 65.1536C64.1736 66.4669 64.0608 68.1427 65.1609 69.6255C65.7298 70.3928 66.4632 71.0754 67.2295 71.6497C68.5882 72.6664 70.0832 73.5043 71.4277 74.5399C75.4991 77.6797 79.749 80.6971 81.2394 86.0398C81.5214 87.0566 82.0198 87.146 82.9318 86.8448C87.4592 85.3337 91.9959 83.8556 96.5421 82.4105C97.3084 82.1657 97.4918 81.808 97.2473 81.0736C96.8195 79.765 96.3917 78.4564 96.0579 77.1195ZM94.1538 77.7409C94.4312 78.7341 95.1035 79.9533 94.7603 80.6782C94.4547 81.3278 93.0208 81.4691 92.0665 81.7844C89.3397 82.6835 86.6035 83.5591 83.8721 84.444C83.3596 84.6088 82.8237 84.8442 82.5792 84.0863C81.2206 79.8686 77.9343 77.2419 74.6904 74.62C72.777 73.0713 70.6708 71.7579 68.6822 70.2987C68.0334 69.8279 67.4222 69.2819 66.8863 68.6888C66.2939 68.0392 66.073 67.2625 66.7453 66.4999C67.4269 65.7279 68.2826 65.5773 69.1523 66.1045C70.5674 66.9659 71.9261 67.9309 73.3459 68.7829C73.8113 69.0606 74.4554 69.569 74.9443 69.2913C75.4709 68.9947 75.4803 68.058 75.3533 67.5402C74.7657 65.2289 74.0605 62.9412 73.3365 60.6629C72.2787 57.3442 71.1269 54.0585 70.102 50.7305C69.9092 50.0997 69.6883 49.2336 69.9844 48.6452C70.2947 48.0379 71.2773 47.8685 71.6722 47.972C72.2458 48.1227 72.8851 48.6405 73.0826 49.163C74.084 51.8555 74.9443 54.6046 75.8423 57.3348C76.2231 58.4881 76.6227 59.6367 76.9471 60.8088C77.1304 61.4819 77.5065 61.496 78.0425 61.3313C78.5737 61.1712 79.0956 61.03 78.8276 60.2721C78.663 59.8155 78.5408 59.3448 78.3763 58.8835C78.1318 58.2057 78.0754 57.4713 78.8699 57.2736C79.4435 57.1277 80.238 57.236 80.7269 57.5466C81.1735 57.8338 81.3898 58.5305 81.6155 59.0859C81.9163 59.8344 82.1467 60.6158 82.3724 61.3925C82.5557 62.0138 82.7861 62.3998 83.5665 62.1504C84.3375 61.9009 84.5115 61.496 84.2153 60.79C84.1072 60.531 84.0366 60.2486 83.9379 59.985C83.6276 59.1706 83.4161 58.3704 84.5021 57.9797C85.5034 57.6219 86.2886 58.0079 86.7305 58.9117C87.1019 59.6696 87.3087 60.5075 87.5908 61.3078C87.8024 61.9103 88.0233 62.5128 88.2631 63.1765C90.0355 62.7811 90.0073 62.7906 89.5936 61.176C89.3961 60.404 88.6392 59.4578 90.0402 58.9682C91.1074 58.5964 92.0053 59.0059 92.4614 60.3428C93.458 63.2942 94.45 66.2551 95.2586 69.2631C95.7711 71.1789 95.6535 73.1466 94.3701 74.8412C93.6461 75.7921 93.8718 76.7476 94.1538 77.7409Z" fill="#FC6625"/>
<path d="M62.6267 42.4595C67.5055 42.4595 71.4605 38.4995 71.4605 33.6145C71.4605 28.7296 67.5055 24.7695 62.6267 24.7695C57.748 24.7695 53.793 28.7296 53.793 33.6145C53.793 38.4995 57.748 42.4595 62.6267 42.4595Z" fill="#FC6625"/>
<path d="M62.6247 13.7217C51.6707 13.7217 42.7617 22.642 42.7617 33.61C42.7617 44.5779 51.6707 53.4982 62.6247 53.4982C63.4615 53.4982 64.336 53.437 65.2198 53.3241L66.0002 53.2205L65.7511 52.472C65.2857 51.0598 64.8155 49.6477 64.3548 48.2308L64.195 47.7459L63.6872 47.7836C63.2829 47.8118 62.9444 47.8259 62.6247 47.8259C54.7924 47.8259 48.4221 41.4476 48.4221 33.6052C48.4221 25.7629 54.7924 19.3845 62.6247 19.3845C70.4571 19.3845 76.8273 25.7629 76.8273 33.6052C76.8273 36.1001 76.1645 38.562 74.9139 40.7227L74.7494 41.0051L74.881 41.3064C75.1678 41.9701 75.4123 42.6997 75.6144 43.2881L75.7884 43.8012C76.0704 44.6203 76.3478 45.4535 76.6205 46.282L76.9825 47.3788L77.73 46.5032C80.7999 42.9068 82.4877 38.3266 82.4877 33.61C82.4924 22.6467 73.5787 13.7217 62.6247 13.7217Z" fill="#FC6625"/>
<path d="M73.6609 10.8645L76.7121 1.38403C77.0694 0.258989 78.3951 -0.29647 79.5846 0.155429C80.7505 0.532011 81.4134 1.70883 81.0702 2.7868L78.019 12.2673C77.2386 14.8374 72.8006 13.4111 73.6609 10.8645Z" fill="#FC6625"/>
<path d="M82.2207 14.8048L89.771 8.32285C90.6643 7.55086 92.0841 7.7721 92.8598 8.77946C93.659 9.7115 93.6073 11.0625 92.7517 11.8015L85.2014 18.2835C83.1939 20.0628 80.1522 16.5229 82.2207 14.8048Z" fill="#FC6625"/>
<path d="M87.105 22.4257L97.0436 22.8446C98.2236 22.8917 99.1074 24.0214 98.9899 25.2877C98.9382 26.5116 97.9791 27.4672 96.8508 27.4201L86.9122 27.0012C84.2372 26.9353 84.4253 22.2703 87.105 22.4257Z" fill="#FC6625"/>
</g>
<defs>
<clipPath id="clip0">
<rect width="99" height="87" fill="white"/>
</clipPath>
</defs>
</svg>
