<svg width="100" height="76" viewBox="0 0 100 76" fill="none" xmlns="http://www.w3.org/2000/svg">
<path d="M0 13C0 9.68479 1.31696 6.50537 3.66117 4.16116C6.00537 1.81696 9.18479 0.5 12.5 0.5L87.5 0.5C90.8152 0.5 93.9946 1.81696 96.3388 4.16116C98.683 6.50537 100 9.68479 100 13V63C100 66.3152 98.683 69.4946 96.3388 71.8388C93.9946 74.183 90.8152 75.5 87.5 75.5H12.5C9.18479 75.5 6.00537 74.183 3.66117 71.8388C1.31696 69.4946 0 66.3152 0 63L0 13ZM12.5 6.75C10.8424 6.75 9.25268 7.40848 8.08058 8.58058C6.90848 9.75268 6.25 11.3424 6.25 13V19.25L93.75 19.25V13C93.75 11.3424 93.0915 9.75268 91.9194 8.58058C90.7473 7.40848 89.1576 6.75 87.5 6.75L12.5 6.75ZM93.75 31.75L6.25 31.75L6.25 63C6.25 64.6576 6.90848 66.2473 8.08058 67.4194C9.25268 68.5915 10.8424 69.25 12.5 69.25H87.5C89.1576 69.25 90.7473 68.5915 91.9194 67.4194C93.0915 66.2473 93.75 64.6576 93.75 63V31.75Z" fill="#FC6625"/>
<path d="M12.5 50.5C12.5 48.8424 13.1585 47.2527 14.3306 46.0806C15.5027 44.9085 17.0924 44.25 18.75 44.25H25C26.6576 44.25 28.2473 44.9085 29.4194 46.0806C30.5915 47.2527 31.25 48.8424 31.25 50.5V56.75C31.25 58.4076 30.5915 59.9973 29.4194 61.1694C28.2473 62.3415 26.6576 63 25 63H18.75C17.0924 63 15.5027 62.3415 14.3306 61.1694C13.1585 59.9973 12.5 58.4076 12.5 56.75V50.5Z" fill="#FC6625"/>
</svg>
