<svg width="123" height="104" viewBox="0 0 123 104" fill="none" xmlns="http://www.w3.org/2000/svg">
<path d="M43.5 91.5H110.167C114.75 91.5 118.458 87.75 118.458 83.1667L118.5 37.3333C118.5 32.75 114.75 29 110.167 29H43.5C38.9167 29 35.1667 32.75 35.1667 37.3333V83.1667C35.1667 87.75 38.9167 91.5 43.5 91.5ZM43.5 37.3333H110.167V83.1667H43.5V37.3333ZM31 99.8333C31 102.125 32.875 104 35.1667 104H118.5C120.792 104 122.667 102.125 122.667 99.8333C122.667 97.5417 120.792 95.6667 118.5 95.6667H35.1667C32.875 95.6667 31 97.5417 31 99.8333Z" fill="#FC6625"/>
<path d="M7.55941 18.038L2.85941 19.495C2.38941 19.1817 1.91941 18.743 1.44941 18.179C0.979414 17.615 0.744414 16.8317 0.744414 15.829C0.744414 13.949 1.88808 12.633 4.17541 11.881L9.43941 10.095H11.1784C12.5257 10.095 13.5911 10.4867 14.3744 11.27C15.1577 12.0533 15.5494 13.1187 15.5494 14.466V38.953C15.2047 39.0157 14.6877 39.094 13.9984 39.188C13.3404 39.3133 12.6667 39.376 11.9774 39.376C11.2881 39.376 10.6614 39.329 10.0974 39.235C9.56475 39.141 9.11041 38.953 8.73441 38.671C8.35841 38.389 8.06075 38.013 7.84141 37.543C7.65341 37.0417 7.55941 36.3993 7.55941 35.616V18.038Z" fill="#3A487F"/>
</svg>
