<svg width="88" height="88" viewBox="0 0 88 88" fill="none" xmlns="http://www.w3.org/2000/svg">
<path d="M81.5 0.25H44C42.3429 0.251655 40.7542 0.910666 39.5824 2.08241C38.4107 3.25415 37.7517 4.84291 37.75 6.5V37.75H6.5C4.84291 37.7517 3.25415 38.4107 2.08241 39.5824C0.910666 40.7542 0.251655 42.3429 0.25 44V87.75H87.75V6.5C87.7483 4.84291 87.0893 3.25415 85.9176 2.08241C84.7458 0.910666 83.1571 0.251655 81.5 0.25ZM22.125 81.5V59.625H34.625V81.5H22.125ZM81.5 81.5H40.875V56.5C40.875 55.6712 40.5458 54.8763 39.9597 54.2903C39.3737 53.7042 38.5788 53.375 37.75 53.375H19C18.1712 53.375 17.3763 53.7042 16.7903 54.2903C16.2042 54.8763 15.875 55.6712 15.875 56.5V81.5H6.5V44H44V6.5H81.5V81.5Z" fill="#FC6625"/>
</svg>
