<svg width="121" height="116" viewBox="0 0 121 116" fill="none" xmlns="http://www.w3.org/2000/svg">
<path d="M11.5492 9.719C13.3352 9.719 14.9175 9.954 16.2962 10.424C17.6748 10.8627 18.8498 11.4737 19.8212 12.257C20.7925 13.0403 21.5288 13.9647 22.0302 15.03C22.5315 16.0953 22.7822 17.239 22.7822 18.461C22.7822 21.751 20.9178 24.8843 17.1892 27.861L11.0322 32.796H22.3122C22.5002 33.1407 22.6725 33.5793 22.8292 34.112C23.0172 34.6447 23.1112 35.2243 23.1112 35.851C23.1112 36.979 22.8605 37.7937 22.3592 38.295C21.8578 38.765 21.1998 39 20.3852 39H4.07617C3.38683 38.53 2.8385 37.9347 2.43117 37.214C2.05517 36.462 1.86717 35.5847 1.86717 34.582C1.86717 33.5167 2.0865 32.6237 2.52517 31.903C2.96383 31.151 3.4495 30.5557 3.98217 30.117L10.4682 24.571C11.2828 23.8817 11.9565 23.2707 12.4892 22.738C13.0218 22.174 13.4448 21.6727 13.7582 21.234C14.1028 20.7953 14.3378 20.388 14.4632 20.012C14.6198 19.636 14.6982 19.2757 14.6982 18.931C14.6982 18.0537 14.3065 17.3643 13.5232 16.863C12.7712 16.3617 11.8312 16.111 10.7032 16.111C9.44984 16.111 8.32184 16.3147 7.31917 16.722C6.34783 17.098 5.53317 17.5053 4.87517 17.944C4.3425 17.568 3.90383 17.098 3.55917 16.534C3.2145 15.97 3.04217 15.312 3.04217 14.56C3.04217 12.9307 3.80983 11.7243 5.34517 10.941C6.8805 10.1263 8.9485 9.719 11.5492 9.719Z" fill="#3A487F"/>
<path d="M65.1978 38.8673L70.1535 45.5669M80.065 58.9662L85.0208 65.6658M94.9323 79.0651L99.888 85.7647M31.6996 63.6461C29.9228 64.9604 28.7408 66.9268 28.4138 69.1126C28.0867 71.2984 28.6414 73.5246 29.9558 75.3014L37.3894 85.3509C39.1662 84.0365 41.3924 83.4819 43.5782 83.8089C45.764 84.1359 47.7304 85.3179 49.0448 87.0947C50.3591 88.8716 50.9138 91.0978 50.5867 93.2836C50.2597 95.4694 49.0777 97.4358 47.3009 98.7501L54.7345 108.8C56.0489 110.576 58.0152 111.758 60.201 112.085C62.3868 112.412 64.613 111.858 66.3899 110.543L113.287 75.8532C115.064 74.5388 116.246 72.5725 116.573 70.3867C116.9 68.2009 116.345 65.9747 115.031 64.1978L107.598 54.1484C105.821 55.4627 103.594 56.0174 101.409 55.6903C99.2228 55.3633 97.2565 54.1813 95.9421 52.4045C94.6278 50.6276 94.0731 48.4014 94.4002 46.2156C94.7272 44.0298 95.9092 42.0635 97.686 40.7491L90.2524 30.6997C88.938 28.9228 86.9717 27.7409 84.7859 27.4138C82.6001 27.0868 80.3739 27.6415 78.597 28.9558L31.6996 63.6461Z" stroke="#FC6625" stroke-width="7.5" stroke-linecap="round" stroke-linejoin="round"/>
</svg>
