<svg width="92" height="75" viewBox="0 0 92 75" fill="none" xmlns="http://www.w3.org/2000/svg">
<path d="M12.5 62.5H79.1667C83.75 62.5 87.4583 58.75 87.4583 54.1667L87.5 8.33333C87.5 3.75 83.75 0 79.1667 0H12.5C7.91667 0 4.16667 3.75 4.16667 8.33333V54.1667C4.16667 58.75 7.91667 62.5 12.5 62.5ZM12.5 8.33333H79.1667V54.1667H12.5V8.33333ZM0 70.8333C0 73.125 1.875 75 4.16667 75H87.5C89.7917 75 91.6667 73.125 91.6667 70.8333C91.6667 68.5417 89.7917 66.6667 87.5 66.6667H4.16667C1.875 66.6667 0 68.5417 0 70.8333Z" fill="#FC6625"/>
</svg>
