<svg width="135" height="120" viewBox="0 0 135 120" fill="none" xmlns="http://www.w3.org/2000/svg">
<path d="M11.2879 9.719C14.8912 9.719 17.6329 10.471 19.5129 11.975C21.3929 13.4477 22.3329 15.4373 22.3329 17.944C22.3329 19.448 21.9256 20.7327 21.1109 21.798C20.3276 22.832 19.3876 23.6153 18.2909 24.148C18.9489 24.3987 19.5599 24.712 20.1239 25.088C20.6879 25.464 21.1892 25.934 21.6279 26.498C22.0666 27.062 22.4112 27.72 22.6619 28.472C22.9126 29.224 23.0379 30.1013 23.0379 31.104C23.0379 32.4513 22.7402 33.6577 22.1449 34.723C21.5809 35.7883 20.7819 36.697 19.7479 37.449C18.7139 38.201 17.4762 38.765 16.0349 39.141C14.6249 39.5483 13.0739 39.752 11.3819 39.752C8.12325 39.752 5.66358 39.2977 4.00291 38.389C2.34225 37.4803 1.51191 36.321 1.51191 34.911C1.51191 34.065 1.71558 33.3443 2.12291 32.749C2.53025 32.1223 3.03158 31.6367 3.62691 31.292C4.25358 31.7307 5.08391 32.2007 6.11791 32.702C7.18325 33.172 8.56191 33.407 10.2539 33.407C11.8519 33.407 13.0269 33.125 13.7789 32.561C14.5622 31.997 14.9539 31.2607 14.9539 30.352C14.9539 29.4433 14.6406 28.754 14.0139 28.284C13.4186 27.814 12.3689 27.579 10.8649 27.579H6.44691C6.22758 27.2343 6.03958 26.8113 5.88291 26.31C5.72625 25.8087 5.64791 25.2133 5.64791 24.524C5.64791 23.8033 5.71058 23.1923 5.83591 22.691C5.99258 22.1583 6.19625 21.7197 6.44691 21.375H10.8649C13.1209 21.375 14.2489 20.5133 14.2489 18.79C14.2489 17.9753 13.8886 17.3173 13.1679 16.816C12.4472 16.3147 11.3662 16.064 9.92491 16.064C8.64025 16.064 7.51225 16.2207 6.54091 16.534C5.56958 16.816 4.77058 17.1763 4.14391 17.615C3.61125 17.239 3.17258 16.7847 2.82791 16.252C2.48325 15.688 2.31091 15.03 2.31091 14.278C2.31091 12.7113 3.12558 11.5677 4.75491 10.847C6.38425 10.095 8.56191 9.719 11.2879 9.719Z" fill="#3A487F"/>
<path d="M122.5 26.25H85C83.3429 26.2517 81.7542 26.9107 80.5824 28.0824C79.4107 29.2542 78.7517 30.8429 78.75 32.5V63.75H47.5C45.8429 63.7517 44.2542 64.4107 43.0824 65.5824C41.9107 66.7542 41.2517 68.3429 41.25 70V113.75H128.75V32.5C128.748 30.8429 128.089 29.2542 126.918 28.0824C125.746 26.9107 124.157 26.2517 122.5 26.25ZM63.125 107.5V85.625H75.625V107.5H63.125ZM122.5 107.5H81.875V82.5C81.875 81.6712 81.5458 80.8763 80.9597 80.2903C80.3737 79.7042 79.5788 79.375 78.75 79.375H60C59.1712 79.375 58.3763 79.7042 57.7903 80.2903C57.2042 80.8763 56.875 81.6712 56.875 82.5V107.5H47.5V70H85V32.5H122.5V107.5Z" fill="#FC6625"/>
<path d="M91.25 45H97.5V51.25H91.25V45Z" fill="#FC6625"/>
<path d="M110 45H116.25V51.25H110V45Z" fill="#FC6625"/>
<path d="M91.25 63.75H97.5V70H91.25V63.75Z" fill="#FC6625"/>
<path d="M110 63.75H116.25V70H110V63.75Z" fill="#FC6625"/>
<path d="M91.25 82.5H97.5V88.75H91.25V82.5Z" fill="#FC6625"/>
<path d="M110 82.5H116.25V88.75H110V82.5Z" fill="#FC6625"/>
<path d="M52.1875 57.5C49.2867 57.5 46.5047 56.3477 44.4535 54.2965C42.4023 52.2453 41.25 49.4633 41.25 46.5625C41.25 43.6617 42.4023 40.8797 44.4535 38.8285C46.5047 36.7773 49.2867 35.625 52.1875 35.625H54.1469C54.8426 32.9434 56.4082 30.5683 58.5983 28.8718C60.7885 27.1753 63.4796 26.2532 66.25 26.25H72.5V32.5H66.25C64.5929 32.5017 63.0042 33.1607 61.8324 34.3324C60.6607 35.5042 60.0017 37.0929 60 38.75V41.875H52.1875C50.9443 41.875 49.752 42.3689 48.8729 43.2479C47.9939 44.127 47.5 45.3193 47.5 46.5625C47.5 47.8057 47.9939 48.998 48.8729 49.8771C49.752 50.7561 50.9443 51.25 52.1875 51.25H72.5V57.5H52.1875Z" fill="#FC6625"/>
</svg>
