<svg width="97" height="93" viewBox="0 0 97 93" fill="none" xmlns="http://www.w3.org/2000/svg">
<path d="M41.1978 15.8673L46.1535 22.5669L41.1978 15.8673ZM56.065 35.9662L61.0208 42.6658L56.065 35.9662ZM70.9323 56.0651L75.888 62.7647L70.9323 56.0651ZM7.69963 40.6461C5.92277 41.9604 4.74082 43.9268 4.41378 46.1126C4.08674 48.2984 4.6414 50.5246 5.95575 52.3014L13.3894 62.3509C15.1662 61.0365 17.3924 60.4819 19.5782 60.8089C21.764 61.1359 23.7304 62.3179 25.0448 64.0947C26.3591 65.8716 26.9138 68.0978 26.5867 70.2836C26.2597 72.4694 25.0777 74.4358 23.3009 75.7501L30.7345 85.7996C32.0489 87.5764 34.0152 88.7584 36.201 89.0854C38.3868 89.4124 40.613 88.8578 42.3899 87.5434L89.2873 52.8532C91.0641 51.5388 92.2461 49.5725 92.5731 47.3867C92.9001 45.2009 92.3455 42.9747 91.0311 41.1978L83.5975 31.1484C81.8207 32.4627 79.5945 33.0174 77.4087 32.6903C75.2228 32.3633 73.2565 31.1813 71.9421 29.4045C70.6278 27.6276 70.0731 25.4014 70.4002 23.2156C70.7272 21.0298 71.9092 19.0635 73.686 17.7491L66.2524 7.69968C64.938 5.92283 62.9717 4.74088 60.7859 4.41384C58.6001 4.0868 56.3739 4.64146 54.597 5.95581L7.69963 40.6461Z" stroke="#FC6625" stroke-width="7.5" stroke-linecap="round" stroke-linejoin="round"/>
</svg>
