<svg width="23" height="23" viewBox="0 0 23 23" fill="none" xmlns="http://www.w3.org/2000/svg">
<path d="M17.8198 17.8198C16.1437 19.4959 13.8704 20.4375 11.5 20.4375C9.12963 20.4375 6.85634 19.4959 5.18024 17.8198C3.50413 16.1437 2.5625 13.8704 2.5625 11.5C2.5625 9.12963 3.50413 6.85634 5.18023 5.18023C6.85634 3.50413 9.12963 2.5625 11.5 2.5625C13.8704 2.5625 16.1437 3.50412 17.8198 5.18023C19.4959 6.85634 20.4375 9.12962 20.4375 11.5C20.4375 13.8704 19.4959 16.1437 17.8198 17.8198ZM11.5 22.25C14.3511 22.25 17.0854 21.1174 19.1014 19.1014C21.1174 17.0854 22.25 14.3511 22.25 11.5C22.25 8.64892 21.1174 5.91462 19.1014 3.8986C17.0854 1.88258 14.3511 0.749998 11.5 0.749998C8.64892 0.749999 5.91462 1.88259 3.8986 3.8986C1.88259 5.91462 0.750001 8.64892 0.750002 11.5C0.750002 14.3511 1.88259 17.0854 3.89861 19.1014C5.91462 21.1174 8.64893 22.25 11.5 22.25Z" fill="#3A487F" stroke="#3A487F" stroke-width="0.5"/>
<path d="M10.8585 8.20379L10.8585 8.20375C10.7743 8.11952 10.7074 8.01953 10.6619 7.90948C10.6163 7.79943 10.5928 7.68147 10.5928 7.56235C10.5928 7.44323 10.6163 7.32528 10.6619 7.21523C10.7074 7.10518 10.7743 7.00518 10.8585 6.92095L11.0353 7.09773L10.8585 6.92095C10.9427 6.83672 11.0427 6.76991 11.1528 6.72432C11.2628 6.67874 11.3808 6.65527 11.4999 6.65527C11.619 6.65527 11.737 6.67874 11.847 6.72432C11.9571 6.76991 12.0571 6.83672 12.1413 6.92095L16.0786 10.8582C16.0786 10.8583 16.0786 10.8583 16.0787 10.8583C16.163 10.9425 16.2299 11.0425 16.2756 11.1525C16.3213 11.2626 16.3448 11.3806 16.3448 11.4999C16.3448 11.6191 16.3213 11.7371 16.2756 11.8472C16.23 11.9572 16.1631 12.0571 16.0788 12.1413C16.0787 12.1413 16.0786 12.1414 16.0786 12.1415L12.1415 16.0785L10.8585 8.20379ZM10.8585 8.20379L14.1558 11.4999L10.8587 14.7957L10.8585 8.20379ZM10.8585 16.0788C10.7742 15.9946 10.7073 15.8947 10.6617 15.7847C10.616 15.6746 10.5925 15.5566 10.5925 15.4374C10.5925 15.3182 10.616 15.2001 10.6617 15.09C10.7073 14.98 10.7742 14.8801 10.8585 14.7959L10.8585 16.0788ZM10.8585 16.0788C10.9427 16.1631 11.0426 16.2299 11.1526 16.2756C11.2627 16.3213 11.3807 16.3448 11.4999 16.3448C11.6191 16.3448 11.7371 16.3213 11.8472 16.2756C11.9572 16.2299 12.0572 16.163 12.1413 16.0788L10.8585 16.0788Z" fill="#3A487F" stroke="#3A487F" stroke-width="0.5"/>
<path d="M6.92168 10.8592C6.75173 11.0291 6.65625 11.2596 6.65625 11.5C6.65625 11.7404 6.75173 11.9709 6.92168 12.1408C7.09164 12.3108 7.32215 12.4062 7.5625 12.4062L14.125 12.4062C14.3654 12.4062 14.5959 12.3108 14.7658 12.1408C14.9358 11.9709 15.0312 11.7403 15.0312 11.5C15.0312 11.2596 14.9358 11.0291 14.7658 10.8592C14.5959 10.6892 14.3654 10.5937 14.125 10.5937L7.5625 10.5937C7.32215 10.5937 7.09164 10.6892 6.92168 10.8592Z" fill="#3A487F" stroke="#3A487F" stroke-width="0.5"/>
</svg>
