<svg width="47" height="47" viewBox="0 0 47 47" fill="none" xmlns="http://www.w3.org/2000/svg">
<path d="M41.125 2.9375H23.5C22.7212 2.93828 21.9745 3.24801 21.4237 3.79873C20.873 4.34945 20.5633 5.09617 20.5625 5.875V20.5625H5.875C5.09617 20.5633 4.34945 20.873 3.79873 21.4237C3.24801 21.9745 2.93828 22.7212 2.9375 23.5V44.0625H44.0625V5.875C44.0617 5.09617 43.752 4.34945 43.2013 3.79873C42.6505 3.24801 41.9038 2.93828 41.125 2.9375ZM13.2188 41.125V30.8438H19.0938V41.125H13.2188ZM41.125 41.125H22.0312V29.375C22.0312 28.9855 21.8765 28.6119 21.6011 28.3364C21.3256 28.061 20.952 27.9062 20.5625 27.9062H11.75C11.3605 27.9062 10.9869 28.061 10.7114 28.3364C10.436 28.6119 10.2812 28.9855 10.2812 29.375V41.125H5.875V23.5H23.5V5.875H41.125V41.125Z" fill="#FC6625"/>
<path d="M26.4375 11.75H29.375V14.6875H26.4375V11.75Z" fill="#FC6625"/>
<path d="M35.25 11.75H38.1875V14.6875H35.25V11.75Z" fill="#FC6625"/>
<path d="M26.4375 20.5625H29.375V23.5H26.4375V20.5625Z" fill="#FC6625"/>
<path d="M35.25 20.5625H38.1875V23.5H35.25V20.5625Z" fill="#FC6625"/>
<path d="M26.4375 29.375H29.375V32.3125H26.4375V29.375Z" fill="#FC6625"/>
<path d="M35.25 29.375H38.1875V32.3125H35.25V29.375Z" fill="#FC6625"/>
<path d="M8.07812 17.625C6.71475 17.625 5.40721 17.0834 4.44315 16.1193C3.4791 15.1553 2.9375 13.8478 2.9375 12.4844C2.9375 11.121 3.4791 9.81346 4.44315 8.8494C5.40721 7.88535 6.71475 7.34375 8.07812 7.34375H8.99903C9.32601 6.08339 10.0618 4.9671 11.0912 4.16974C12.1206 3.37238 13.3854 2.939 14.6875 2.9375H17.625V5.875H14.6875C13.9087 5.87578 13.162 6.18551 12.6112 6.73623C12.0605 7.28695 11.7508 8.03367 11.75 8.8125V10.2812H8.07812C7.49382 10.2812 6.93345 10.5134 6.52028 10.9265C6.10711 11.3397 5.875 11.9001 5.875 12.4844C5.875 13.0687 6.10711 13.6291 6.52028 14.0422C6.93345 14.4554 7.49382 14.6875 8.07812 14.6875H17.625V17.625H8.07812Z" fill="#FC6625"/>
</svg>
