<svg width="279" height="278" viewBox="0 0 279 278" fill="none" xmlns="http://www.w3.org/2000/svg">
<g clip-path="url(#clip0)">
<path d="M265.545 187.666C237.466 252.99 163.35 281.052 105.281 276.266C89.4269 274.962 57.5212 272.33 32.6118 248.886C-15.2271 203.855 -7.86043 109.733 37.9343 54.3156C43.8297 47.1792 84.6524 -0.632509 148.261 0.00458458C194.836 0.473762 227.522 26.6588 231.497 29.9233C236.518 34.0422 247.593 43.8356 257.576 59.3728C281.029 95.8798 283.093 146.842 265.545 187.666Z" fill="url(#paint0_linear)"/>
<path d="M0.962823 207.717C27.8225 295.769 239.807 302.881 278.057 218.869C280.679 213.11 276.047 206.784 269.12 206.655L6.12245 201.796C2.63662 201.731 0.044459 204.695 0.962823 207.717Z" fill="#BDD0FB"/>
<path d="M184.073 206.591C184.073 206.591 193.508 80.5849 244.433 4.91895C247.855 -0.167921 255.799 0.390153 258.426 5.92151C275.988 42.9026 316.974 156.932 184.073 206.591Z" fill="#BDD0FB"/>
<path opacity="0.5" d="M195.355 196.852C195.093 197.188 195.582 197.583 195.888 197.287C207.131 186.229 248.97 133.923 252.106 41.8259C252.116 41.5296 251.656 41.4852 251.622 41.7815C248.916 63.4279 236.464 143.623 195.355 196.852Z" fill="white"/>
<path d="M41.3313 79.1033C43.6223 74.3325 45.2566 69.3395 45.6417 63.902C46.6045 50.202 38.6404 37.5836 32.7896 25.785C27.4127 14.9445 23.4183 -1.20998 41.5585 0.227189C56.0103 1.37297 73.005 15.7792 74.9405 30.8027C77.2364 48.5821 68.5811 71.0038 78.8411 87.1584C93.1942 109.753 103.548 104.577 103.548 142.704C103.548 158.997 94.5273 167.985 84.1933 172.934C67.8849 180.747 48.4363 177.591 35.436 165.012C23.9565 153.9 17.128 137.923 19.4387 121.882C21.7692 105.679 34.4732 93.391 41.3313 79.1033Z" fill="#BDD0FB"/>
<path d="M53.4577 201.692C53.6848 201.692 53.8922 201.539 53.9465 201.307C62.9375 165.407 67.8305 132.866 68.4922 104.587C69.0205 81.9431 66.8529 61.9561 62.0488 45.1892C53.8428 16.5496 40.9659 7.3488 40.4228 6.97346C40.1957 6.81542 39.8797 6.86975 39.7217 7.10187C39.5637 7.32905 39.618 7.64512 39.8501 7.8081C39.9834 7.897 53.0232 17.2509 61.1156 45.609C68.5958 71.8187 73.2568 120.065 52.9639 201.07C52.8948 201.341 53.0627 201.618 53.3293 201.682C53.3737 201.687 53.4132 201.692 53.4577 201.692Z" fill="#7D97F4"/>
<path d="M26.9288 38.9072C27.6299 38.7195 28.3952 38.6602 29.2149 38.7541C33.7376 39.2726 35.594 44.0434 36.9222 47.7722C38.0578 50.9675 39.4008 54.8395 38.7293 58.3015C38.0035 62.0401 34.0338 65.0922 31.1503 61.2943C27.8768 56.9779 22.9591 50.3502 22.9295 44.6311C22.9098 41.7864 24.5095 39.564 26.9288 38.9072Z" fill="#BDD0FB"/>
<path d="M1.62933 165.911C-0.360455 152.814 4.39924 137.775 6.77415 123.927C8.02826 116.603 8.61088 109.338 7.43576 101.96C6.26559 94.6257 2.81926 86.6892 5.99897 79.3799C12.4028 64.6576 27.62 71.3545 36.3395 82.4419C46.4564 95.3072 49.2213 116.321 53.0627 132.511C55.3783 142.269 58.8691 152.275 60.0886 162.217C62.113 178.687 58.3902 190.126 50.51 197.845C42.9557 205.253 31.4465 206.789 22.2036 201.638C13.8594 196.985 4.83867 187.039 1.62933 165.911Z" fill="#91B3FA"/>
<path d="M36.4482 226.682C36.4185 226.682 36.3939 226.682 36.3642 226.677C36.0927 226.632 35.9051 226.371 35.9544 226.099C35.989 225.901 39.2823 205.994 39.3711 178.51C39.4501 153.159 36.7345 115.986 23.3491 82.8864C23.2455 82.6296 23.3689 82.3382 23.6256 82.2345C23.8824 82.1308 24.1737 82.2542 24.2774 82.511C37.727 115.773 40.4524 153.09 40.3734 178.534C40.2846 206.097 36.9765 226.069 36.9469 226.272C36.9024 226.509 36.6901 226.682 36.4482 226.682Z" fill="#7D97F4"/>
<path d="M251.158 239.374H207.901V136.442H261.26V229.27C261.26 234.85 256.737 239.374 251.158 239.374Z" fill="#7D97F4"/>
<g opacity="0.89">
<path opacity="0.67" d="M249.43 211.416H220.047C219.741 211.416 219.494 211.169 219.494 210.863V164.953C219.494 164.647 219.741 164.4 220.047 164.4H249.43C249.736 164.4 249.983 164.647 249.983 164.953V210.863C249.983 211.169 249.736 211.416 249.43 211.416Z" fill="white"/>
<g opacity="0.89">
<path opacity="0.89" d="M247.455 208.878H236.232C236.064 208.878 235.926 208.74 235.926 208.572V167.249C235.926 167.082 236.064 166.943 236.232 166.943H247.455C247.623 166.943 247.761 167.082 247.761 167.249V208.572C247.761 208.74 247.623 208.878 247.455 208.878Z" fill="#7D97F4"/>
<path opacity="0.89" d="M233.245 208.878H222.022C221.854 208.878 221.716 208.74 221.716 208.572V167.249C221.716 167.082 221.854 166.943 222.022 166.943H233.245C233.413 166.943 233.551 167.082 233.551 167.249V208.572C233.556 208.74 233.418 208.878 233.245 208.878Z" fill="#7D97F4"/>
</g>
</g>
<path d="M271.307 144.566H205.368L202.677 97.0901L257.191 96.053L273.91 140.496C274.783 142.398 273.396 144.566 271.307 144.566Z" fill="#3A487F"/>
<path d="M257.414 98.2359L205.012 97.6482L205.343 92.344L254.318 92.7194C256.209 92.8379 257.651 94.3738 257.542 96.1468L257.414 98.2359Z" fill="#3A487F"/>
<path d="M31.5749 239.019H73.9184V136.081H20.5595V227.996C20.5595 234.085 25.492 239.019 31.5749 239.019Z" fill="#7D97F4"/>
<g opacity="0.89">
<path opacity="0.67" d="M32.3896 211.061H61.7723C62.0784 211.061 62.3253 210.814 62.3253 210.508V164.597C62.3253 164.291 62.0784 164.044 61.7723 164.044H32.3896C32.0835 164.044 31.8366 164.291 31.8366 164.597V210.508C31.8366 210.814 32.0835 211.061 32.3896 211.061Z" fill="white"/>
<g opacity="0.89">
<path opacity="0.89" d="M34.3645 208.517H45.5873C45.7552 208.517 45.8935 208.379 45.8935 208.211V166.889C45.8935 166.721 45.7552 166.583 45.5873 166.583H34.3645C34.1967 166.583 34.0584 166.721 34.0584 166.889V208.211C34.0584 208.379 34.1967 208.517 34.3645 208.517Z" fill="#7D97F4"/>
<path opacity="0.89" d="M48.5745 208.517H59.7973C59.9652 208.517 60.1034 208.379 60.1034 208.211V166.889C60.1034 166.721 59.9652 166.583 59.7973 166.583H48.5745C48.4066 166.583 48.2684 166.721 48.2684 166.889V208.211C48.2634 208.379 48.4017 208.517 48.5745 208.517Z" fill="#7D97F4"/>
</g>
</g>
<path d="M10.5118 144.21H76.4513L79.1422 96.7345L24.6279 95.6974L7.90975 140.141C7.03582 142.037 8.4183 144.21 10.5118 144.21Z" fill="#3A487F"/>
<path d="M24.4057 97.8803L76.8068 97.2926L76.476 91.9884L27.5015 92.3638C25.6105 92.4823 24.1687 94.0182 24.2774 95.7912L24.4057 97.8803Z" fill="#3A487F"/>
<path d="M66.5469 129.853V235.191C66.5469 239.814 70.2945 243.562 74.9159 243.562H212.137C213.614 243.562 214.813 242.362 214.813 240.886V129.853H66.5469Z" fill="#91B3FA"/>
<path d="M154.735 236.164H124.478V178.88C124.478 177.907 125.263 177.122 126.236 177.122H152.977C153.949 177.122 154.735 177.907 154.735 178.88V236.164Z" fill="#7D97F4"/>
<path d="M153.594 233.937H125.618V180.036C125.618 179.063 126.403 178.278 127.376 178.278H151.836C152.809 178.278 153.594 179.063 153.594 180.036V233.937Z" fill="#3A487F"/>
<path d="M152.602 173.146H126.616C125.436 173.146 124.478 172.188 124.478 171.008V169.141C124.478 168.02 125.347 167.086 126.468 167.007L152.453 165.2C153.688 165.116 154.739 166.094 154.739 167.333V171.008C154.735 172.188 153.777 173.146 152.602 173.146Z" fill="#BDD0FB"/>
<path d="M154.532 239.819H125.036C123.698 239.819 122.612 238.732 122.612 237.394V235.275C122.612 234.001 123.584 230.475 124.853 230.386L154.364 230.806C155.766 230.707 156.956 231.818 156.956 233.226V237.394C156.956 238.732 155.87 239.819 154.532 239.819Z" fill="#BDD0FB"/>
<path d="M154.611 244.437H125.115C123.777 244.437 122.69 243.35 122.69 242.012V239.893C122.69 238.619 122.967 236.253 124.241 236.164L154.443 235.423C155.845 235.325 157.035 236.436 157.035 237.843V242.012C157.035 243.35 155.949 244.437 154.611 244.437Z" fill="#3A487F"/>
<path d="M205.699 230.741H165.631C164.772 230.741 164.081 230.045 164.081 229.191V163.19C164.081 162.33 164.777 161.639 165.631 161.639H205.699C206.558 161.639 207.249 162.335 207.249 163.19V229.191C207.249 230.05 206.553 230.741 205.699 230.741Z" fill="white"/>
<path d="M203.319 228.193H167.917C167.118 228.193 166.471 227.546 166.471 226.746V165.985C166.471 165.185 167.118 164.538 167.917 164.538H203.319C204.119 164.538 204.766 165.185 204.766 165.985V226.741C204.771 227.541 204.119 228.193 203.319 228.193Z" fill="#7D97F4"/>
<path d="M185.929 163.664H183.732V230.746H185.929V163.664Z" fill="white"/>
<path d="M115.536 230.741H75.4689C74.6098 230.741 73.9185 230.045 73.9185 229.191V163.19C73.9185 162.33 74.6147 161.639 75.4689 161.639H115.536C116.395 161.639 117.087 162.335 117.087 163.19V229.191C117.091 230.05 116.395 230.741 115.536 230.741Z" fill="white"/>
<path d="M113.161 228.193H77.7598C76.96 228.193 76.3132 227.546 76.3132 226.746V165.985C76.3132 165.185 76.96 164.538 77.7598 164.538H113.161C113.961 164.538 114.608 165.185 114.608 165.985V226.741C114.608 227.541 113.961 228.193 113.161 228.193Z" fill="#7D97F4"/>
<path d="M95.7717 163.664H93.5745V230.746H95.7717V163.664Z" fill="white"/>
<path d="M216.546 66.2478L215.287 65.2996V63.9711H213.534L140.678 8.89462L67.0159 63.9711V129.853H215.287V73.0435L216.546 66.2478Z" fill="#91B3FA"/>
<path d="M185.465 15.3001H173.201V35.2723H185.465V15.3001Z" fill="#3A487F"/>
<path d="M189.509 18.535H169.685V15.4137C169.685 13.7494 171.033 12.4011 172.697 12.4011H186.023C187.949 12.4011 189.509 13.9617 189.509 15.8878V18.535Z" fill="#3A487F"/>
<path d="M62.0587 74.4609L140.742 14.105L215.426 72.0508C218.141 74.1547 222.121 72.683 222.812 69.3148L223.859 64.1884L140.742 0.859337L60.2862 62.3265C58.8445 63.4278 58.3211 65.3589 59.0123 67.0331L62.0587 74.4609Z" fill="#3A487F"/>
<g opacity="0.89">
<path opacity="0.89" d="M125.406 120.09H154.789C155.095 120.09 155.342 119.843 155.342 119.537V73.6263C155.342 73.3201 155.095 73.0732 154.789 73.0732H125.406C125.1 73.0732 124.853 73.3201 124.853 73.6263V119.537C124.853 119.843 125.1 120.09 125.406 120.09Z" fill="white"/>
<g opacity="0.89">
<path opacity="0.89" d="M127.139 117.546H138.856C138.89 117.546 138.92 117.517 138.92 117.482V75.6709C138.92 75.6363 138.89 75.6067 138.856 75.6067H127.139C127.105 75.6067 127.075 75.6363 127.075 75.6709V117.482C127.075 117.522 127.105 117.546 127.139 117.546Z" fill="#7D97F4"/>
<path opacity="0.89" d="M141.344 117.546H153.061C153.095 117.546 153.125 117.517 153.125 117.482V75.6709C153.125 75.6363 153.095 75.6067 153.061 75.6067H141.344C141.31 75.6067 141.28 75.6363 141.28 75.6709V117.482C141.285 117.522 141.31 117.546 141.344 117.546Z" fill="#7D97F4"/>
</g>
</g>
<g opacity="0.89">
<path opacity="0.89" d="M82.6183 120.421H112.001C112.307 120.421 112.554 120.174 112.554 119.867V73.9572C112.554 73.651 112.307 73.404 112.001 73.404H82.6183C82.3122 73.404 82.0653 73.651 82.0653 73.9572V119.867C82.0604 120.174 82.3122 120.421 82.6183 120.421Z" fill="white"/>
<g opacity="0.89">
<path opacity="0.89" d="M84.3464 117.882H96.0629C96.0975 117.882 96.1271 117.852 96.1271 117.818V76.0067C96.1271 75.9722 96.0975 75.9425 96.0629 75.9425H84.3464C84.3119 75.9425 84.2822 75.9722 84.2822 76.0067V117.818C84.2872 117.852 84.3119 117.882 84.3464 117.882Z" fill="#7D97F4"/>
<path opacity="0.89" d="M98.5563 117.882H110.273C110.307 117.882 110.337 117.852 110.337 117.818V76.0067C110.337 75.9722 110.307 75.9425 110.273 75.9425H98.5563C98.5218 75.9425 98.4921 75.9722 98.4921 76.0067V117.818C98.4921 117.852 98.5218 117.882 98.5563 117.882Z" fill="#7D97F4"/>
</g>
</g>
<g opacity="0.89">
<path opacity="0.89" d="M166.347 120.845H195.73C196.036 120.845 196.283 120.598 196.283 120.292V74.3819C196.283 74.0757 196.036 73.8288 195.73 73.8288H166.347C166.041 73.8288 165.795 74.0757 165.795 74.3819V120.292C165.79 120.598 166.041 120.845 166.347 120.845Z" fill="white"/>
<g opacity="0.89">
<path opacity="0.89" d="M168.076 118.307H179.792C179.827 118.307 179.856 118.277 179.856 118.243V76.4315C179.856 76.3969 179.827 76.3673 179.792 76.3673H168.076C168.041 76.3673 168.011 76.3969 168.011 76.4315V118.243C168.016 118.277 168.041 118.307 168.076 118.307Z" fill="#7D97F4"/>
<path opacity="0.89" d="M182.281 118.307H193.997C194.032 118.307 194.061 118.277 194.061 118.243V76.4315C194.061 76.3969 194.032 76.3673 193.997 76.3673H182.281C182.246 76.3673 182.216 76.3969 182.216 76.4315V118.243C182.221 118.277 182.246 118.307 182.281 118.307Z" fill="#7D97F4"/>
</g>
</g>
<path d="M216.615 136.995H64.7398C63.4067 136.995 62.3254 135.913 62.3254 134.58V130.915C62.3254 129.582 63.4067 128.5 64.7398 128.5H216.615C217.949 128.5 219.03 129.582 219.03 130.915V134.58C219.03 135.913 217.949 136.995 216.615 136.995Z" fill="#3A487F"/>
<path d="M216.694 275.847C216.694 275.763 216.699 275.674 216.719 275.59C218.003 270.508 224.362 267.342 224.362 267.342L226.885 267.54C228.337 272.019 228.149 274.77 227.917 275.995C227.912 276.029 227.902 276.064 227.892 276.094C225.814 276.276 221.533 276.395 216.694 275.847Z" fill="#172142"/>
<path d="M227.893 276.089C227.779 276.499 227.478 276.815 227.093 276.899C224.135 277.521 219.43 277.022 217.46 276.76C217.025 276.701 216.704 276.301 216.699 275.847C221.533 276.395 225.814 276.276 227.893 276.089Z" fill="#7D97F4"/>
<path d="M227.902 263.781L226.836 268.923C226.757 269.298 226.471 269.579 226.12 269.614C225.69 269.654 225.078 269.678 224.466 269.589C223.913 269.51 223.533 268.947 223.632 268.35L224.372 263.786H227.902V263.781Z" fill="url(#paint1_linear)"/>
<path d="M205.778 276.025C208.562 275.946 210.004 275.62 210.745 275.313C210.745 275.59 210.745 275.871 210.735 276.163C210.725 276.474 210.493 276.726 210.212 276.721L194.92 276.622C194.432 276.617 194.145 276.054 194.357 275.605C196.367 275.773 201.472 276.143 205.778 276.025Z" fill="#7D97F4"/>
<path d="M194.362 275.61C194.382 275.57 194.397 275.531 194.422 275.496C195.769 273.61 199.211 269.851 206.005 268.221L209.263 268.118C209.263 268.118 210.715 270.641 210.745 275.318C209.999 275.624 208.557 275.95 205.778 276.029C201.472 276.143 196.367 275.773 194.362 275.61Z" fill="#172142"/>
<path d="M210.014 263.322C209.965 263.564 209.283 267.219 209.022 268.641C208.957 268.977 208.696 269.224 208.385 269.244C207.827 269.273 206.928 269.278 206.153 269.071C205.733 268.957 205.457 268.533 205.486 268.058L205.852 262.27L210.014 263.322Z" fill="url(#paint2_linear)"/>
<path d="M212.488 195.77C212.488 195.77 208.005 226.593 204.766 263.273C204.706 263.954 205.249 264.552 205.921 264.69C206.908 264.898 208.365 265.145 209.565 265.11C210.207 265.09 210.745 264.616 210.853 263.984C211.954 257.519 219.825 222.81 221.889 215.17C221.889 215.17 224.259 247.617 223.503 264.453C223.483 264.873 223.79 265.233 224.209 265.283C224.841 265.357 225.848 265.411 227.137 265.273C227.626 265.224 228.021 264.853 228.09 264.364C228.875 258.892 233.393 226.311 233.205 202.843C233.195 201.519 231.655 190.644 231.655 190.644L212.488 195.77Z" fill="#FC6625"/>
<path d="M210.75 143.939L210.147 160.069C208.444 160.656 206.82 161.111 205.274 161.451C204.306 158.335 202.178 154.517 200.435 151.673C206.839 149.406 210.75 143.939 210.75 143.939Z" fill="#E5E5E5"/>
<path d="M232.316 197.548C232.776 197.385 233.097 196.966 233.151 196.482C233.748 190.693 236.637 154.814 218.408 140.052C218.408 140.052 217.361 137.316 208.77 144.042C200.179 150.769 204.775 157.816 206.834 167.541C209.323 179.305 213.692 188.92 211.757 196.161C211.624 196.659 211.885 197.183 212.369 197.366C219.045 199.82 225.695 199.899 232.316 197.548Z" fill="white"/>
<path d="M211.293 129.295C211.298 129.804 218.576 140.146 218.576 140.146C218.576 140.146 217.267 142.719 211.031 144.808L205.649 133.735L211.293 129.295Z" fill="url(#paint3_linear)"/>
<path d="M214.897 164.681C214.942 164.681 214.991 164.666 215.031 164.642C220.847 160.711 223.582 154.369 223.607 154.305C223.656 154.187 223.602 154.048 223.483 153.994C223.365 153.945 223.227 153.999 223.172 154.117C223.148 154.182 220.462 160.399 214.764 164.247C214.655 164.321 214.626 164.469 214.7 164.573C214.749 164.647 214.823 164.681 214.897 164.681Z" fill="#E5E5E5"/>
<path d="M206.237 155.89C206.316 155.89 206.39 155.851 206.434 155.782C206.454 155.752 208.227 152.986 211.614 146.927C212.656 145.065 214.023 143.884 215.677 143.42C218.423 142.655 221.064 144.126 221.089 144.141C221.202 144.205 221.346 144.166 221.41 144.052C221.474 143.939 221.434 143.795 221.321 143.731C221.207 143.667 218.487 142.146 215.549 142.966C213.767 143.465 212.3 144.719 211.194 146.699C207.817 152.744 206.049 155.5 206.03 155.53C205.96 155.639 205.99 155.787 206.099 155.856C206.148 155.88 206.193 155.89 206.237 155.89Z" fill="#E5E5E5"/>
<path d="M205.561 123.369C205.561 123.369 202.968 129.32 202.796 132.441C202.623 135.563 201.946 137.592 205.561 138.22C209.17 138.847 212.211 137.049 213.86 133.938C213.86 133.938 216.443 129.142 215.865 127.182C215.287 125.221 205.561 123.369 205.561 123.369Z" fill="url(#paint4_linear)"/>
<path d="M212.626 131.706L212.419 131.617C212.157 131.503 212.043 131.192 212.177 130.935C212.685 129.952 213.678 127.695 212.394 127.172C210.74 126.495 204.198 125.157 202.781 122.836C201.423 120.603 202.628 117.719 204.435 116.899C204.553 116.845 204.696 116.889 204.761 117.003L204.914 117.289C205.017 117.487 205.304 117.457 205.368 117.245C205.427 117.042 205.699 117.003 205.807 117.181C206.242 117.877 207.412 119.003 210.547 119.581C215.001 120.406 217.949 122.208 218.023 125.285C218.028 125.483 218.235 125.591 218.403 125.488C218.734 125.285 219.257 125.191 219.963 125.784C221.188 126.811 220.684 129.483 218.003 131.676C217.875 131.78 217.875 131.977 218.013 132.071C218.497 132.387 219.222 133.143 217.346 134.145C215.406 135.182 213.954 135.098 213.396 135.005C213.258 134.98 213.169 134.847 213.199 134.708L213.796 132.002C213.831 131.849 213.712 131.706 213.554 131.706H212.626Z" fill="black"/>
<path d="M212.517 132.278C212.517 132.278 213.505 128.476 215.208 129.542C216.912 130.609 214.325 133.8 212.952 133.943L212.517 132.278Z" fill="url(#paint5_linear)"/>
<path d="M178.977 142.724C178.977 142.724 180.276 140.422 180.192 139.301C180.108 138.185 180.804 136.541 180.064 136.664C179.323 136.787 179.17 136.689 178.967 138.027C178.77 139.37 176.43 145.233 178.977 142.724Z" fill="url(#paint6_linear)"/>
<path d="M178.735 139.064L178.765 143.662C187.554 153.154 194.664 153.712 200.435 151.673C202.178 154.512 204.306 158.335 205.274 161.451C181.806 166.627 176.281 145.045 176.281 145.045C173.102 143.726 172.46 142.956 172.598 142.097L178.735 139.064Z" fill="url(#paint7_linear)"/>
<path d="M171.976 134.501C172.727 134.195 174.193 131.399 174.474 132.318C174.756 133.237 174.356 134.501 174.474 134.891C174.593 135.281 176.425 139.785 176.059 140.788C175.798 141.509 174.341 141.405 174.119 142.585C174.045 142.976 173.734 143.257 173.368 143.257C173.003 143.257 172.692 142.976 172.618 142.585C172.588 142.427 171.225 134.802 171.976 134.501Z" fill="url(#paint8_linear)"/>
<path d="M146.39 130.93C146.563 141.608 153.737 150.527 163.474 153.377L163.513 155.698L163.602 161.111L165.992 161.071L166.056 164.923L163.666 164.963L163.696 166.889L166.086 166.849L166.12 169.072L163.731 169.111L163.78 172.223L164.911 172.203L164.975 176.203L163.844 176.223L163.874 178.001L166.076 177.966L166.155 182.737L163.953 182.772L164.012 186.446L166.402 186.407L166.466 190.333L164.076 190.372L164.15 194.946C164.16 195.484 164.363 196.003 164.728 196.403L170.613 202.858C171.171 203.47 172.001 203.702 172.766 203.519C172.766 203.519 172.766 203.519 172.771 203.519C172.845 203.5 172.914 203.48 172.983 203.455C173.003 203.45 173.023 203.44 173.038 203.435C173.092 203.416 173.146 203.391 173.201 203.366C173.22 203.356 173.24 203.346 173.26 203.337C173.329 203.302 173.398 203.263 173.467 203.218L177.343 200.67C177.975 200.255 178.355 199.544 178.34 198.783L177.61 153.144C187.248 149.979 194.135 140.837 193.963 130.16C193.75 117.023 182.937 106.548 169.804 106.76C156.655 106.972 146.183 117.793 146.39 130.93ZM169.922 115.062C172.583 115.018 174.771 117.141 174.815 119.798C174.86 122.46 172.736 124.648 170.08 124.693C167.419 124.737 165.232 122.613 165.187 119.956C165.143 117.294 167.261 115.107 169.922 115.062Z" fill="url(#paint9_linear)"/>
<path d="M161.83 139.603L162.175 161.239L164.565 161.2L164.629 165.052L162.239 165.091L162.269 167.017L164.659 166.978L164.693 169.2L162.304 169.24L162.353 172.351L163.484 172.331L163.548 176.332L162.417 176.351L162.447 178.129L164.649 178.095L164.728 182.866L162.526 182.9L162.585 186.575L164.975 186.535L165.039 190.461L162.649 190.501L162.723 195.074C162.733 195.612 162.936 196.131 163.301 196.531L169.186 202.986C169.922 203.791 171.127 203.944 172.04 203.346L175.916 200.798C176.548 200.383 176.928 199.672 176.913 198.911L176.03 143.82L161.83 139.603Z" fill="#FBB03B"/>
<path d="M168.367 106.889C155.233 107.101 144.761 117.917 144.973 131.054C145.185 144.191 155.998 154.666 169.132 154.453C182.266 154.241 192.738 143.425 192.526 130.288C192.313 117.156 181.495 106.676 168.367 106.889ZM168.653 124.816C165.992 124.861 163.805 122.737 163.76 120.08C163.716 117.418 165.839 115.23 168.495 115.186C171.156 115.141 173.344 117.265 173.388 119.922C173.433 122.584 171.314 124.777 168.653 124.816Z" fill="url(#paint10_linear)"/>
<path d="M192.526 130.288C192.313 117.151 181.5 106.676 168.367 106.889C155.233 107.101 144.761 117.917 144.973 131.054C145.146 141.731 152.32 150.651 162.057 153.5L162.096 155.821C165.093 155.713 166.594 156.533 167.404 157.446C169.68 160.019 168.125 198.492 170.124 203.589C170.752 203.796 171.458 203.727 172.04 203.342L175.916 200.793C176.548 200.379 176.928 199.667 176.913 198.907L176.183 153.268C185.806 150.112 192.694 140.966 192.526 130.288ZM168.5 115.186C171.161 115.141 173.349 117.265 173.393 119.922C173.438 122.584 171.314 124.772 168.658 124.816C165.997 124.861 163.809 122.737 163.765 120.08C163.721 117.418 165.839 115.23 168.5 115.186Z" fill="#FFDE3E"/>
<path d="M168.441 111.556C157.885 111.723 149.466 120.421 149.639 130.98C149.807 141.538 158.502 149.959 169.058 149.786C179.614 149.618 188.033 140.921 187.86 130.362C187.687 119.808 178.997 111.388 168.441 111.556ZM168.653 124.816C165.992 124.86 163.805 122.737 163.76 120.08C163.716 117.418 165.839 115.23 168.495 115.186C171.156 115.141 173.344 117.265 173.388 119.922C173.433 122.584 171.314 124.776 168.653 124.816Z" fill="#FBB03B"/>
<path d="M214.897 164.681C214.897 164.681 192.501 172.178 179.98 162.642C179.204 162.049 178.222 161.792 177.259 161.95L172.475 162.73C170.465 163.056 168.554 161.758 168.12 159.767C167.873 158.631 167.755 157.392 168.006 156.325L177.042 155.782L176.785 154.611C176.785 154.611 180.779 155.589 180.858 158.715C180.858 158.715 190.225 164.854 207.308 155.327C207.303 155.322 213.954 160.528 214.897 164.681Z" fill="url(#paint11_linear)"/>
<path d="M234.909 151.954C235.827 150.023 237.437 148.754 238.404 146.857C239.624 144.472 239.663 141.311 238.869 138.649C238.207 136.442 237.022 134.54 236.35 132.338C235.442 129.379 235.422 128.105 235.837 125.132C236.202 122.515 237.002 119.724 238.977 118.223C241.421 116.366 244.408 116.015 247.208 116.687C250.111 117.383 252.925 118.954 255.048 121.566C257.172 124.179 258.559 127.843 258.52 131.602C258.495 134.145 257.853 136.763 258.495 139.173C258.993 141.045 260.287 142.541 261.803 142.99C263.487 143.489 265.234 142.758 266.963 142.788C268.676 142.818 270.374 143.623 271.678 145.03C272.833 146.275 273.692 148.028 273.89 149.939C274.087 151.85 273.559 153.91 272.404 155.159C271.614 156.014 270.498 156.592 270.206 157.856C269.881 159.273 270.838 160.696 271.905 161.269C272.971 161.842 274.176 161.891 275.262 162.409C277.697 163.56 279.173 167.052 278.98 170.346C278.788 173.64 277.153 176.623 275.001 178.475C272.853 180.332 270.246 181.162 267.654 181.428C265.067 181.695 262.465 181.433 259.872 181.28C256.905 181.102 253.878 181.053 251.064 179.843C248.22 178.618 245.761 176.277 243.47 173.808C242.384 172.638 241.283 171.358 240.799 169.659C240.444 168.425 240.444 167.057 240.039 165.847C239.165 163.254 236.745 162.153 235.348 159.97C233.931 157.762 233.748 154.399 234.909 151.954Z" fill="black"/>
<path d="M238.306 148.112C240.399 147.445 246.512 146.181 252.432 151.47C253.434 152.369 253.863 153.747 253.528 155.051C252.056 160.844 248.195 177.952 251.938 185.266C251.938 185.266 245.667 192.407 238.607 186.846C238.607 186.846 235.264 173.27 231.072 167.353C228.179 163.269 235.328 151.771 237.14 148.996C237.422 148.581 237.832 148.265 238.306 148.112Z" fill="#3A487F"/>
<path d="M243.939 136.56C243.939 136.56 247.193 145.322 247.494 149.203C247.494 149.203 244.078 150.823 240.794 148.235C240.794 148.235 240.31 139.44 239.797 137.874L243.939 136.56Z" fill="url(#paint12_linear)"/>
<path d="M239.417 124.618C239.417 124.618 231.457 136.15 236.375 139.385C241.298 142.62 246.966 134.422 246.966 134.422C246.966 134.422 248.753 128.15 246.744 126.066C244.739 123.981 239.417 124.618 239.417 124.618Z" fill="url(#paint13_linear)"/>
<path d="M243.144 121.833C243.144 121.833 239.417 122.781 238.918 124.48C238.419 126.184 244.275 127.661 245.909 127.71L247.336 134.521C247.336 134.521 251.123 128.031 249.524 124.342C247.924 120.658 243.144 121.833 243.144 121.833Z" fill="black"/>
<path d="M245.376 133.607C245.376 133.607 248.487 129.883 249.785 132.259C251.084 134.634 247 136.496 245.554 135.345L245.376 133.607Z" fill="url(#paint14_linear)"/>
<path d="M230.939 215.59C230.973 216.207 229.966 221.131 229.418 223.758C229.196 224.815 229.379 225.916 229.932 226.845L250.95 260.966C251.207 261.381 251.39 261.826 251.508 262.3C251.908 263.91 252.753 267.861 252.402 271.471L251.38 273.689L255.942 272.577L256.742 260.265L255.434 259.495C254.303 258.828 253.414 257.82 252.896 256.615C250.975 252.151 246.196 240.777 244.917 235.221C243.47 228.904 236.35 223.867 236.35 223.867L237.54 220.923L230.939 215.59Z" fill="url(#paint15_linear)"/>
<path d="M260.964 268.256C260.964 268.256 258.426 264.374 258.115 262.853C257.799 261.332 256.945 258.65 255.434 259.485C255.434 259.485 254.836 266.913 255.128 269.802C255.424 272.696 251.898 272.656 251.898 272.656C251.898 272.656 250.931 272.809 250.23 273.53C249.746 274.029 250.111 274.874 250.802 274.908C251.958 274.963 253.785 274.953 255.705 274.553C256.377 274.414 256.865 273.832 256.895 273.15L257.265 264.611L260.45 268.498L260.964 268.256Z" fill="#172142"/>
<path d="M243.253 220.879C243.253 220.879 244.473 251.682 244.64 256.057C244.808 260.433 244.176 270.142 239.836 273.116L241.767 274.498C241.767 274.498 244.117 272.434 246.388 268.493C248.936 264.068 249.716 263.253 249.716 263.253L248.817 261.49C248.422 260.714 248.299 259.835 248.462 258.986C249.336 254.383 252.249 239.068 253.059 235.764C254.017 231.867 254.002 226.687 250.392 222.405C246.778 218.123 243.253 220.879 243.253 220.879Z" fill="url(#paint16_linear)"/>
<path d="M248.19 275.787C248.329 275.787 248.442 275.689 248.457 275.55C248.585 274.518 249.128 270.394 249.607 269.318C250.155 268.088 251.933 262.917 249.499 262.517C249.499 262.517 243.598 271.446 242.458 272.656C241.317 273.866 239.841 273.116 239.841 273.116C239.841 273.116 238.715 273.466 237.881 274.573C237.486 275.096 237.876 275.852 238.533 275.847L242.606 275.822C243.791 275.812 244.843 275.076 245.262 273.975C245.949 272.172 247.139 269.525 248.556 268.34L247.924 275.491C247.904 275.649 248.032 275.787 248.19 275.787Z" fill="#172142"/>
<path d="M237.595 183.542C237.595 183.542 238.557 186.451 237.229 191.291L228.979 221.97C228.85 222.454 229.117 222.948 229.586 223.111C232.218 224.01 240.858 226.524 252.58 225.526C253.172 225.477 253.661 225.047 253.78 224.469C254.496 220.978 256.944 209.056 257.448 206.606C259.369 197.272 261.517 187.207 251.252 181.305C246.596 183.389 242.246 184.644 237.595 183.542Z" fill="white"/>
<path d="M253.286 152.611C253.286 152.611 263.368 160.72 266.019 171.981C268.671 183.241 251.686 184.718 251.686 184.718C251.686 184.718 249.336 182.174 246.61 183.142C243.885 184.105 246.324 178.643 249.533 178.608C252.738 178.569 251.296 181.132 255.799 179.004C260.183 176.929 262.815 170.692 251.39 161.491C250.728 160.957 250.195 160.271 249.869 159.486C247.588 153.999 249.267 150.354 253.286 152.611Z" fill="url(#paint17_linear)"/>
<path d="M177.634 203.337C177.634 203.337 183.347 218.74 192.042 216.849C192.042 216.849 192.936 222.089 191.474 222.706C191.474 222.706 178.434 223.086 177.141 205.174L177.634 203.337Z" fill="url(#paint18_linear)"/>
<path d="M177.876 206.947C177.852 207.213 178.844 207.396 179.16 206.26C179.071 205.766 178.918 203.603 178.538 203.267C176.519 201.475 172.924 199.465 172.924 199.465C172.524 200.077 173.048 200.482 173.048 200.482L174.845 201.692C174.657 202.314 174.386 202.862 174.351 203.569C174.326 204.107 174.524 204.63 174.884 205.035C175.24 205.445 175.724 205.969 176.158 206.374C176.978 207.134 177.876 206.947 177.876 206.947Z" fill="url(#paint19_linear)"/>
<path d="M176.884 206.073C176.642 205.48 175.946 203.88 175.635 203.554C175.413 203.317 175.309 203.104 175.319 202.897C175.329 202.719 175.423 202.566 175.595 202.423L175.679 202.354L177.398 203.272L178.084 204.349L177.802 204.527L177.165 203.524L175.729 202.754C175.679 202.808 175.655 202.862 175.65 202.917C175.645 203.025 175.719 203.164 175.872 203.322C176.282 203.751 177.101 205.722 177.19 205.949L176.884 206.073Z" fill="url(#paint20_linear)"/>
<path fill-rule="evenodd" clip-rule="evenodd" d="M191.958 196.901C191.958 196.901 194.718 194.407 191.168 191.706C187.835 189.167 185.396 192.575 186.502 194.768C186.581 194.921 186.492 195.114 186.319 195.148C186.028 195.212 185.776 195.504 186.235 196.526C186.275 196.615 186.26 196.719 186.206 196.793C185.796 197.341 184.433 199.539 188.546 199.875C188.62 199.879 188.694 199.855 188.749 199.805L191.958 196.901Z" fill="black"/>
<path fill-rule="evenodd" clip-rule="evenodd" d="M206.454 200.561C206.454 200.561 206.721 197.38 208.419 196.343C210.123 195.306 213.426 194.422 214.813 197.884C215.475 199.534 215.253 200.319 214.848 200.689C214.473 201.025 214.433 201.549 214.68 201.993C214.961 202.492 214.996 203.114 214.152 203.677C213.9 203.845 213.737 204.087 213.683 204.364C213.46 205.519 212.28 208.285 205.975 205.258L206.454 200.561Z" fill="black"/>
<path fill-rule="evenodd" clip-rule="evenodd" d="M199.162 194.837C200.401 194.304 203.033 193.76 205.077 197.341C205.22 197.593 205.427 197.795 205.679 197.934C206.899 198.605 210.424 201.05 207.215 205.455C207.066 205.658 206.973 205.89 206.933 206.137C206.825 206.883 206.469 208.537 205.403 208.947C205.082 209.07 204.815 209.293 204.637 209.584C203.921 210.764 201.872 213.254 198.431 210.656C198.253 210.522 198.056 210.429 197.838 210.384L193.084 209.337C192.832 209.283 192.57 209.293 192.318 209.367C191.736 209.535 190.561 209.683 190.126 208.32C190.037 208.043 189.874 207.791 189.647 207.604C188.852 206.927 187.159 205.085 188.438 202.512C188.581 202.225 188.635 201.899 188.586 201.578C188.438 200.615 188.359 198.467 190.358 197.543C190.659 197.405 190.911 197.178 191.064 196.882C191.731 195.598 193.908 192.299 197.745 194.719C198.169 194.985 198.698 195.04 199.162 194.837Z" fill="black"/>
<path fill-rule="evenodd" clip-rule="evenodd" d="M192.703 270.434L193.395 271.234L192.921 272.972C192.797 273.427 192.422 273.772 191.958 273.856C190.412 274.138 186.907 274.652 185.105 273.876C185.105 273.876 184.542 270.118 190.758 271.239L192.703 270.434Z" fill="#172142"/>
<path fill-rule="evenodd" clip-rule="evenodd" d="M203.536 272.429L203.907 273.333L203.758 276.592C203.739 277.052 203.368 277.437 202.87 277.511C202.188 277.615 201.201 277.723 200.273 277.649C199.547 277.595 199.088 276.909 199.374 276.301L200.47 273.95C200.633 273.6 200.934 273.328 201.3 273.205L203.536 272.429Z" fill="#172142"/>
<path fill-rule="evenodd" clip-rule="evenodd" d="M200.381 208.922L201.087 215.93C201.087 215.93 197.281 217.224 194.767 215.762L195.444 208.725L200.381 208.922Z" fill="url(#paint21_linear)"/>
<path fill-rule="evenodd" clip-rule="evenodd" d="M206.494 247.296C206.494 247.296 204.687 267.461 203.492 273.629C203.492 273.629 202.598 274.281 201.26 273.441L199.636 246.535L206.494 247.296Z" fill="url(#paint22_linear)"/>
<path fill-rule="evenodd" clip-rule="evenodd" d="M198.461 248.506L193.508 271.086C193.508 271.086 192.16 272.483 190.408 271.086L191.262 247.35L198.461 248.506Z" fill="url(#paint23_linear)"/>
<path fill-rule="evenodd" clip-rule="evenodd" d="M204.726 216.459L205.965 216.597C208.365 219.17 212.764 236.856 214.354 240.614L220.812 239.557C221.064 239.503 221.272 239.755 221.173 239.997C220.886 240.698 219.81 242.718 215.618 242.718C213.658 242.718 216.719 244.239 215.544 244.762C215.544 244.762 212.972 243.834 212.967 242.204C212.967 242.204 205.585 225.388 204.07 223.62C202.554 221.852 204.726 216.459 204.726 216.459Z" fill="url(#paint24_linear)"/>
<path fill-rule="evenodd" clip-rule="evenodd" d="M205.965 216.597C205.965 216.597 199.399 214.162 191.207 216.681C191.207 216.681 190.289 222.889 190.763 225.842L204.884 226.356L205.965 216.597Z" fill="#3A487F"/>
<path fill-rule="evenodd" clip-rule="evenodd" d="M190.951 227.783C190.951 227.783 186.438 242.273 185.766 251.933C185.732 252.432 186.107 252.857 186.601 252.897C187.539 252.966 189.198 253.193 191.444 253.944C195.093 255.158 198.115 254.758 200.84 253.973C202.983 253.356 208.335 252.822 210.542 252.615C211.066 252.566 211.436 252.082 211.347 251.563C210.705 247.992 208.271 235.31 204.578 226.692L190.951 227.783Z" fill="#3A487F"/>
<path fill-rule="evenodd" clip-rule="evenodd" d="M190.714 225.506L190.951 227.783C190.951 227.783 195.296 227.798 204.889 227.477L204.938 225.832C204.938 225.832 194.308 226.04 190.714 225.506Z" fill="#91B3FA"/>
<path fill-rule="evenodd" clip-rule="evenodd" d="M190.743 202.127C189.652 206.339 189.973 211.184 194.93 212.271C198.362 213.021 201.966 209.525 203.052 205.312C204.144 201.099 202.277 197.889 198.875 197.01C195.478 196.131 191.834 197.914 190.743 202.127Z" fill="url(#paint25_linear)"/>
<path fill-rule="evenodd" clip-rule="evenodd" d="M191.114 203.425C191.114 203.425 190.951 200.877 189.682 201.662C188.413 202.448 190.171 205.505 190.961 205.682C191.746 205.86 191.114 203.425 191.114 203.425Z" fill="url(#paint26_linear)"/>
<path fill-rule="evenodd" clip-rule="evenodd" d="M201.986 206.364C201.986 206.364 202.366 204.418 203.744 205.317C205.121 206.216 202.494 209.391 200.875 208.685L201.986 206.364Z" fill="url(#paint27_linear)"/>
<path fill-rule="evenodd" clip-rule="evenodd" d="M204.025 204.818C204.025 204.818 200.085 209.085 198.036 200.23C198.036 200.23 195.992 202.877 195.059 200.536C195.059 200.536 190.99 201.929 190.541 200.22C190.092 198.507 196.041 193.869 200.826 197.198C205.61 200.531 204.025 204.818 204.025 204.818Z" fill="black"/>
<path d="M25.4178 275.57C25.4178 275.491 25.4228 275.407 25.4425 275.328C26.6522 270.543 31.5847 268.088 31.5847 268.088L33.9596 268.276C35.3223 272.493 36.2062 274.558 35.984 275.708C35.979 275.743 35.9692 275.773 35.9593 275.802C34.0041 275.975 29.9751 276.089 25.4178 275.57Z" fill="#172142"/>
<path d="M35.9642 275.797C35.8605 276.183 35.5742 276.484 35.2088 276.558C32.4241 277.146 27.9952 276.671 26.1338 276.429C25.724 276.375 25.4228 275.995 25.4178 275.57C29.9751 276.089 34.004 275.975 35.9642 275.797Z" fill="#B2B2B2"/>
<path d="M29.6296 264.389L30.6714 269.397C30.7454 269.762 31.0269 270.039 31.3725 270.068C31.7922 270.108 32.3847 270.133 32.9821 270.044C33.5203 269.965 33.8906 269.422 33.7968 268.834L33.0759 264.389H29.6296Z" fill="url(#paint28_linear)"/>
<path d="M56.1387 275.758C53.6008 275.689 52.2924 275.387 51.611 275.111C51.611 275.363 51.611 275.62 51.6209 275.886C51.6308 276.173 51.8381 276.395 52.0998 276.395L66.0234 276.306C66.4678 276.301 66.7295 275.787 66.5369 275.382C64.7051 275.531 60.059 275.866 56.1387 275.758Z" fill="#B2B2B2"/>
<path d="M66.532 275.378C66.5172 275.343 66.5023 275.303 66.4777 275.274C65.2482 273.555 62.1179 270.133 55.9263 268.651L52.9589 268.557C52.9589 268.557 51.6357 270.854 51.611 275.111C52.2875 275.387 53.6008 275.689 56.1387 275.758C60.059 275.866 64.7051 275.531 66.532 275.378Z" fill="#172142"/>
<path d="M52.4059 264.053C52.4405 264.275 52.8454 267.639 53.0034 268.942C53.0429 269.254 53.2651 269.491 53.5465 269.525C54.0501 269.584 54.8697 269.639 55.5856 269.496C55.9708 269.417 56.2522 269.046 56.2522 268.616V263.337L52.4059 264.053Z" fill="url(#paint29_linear)"/>
<path d="M31.6144 198.655C31.6144 198.655 26.8645 240.895 29.5011 267.293C29.5011 267.293 32.666 267.293 34.251 266.764C34.251 266.764 39.1884 225.467 40.7832 213.649C40.8424 213.204 41.4794 213.184 41.5682 213.624C43.5383 223.566 51.2802 262.557 52.1986 266.236C52.1986 266.236 54.8401 267.293 56.9484 266.236C56.9484 266.236 52.7269 209.742 49.557 199.712L31.6144 198.655Z" fill="white"/>
<path d="M22.1148 149.554C22.1148 149.554 42.1707 146.388 58.01 150.611L56.9534 166.978C56.9534 166.978 52.7318 189.681 49.562 199.712C49.562 199.712 37.4208 201.825 31.6144 198.655C31.6144 198.655 26.8646 170.143 24.2231 165.921C24.228 165.921 21.5865 154.834 22.1148 149.554Z" fill="#FC6625"/>
<path d="M36.0482 135.128L34.0485 148.645C34.0485 148.645 39.6328 151.208 43.5383 148.537L42.6989 139L36.0482 135.128Z" fill="url(#paint30_linear)"/>
<path d="M44.6541 126.327C44.7183 126.441 45.923 133.256 46.6636 137.474C46.9698 139.217 45.691 140.837 43.9234 140.941L42.3039 141.035C39.3315 141.213 36.7147 139.094 36.2654 136.15L35.0952 128.51C35.0903 128.51 43.1235 123.552 44.6541 126.327Z" fill="url(#paint31_linear)"/>
<path d="M33.3474 128.53C32.7253 127.759 32.1871 126.51 33.5054 125.201C34.8435 123.873 36.3592 124.204 37.322 124.648C37.7467 124.846 38.275 124.757 38.5762 124.401C38.7095 124.243 38.9119 124.134 39.2082 124.169C39.7661 124.233 40.2648 123.863 40.3339 123.305C40.4474 122.347 40.956 121.216 42.6545 120.89C45.7601 120.287 47.3105 123.399 47.2562 125.586C47.2019 127.774 43.795 128.234 41.8645 127.868C40.4474 127.601 39.218 128.851 38.665 129.532C38.4626 129.779 38.3885 130.105 38.4626 130.412L38.9514 132.525C38.6107 133.182 38.275 133.854 37.801 134.412C37.4554 134.817 37.0801 135.039 36.6802 135.133C36.1025 134.056 34.4781 133.874 33.7276 133.849C33.4412 133.839 33.1697 133.711 32.982 133.493C32.4142 132.841 31.5255 131.389 33.2289 129.962C33.6486 129.602 33.693 128.96 33.3474 128.53Z" fill="black"/>
<path d="M37.2381 137.39C37.2381 137.39 37.169 133.577 35.6285 133.217C34.0831 132.856 32.4192 133.972 33.7424 136.259C35.3816 139.099 37.2381 137.39 37.2381 137.39Z" fill="url(#paint32_linear)"/>
<path d="M22.1148 149.554C22.1148 149.554 -9.03062 183.345 27.6595 196.279V193.637C27.6595 193.637 13.9334 182.021 24.4946 166.183C24.4897 166.188 23.1714 151.139 22.1148 149.554Z" fill="#FC6625"/>
<path d="M27.9211 193.904C27.9211 193.904 32.6709 190.738 34.7842 191.79C36.8974 192.847 36.8974 194.432 36.8974 194.432C36.8974 194.432 35.8408 196.546 34.2559 196.017C32.6709 195.489 28.9777 196.546 27.3928 196.017C27.3928 196.017 26.8645 193.904 27.9211 193.904Z" fill="url(#paint33_linear)"/>
<path d="M82.2923 161.491C72.2397 163.002 66.5913 156.132 61.7032 152.285C55.2549 147.203 49.3349 150.196 49.3349 150.196L55.6795 165.007C65.9494 174.692 77.0093 170.855 83.6452 167.714C83.7489 165.18 83.0724 163.056 82.2923 161.491Z" fill="#FC6625"/>
<path d="M96.4232 155.49L93.0905 157.283C89.0911 159.718 85.5115 161.007 82.2923 161.491C83.0675 163.056 83.7488 165.18 83.6452 167.714C87.8716 165.718 90.5181 163.318 90.5181 163.318C98.0724 158.814 96.4232 155.49 96.4232 155.49Z" fill="#FC6625"/>
<path d="M106.249 160.187C106.031 159.471 105.503 158.893 104.812 158.612L98.0427 155.89C98.0427 155.89 97.939 155.021 99.4745 154.433C101.005 153.846 100.65 152.127 100.65 152.127C100.65 152.127 98.5561 153.08 95.4949 154.596C93.7421 155.461 92.7596 156.992 92.2362 158.142L93.9791 160.434C98.1513 161.688 102.368 161.925 106.629 161.432L106.249 160.187Z" fill="url(#paint34_linear)"/>
</g>
<defs>
<linearGradient id="paint0_linear" x1="293.624" y1="313.175" x2="89.7592" y2="93.1878" gradientUnits="userSpaceOnUse">
<stop stop-color="#DAE3FE"/>
<stop offset="1" stop-color="#E9EFFD"/>
</linearGradient>
<linearGradient id="paint1_linear" x1="224.912" y1="258.83" x2="227.087" y2="277.809" gradientUnits="userSpaceOnUse">
<stop stop-color="#A22B25"/>
<stop offset="1" stop-color="#C0423C"/>
</linearGradient>
<linearGradient id="paint2_linear" x1="207.498" y1="260.835" x2="208.475" y2="279.913" gradientUnits="userSpaceOnUse">
<stop stop-color="#A22B25"/>
<stop offset="1" stop-color="#C0423C"/>
</linearGradient>
<linearGradient id="paint3_linear" x1="209.879" y1="148.287" x2="215.908" y2="117.702" gradientUnits="userSpaceOnUse">
<stop stop-color="#A22B25"/>
<stop offset="1" stop-color="#C0423C"/>
</linearGradient>
<linearGradient id="paint4_linear" x1="-212.741" y1="-944.764" x2="-203.81" y2="-921.994" gradientUnits="userSpaceOnUse">
<stop stop-color="#A22B25"/>
<stop offset="1" stop-color="#C0423C"/>
</linearGradient>
<linearGradient id="paint5_linear" x1="-208.488" y1="-946.433" x2="-199.556" y2="-923.663" gradientUnits="userSpaceOnUse">
<stop stop-color="#A22B25"/>
<stop offset="1" stop-color="#C0423C"/>
</linearGradient>
<linearGradient id="paint6_linear" x1="171.813" y1="133.695" x2="203.168" y2="160.774" gradientUnits="userSpaceOnUse">
<stop stop-color="#A22B25"/>
<stop offset="1" stop-color="#C0423C"/>
</linearGradient>
<linearGradient id="paint7_linear" x1="190.127" y1="142.15" x2="182.591" y2="202.927" gradientUnits="userSpaceOnUse">
<stop stop-color="#A22B25"/>
<stop offset="1" stop-color="#C0423C"/>
</linearGradient>
<linearGradient id="paint8_linear" x1="170.652" y1="135.039" x2="202.008" y2="162.118" gradientUnits="userSpaceOnUse">
<stop stop-color="#A22B25"/>
<stop offset="1" stop-color="#C0423C"/>
</linearGradient>
<linearGradient id="paint9_linear" x1="159.279" y1="62.4206" x2="181.443" y2="201.005" gradientUnits="userSpaceOnUse">
<stop stop-color="#E1473D"/>
<stop offset="1" stop-color="#E9605A"/>
</linearGradient>
<linearGradient id="paint10_linear" x1="145.353" y1="115.857" x2="250.684" y2="182.525" gradientUnits="userSpaceOnUse">
<stop stop-color="#FF9085"/>
<stop offset="1" stop-color="#FB6FBB"/>
</linearGradient>
<linearGradient id="paint11_linear" x1="257.809" y1="108.51" x2="227.674" y2="132.11" gradientUnits="userSpaceOnUse">
<stop stop-color="#A22B25"/>
<stop offset="1" stop-color="#C0423C"/>
</linearGradient>
<linearGradient id="paint12_linear" x1="239.258" y1="153.704" x2="244.044" y2="142.604" gradientUnits="userSpaceOnUse">
<stop stop-color="#FEBBBA"/>
<stop offset="1" stop-color="#FF928E"/>
</linearGradient>
<linearGradient id="paint13_linear" x1="238.571" y1="126.925" x2="248.995" y2="148.565" gradientUnits="userSpaceOnUse">
<stop stop-color="#FEBBBA"/>
<stop offset="1" stop-color="#FF928E"/>
</linearGradient>
<linearGradient id="paint14_linear" x1="243.273" y1="124.66" x2="253.697" y2="146.299" gradientUnits="userSpaceOnUse">
<stop stop-color="#FEBBBA"/>
<stop offset="1" stop-color="#FF928E"/>
</linearGradient>
<linearGradient id="paint15_linear" x1="269.308" y1="290.504" x2="231.256" y2="224.372" gradientUnits="userSpaceOnUse">
<stop stop-color="#FEBBBA"/>
<stop offset="1" stop-color="#FF928E"/>
</linearGradient>
<linearGradient id="paint16_linear" x1="226.374" y1="241.673" x2="282.728" y2="259.279" gradientUnits="userSpaceOnUse">
<stop stop-color="#FEBBBA"/>
<stop offset="1" stop-color="#FF928E"/>
</linearGradient>
<linearGradient id="paint17_linear" x1="264.101" y1="187.601" x2="209.834" y2="109.893" gradientUnits="userSpaceOnUse">
<stop stop-color="#FEBBBA"/>
<stop offset="1" stop-color="#FF928E"/>
</linearGradient>
<linearGradient id="paint18_linear" x1="181.575" y1="210.153" x2="195.167" y2="228.937" gradientUnits="userSpaceOnUse">
<stop stop-color="#FEBBBA"/>
<stop offset="1" stop-color="#FF928E"/>
</linearGradient>
<linearGradient id="paint19_linear" x1="182.154" y1="211.675" x2="196.953" y2="232.126" gradientUnits="userSpaceOnUse">
<stop stop-color="#FEBBBA"/>
<stop offset="1" stop-color="#FF928E"/>
</linearGradient>
<linearGradient id="paint20_linear" x1="175.317" y1="204.208" x2="178.087" y2="204.208" gradientUnits="userSpaceOnUse">
<stop stop-color="#FF928E"/>
<stop offset="1" stop-color="#FE7062"/>
</linearGradient>
<linearGradient id="paint21_linear" x1="198.597" y1="222.612" x2="197.928" y2="215.818" gradientUnits="userSpaceOnUse">
<stop stop-color="#FEBBBA"/>
<stop offset="1" stop-color="#FF928E"/>
</linearGradient>
<linearGradient id="paint22_linear" x1="168.67" y1="152.518" x2="140.68" y2="66.8228" gradientUnits="userSpaceOnUse">
<stop stop-color="#FEBBBA"/>
<stop offset="1" stop-color="#FF928E"/>
</linearGradient>
<linearGradient id="paint23_linear" x1="160.304" y1="155.251" x2="132.314" y2="69.5552" gradientUnits="userSpaceOnUse">
<stop stop-color="#FEBBBA"/>
<stop offset="1" stop-color="#FF928E"/>
</linearGradient>
<linearGradient id="paint24_linear" x1="224.348" y1="250.106" x2="201.915" y2="219.291" gradientUnits="userSpaceOnUse">
<stop stop-color="#FEBBBA"/>
<stop offset="1" stop-color="#FF928E"/>
</linearGradient>
<linearGradient id="paint25_linear" x1="195.724" y1="213.379" x2="197.164" y2="199.525" gradientUnits="userSpaceOnUse">
<stop stop-color="#FEBBBA"/>
<stop offset="1" stop-color="#FF928E"/>
</linearGradient>
<linearGradient id="paint26_linear" x1="189.398" y1="211.893" x2="190.866" y2="198.69" gradientUnits="userSpaceOnUse">
<stop stop-color="#FEBBBA"/>
<stop offset="1" stop-color="#FF928E"/>
</linearGradient>
<linearGradient id="paint27_linear" x1="201.849" y1="213.277" x2="203.317" y2="200.075" gradientUnits="userSpaceOnUse">
<stop stop-color="#FEBBBA"/>
<stop offset="1" stop-color="#FF928E"/>
</linearGradient>
<linearGradient id="paint28_linear" x1="32.5418" y1="259.573" x2="30.424" y2="278.05" gradientUnits="userSpaceOnUse">
<stop stop-color="#FEBBBA"/>
<stop offset="1" stop-color="#FF928E"/>
</linearGradient>
<linearGradient id="paint29_linear" x1="54.8389" y1="261.937" x2="52.8579" y2="279.221" gradientUnits="userSpaceOnUse">
<stop stop-color="#FEBBBA"/>
<stop offset="1" stop-color="#FF928E"/>
</linearGradient>
<linearGradient id="paint30_linear" x1="34.0502" y1="142.439" x2="43.5419" y2="142.439" gradientUnits="userSpaceOnUse">
<stop stop-color="#FEBBBA"/>
<stop offset="1" stop-color="#FF928E"/>
</linearGradient>
<linearGradient id="paint31_linear" x1="830.011" y1="-590.6" x2="842.622" y2="-602.171" gradientUnits="userSpaceOnUse">
<stop stop-color="#FEBBBA"/>
<stop offset="1" stop-color="#FF928E"/>
</linearGradient>
<linearGradient id="paint32_linear" x1="828.338" y1="-592.424" x2="840.948" y2="-603.995" gradientUnits="userSpaceOnUse">
<stop stop-color="#FEBBBA"/>
<stop offset="1" stop-color="#FF928E"/>
</linearGradient>
<linearGradient id="paint33_linear" x1="36.3602" y1="190.887" x2="19.4653" y2="205.314" gradientUnits="userSpaceOnUse">
<stop stop-color="#FEBBBA"/>
<stop offset="1" stop-color="#FF928E"/>
</linearGradient>
<linearGradient id="paint34_linear" x1="73.796" y1="167.007" x2="109.955" y2="154.622" gradientUnits="userSpaceOnUse">
<stop stop-color="#FEBBBA"/>
<stop offset="1" stop-color="#FF928E"/>
</linearGradient>
<clipPath id="clip0">
<rect width="279" height="278" fill="white"/>
</clipPath>
</defs>
</svg>
