<svg width="50" height="44" viewBox="0 0 50 44" fill="none" xmlns="http://www.w3.org/2000/svg">
<mask id="path-1-outside-1" maskUnits="userSpaceOnUse" x="0" y="0" width="50" height="44" fill="black">
<rect fill="white" width="50" height="44"/>
<path d="M31.508 16.5152C32.7015 16.5152 33.8461 16.9749 34.69 17.7932C35.5339 18.6116 36.008 19.7215 36.008 20.8788V32.9981C36.008 35.8276 34.8489 38.5412 32.7856 40.5419C30.7223 42.5427 27.9239 43.6667 25.006 43.6667C22.0881 43.6667 19.2897 42.5427 17.2264 40.5419C15.1631 38.5412 14.004 35.8276 14.004 32.9981V20.8788C14.004 19.7215 14.4781 18.6116 15.322 17.7932C16.1659 16.9749 17.3105 16.5152 18.504 16.5152H31.508ZM31.508 19.4242H18.504C18.1062 19.4242 17.7246 19.5775 17.4433 19.8503C17.162 20.1231 17.004 20.493 17.004 20.8788V32.9981C17.004 35.056 17.8471 37.0297 19.3477 38.4849C20.8484 39.9401 22.8837 40.7576 25.006 40.7576C27.1283 40.7576 29.1636 39.9401 30.6643 38.4849C32.1649 37.0297 33.008 35.056 33.008 32.9981V20.8788C33.008 20.493 32.85 20.1231 32.5687 19.8503C32.2874 19.5775 31.9058 19.4242 31.508 19.4242ZM5.5 16.5152H13.812C13.009 17.3258 12.4448 18.3304 12.178 19.4242H5.5C5.10218 19.4242 4.72065 19.5775 4.43934 19.8503C4.15804 20.1231 4 20.493 4 20.8788V31.0587C3.99973 32.0318 4.25108 32.9894 4.73105 33.844C5.21103 34.6985 5.90431 35.4228 6.74748 35.9504C7.59065 36.4781 8.5568 36.7923 9.55755 36.8644C10.5583 36.9364 11.5617 36.764 12.476 36.3629C12.742 37.3132 13.124 38.217 13.604 39.0625C12.2337 39.6427 10.736 39.8827 9.24614 39.761C7.75624 39.6392 6.32108 39.1596 5.07025 38.3653C3.81943 37.5709 2.79233 36.487 2.08171 35.2114C1.37109 33.9357 0.999327 32.5085 1 31.0587V20.8788C1 19.7215 1.47411 18.6116 2.31802 17.7932C3.16193 16.9749 4.30653 16.5152 5.5 16.5152ZM44.5 16.5152C45.6935 16.5152 46.8381 16.9749 47.682 17.7932C48.5259 18.6116 49 19.7215 49 20.8788V31.0606C49.0006 32.5097 48.6291 33.936 47.9191 35.211C47.209 36.486 46.1827 37.5695 44.9328 38.3638C43.683 39.158 42.2488 39.6379 40.7598 39.7602C39.2708 39.8826 37.7739 39.6435 36.404 39.0645L36.516 38.8667C36.944 38.0793 37.29 37.2434 37.538 36.3668C38.4518 36.7655 39.454 36.9359 40.4532 36.8625C41.4523 36.7892 42.4166 36.4743 43.2581 35.9467C44.0995 35.419 44.7913 34.6954 45.2702 33.842C45.7492 32.9885 46.0001 32.0323 46 31.0606V20.8788C46 20.4934 45.8422 20.1237 45.5614 19.851C45.2805 19.5782 44.8995 19.4248 44.502 19.4242H37.836C37.5687 18.3301 37.0038 17.3256 36.2 16.5152H44.502H44.5ZM25 1C25.9193 1 26.8295 1.17557 27.6788 1.5167C28.5281 1.85782 29.2997 2.35781 29.9497 2.98812C30.5998 3.61844 31.1154 4.36673 31.4672 5.19027C31.8189 6.01381 32 6.89648 32 7.78788C32 8.67928 31.8189 9.56194 31.4672 10.3855C31.1154 11.209 30.5998 11.9573 29.9497 12.5876C29.2997 13.2179 28.5281 13.7179 27.6788 14.0591C26.8295 14.4002 25.9193 14.5758 25 14.5758C23.1435 14.5758 21.363 13.8606 20.0503 12.5876C18.7375 11.3147 18 9.58814 18 7.78788C18 5.98762 18.7375 4.2611 20.0503 2.98812C21.363 1.71515 23.1435 1 25 1ZM41.006 2.93939C41.7939 2.93939 42.5741 3.08989 43.3021 3.38228C44.0301 3.67467 44.6915 4.10323 45.2486 4.6435C45.8058 5.18377 46.2477 5.82516 46.5493 6.53105C46.8508 7.23695 47.006 7.99352 47.006 8.75758C47.006 9.52163 46.8508 10.2782 46.5493 10.9841C46.2477 11.69 45.8058 12.3314 45.2486 12.8717C44.6915 13.4119 44.0301 13.8405 43.3021 14.1329C42.5741 14.4253 41.7939 14.5758 41.006 14.5758C39.4147 14.5758 37.8886 13.9628 36.7634 12.8717C35.6381 11.7805 35.006 10.3007 35.006 8.75758C35.006 7.2145 35.6381 5.73462 36.7634 4.6435C37.8886 3.55238 39.4147 2.93939 41.006 2.93939ZM8.994 2.93939C9.78193 2.93939 10.5621 3.08989 11.2901 3.38228C12.0181 3.67467 12.6795 4.10323 13.2366 4.6435C13.7938 5.18377 14.2358 5.82516 14.5373 6.53105C14.8388 7.23695 14.994 7.99352 14.994 8.75758C14.994 9.52163 14.8388 10.2782 14.5373 10.9841C14.2358 11.69 13.7938 12.3314 13.2366 12.8717C12.6795 13.4119 12.0181 13.8405 11.2901 14.1329C10.5621 14.4253 9.78193 14.5758 8.994 14.5758C7.4027 14.5758 5.87658 13.9628 4.75136 12.8717C3.62614 11.7805 2.994 10.3007 2.994 8.75758C2.994 7.2145 3.62614 5.73462 4.75136 4.6435C5.87658 3.55238 7.4027 2.93939 8.994 2.93939ZM25 3.90909C23.9391 3.90909 22.9217 4.31775 22.1716 5.04516C21.4214 5.77258 21 6.75916 21 7.78788C21 8.8166 21.4214 9.80318 22.1716 10.5306C22.9217 11.258 23.9391 11.6667 25 11.6667C26.0609 11.6667 27.0783 11.258 27.8284 10.5306C28.5786 9.80318 29 8.8166 29 7.78788C29 6.75916 28.5786 5.77258 27.8284 5.04516C27.0783 4.31775 26.0609 3.90909 25 3.90909ZM41.006 5.84848C40.612 5.84848 40.2219 5.92373 39.8579 6.06993C39.494 6.21612 39.1633 6.4304 38.8847 6.70054C38.6061 6.97067 38.3851 7.29137 38.2344 7.64432C38.0836 7.99726 38.006 8.37555 38.006 8.75758C38.006 9.1396 38.0836 9.51789 38.2344 9.87084C38.3851 10.2238 38.6061 10.5445 38.8847 10.8146C39.1633 11.0847 39.494 11.299 39.8579 11.4452C40.2219 11.5914 40.612 11.6667 41.006 11.6667C41.8017 11.6667 42.5647 11.3602 43.1273 10.8146C43.6899 10.2691 44.006 9.52911 44.006 8.75758C44.006 7.98604 43.6899 7.2461 43.1273 6.70054C42.5647 6.15498 41.8017 5.84848 41.006 5.84848ZM8.994 5.84848C8.60004 5.84848 8.20993 5.92373 7.84595 6.06993C7.48197 6.21612 7.15126 6.4304 6.87268 6.70054C6.5941 6.97067 6.37313 7.29137 6.22236 7.64432C6.0716 7.99726 5.994 8.37555 5.994 8.75758C5.994 9.1396 6.0716 9.51789 6.22236 9.87084C6.37313 10.2238 6.5941 10.5445 6.87268 10.8146C7.15126 11.0847 7.48197 11.299 7.84595 11.4452C8.20993 11.5914 8.60004 11.6667 8.994 11.6667C9.78965 11.6667 10.5527 11.3602 11.1153 10.8146C11.6779 10.2691 11.994 9.52911 11.994 8.75758C11.994 7.98604 11.6779 7.2461 11.1153 6.70054C10.5527 6.15498 9.78965 5.84848 8.994 5.84848Z"/>
</mask>
<path d="M31.508 16.5152C32.7015 16.5152 33.8461 16.9749 34.69 17.7932C35.5339 18.6116 36.008 19.7215 36.008 20.8788V32.9981C36.008 35.8276 34.8489 38.5412 32.7856 40.5419C30.7223 42.5427 27.9239 43.6667 25.006 43.6667C22.0881 43.6667 19.2897 42.5427 17.2264 40.5419C15.1631 38.5412 14.004 35.8276 14.004 32.9981V20.8788C14.004 19.7215 14.4781 18.6116 15.322 17.7932C16.1659 16.9749 17.3105 16.5152 18.504 16.5152H31.508ZM31.508 19.4242H18.504C18.1062 19.4242 17.7246 19.5775 17.4433 19.8503C17.162 20.1231 17.004 20.493 17.004 20.8788V32.9981C17.004 35.056 17.8471 37.0297 19.3477 38.4849C20.8484 39.9401 22.8837 40.7576 25.006 40.7576C27.1283 40.7576 29.1636 39.9401 30.6643 38.4849C32.1649 37.0297 33.008 35.056 33.008 32.9981V20.8788C33.008 20.493 32.85 20.1231 32.5687 19.8503C32.2874 19.5775 31.9058 19.4242 31.508 19.4242ZM5.5 16.5152H13.812C13.009 17.3258 12.4448 18.3304 12.178 19.4242H5.5C5.10218 19.4242 4.72065 19.5775 4.43934 19.8503C4.15804 20.1231 4 20.493 4 20.8788V31.0587C3.99973 32.0318 4.25108 32.9894 4.73105 33.844C5.21103 34.6985 5.90431 35.4228 6.74748 35.9504C7.59065 36.4781 8.5568 36.7923 9.55755 36.8644C10.5583 36.9364 11.5617 36.764 12.476 36.3629C12.742 37.3132 13.124 38.217 13.604 39.0625C12.2337 39.6427 10.736 39.8827 9.24614 39.761C7.75624 39.6392 6.32108 39.1596 5.07025 38.3653C3.81943 37.5709 2.79233 36.487 2.08171 35.2114C1.37109 33.9357 0.999327 32.5085 1 31.0587V20.8788C1 19.7215 1.47411 18.6116 2.31802 17.7932C3.16193 16.9749 4.30653 16.5152 5.5 16.5152ZM44.5 16.5152C45.6935 16.5152 46.8381 16.9749 47.682 17.7932C48.5259 18.6116 49 19.7215 49 20.8788V31.0606C49.0006 32.5097 48.6291 33.936 47.9191 35.211C47.209 36.486 46.1827 37.5695 44.9328 38.3638C43.683 39.158 42.2488 39.6379 40.7598 39.7602C39.2708 39.8826 37.7739 39.6435 36.404 39.0645L36.516 38.8667C36.944 38.0793 37.29 37.2434 37.538 36.3668C38.4518 36.7655 39.454 36.9359 40.4532 36.8625C41.4523 36.7892 42.4166 36.4743 43.2581 35.9467C44.0995 35.419 44.7913 34.6954 45.2702 33.842C45.7492 32.9885 46.0001 32.0323 46 31.0606V20.8788C46 20.4934 45.8422 20.1237 45.5614 19.851C45.2805 19.5782 44.8995 19.4248 44.502 19.4242H37.836C37.5687 18.3301 37.0038 17.3256 36.2 16.5152H44.502H44.5ZM25 1C25.9193 1 26.8295 1.17557 27.6788 1.5167C28.5281 1.85782 29.2997 2.35781 29.9497 2.98812C30.5998 3.61844 31.1154 4.36673 31.4672 5.19027C31.8189 6.01381 32 6.89648 32 7.78788C32 8.67928 31.8189 9.56194 31.4672 10.3855C31.1154 11.209 30.5998 11.9573 29.9497 12.5876C29.2997 13.2179 28.5281 13.7179 27.6788 14.0591C26.8295 14.4002 25.9193 14.5758 25 14.5758C23.1435 14.5758 21.363 13.8606 20.0503 12.5876C18.7375 11.3147 18 9.58814 18 7.78788C18 5.98762 18.7375 4.2611 20.0503 2.98812C21.363 1.71515 23.1435 1 25 1ZM41.006 2.93939C41.7939 2.93939 42.5741 3.08989 43.3021 3.38228C44.0301 3.67467 44.6915 4.10323 45.2486 4.6435C45.8058 5.18377 46.2477 5.82516 46.5493 6.53105C46.8508 7.23695 47.006 7.99352 47.006 8.75758C47.006 9.52163 46.8508 10.2782 46.5493 10.9841C46.2477 11.69 45.8058 12.3314 45.2486 12.8717C44.6915 13.4119 44.0301 13.8405 43.3021 14.1329C42.5741 14.4253 41.7939 14.5758 41.006 14.5758C39.4147 14.5758 37.8886 13.9628 36.7634 12.8717C35.6381 11.7805 35.006 10.3007 35.006 8.75758C35.006 7.2145 35.6381 5.73462 36.7634 4.6435C37.8886 3.55238 39.4147 2.93939 41.006 2.93939ZM8.994 2.93939C9.78193 2.93939 10.5621 3.08989 11.2901 3.38228C12.0181 3.67467 12.6795 4.10323 13.2366 4.6435C13.7938 5.18377 14.2358 5.82516 14.5373 6.53105C14.8388 7.23695 14.994 7.99352 14.994 8.75758C14.994 9.52163 14.8388 10.2782 14.5373 10.9841C14.2358 11.69 13.7938 12.3314 13.2366 12.8717C12.6795 13.4119 12.0181 13.8405 11.2901 14.1329C10.5621 14.4253 9.78193 14.5758 8.994 14.5758C7.4027 14.5758 5.87658 13.9628 4.75136 12.8717C3.62614 11.7805 2.994 10.3007 2.994 8.75758C2.994 7.2145 3.62614 5.73462 4.75136 4.6435C5.87658 3.55238 7.4027 2.93939 8.994 2.93939ZM25 3.90909C23.9391 3.90909 22.9217 4.31775 22.1716 5.04516C21.4214 5.77258 21 6.75916 21 7.78788C21 8.8166 21.4214 9.80318 22.1716 10.5306C22.9217 11.258 23.9391 11.6667 25 11.6667C26.0609 11.6667 27.0783 11.258 27.8284 10.5306C28.5786 9.80318 29 8.8166 29 7.78788C29 6.75916 28.5786 5.77258 27.8284 5.04516C27.0783 4.31775 26.0609 3.90909 25 3.90909ZM41.006 5.84848C40.612 5.84848 40.2219 5.92373 39.8579 6.06993C39.494 6.21612 39.1633 6.4304 38.8847 6.70054C38.6061 6.97067 38.3851 7.29137 38.2344 7.64432C38.0836 7.99726 38.006 8.37555 38.006 8.75758C38.006 9.1396 38.0836 9.51789 38.2344 9.87084C38.3851 10.2238 38.6061 10.5445 38.8847 10.8146C39.1633 11.0847 39.494 11.299 39.8579 11.4452C40.2219 11.5914 40.612 11.6667 41.006 11.6667C41.8017 11.6667 42.5647 11.3602 43.1273 10.8146C43.6899 10.2691 44.006 9.52911 44.006 8.75758C44.006 7.98604 43.6899 7.2461 43.1273 6.70054C42.5647 6.15498 41.8017 5.84848 41.006 5.84848ZM8.994 5.84848C8.60004 5.84848 8.20993 5.92373 7.84595 6.06993C7.48197 6.21612 7.15126 6.4304 6.87268 6.70054C6.5941 6.97067 6.37313 7.29137 6.22236 7.64432C6.0716 7.99726 5.994 8.37555 5.994 8.75758C5.994 9.1396 6.0716 9.51789 6.22236 9.87084C6.37313 10.2238 6.5941 10.5445 6.87268 10.8146C7.15126 11.0847 7.48197 11.299 7.84595 11.4452C8.20993 11.5914 8.60004 11.6667 8.994 11.6667C9.78965 11.6667 10.5527 11.3602 11.1153 10.8146C11.6779 10.2691 11.994 9.52911 11.994 8.75758C11.994 7.98604 11.6779 7.2461 11.1153 6.70054C10.5527 6.15498 9.78965 5.84848 8.994 5.84848Z" fill="#FC6625"/>
<path d="M31.508 16.5152C32.7015 16.5152 33.8461 16.9749 34.69 17.7932C35.5339 18.6116 36.008 19.7215 36.008 20.8788V32.9981C36.008 35.8276 34.8489 38.5412 32.7856 40.5419C30.7223 42.5427 27.9239 43.6667 25.006 43.6667C22.0881 43.6667 19.2897 42.5427 17.2264 40.5419C15.1631 38.5412 14.004 35.8276 14.004 32.9981V20.8788C14.004 19.7215 14.4781 18.6116 15.322 17.7932C16.1659 16.9749 17.3105 16.5152 18.504 16.5152H31.508ZM31.508 19.4242H18.504C18.1062 19.4242 17.7246 19.5775 17.4433 19.8503C17.162 20.1231 17.004 20.493 17.004 20.8788V32.9981C17.004 35.056 17.8471 37.0297 19.3477 38.4849C20.8484 39.9401 22.8837 40.7576 25.006 40.7576C27.1283 40.7576 29.1636 39.9401 30.6643 38.4849C32.1649 37.0297 33.008 35.056 33.008 32.9981V20.8788C33.008 20.493 32.85 20.1231 32.5687 19.8503C32.2874 19.5775 31.9058 19.4242 31.508 19.4242ZM5.5 16.5152H13.812C13.009 17.3258 12.4448 18.3304 12.178 19.4242H5.5C5.10218 19.4242 4.72065 19.5775 4.43934 19.8503C4.15804 20.1231 4 20.493 4 20.8788V31.0587C3.99973 32.0318 4.25108 32.9894 4.73105 33.844C5.21103 34.6985 5.90431 35.4228 6.74748 35.9504C7.59065 36.4781 8.5568 36.7923 9.55755 36.8644C10.5583 36.9364 11.5617 36.764 12.476 36.3629C12.742 37.3132 13.124 38.217 13.604 39.0625C12.2337 39.6427 10.736 39.8827 9.24614 39.761C7.75624 39.6392 6.32108 39.1596 5.07025 38.3653C3.81943 37.5709 2.79233 36.487 2.08171 35.2114C1.37109 33.9357 0.999327 32.5085 1 31.0587V20.8788C1 19.7215 1.47411 18.6116 2.31802 17.7932C3.16193 16.9749 4.30653 16.5152 5.5 16.5152ZM44.5 16.5152C45.6935 16.5152 46.8381 16.9749 47.682 17.7932C48.5259 18.6116 49 19.7215 49 20.8788V31.0606C49.0006 32.5097 48.6291 33.936 47.9191 35.211C47.209 36.486 46.1827 37.5695 44.9328 38.3638C43.683 39.158 42.2488 39.6379 40.7598 39.7602C39.2708 39.8826 37.7739 39.6435 36.404 39.0645L36.516 38.8667C36.944 38.0793 37.29 37.2434 37.538 36.3668C38.4518 36.7655 39.454 36.9359 40.4532 36.8625C41.4523 36.7892 42.4166 36.4743 43.2581 35.9467C44.0995 35.419 44.7913 34.6954 45.2702 33.842C45.7492 32.9885 46.0001 32.0323 46 31.0606V20.8788C46 20.4934 45.8422 20.1237 45.5614 19.851C45.2805 19.5782 44.8995 19.4248 44.502 19.4242H37.836C37.5687 18.3301 37.0038 17.3256 36.2 16.5152H44.502H44.5ZM25 1C25.9193 1 26.8295 1.17557 27.6788 1.5167C28.5281 1.85782 29.2997 2.35781 29.9497 2.98812C30.5998 3.61844 31.1154 4.36673 31.4672 5.19027C31.8189 6.01381 32 6.89648 32 7.78788C32 8.67928 31.8189 9.56194 31.4672 10.3855C31.1154 11.209 30.5998 11.9573 29.9497 12.5876C29.2997 13.2179 28.5281 13.7179 27.6788 14.0591C26.8295 14.4002 25.9193 14.5758 25 14.5758C23.1435 14.5758 21.363 13.8606 20.0503 12.5876C18.7375 11.3147 18 9.58814 18 7.78788C18 5.98762 18.7375 4.2611 20.0503 2.98812C21.363 1.71515 23.1435 1 25 1ZM41.006 2.93939C41.7939 2.93939 42.5741 3.08989 43.3021 3.38228C44.0301 3.67467 44.6915 4.10323 45.2486 4.6435C45.8058 5.18377 46.2477 5.82516 46.5493 6.53105C46.8508 7.23695 47.006 7.99352 47.006 8.75758C47.006 9.52163 46.8508 10.2782 46.5493 10.9841C46.2477 11.69 45.8058 12.3314 45.2486 12.8717C44.6915 13.4119 44.0301 13.8405 43.3021 14.1329C42.5741 14.4253 41.7939 14.5758 41.006 14.5758C39.4147 14.5758 37.8886 13.9628 36.7634 12.8717C35.6381 11.7805 35.006 10.3007 35.006 8.75758C35.006 7.2145 35.6381 5.73462 36.7634 4.6435C37.8886 3.55238 39.4147 2.93939 41.006 2.93939ZM8.994 2.93939C9.78193 2.93939 10.5621 3.08989 11.2901 3.38228C12.0181 3.67467 12.6795 4.10323 13.2366 4.6435C13.7938 5.18377 14.2358 5.82516 14.5373 6.53105C14.8388 7.23695 14.994 7.99352 14.994 8.75758C14.994 9.52163 14.8388 10.2782 14.5373 10.9841C14.2358 11.69 13.7938 12.3314 13.2366 12.8717C12.6795 13.4119 12.0181 13.8405 11.2901 14.1329C10.5621 14.4253 9.78193 14.5758 8.994 14.5758C7.4027 14.5758 5.87658 13.9628 4.75136 12.8717C3.62614 11.7805 2.994 10.3007 2.994 8.75758C2.994 7.2145 3.62614 5.73462 4.75136 4.6435C5.87658 3.55238 7.4027 2.93939 8.994 2.93939ZM25 3.90909C23.9391 3.90909 22.9217 4.31775 22.1716 5.04516C21.4214 5.77258 21 6.75916 21 7.78788C21 8.8166 21.4214 9.80318 22.1716 10.5306C22.9217 11.258 23.9391 11.6667 25 11.6667C26.0609 11.6667 27.0783 11.258 27.8284 10.5306C28.5786 9.80318 29 8.8166 29 7.78788C29 6.75916 28.5786 5.77258 27.8284 5.04516C27.0783 4.31775 26.0609 3.90909 25 3.90909ZM41.006 5.84848C40.612 5.84848 40.2219 5.92373 39.8579 6.06993C39.494 6.21612 39.1633 6.4304 38.8847 6.70054C38.6061 6.97067 38.3851 7.29137 38.2344 7.64432C38.0836 7.99726 38.006 8.37555 38.006 8.75758C38.006 9.1396 38.0836 9.51789 38.2344 9.87084C38.3851 10.2238 38.6061 10.5445 38.8847 10.8146C39.1633 11.0847 39.494 11.299 39.8579 11.4452C40.2219 11.5914 40.612 11.6667 41.006 11.6667C41.8017 11.6667 42.5647 11.3602 43.1273 10.8146C43.6899 10.2691 44.006 9.52911 44.006 8.75758C44.006 7.98604 43.6899 7.2461 43.1273 6.70054C42.5647 6.15498 41.8017 5.84848 41.006 5.84848ZM8.994 5.84848C8.60004 5.84848 8.20993 5.92373 7.84595 6.06993C7.48197 6.21612 7.15126 6.4304 6.87268 6.70054C6.5941 6.97067 6.37313 7.29137 6.22236 7.64432C6.0716 7.99726 5.994 8.37555 5.994 8.75758C5.994 9.1396 6.0716 9.51789 6.22236 9.87084C6.37313 10.2238 6.5941 10.5445 6.87268 10.8146C7.15126 11.0847 7.48197 11.299 7.84595 11.4452C8.20993 11.5914 8.60004 11.6667 8.994 11.6667C9.78965 11.6667 10.5527 11.3602 11.1153 10.8146C11.6779 10.2691 11.994 9.52911 11.994 8.75758C11.994 7.98604 11.6779 7.2461 11.1153 6.70054C10.5527 6.15498 9.78965 5.84848 8.994 5.84848Z" stroke="#FC6625" stroke-width="0.6" mask="url(#path-1-outside-1)"/>
</svg>
