<svg width="314" height="332" viewBox="0 0 314 332" fill="none" xmlns="http://www.w3.org/2000/svg">
<g clip-path="url(#clip0)">
<path d="M307.517 223.323C345.145 267.065 199.3 322.248 137.809 317.179C121.021 315.798 87.2352 313.009 60.8581 288.175C10.2005 240.472 -48.6082 93.7981 66.4943 82.0636C76.2452 81.0695 115.965 23.8563 183.322 24.5312C232.641 25.0282 267.253 52.7664 271.462 56.2245C276.779 60.5877 288.506 70.962 299.078 87.4208C323.913 126.093 276.826 187.649 307.517 223.323Z" fill="url(#paint0_linear)"/>
<path d="M19.7946 243.193C48.2369 336.468 272.712 344.001 313.216 255.006C315.992 248.906 311.088 242.204 303.752 242.068L25.2582 236.925C21.567 236.857 18.8169 239.996 19.7946 243.193Z" fill="#BDD0FB"/>
<path d="M173.341 68.6234H35.7045V264.276H173.341V68.6234Z" fill="#91B3FA"/>
<path d="M155.445 90.748H115.725V139.397H155.445V90.748Z" fill="#7D97F4"/>
<path d="M134.019 90.748C134.019 90.748 134.443 106.966 115.73 119.548V90.748H134.019Z" fill="#D9EAFF"/>
<path d="M137.94 90.748C137.94 90.748 137.532 106.966 155.45 119.548V90.748H137.94Z" fill="#D9EAFF"/>
<path d="M136.581 90.748H135.587V139.397H136.581V90.748Z" fill="white"/>
<path d="M155.445 105.151H115.725V105.826H155.445V105.151Z" fill="white"/>
<path d="M155.445 122.787H115.725V123.461H155.445V122.787Z" fill="white"/>
<path d="M156.349 140.166H114.825V89.979H156.349V140.166ZM116.629 138.628H154.551V91.5171H116.629V138.628Z" fill="white"/>
<path d="M92.9604 90.748H53.2405V139.397H92.9604V90.748Z" fill="#7D97F4"/>
<path d="M71.535 90.748C71.535 90.748 71.9585 106.966 53.2462 119.548V90.748H71.535Z" fill="#D9EAFF"/>
<path d="M75.4558 90.748C75.4558 90.748 75.048 106.966 92.9656 119.548V90.748H75.4558Z" fill="#D9EAFF"/>
<path d="M74.0964 90.748H73.103V139.397H74.0964V90.748Z" fill="white"/>
<path d="M92.9604 105.151H53.2405V105.826H92.9604V105.151Z" fill="white"/>
<path d="M92.9604 122.787H53.2405V123.461H92.9604V122.787Z" fill="white"/>
<path d="M93.8649 140.166H52.3412V89.979H93.8649V140.166ZM54.145 138.628H92.0663V91.5171H54.145V138.628Z" fill="white"/>
<path d="M155.445 163.803H115.725V212.452H155.445V163.803Z" fill="#7D97F4"/>
<path d="M134.019 163.803C134.019 163.803 134.443 180.021 115.73 192.603V163.803H134.019Z" fill="#D9EAFF"/>
<path d="M137.94 163.803C137.94 163.803 137.532 180.021 155.45 192.603V163.803H137.94Z" fill="#D9EAFF"/>
<path d="M136.581 163.803H135.587V212.452H136.581V163.803Z" fill="white"/>
<path d="M155.445 178.205H115.725V178.88H155.445V178.205Z" fill="white"/>
<path d="M155.445 195.836H115.725V196.511H155.445V195.836Z" fill="white"/>
<path d="M156.349 213.221H114.825V163.034H156.349V213.221ZM116.629 211.683H154.551V164.572H116.629V211.683Z" fill="white"/>
<path d="M92.9604 163.803H53.2405V212.452H92.9604V163.803Z" fill="#7D97F4"/>
<path d="M71.535 163.803C71.535 163.803 71.9585 180.021 53.2462 192.603V163.803H71.535Z" fill="#D9EAFF"/>
<path d="M75.4558 163.803C75.4558 163.803 75.048 180.021 92.9656 192.603V163.803H75.4558Z" fill="#D9EAFF"/>
<path d="M74.0964 163.803H73.103V212.452H74.0964V163.803Z" fill="white"/>
<path d="M92.9604 178.206H53.2405V178.88H92.9604V178.206Z" fill="white"/>
<path d="M92.9604 195.836H53.2405V196.511H92.9604V195.836Z" fill="white"/>
<path d="M93.8649 213.221H52.3412V163.034H93.8649V213.221ZM54.145 211.683H92.0663V164.572H54.145V211.683Z" fill="white"/>
<path d="M178.512 75.4664H31.2395L39.0873 45.96H170.659L178.512 75.4664Z" fill="#3A487F"/>
<path d="M74.8075 54.7178H61.3026V66.1384H74.8075V54.7178Z" fill="#91AFF9"/>
<path d="M60.6805 54.1895V66.6669H75.4402V54.1895H60.6805ZM74.1854 65.6101H61.9301V55.2462H74.1854V65.6101Z" fill="#CDE0FB"/>
<path d="M68.6717 66.1402V54.7195H67.4482V66.1402H68.6717Z" fill="#CDE0FB"/>
<path d="M77.4008 52.0497H57.8467V54.4458H77.4008V52.0497Z" fill="#CDE0FB"/>
<path d="M153.698 35.3502H136.487V64.4172H153.698V35.3502Z" fill="#7C9AF2"/>
<path d="M153.698 36.951H136.487V66.0181H153.698V36.951Z" fill="#CDE0FB"/>
<path d="M142.797 31.4213H139.592V35.3502H142.797V31.4213Z" fill="#91AFF9"/>
<path d="M150.593 31.4213H147.388V35.3502H150.593V31.4213Z" fill="#91AFF9"/>
<path d="M154.786 35.3502H135.399V37.5423H154.786V35.3502Z" fill="#91AFF9"/>
<path d="M175.25 234.587H32.4421V265.516H175.25V234.587Z" fill="#3A487F"/>
<path d="M174.884 147.815H34.0524V152.989H174.884V147.815Z" fill="#3A487F"/>
<path d="M97.0646 140.292H49.2512V143.237H97.0646V140.292Z" fill="#D9EAFF"/>
<path d="M159.491 140.292H111.678V143.237H159.491V140.292Z" fill="#D9EAFF"/>
<path d="M159.993 213.09H112.18V216.036H159.993V213.09Z" fill="#D9EAFF"/>
<path d="M97.0071 213.09H49.1937V216.036H97.0071V213.09Z" fill="#D9EAFF"/>
<path d="M276.324 44.6782H111.014V279.663H276.324V44.6782Z" fill="#91B3FA"/>
<path d="M254.825 71.255H207.122V129.682H254.825V71.255Z" fill="#7D97F4"/>
<path d="M229.091 71.255C229.091 71.255 229.604 90.7324 207.122 105.847V71.255H229.091Z" fill="#D9EAFF"/>
<path d="M233.802 71.255C233.802 71.255 233.316 90.7324 254.831 105.847V71.255H233.802Z" fill="#D9EAFF"/>
<path d="M232.171 71.255H230.973V129.682H232.171V71.255Z" fill="white"/>
<path d="M254.831 88.5508H207.122V89.3617H254.831V88.5508Z" fill="white"/>
<path d="M254.831 109.729H207.122V110.539H254.831V109.729Z" fill="white"/>
<path d="M255.908 130.603H206.039V70.329H255.908V130.603ZM208.204 128.756H253.748V72.1758H208.204V128.756Z" fill="white"/>
<path d="M179.777 71.255H132.074V129.682H179.777V71.255Z" fill="#7D97F4"/>
<path d="M154.043 71.255C154.043 71.255 154.556 90.7324 132.074 105.847V71.255H154.043Z" fill="#D9EAFF"/>
<path d="M158.754 71.255C158.754 71.255 158.268 90.7324 179.783 105.847V71.255H158.754Z" fill="#D9EAFF"/>
<path d="M157.128 71.255H155.931V129.682H157.128V71.255Z" fill="white"/>
<path d="M179.783 88.5508H132.074V89.3617H179.783V88.5508Z" fill="white"/>
<path d="M179.783 109.729H132.074V110.539H179.783V109.729Z" fill="white"/>
<path d="M180.865 130.603H130.997V70.329H180.865V130.603ZM133.156 128.756H178.7V72.1758H133.156V128.756Z" fill="white"/>
<path d="M254.825 158.99H207.122V217.417H254.825V158.99Z" fill="#7D97F4"/>
<path d="M229.091 158.99C229.091 158.99 229.604 178.467 207.122 193.581V158.99H229.091Z" fill="#D9EAFF"/>
<path d="M233.802 158.99C233.802 158.99 233.316 178.467 254.831 193.581V158.99H233.802Z" fill="#D9EAFF"/>
<path d="M232.171 158.99H230.973V217.417H232.171V158.99Z" fill="white"/>
<path d="M254.831 176.285H207.122V177.096H254.831V176.285Z" fill="white"/>
<path d="M254.831 197.468H207.122V198.279H254.831V197.468Z" fill="white"/>
<path d="M255.908 218.343H206.039V158.069H255.908V218.343ZM208.204 216.496H253.748V159.916H208.204V216.496Z" fill="white"/>
<path d="M179.777 158.99H132.074V217.417H179.777V158.99Z" fill="#7D97F4"/>
<path d="M154.043 158.99C154.043 158.99 154.556 178.467 132.074 193.581V158.99H154.043Z" fill="#D9EAFF"/>
<path d="M158.754 158.99C158.754 158.99 158.268 178.467 179.783 193.581V158.99H158.754Z" fill="#D9EAFF"/>
<path d="M157.128 158.99H155.931V217.417H157.128V158.99Z" fill="white"/>
<path d="M179.783 176.285H132.074V177.096H179.783V176.285Z" fill="white"/>
<path d="M179.783 197.468H132.074V198.279H179.783V197.468Z" fill="white"/>
<path d="M180.865 218.343H130.997V158.069H180.865V218.343ZM133.156 216.496H178.7V159.916H133.156V216.496Z" fill="white"/>
<path d="M282.53 52.8972H105.65L115.076 17.458H273.098L282.53 52.8972Z" fill="#3A487F"/>
<path d="M202.301 27.9736H186.078V41.691H202.301V27.9736Z" fill="#91AFF9"/>
<path d="M185.325 27.3406V42.324H203.049V27.3406H185.325ZM201.548 41.0579H186.825V28.6119H201.548V41.0579Z" fill="#CDE0FB"/>
<path d="M194.921 41.6926V27.9752H193.452V41.6926H194.921Z" fill="#CDE0FB"/>
<path d="M205.407 24.7771H181.921V27.6545H205.407V24.7771Z" fill="#CDE0FB"/>
<path d="M157.98 27.9736H141.757V41.691H157.98V27.9736Z" fill="#91AFF9"/>
<path d="M141.009 27.3406V42.324H158.733V27.3406H141.009ZM157.227 41.0579H142.504V28.6119H157.227V41.0579Z" fill="#CDE0FB"/>
<path d="M150.604 41.6939V27.9766H149.135V41.6939H150.604Z" fill="#CDE0FB"/>
<path d="M161.091 24.7771H137.605V27.6545H161.091V24.7771Z" fill="#CDE0FB"/>
<path d="M252.729 4.71899H232.056V39.6297H252.729V4.71899Z" fill="#7C9AF2"/>
<path d="M252.729 6.63892H232.056V41.5497H252.729V6.63892Z" fill="#CDE0FB"/>
<path d="M239.632 0H235.784V4.71894H239.632V0Z" fill="#91AFF9"/>
<path d="M248.996 0H245.148V4.71894H248.996V0Z" fill="#91AFF9"/>
<path d="M254.036 4.71899H230.749V7.35051H254.036V4.71899Z" fill="#91AFF9"/>
<path d="M278.609 244.004H107.093V281.148H278.609V244.004Z" fill="#3A487F"/>
<path d="M278.17 139.79H109.032V146.005H278.17V139.79Z" fill="#3A487F"/>
<path d="M184.708 130.749H127.279V134.286H184.708V130.749Z" fill="#D9EAFF"/>
<path d="M259.688 130.749H202.259V134.286H259.688V130.749Z" fill="#D9EAFF"/>
<path d="M260.289 218.186H202.861V221.722H260.289V218.186Z" fill="#D9EAFF"/>
<path d="M184.645 218.186H127.217V221.722H184.645V218.186Z" fill="#D9EAFF"/>
<path d="M257.429 173.455C254.402 171.88 251.971 172.869 251.971 172.869C242.701 171.781 239.998 182.595 240.123 186.32C240.249 190.039 240.672 194.036 236.531 198.876C224.574 212.844 249.618 213.456 249.618 213.456C249.827 202.297 263.196 206.367 262.61 207.497C279.749 211.62 264.315 177.034 257.429 173.455Z" fill="black"/>
<path d="M221.672 217.746C221.672 217.746 220.041 215.261 218.729 215.214C217.416 215.167 214.98 214.482 215.179 214.968C215.372 215.455 216.883 215.502 217.029 215.795C217.176 216.088 214.792 216.527 214.112 216.574C213.432 216.621 211.827 216.574 211.874 216.914C211.921 217.254 214.766 218.667 216.779 218.473C218.786 218.28 221.27 219.059 221.27 219.059L221.672 217.746Z" fill="url(#paint1_linear)"/>
<path d="M245.247 218.547C245.247 218.547 244.363 220.304 242.753 222.319C240.818 224.746 237.828 227.55 234.079 228.105C232.286 228.372 230.534 227.985 228.924 227.268C228.919 227.268 228.919 227.268 228.919 227.268C224.365 225.243 220.94 220.592 220.94 220.592C220.135 218.4 221.453 216.914 221.453 216.914C221.453 216.914 230.649 218.986 231.522 218.547C232.401 218.107 237.781 206.153 238.753 204.165C240.813 199.932 244.086 198.719 244.086 198.719L245.247 218.547Z" fill="#FC6625"/>
<path d="M242.753 222.319C240.818 224.746 237.828 227.55 234.079 228.105C232.286 228.372 230.534 227.985 228.924 227.268C229.102 227.289 233.65 227.854 235.465 224.61C237.315 221.299 239.313 216.041 242.063 217.793C243.25 218.552 243.197 220.43 242.753 222.319Z" fill="#FC6625"/>
<path d="M279.556 317.875C279.556 317.875 282.363 320.438 281.814 322.259C281.265 324.079 278.735 325.293 278.39 327.517C278.05 329.74 276.68 330.954 275.446 330.954C274.212 330.954 269.575 330.954 269.575 330.954C269.575 330.954 268.67 329.389 270.856 328.913C273.046 328.443 273.872 325.827 273.736 323.399C273.6 320.972 273.94 317.733 273.94 317.733L278.593 316.656L279.556 317.875Z" fill="#172142"/>
<path d="M255.803 318.963C255.803 318.963 256.812 329.818 255.578 330.425L239.815 330.394C239.815 330.394 239.815 328.573 242.345 328.171C244.876 327.768 249.325 326.282 250.078 322.981C250.836 319.674 255.803 318.963 255.803 318.963Z" fill="#172142"/>
<path d="M267.933 211.228C267.933 211.228 268.168 214.544 267.933 218.521C267.776 221.157 265.11 224.689 264.733 225.562C263.782 227.754 262.715 228.11 262.715 228.11L254.438 230.14L251.526 230.852L242.345 228.11C242.345 228.11 238.163 216.433 239.841 209.862C241.519 203.291 244.086 198.724 244.086 198.724C244.086 198.724 250.308 196.265 261.329 198.101L267.933 211.228Z" fill="#FC6625"/>
<path d="M265.512 219.593C265.355 222.23 265.115 224.683 264.738 225.557C263.787 227.749 262.72 228.105 262.72 228.105L254.444 230.135L250.847 229.078C250.847 229.078 262.846 227.257 261.518 216.925L265.512 219.593Z" fill="#F2CCAA"/>
<path d="M242.931 229.878C242.931 229.878 238.387 244.035 238.095 248.854C237.802 253.672 246.784 317.325 247.145 319.549C247.485 321.641 250.083 322.975 250.083 322.975C250.083 322.975 251.28 323.682 252.985 323.2C255.353 322.531 256.101 321.73 256.101 321.73C256.101 321.73 259.641 276.335 257.45 260.117C255.259 243.899 255.233 229.878 255.233 229.878H242.931Z" fill="white"/>
<path d="M262.187 229.455C262.187 229.455 269.12 238.762 269.768 245.055C270.416 251.349 270.782 273.453 272.157 279.584C273.532 285.716 278.593 297.523 278.593 316.661C278.593 316.661 278.065 317.759 276.445 318.34C275.927 318.529 275.232 318.706 274.552 318.863C273.213 319.172 271.838 318.518 271.227 317.283C267.807 310.393 256.911 288.164 256.352 283.55C255.955 280.285 252.514 258.673 245.012 245.997C243.208 242.952 246.115 230.846 246.115 230.846L262.187 229.455Z" fill="white"/>
<path d="M242.204 227.692C242.204 227.692 244.029 229.136 247.652 229.209C251.981 229.298 262.71 228.105 262.71 228.105C262.71 228.105 263.185 229.439 263.165 230.846C263.165 230.846 250.062 234.153 242.466 231.328C242.476 231.328 241.493 229.486 242.204 227.692Z" fill="#233862"/>
<path d="M246.617 232.944C245.529 232.944 244.64 231.94 244.64 230.705C244.64 229.47 245.529 228.466 246.617 228.466C247.704 228.466 248.593 229.47 248.593 230.705C248.593 231.94 247.704 232.944 246.617 232.944ZM246.617 229.125C245.89 229.125 245.294 229.836 245.294 230.71C245.294 231.584 245.885 232.29 246.617 232.29C247.344 232.29 247.94 231.579 247.94 230.71C247.934 229.836 247.344 229.125 246.617 229.125Z" fill="white"/>
<path d="M275.43 231.469L264.791 240.739C264.022 241.409 262.856 241.33 262.187 240.561L248.609 224.961C247.94 224.192 248.018 223.025 248.787 222.355L259.426 213.085C260.195 212.415 261.361 212.494 262.03 213.263L275.608 228.863C276.277 229.633 276.199 230.799 275.43 231.469Z" fill="#3A487F"/>
<path d="M259.688 230.297C259.536 230.339 254.036 230.982 254.036 232.123C254.036 233.436 255.646 235.199 257.168 235.115C257.785 235.084 260.624 232.468 260.624 232.468L259.688 230.297Z" fill="url(#paint2_linear)"/>
<path d="M256.859 197.495C256.232 195.977 255.866 193.665 255.876 190.798L255.458 190.882L248.468 192.268C248.468 192.268 248.624 194.471 248.63 196.542C248.63 196.558 248.63 196.579 248.63 196.595C248.64 198.394 247.417 200.199 250.303 200.916C251.202 201.136 258.177 200.686 256.859 197.495Z" fill="url(#paint3_linear)"/>
<path d="M248.478 192.268C248.478 192.268 248.635 194.471 248.64 196.542C252.551 196.433 254.616 192.865 255.463 190.887L248.478 192.268Z" fill="url(#paint4_linear)"/>
<path d="M247.171 194.23C247.171 194.23 256.425 194.382 256.43 188.616C256.436 182.851 257.633 178.985 251.73 178.645C245.822 178.305 244.672 180.502 244.201 182.427C243.731 184.353 244.766 194.042 247.171 194.23Z" fill="url(#paint5_linear)"/>
<path d="M247.511 178.504C247.511 178.504 250.041 185.268 253.931 186.267C257.821 187.267 259.505 186.226 259.505 186.226C259.505 186.226 256.525 183.856 255.902 179.717C255.908 179.717 249.424 175.281 247.511 178.504Z" fill="black"/>
<path d="M248.143 179.053C248.143 179.053 246.267 179.754 245.493 181.125C244.735 182.464 244.092 184.243 244.243 186.419C244.243 186.419 242.335 181.821 244.478 179.22C246.748 176.463 248.143 179.053 248.143 179.053Z" fill="black"/>
<path d="M259.688 230.297C259.688 230.297 258.37 229.873 257.487 229.999C256.608 230.124 255.955 229.983 255.955 230.229C255.955 230.475 257.094 230.59 257.335 230.71C257.575 230.825 259.688 230.297 259.688 230.297Z" fill="url(#paint6_linear)"/>
<path d="M261.329 198.096C261.329 198.096 267.896 198.557 270.416 204.683C272.931 210.809 277.71 221.089 277.71 222.816C277.71 224.547 275.043 229.878 260.712 232.944C260.712 232.944 259.233 231.385 259.322 230.15C259.322 230.15 268.267 222.465 268.241 221.565C268.194 219.865 266.772 217.621 258.919 209.763C256.786 207.623 261.329 198.096 261.329 198.096Z" fill="#FC6625"/>
<path d="M94.0688 194.539C94.0688 194.539 107.035 212.572 104.175 219.86C100.866 228.283 94.0688 224.872 94.0688 224.872V194.539Z" fill="white"/>
<path d="M100.458 327.119H83.2566C82.0227 326.282 83.5912 318.105 83.5912 318.105C83.5912 318.105 88.2863 316.321 89.0967 319.946C89.9123 323.566 95.0779 324.723 97.8124 325.162C99.6789 325.466 100.27 326.496 100.458 327.119Z" fill="#172142"/>
<path d="M74.9487 327.119H57.7474C56.5135 326.282 58.082 318.105 58.082 318.105C58.082 318.105 62.7771 316.321 63.5875 319.946C64.4031 323.566 69.5687 324.723 72.3031 325.162C74.1697 325.466 74.7605 326.496 74.9487 327.119Z" fill="#172142"/>
<path d="M95.8308 243.711C95.8308 243.711 95.057 253.363 94.1472 264.962C92.9134 280.72 89.5829 319.795 89.5829 319.795C89.5829 319.795 87.3974 321.657 82.5612 320.637C82.5612 320.637 78.4412 307.155 77.2126 291.769C77.1917 291.518 77.176 291.261 77.1551 291.01C76.01 275.347 74.2272 242.366 74.2272 242.366L95.8308 243.711Z" fill="#FC6625"/>
<path d="M96.0922 240.373C96.0922 240.373 95.057 253.358 94.1472 264.962L77.2126 291.774C77.1916 291.523 77.176 291.266 77.1551 291.015C76.01 275.352 74.2272 242.372 74.2272 242.372L96.0922 240.373Z" fill="#FC6625"/>
<path d="M91.1566 240.373C91.1566 240.373 78.8752 270.968 74.9487 282.561C72.1515 290.822 64.2619 319.8 64.2619 319.8C64.2619 319.8 60.8321 320.846 57.9513 318.827C57.9513 318.827 55.0182 289.221 60.9471 280.871C64.0946 276.44 61.7261 234.833 74.4781 234.472C87.2249 234.121 91.1566 240.373 91.1566 240.373Z" fill="#FC6625"/>
<path d="M85.6721 195.276C83.7951 196.265 81.9652 196.328 80.381 195.988C78.9275 195.684 77.6831 195.041 76.7943 194.476C75.8846 193.89 75.3513 193.382 75.3513 193.382C75.3513 193.382 75.414 193.293 75.5186 193.11C76.0728 192.163 77.7511 188.752 77.0086 183.28C76.9982 183.207 77.5367 183.306 78.3576 183.5C80.794 184.081 85.693 185.472 85.9126 185.53C85.9178 185.53 85.9178 185.53 85.9178 185.53C85.9178 185.53 85.9805 186.686 86.1792 188.747C86.2001 188.93 86.2158 189.119 86.2367 189.317C86.2629 189.558 86.289 189.814 86.3152 190.081C86.5452 192.226 85.6721 195.276 85.6721 195.276Z" fill="url(#paint7_linear)"/>
<path d="M97.7496 235.225C97.4829 238.73 96.7457 241.242 95.1197 241.242C95.1197 241.242 87.9046 243.784 79.2778 243.852C77.5942 243.863 75.2049 243.538 73.2233 243.203C71.1999 242.863 69.6 242.518 69.6 242.518C67.8642 242.115 65.9506 241.048 66.2068 239.065C66.3428 238.014 66.4421 236.659 66.5101 235.094C66.5153 234.995 66.5205 234.896 66.5258 234.791C66.714 230.208 66.6878 223.893 66.7088 217.846C66.7244 214.131 66.761 210.521 66.8865 207.477C66.8865 207.477 65.1821 195.517 67.0747 193.555C69.2916 191.258 76.444 190.589 76.5695 190.568C76.5695 190.568 82.2265 193.628 86.3413 191.316C86.3413 191.316 92.3434 192.713 94.0688 194.539C94.6648 195.166 97.0437 199.027 97.1065 203.265C97.1692 207.513 97.0699 212.175 97.0071 214.466C96.981 215.502 97.0071 216.532 97.0856 217.568C97.1326 218.165 97.1849 218.813 97.2424 219.509C97.3627 221.016 97.4986 222.716 97.6084 224.49C97.6659 225.384 97.7182 226.295 97.76 227.205C97.8907 230.02 97.9273 232.85 97.7496 235.225Z" fill="white"/>
<path d="M87.4131 185.242C87.4131 185.242 85.9178 185.781 84.0094 186.037C81.2175 186.414 77.5524 186.194 76.4022 182.815C74.4624 177.133 71.9842 173.722 77.6936 171.399C80.7522 170.159 82.7076 170.091 84.0356 170.567C85.191 170.975 85.8707 171.792 86.3831 172.602C87.4968 174.339 89.724 184.248 87.4131 185.242Z" fill="url(#paint8_linear)"/>
<path d="M86.8171 169.17C88.1085 169.484 88.6888 171.519 87.4601 172.362C85.259 173.879 82.5664 173.282 81.5782 173.722C80.1561 174.355 79.9051 176.735 79.879 177.494C79.8529 178.253 79.7535 178.891 77.8243 178.436C77.5106 178.362 77.2805 178.383 77.1237 178.477C76.3237 178.954 77.3485 181.255 77.657 181.752C77.657 181.752 78.1014 183.4 77.1132 184.206C76.993 184.3 75.0585 185.148 70.3948 178.007C69.6628 176.887 68.9622 174.36 70.0915 171.927C71.2208 169.495 74.7186 166.487 78.9118 166.487C82.237 166.492 84.0878 168.506 86.8171 169.17Z" fill="black"/>
<path d="M83.2931 228.366C83.9048 229.517 81.2697 231.035 81.2697 231.035C81.2697 231.035 73.9814 234.503 66.5101 235.089C66.5153 234.99 66.5205 234.89 66.5258 234.786C66.714 230.203 66.6878 223.888 66.7087 217.84C66.7087 217.846 82.284 226.467 83.2931 228.366Z" fill="#E5E5E5"/>
<path d="M96.9862 222.774C96.7928 222.026 96.2647 221.414 95.5641 221.089C94.6753 220.676 93.41 220.121 92.8349 220.017C91.899 219.844 89.9802 218.719 89.8234 219.305C89.6665 219.891 91.1775 220.571 91.1827 221.215C91.1932 221.863 86.9425 223.443 87.0523 224.113C87.1673 224.783 88.3751 226.284 90.022 225.881C91.669 225.479 95.7575 224.521 96.7039 224.254C97.2058 224.118 97.1535 223.423 96.9862 222.774Z" fill="#ED975D"/>
<path d="M93.6976 224.495C93.4675 224.872 92.3591 226.174 91.5905 226.31C89.8286 226.624 84.5375 227.733 84.5375 227.733C84.5375 227.733 84.0879 224.39 84.9662 224.139C85.8446 223.888 86.9791 221.942 87.5595 221.602C87.9987 221.34 89.7815 220.791 90.9213 220.697C91.0782 220.87 91.188 221.047 91.188 221.22C91.188 221.387 90.9109 221.618 90.4926 221.874C90.2782 221.994 90.0796 222.104 89.9332 222.198C89.7606 222.313 89.6665 222.402 89.7083 222.455C89.9227 222.711 90.6338 222.617 91.4389 222.371C92.2441 222.13 94.0636 221.011 94.5916 221.68C94.8896 222.068 94.7903 222.706 93.6976 224.495Z" fill="#FFB27D"/>
<path d="M73.8978 210.05C73.8978 210.05 73.7984 221.429 84.961 224.139C84.961 224.139 70.4314 224.887 70.0706 224.709C69.7099 224.532 67.2734 219.363 67.2734 219.363L73.8978 210.05Z" fill="#E5E5E5"/>
<path d="M67.4041 193.252C67.4041 193.252 63.8541 195.69 62.2176 203.479C60.5863 211.269 61.3444 226.525 63.4828 228.413C65.6212 230.307 75.9473 232.013 86.2524 227.461C86.2524 227.461 85.7714 224.908 84.961 224.134C84.961 224.134 73.2599 221.366 73.2024 219.556C73.1239 217.124 74.4833 210.234 73.7514 206.362C73.0142 202.496 67.4041 193.252 67.4041 193.252Z" fill="white"/>
<path d="M95.7837 219.556C95.7837 219.556 96.3065 217.359 96.6411 216.538C97.6816 213.985 93.4727 203.856 94.0113 204.154C94.5498 204.453 99.5324 214.743 99.3285 215.648C99.1194 216.553 97.4515 217.207 95.7837 219.556Z" fill="#E5E5E5"/>
<path d="M175.15 233.41C173.765 233.159 171.862 232.442 171.051 232.123V232.128C171.051 232.128 157.928 233.907 155.204 232.84C147.288 229.737 139.744 222.277 139.744 222.277L141.009 208.497C141.009 208.497 150.305 226.227 158.561 227.393C164.427 228.22 168.986 228.816 171.135 229.094H170.952C171.266 229.125 171.804 229.193 172.458 229.34L172.494 229.266C172.494 229.266 172.018 229.209 171.135 229.094C171.841 229.094 174.34 229.083 175.302 228.905C176.431 228.691 176.677 229.308 174.999 229.842C174.826 229.894 174.654 229.941 174.486 229.967C174.821 230.098 175.155 230.255 175.485 230.438C177.754 231.683 179.918 230.501 180.201 231.092C180.483 231.683 176.964 233.734 175.15 233.41Z" fill="url(#paint9_linear)"/>
<path d="M172.494 229.266L172.458 229.34C171.804 229.193 171.266 229.125 170.952 229.094H171.135C172.018 229.209 172.494 229.266 172.494 229.266Z" fill="url(#paint10_linear)"/>
<path d="M125.298 314.008C127.509 322.803 130.835 329.546 130.835 329.546L133.731 329.348C133.731 329.348 132.309 322.588 132.393 313.449C132.45 307.061 133.24 299.511 135.76 292.308C144.428 267.541 143.027 249.513 143.027 249.513L126.73 251.422L125.972 251.511C125.904 259.003 125.711 269.168 125.544 277.12C125.392 284.272 125.261 289.629 125.261 289.629C122.124 296.383 123.264 305.915 125.298 314.008Z" fill="white"/>
<path d="M116.049 307.919C116.64 317.953 120.179 328.479 120.179 328.479L122.391 330.091C122.391 330.091 123.703 323.038 124.629 314.652C125.512 306.679 126.72 298.24 128.09 295.666C133.527 285.454 135.158 246.902 135.158 246.902L118.632 246.081C116.969 248.875 116.148 253.457 116.075 258.673C115.96 266.578 118.506 285.826 118.098 290.241C117.905 292.883 115.5 298.575 116.049 307.919Z" fill="white"/>
<path d="M127.666 331.336C127.666 331.336 127.823 330.954 128.006 330.415C128.309 329.526 128.686 328.207 128.571 327.501C128.487 326.999 128.592 326.591 128.738 326.292C128.921 325.916 129.162 325.717 129.162 325.717C129.162 325.717 130.458 327.265 131.222 326.622C132.696 325.377 133.036 325.272 133.104 325.272L133.119 325.277C133.119 325.277 136.361 327.328 137.203 328.092C138.709 329.452 140.35 329.667 141.182 329.913C141.516 330.012 141.793 330.258 141.919 330.588C142.107 331.069 142.295 331.723 142.097 332.005H134.244C134.244 332.005 134.238 332 134.228 331.984C134.139 331.895 133.695 331.498 132.733 331.623C132.095 331.707 131.64 331.885 131.018 331.984H129.167C127.577 331.78 127.666 331.336 127.666 331.336Z" fill="#172142"/>
<path d="M117.795 331.336C117.795 331.336 117.947 330.954 118.13 330.415C118.433 329.526 118.809 328.207 118.694 327.501C118.611 326.999 118.715 326.591 118.862 326.292C119.045 325.916 119.285 325.717 119.285 325.717C119.285 325.717 120.582 327.265 121.345 326.622C122.819 325.377 123.159 325.272 123.227 325.272L123.243 325.277C123.243 325.277 126.485 327.328 127.326 328.092C128.832 329.452 130.474 329.667 131.305 329.913C131.645 330.012 131.917 330.258 132.042 330.588C132.231 331.069 132.419 331.723 132.22 332.005H124.367C124.367 332.005 124.362 332 124.351 331.984C124.263 331.895 123.818 331.498 122.856 331.623C122.218 331.707 121.763 331.885 121.146 331.984H119.296C117.706 331.78 117.795 331.336 117.795 331.336Z" fill="#172142"/>
<path d="M120.064 225.782C118.752 225.861 113.22 225.766 111.511 224.019C113.001 216.752 115.275 209.763 119.782 207.566C122.872 206.059 132.356 204.552 140.12 207.921C141.448 208.497 144.256 210.328 150.07 218.615C150.07 218.615 146.081 223.904 143.555 224.626C143.487 224.647 143.424 224.663 143.357 224.678C143.796 232.013 146.494 244.224 145.521 251.286C144.585 258.077 130.312 256.34 127.483 255.707C125.543 255.278 124.043 253.227 122.971 249.576C122.616 252.129 121.821 255.121 120.038 255.304C117.121 255.608 115.913 255.1 115.557 253.996C115.458 253.677 115.427 253.232 115.453 252.673C115.641 248.859 118.783 234.153 120.064 225.782Z" fill="#3A487F"/>
<path d="M137.93 187.146C137.93 187.146 130.087 177.719 125.936 183.751C125.936 183.751 122.84 185.038 121.716 190.311C120.571 195.695 124.153 199.786 125.998 198.776C127.185 198.128 128.085 200.205 128.085 200.205L137.93 187.146Z" fill="black"/>
<path d="M126.788 182.794C126.788 182.794 125.732 178.572 119.541 179.89C119.541 179.89 122.506 179.519 123.321 180.659C123.321 180.659 120.969 179.581 119.5 180.481C118.03 181.381 117.785 184.415 118.004 185.336C118.224 186.262 119.85 189.009 120.927 189.009C122.004 189.009 123.28 188.062 123.28 188.062L126.788 182.794Z" fill="black"/>
<path d="M134.991 203.788C134.986 205.232 135.07 206.414 134.719 206.99C134.311 207.665 130.819 210.49 126.898 206.043C126.898 206.043 128.137 203.485 128.116 198.985L128.513 199.053L135.148 200.21C135.148 200.21 134.996 202.051 134.991 203.788Z" fill="url(#paint11_linear)"/>
<path d="M127.823 198.337C127.823 198.337 125.878 195.261 125.413 192.629C125.078 190.751 126.035 183.793 133.025 184.792C133.025 184.792 135.054 184.991 136.962 186.283C138.478 187.308 140.669 189.521 138.222 195.595L137.584 197.646L127.823 198.337Z" fill="black"/>
<path d="M136.382 202.24C136.382 202.24 127.598 202.386 127.593 196.909C127.588 191.436 126.448 187.764 132.058 187.439C137.668 187.115 138.756 189.202 139.205 191.028C139.65 192.859 138.667 202.062 136.382 202.24Z" fill="url(#paint12_linear)"/>
<path d="M136.058 187.309C136.058 187.309 133.653 193.733 129.961 194.68C126.27 195.632 124.67 194.638 124.67 194.638C124.67 194.638 127.499 192.388 128.09 188.459C128.09 188.465 134.243 184.253 136.058 187.309Z" fill="black"/>
<path d="M135.462 187.832C135.462 187.832 137.26 189.265 137.694 190.662C138.133 192.059 138.327 194.926 139.163 194.826C139.163 194.826 140.978 190.463 138.939 187.989C136.785 185.368 135.462 187.832 135.462 187.832Z" fill="black"/>
<path d="M135.796 188.046C135.796 188.046 134.081 194.774 129.428 196.924C129.428 196.924 134.087 192.791 134.479 188.35C134.876 183.913 135.796 188.046 135.796 188.046Z" fill="black"/>
<path d="M172.494 229.266L172.458 229.34C171.804 229.193 171.266 229.125 170.952 229.094H171.135C172.018 229.209 172.494 229.266 172.494 229.266Z" fill="url(#paint13_linear)"/>
<path d="M213.077 221.649C213.082 221.529 213.082 221.414 213.045 221.246C213.051 221.199 213.04 221.147 213.014 221.032C213.014 221.032 213.014 221.032 212.998 221.021C212.998 220.948 212.951 220.869 212.951 220.796C212.815 220.372 212.559 219.943 212.193 219.619C212.188 219.593 212.172 219.582 212.136 219.556C212.089 219.478 212.031 219.42 211.963 219.373C211.628 219.112 211.231 218.908 210.844 218.808C210.687 218.756 210.525 218.751 210.374 218.724C210.311 218.709 210.212 218.719 210.149 218.704C209.223 218.693 208.34 219.07 207.718 219.828C207.362 220.278 207.158 220.749 207.101 221.288L207.09 221.304C206.97 221.947 207.106 222.638 207.441 223.234C207.624 223.543 207.848 223.831 208.152 224.071C208.46 224.338 208.805 224.511 209.15 224.61C210.3 224.982 211.618 224.636 212.402 223.621C212.873 223.062 213.103 222.36 213.077 221.649ZM211.801 220.383L211.817 220.393C211.817 220.467 211.791 220.545 211.733 220.603C211.717 220.665 211.696 220.702 211.676 220.733C211.665 220.749 211.644 220.786 211.602 220.807C211.398 221.016 211.043 221.053 210.802 220.828C210.625 220.692 210.567 220.488 210.578 220.278C210.572 220.179 210.619 220.064 210.713 219.954C210.724 219.938 210.734 219.917 210.761 219.912C210.855 219.802 210.985 219.745 211.09 219.734C211.1 219.719 211.116 219.729 211.147 219.724L211.184 219.745C211.325 219.713 211.466 219.755 211.592 219.86C211.743 219.985 211.832 220.184 211.801 220.383Z" fill="#FBB03B"/>
<path d="M208.016 225.034L207.352 225.85V226.823L206.787 227.519L205.935 226.823L205.637 227.195L206.489 227.885L206.254 228.173L206.039 228L205.6 228.544L205.224 228.236L204.952 228.57L205.543 229.057L205.14 229.549L204.481 229.685L204.105 229.376L203.702 229.873L202.704 229.062L207.692 222.915L209.396 224.307L208.492 225.421L208.016 225.034Z" fill="#FBB03B"/>
<path d="M219.215 219.577C218.582 218.311 217.181 217.663 215.858 217.976C215.701 217.997 215.55 218.044 215.419 218.107C215.32 218.118 215.231 218.18 215.163 218.212C214.128 218.709 213.516 219.719 213.474 220.801C213.458 220.938 213.479 221.094 213.485 221.241C213.547 221.591 213.61 221.947 213.783 222.272C214.326 223.412 215.539 224.061 216.731 223.951C217.108 223.925 217.463 223.815 217.809 223.648C218.164 223.464 218.457 223.266 218.703 222.988L218.713 222.973C219.539 222.068 219.759 220.713 219.215 219.577ZM215.968 219.875C215.822 219.954 215.649 219.964 215.513 219.875C215.336 219.86 215.21 219.755 215.142 219.593C215.001 219.29 215.121 218.908 215.44 218.745C215.498 218.73 215.545 218.693 215.607 218.709C215.634 218.704 215.691 218.688 215.728 218.709C215.79 218.725 215.832 218.73 215.869 218.751C216.047 218.766 216.183 218.855 216.266 219.028C216.423 219.342 216.303 219.724 215.968 219.875Z" fill="#FBB03B"/>
<path d="M218.598 224.144L219.058 225.086L219.936 225.489L220.323 226.289L219.335 226.781L219.544 227.205L220.532 226.713L220.695 227.048L220.444 227.168L220.747 227.796L220.308 228.011L220.496 228.398L221.186 228.058L221.463 228.628L221.306 229.282L220.867 229.502L221.144 230.077L219.989 230.647L216.543 223.564L218.525 222.585L219.152 223.872L218.598 224.144Z" fill="#FBB03B"/>
<path d="M215.816 217.778C215.623 216.956 215.053 216.307 214.342 215.999L214.305 215.978C213.762 215.706 213.098 215.622 212.434 215.8C212.366 215.831 212.293 215.831 212.235 215.889C212.031 215.952 211.859 216.035 211.717 216.14C211.597 216.182 211.508 216.245 211.398 216.344L211.388 216.36C211.027 216.663 210.755 217.019 210.583 217.438L210.551 217.49C210.515 217.657 210.457 217.793 210.426 217.914C210.431 217.94 210.431 217.94 210.421 217.961L210.41 217.976C210.374 218.217 210.342 218.463 210.368 218.719C210.363 218.766 210.384 218.85 210.405 218.887C210.421 218.97 210.447 219.08 210.468 219.164C210.51 219.358 210.572 219.567 210.682 219.734C210.682 219.807 210.724 219.855 210.745 219.896L210.761 219.907C210.865 220.116 211.022 220.289 211.168 220.43L211.184 220.44C211.315 220.571 211.446 220.702 211.602 220.801C211.639 220.781 211.665 220.744 211.676 220.728C211.696 220.692 211.717 220.66 211.733 220.597C211.796 220.54 211.822 220.461 211.817 220.388L211.801 220.378C211.561 220.226 211.336 219.985 211.179 219.739L211.142 219.719C211.059 219.546 210.996 219.384 210.944 219.206C210.902 219.154 210.907 219.112 210.897 219.054C210.865 218.986 210.844 218.876 210.839 218.803C210.797 218.536 210.823 218.264 210.876 218.034C210.865 217.976 210.876 217.961 210.881 217.914C210.881 217.914 210.881 217.914 210.891 217.898C210.907 217.835 210.933 217.757 210.975 217.689L210.985 217.673C210.98 217.647 210.98 217.647 210.991 217.626L211.001 217.61C211.179 217.145 211.529 216.742 211.974 216.491C212.036 216.433 212.089 216.423 212.183 216.386L212.209 216.381C212.298 216.318 212.449 216.266 212.559 216.239C213.809 215.926 215.037 216.658 215.372 217.903C215.382 217.961 215.403 218.044 215.414 218.097C215.545 218.039 215.696 217.987 215.853 217.966L215.816 217.778ZM215.869 218.751C215.89 218.714 215.874 218.704 215.884 218.688C215.837 218.683 215.79 218.725 215.728 218.709C215.691 218.688 215.639 218.698 215.607 218.709C215.545 218.693 215.497 218.735 215.44 218.745C215.388 219.049 215.304 219.337 215.142 219.593C214.854 220.158 214.332 220.571 213.694 220.744L213.469 220.796C213.296 220.807 213.103 220.807 212.941 220.796C212.941 220.87 212.988 220.948 212.988 221.021C213.004 221.105 213.035 221.173 213.035 221.246C213.098 221.262 213.187 221.272 213.244 221.257L213.26 221.267C213.359 221.257 213.417 221.246 213.474 221.23C213.584 221.204 213.688 221.199 213.809 221.152C214.546 220.969 215.121 220.514 215.482 219.907L215.503 219.87C215.701 219.535 215.822 219.159 215.869 218.751Z" fill="#FBB03B"/>
<path d="M126.066 261.948C125.784 262.011 125.465 261.922 125.177 261.786C125.449 262.545 125.57 263.35 125.272 263.989C124.482 265.689 123.044 267.473 122.584 267.044C122.035 266.542 122.004 265.605 122.061 264.386C122.114 263.167 120.383 262.362 120.676 259.578C120.676 259.578 112.253 243.026 111.798 240.138C110.475 231.736 114.287 217.982 114.287 217.982L123.316 221.215C123.316 221.215 117.466 237.103 118.496 240.64C120.838 248.65 123.87 259.38 123.87 259.38C123.87 259.38 123.87 259.38 123.876 259.385C124.032 259.51 126.824 261.781 126.066 261.948Z" fill="url(#paint14_linear)"/>
<path d="M111.511 224.019C111.511 224.019 115.573 227.54 124.639 226.049C133.705 224.558 125.115 219.881 124.639 219.781C124.163 219.682 114.747 214.503 114.747 214.503L111.511 224.019Z" fill="#3A487F"/>
</g>
<defs>
<linearGradient id="paint0_linear" x1="352.661" y1="372.963" x2="114.536" y2="116.1" gradientUnits="userSpaceOnUse">
<stop stop-color="#DAE3FE"/>
<stop offset="1" stop-color="#E9EFFD"/>
</linearGradient>
<linearGradient id="paint1_linear" x1="211.867" y1="216.927" x2="221.672" y2="216.927" gradientUnits="userSpaceOnUse">
<stop stop-color="#FEBBBA"/>
<stop offset="1" stop-color="#FF928E"/>
</linearGradient>
<linearGradient id="paint2_linear" x1="254.033" y1="232.708" x2="260.619" y2="232.708" gradientUnits="userSpaceOnUse">
<stop stop-color="#FEBBBA"/>
<stop offset="1" stop-color="#FF928E"/>
</linearGradient>
<linearGradient id="paint3_linear" x1="248.39" y1="195.88" x2="257.026" y2="195.88" gradientUnits="userSpaceOnUse">
<stop stop-color="#FEBBBA"/>
<stop offset="1" stop-color="#FF928E"/>
</linearGradient>
<linearGradient id="paint4_linear" x1="248.476" y1="193.711" x2="255.464" y2="193.711" gradientUnits="userSpaceOnUse">
<stop stop-color="#FEBBBA"/>
<stop offset="1" stop-color="#FF928E"/>
</linearGradient>
<linearGradient id="paint5_linear" x1="244.089" y1="186.419" x2="256.533" y2="186.419" gradientUnits="userSpaceOnUse">
<stop stop-color="#FEBBBA"/>
<stop offset="1" stop-color="#FF928E"/>
</linearGradient>
<linearGradient id="paint6_linear" x1="255.954" y1="230.349" x2="259.686" y2="230.349" gradientUnits="userSpaceOnUse">
<stop stop-color="#FEBBBA"/>
<stop offset="1" stop-color="#FF928E"/>
</linearGradient>
<linearGradient id="paint7_linear" x1="75.3492" y1="189.715" x2="86.3516" y2="189.715" gradientUnits="userSpaceOnUse">
<stop stop-color="#FEBBBA"/>
<stop offset="1" stop-color="#FF928E"/>
</linearGradient>
<linearGradient id="paint8_linear" x1="74.1619" y1="178.231" x2="88.4238" y2="178.231" gradientUnits="userSpaceOnUse">
<stop stop-color="#FEBBBA"/>
<stop offset="1" stop-color="#FF928E"/>
</linearGradient>
<linearGradient id="paint9_linear" x1="139.742" y1="220.97" x2="180.215" y2="220.97" gradientUnits="userSpaceOnUse">
<stop stop-color="#FEBBBA"/>
<stop offset="1" stop-color="#FF928E"/>
</linearGradient>
<linearGradient id="paint10_linear" x1="170.95" y1="229.217" x2="172.492" y2="229.217" gradientUnits="userSpaceOnUse">
<stop stop-color="#FEBBBA"/>
<stop offset="1" stop-color="#FF928E"/>
</linearGradient>
<linearGradient id="paint11_linear" x1="126.895" y1="203.741" x2="135.146" y2="203.741" gradientUnits="userSpaceOnUse">
<stop stop-color="#FEBBBA"/>
<stop offset="1" stop-color="#FF928E"/>
</linearGradient>
<linearGradient id="paint12_linear" x1="127.496" y1="194.824" x2="139.309" y2="194.824" gradientUnits="userSpaceOnUse">
<stop stop-color="#FEBBBA"/>
<stop offset="1" stop-color="#FF928E"/>
</linearGradient>
<linearGradient id="paint13_linear" x1="170.95" y1="229.217" x2="172.492" y2="229.217" gradientUnits="userSpaceOnUse">
<stop stop-color="#FEBBBA"/>
<stop offset="1" stop-color="#FF928E"/>
</linearGradient>
<linearGradient id="paint14_linear" x1="111.517" y1="242.545" x2="126.194" y2="242.545" gradientUnits="userSpaceOnUse">
<stop stop-color="#FEBBBA"/>
<stop offset="1" stop-color="#FF928E"/>
</linearGradient>
<clipPath id="clip0">
<rect width="314" height="332" fill="white"/>
</clipPath>
</defs>
</svg>
