<svg width="117" height="117" viewBox="0 0 117 117" fill="none" xmlns="http://www.w3.org/2000/svg">
<path fill-rule="evenodd" clip-rule="evenodd" d="M101.971 97.7809C111.313 87.3995 117 73.6546 117 58.5797C117 26.2271 90.8087 9.15527e-05 58.5 9.15527e-05C26.1913 9.15527e-05 0 26.2271 0 58.5797C0 73.3147 5.43302 86.7791 14.4025 97.0736C21.9192 89.0482 35.1857 81.9797 57.8641 81.9797C81.2065 81.9797 94.5778 89.4681 101.971 97.7809ZM95.6474 103.835C95.2287 103.354 94.7821 102.874 94.3058 102.397C88.6052 96.6883 77.8773 90.7348 57.8641 90.7348C37.8422 90.7348 27.123 96.6883 21.4224 102.397C21.1471 102.672 20.8817 102.949 20.6259 103.227C29.7989 111.037 41.4095 116.063 54.1548 117H62.8452C75.2562 116.088 86.5913 111.298 95.6474 103.835ZM70.2289 59.3409C66.9495 62.6247 62.5018 64.4695 57.8641 64.4695C53.2264 64.4695 48.7787 62.6247 45.4994 59.3409C42.22 56.0571 40.3777 51.6033 40.3777 46.9593C40.3777 42.3153 42.22 37.8615 45.4994 34.5777C48.7787 31.2939 53.2264 29.4491 57.8641 29.4491C62.5018 29.4491 66.9495 31.2939 70.2289 34.5777C73.5082 37.8615 75.3505 42.3153 75.3505 46.9593C75.3505 51.6033 73.5082 56.0571 70.2289 59.3409ZM76.4113 65.5317C81.3303 60.606 84.0937 53.9253 84.0937 46.9593C84.0937 39.9933 81.3303 33.3126 76.4113 28.3869C71.4923 23.4612 64.8206 20.694 57.8641 20.694C50.9076 20.694 44.236 23.4612 39.317 28.3869C34.398 33.3126 31.6345 39.9933 31.6345 46.9593C31.6345 53.9253 34.398 60.606 39.317 65.5317C44.236 70.4574 50.9076 73.2246 57.8641 73.2246C64.8206 73.2246 71.4923 70.4574 76.4113 65.5317Z" fill="#3A487F"/>
</svg>
