<svg width="28" height="26" viewBox="0 0 28 26" fill="none" xmlns="http://www.w3.org/2000/svg">
<path d="M18.875 24.75C18.875 24.9 18.8751 24.9 18.8752 24.9H18.8754L18.8759 24.9L18.8774 24.9L18.8821 24.8999L18.8982 24.8995C18.9119 24.8991 18.9313 24.8982 18.9555 24.8964C19.0039 24.893 19.0721 24.8861 19.1536 24.8726C19.3157 24.8455 19.5343 24.7912 19.7546 24.681C19.9755 24.5706 20.201 24.4025 20.3709 24.1477C20.5414 23.8918 20.65 23.5575 20.65 23.125C20.65 22.274 20.2288 20.6104 18.7779 19.1596C17.3227 17.7043 14.8441 16.475 10.75 16.475C6.65587 16.475 4.17735 17.7043 2.72206 19.1596C1.27117 20.6104 0.85 22.274 0.85 23.125C0.85 23.5575 0.958555 23.8918 1.1291 24.1477C1.29902 24.4025 1.5245 24.5706 1.74542 24.681C1.96575 24.7912 2.18427 24.8455 2.34643 24.8726C2.42787 24.8861 2.49607 24.893 2.54449 24.8964C2.56872 24.8982 2.58808 24.8991 2.60175 24.8995L2.61792 24.8999L2.62263 24.9L2.62411 24.9L2.62463 24.9H2.62483C2.62492 24.9 2.625 24.9 2.625 24.75V24.9H18.875V24.75ZM17.4169 20.5206C18.3739 21.4775 18.6632 22.5072 18.7156 22.975H2.7848C2.83813 22.5065 3.12653 21.4771 4.08307 20.5206C5.10921 19.4944 7.06048 18.4 10.75 18.4C14.4379 18.4 16.3908 19.4944 17.4169 20.5206ZM12.942 12.317C12.3607 12.8984 11.5722 13.225 10.75 13.225C9.92783 13.225 9.13933 12.8984 8.55797 12.317C7.97661 11.7357 7.65 10.9472 7.65 10.125C7.65 9.30283 7.97661 8.51433 8.55797 7.93297C9.13933 7.35161 9.92783 7.025 10.75 7.025C11.5722 7.025 12.3607 7.35161 12.942 7.93297C13.5234 8.51433 13.85 9.30283 13.85 10.125C13.85 10.9472 13.5234 11.7357 12.942 12.317ZM14.3032 13.6782C15.2456 12.7358 15.775 11.4577 15.775 10.125C15.775 8.79229 15.2456 7.51416 14.3032 6.57179C13.3608 5.62942 12.0827 5.1 10.75 5.1C9.41729 5.1 8.13916 5.62942 7.19679 6.57179C6.25442 7.51416 5.725 8.79229 5.725 10.125C5.725 11.4577 6.25442 12.7358 7.19679 13.6782C8.13916 14.6206 9.41729 15.15 10.75 15.15C12.0827 15.15 13.3608 14.6206 14.3032 13.6782Z" fill="#3A487F" stroke="#3A487F" stroke-width="0.3"/>
<path d="M23.7573 8.68262L25.2661 6.0752H27.2437L24.8193 9.979L27.3242 14H25.3613L23.7793 11.29L22.2046 14H20.2271L22.7319 9.979L20.3149 6.0752H22.2778L23.7573 8.68262Z" fill="#3A487F"/>
<path d="M23.7573 8.68262L23.4964 8.83067L23.7548 9.28602L24.017 8.83287L23.7573 8.68262ZM25.2661 6.0752V5.7752H25.0931L25.0065 5.92494L25.2661 6.0752ZM27.2437 6.0752L27.4985 6.23346L27.7831 5.7752H27.2437V6.0752ZM24.8193 9.979L24.5645 9.82074L24.466 9.97925L24.5647 10.1376L24.8193 9.979ZM27.3242 14V14.3H27.8646L27.5789 13.8414L27.3242 14ZM25.3613 14L25.1022 14.1512L25.1891 14.3H25.3613V14ZM23.7793 11.29L24.0384 11.1388L23.7787 10.694L23.5199 11.1393L23.7793 11.29ZM22.2046 14V14.3H22.3772L22.464 14.1507L22.2046 14ZM20.2271 14L19.9724 13.8414L19.6867 14.3H20.2271V14ZM22.7319 9.979L22.9866 10.1376L23.0851 9.97949L22.987 9.82108L22.7319 9.979ZM20.3149 6.0752V5.7752H19.7764L20.0599 6.23312L20.3149 6.0752ZM22.2778 6.0752L22.5388 5.92714L22.4525 5.7752H22.2778V6.0752ZM24.017 8.83287L25.5258 6.22545L25.0065 5.92494L23.4977 8.53236L24.017 8.83287ZM25.2661 6.3752H27.2437V5.7752H25.2661V6.3752ZM26.9888 5.91693L24.5645 9.82074L25.0742 10.1373L27.4985 6.23346L26.9888 5.91693ZM24.5647 10.1376L27.0696 14.1586L27.5789 13.8414L25.074 9.82038L24.5647 10.1376ZM27.3242 13.7H25.3613V14.3H27.3242V13.7ZM25.6204 13.8488L24.0384 11.1388L23.5202 11.4413L25.1022 14.1512L25.6204 13.8488ZM23.5199 11.1393L21.9452 13.8493L22.464 14.1507L24.0387 11.4408L23.5199 11.1393ZM22.2046 13.7H20.2271V14.3H22.2046V13.7ZM20.4817 14.1586L22.9866 10.1376L22.4773 9.82038L19.9724 13.8414L20.4817 14.1586ZM22.987 9.82108L20.57 5.91727L20.0599 6.23312L22.4769 10.1369L22.987 9.82108ZM20.3149 6.3752H22.2778V5.7752H20.3149V6.3752ZM22.0169 6.22325L23.4964 8.83067L24.0182 8.53457L22.5388 5.92714L22.0169 6.22325Z" fill="#3A487F"/>
</svg>
