<svg width="25" height="25" viewBox="0 0 25 25" fill="none" xmlns="http://www.w3.org/2000/svg">
<path d="M0.85 18.8129L0.893934 18.7689L9.27103 10.3918C8.95461 9.30242 8.89069 8.15476 9.08464 7.03622C9.28373 5.88803 9.749 4.80245 10.4432 3.86645C11.1374 2.93046 12.0411 2.17008 13.0821 1.64626C14.123 1.12245 15.2722 0.849744 16.4375 0.85L0.85 18.8129ZM0.85 18.8129V18.875M0.85 18.8129V18.875M0.85 18.875V23.75V23.9M0.85 18.875V23.9M0.85 23.9H1M0.85 23.9H1M1 23.9H5.875H5.93713M1 23.9H5.93713M5.93713 23.9L5.98107 23.8561M5.93713 23.9L5.98107 23.8561M5.98107 23.8561L14.3582 15.479M5.98107 23.8561L14.3582 15.479M14.3582 15.479C15.3588 15.7695 16.4095 15.8474 17.4426 15.7072C18.5055 15.563 19.5248 15.1913 20.4311 14.6175C21.3374 14.0437 22.1094 13.2813 22.6944 12.3821C23.2793 11.483 23.6636 10.4683 23.821 9.40727C23.9783 8.34621 23.9051 7.26369 23.6062 6.23348C23.3074 5.20328 22.79 4.24961 22.0892 3.43747C21.3885 2.62532 20.5209 1.97379 19.5456 1.52727C18.5703 1.08077 17.5102 0.849761 16.4375 0.85L14.3582 15.479ZM13.8981 13.3283L13.8121 13.3022L13.7485 13.3658L13.0603 14.054L10.5818 16.5325L9.5674 15.5189L9.46134 15.4129L9.35531 15.5189L8.20643 16.6678L8.10037 16.7739L8.20643 16.8799L9.22081 17.8943L8.14431 18.9708L7.12994 17.9564L7.02387 17.8504L6.91781 17.9564L5.76893 19.1053L5.66287 19.2114L5.76893 19.3174L6.78331 20.3318L5.14012 21.975H2.775V19.6099L10.6951 11.6898L10.6952 11.6897L11.3841 11.0016L11.4478 10.938L11.4217 10.8519L11.1389 9.91995C10.8008 8.80533 10.8228 7.61247 11.2017 6.51105C11.5806 5.40962 12.2972 4.45573 13.2495 3.78506C14.2018 3.11439 15.3414 2.76109 16.5061 2.77542C17.6708 2.78975 18.8013 3.17098 19.7368 3.86487C20.6724 4.55877 21.3653 5.53 21.717 6.64041C22.0687 7.75082 22.0613 8.94387 21.6959 10.0498C21.3304 11.1558 20.6256 12.1184 19.6815 12.8006C18.7375 13.4829 17.6023 13.8501 16.4376 13.85C15.8929 13.8497 15.3513 13.7692 14.83 13.6111L13.8981 13.3283Z" fill="#3A487F" stroke="#3A487F" stroke-width="0.3"/>
<path d="M17.25 9.275C18.2303 9.275 19.025 8.48031 19.025 7.5C19.025 6.51969 18.2303 5.725 17.25 5.725C16.2697 5.725 15.475 6.51969 15.475 7.5C15.475 8.48031 16.2697 9.275 17.25 9.275Z" fill="#3A487F" stroke="#3A487F" stroke-width="0.3"/>
</svg>
