<svg width="28" height="21" viewBox="0 0 28 21" fill="none" xmlns="http://www.w3.org/2000/svg">
<path d="M19.5563 8.44368L19.5564 8.44373L21.3125 10.2014L25.506 6.00632L19.5563 8.44368ZM19.5563 8.44368C19.3756 8.26299 19.1305 8.16147 18.875 8.16147C18.6195 8.16147 18.3744 8.26299 18.1937 8.44368C18.013 8.62438 17.9115 8.86946 17.9115 9.125C17.9115 9.38054 18.013 9.62562 18.1937 9.80632L20.6311 12.2437C20.7205 12.3333 20.8267 12.4044 20.9436 12.453C21.0605 12.5015 21.1859 12.5265 21.3125 12.5265C21.4391 12.5265 21.5645 12.5015 21.6814 12.453C21.7983 12.4044 21.9045 12.3333 21.9939 12.2437L26.8687 7.36895L19.5563 8.44368ZM26.869 6.00632C26.9585 6.09567 27.0295 6.20179 27.078 6.31861C27.1265 6.43554 27.1515 6.5609 27.1515 6.6875C27.1515 6.8141 27.1265 6.93946 27.078 7.05639C27.0295 7.17327 26.9584 7.27944 26.8688 7.36882L26.869 6.00632ZM26.869 6.00632C26.7795 5.91668 26.6733 5.84557 26.5564 5.79705C26.4395 5.74852 26.3141 5.72355 26.1875 5.72355C26.0609 5.72355 25.9355 5.74852 25.8186 5.79705C25.7017 5.84555 25.5955 5.91662 25.5062 6.0062L26.869 6.00632ZM18.875 20.5C18.875 20.65 18.8751 20.65 18.8752 20.65H18.8754L18.8759 20.65L18.8774 20.65L18.8821 20.6499L18.8982 20.6495C18.9119 20.6491 18.9313 20.6482 18.9555 20.6464C19.0039 20.643 19.0721 20.6361 19.1536 20.6226C19.3157 20.5955 19.5343 20.5412 19.7546 20.431C19.9755 20.3206 20.201 20.1525 20.3709 19.8977C20.5414 19.6418 20.65 19.3075 20.65 18.875C20.65 18.024 20.2288 16.3604 18.7779 14.9096C17.3227 13.4543 14.8441 12.225 10.75 12.225C6.65587 12.225 4.17735 13.4543 2.72206 14.9096C1.27117 16.3604 0.85 18.024 0.85 18.875C0.85 19.3075 0.958555 19.6418 1.1291 19.8977C1.29902 20.1525 1.5245 20.3206 1.74542 20.431C1.96575 20.5412 2.18427 20.5955 2.34643 20.6226C2.42787 20.6361 2.49607 20.643 2.54449 20.6464C2.56872 20.6482 2.58808 20.6491 2.60175 20.6495L2.61792 20.6499L2.62263 20.65L2.62411 20.65L2.62463 20.65H2.62483C2.62492 20.65 2.625 20.65 2.625 20.5V20.65H18.875V20.5ZM17.4169 16.2706C18.3739 17.2275 18.6632 18.2572 18.7156 18.725H2.7848C2.83813 18.2565 3.12653 17.2271 4.08307 16.2706C5.10921 15.2444 7.06048 14.15 10.75 14.15C14.4379 14.15 16.3908 15.2444 17.4169 16.2706ZM12.942 8.06703C12.3607 8.64839 11.5722 8.975 10.75 8.975C9.92783 8.975 9.13933 8.64839 8.55797 8.06703C7.97661 7.48567 7.65 6.69717 7.65 5.875C7.65 5.05283 7.97661 4.26433 8.55797 3.68297C9.13933 3.10161 9.92783 2.775 10.75 2.775C11.5722 2.775 12.3607 3.10161 12.942 3.68297C13.5234 4.26433 13.85 5.05283 13.85 5.875C13.85 6.69717 13.5234 7.48567 12.942 8.06703ZM14.3032 9.42821C15.2456 8.48584 15.775 7.20771 15.775 5.875C15.775 4.54229 15.2456 3.26416 14.3032 2.32179C13.3608 1.37942 12.0827 0.85 10.75 0.85C9.41729 0.85 8.13916 1.37942 7.19679 2.32179C6.25442 3.26416 5.725 4.54229 5.725 5.875C5.725 7.20771 6.25442 8.48584 7.19679 9.42821C8.13916 10.3706 9.41729 10.9 10.75 10.9C12.0827 10.9 13.3608 10.3706 14.3032 9.42821Z" fill="#3A487F" stroke="#3A487F" stroke-width="0.3"/>
</svg>
