<svg width="26" height="26" viewBox="0 0 26 26" fill="none" xmlns="http://www.w3.org/2000/svg">
<path d="M3.09163 12.0322L2.83556 12.2882L2.89047 12.2882C2.76098 12.501 2.69086 12.7469 2.69086 13C2.69086 13.363 2.83506 13.7111 3.09173 13.9678L3.1978 13.8618L3.09173 13.9678L7.3565 18.2326C7.35665 18.2327 7.35679 18.2329 7.35694 18.233C7.48357 18.3616 7.63438 18.4639 7.80069 18.534C7.96719 18.6041 8.14594 18.6406 8.32662 18.6414C8.50731 18.6421 8.68635 18.6071 8.85342 18.5383C9.02049 18.4695 9.17229 18.3683 9.30005 18.2405C9.42781 18.1127 9.52902 17.9609 9.59782 17.7939C9.66663 17.6268 9.70167 17.4478 9.70094 17.2671C9.7002 17.0864 9.6637 16.9076 9.59354 16.7411C9.52346 16.5748 9.42118 16.424 9.29259 16.2974C9.29244 16.2972 9.29229 16.2971 9.29214 16.2969L7.36395 14.3688L15.4375 14.3687C15.8005 14.3687 16.1487 14.2245 16.4054 13.9679C16.662 13.7112 16.8062 13.363 16.8062 13C16.8062 12.637 16.662 12.2888 16.4054 12.0321C16.1487 11.7755 15.8005 11.6313 15.4375 11.6313L7.36395 11.6313L9.29272 9.70248C9.29278 9.70242 9.29284 9.70236 9.2929 9.7023C9.42048 9.57536 9.52177 9.42451 9.59098 9.25837C9.66022 9.09216 9.69598 8.91391 9.69622 8.73385C9.69646 8.55379 9.66117 8.37546 9.59237 8.20906C9.52357 8.04266 9.42262 7.89147 9.2953 7.76415C9.16797 7.63683 9.01677 7.53589 8.85037 7.4671C8.68397 7.39831 8.50563 7.36303 8.32557 7.36328C8.14551 7.36353 7.96727 7.39931 7.80106 7.46856C7.63485 7.53781 7.48393 7.63917 7.35696 7.76684L3.09163 12.0322ZM13.8125 5.43125L20.5687 5.43125L20.5687 20.5687L13.8125 20.5688C13.4495 20.5688 13.1013 20.713 12.8446 20.9696C12.588 21.2263 12.4438 21.5745 12.4438 21.9375C12.4438 22.3005 12.588 22.6487 12.8446 22.9054C13.1013 23.162 13.4495 23.3063 13.8125 23.3063L21.125 23.3063L21.1252 23.3063C21.7034 23.3056 22.2578 23.0756 22.6667 22.6667C23.0756 22.2578 23.3056 21.7034 23.3062 21.1252L23.3062 21.125L23.3062 4.875L23.3062 4.87483C23.3056 4.29657 23.0756 3.74217 22.6667 3.33327C22.2578 2.92438 21.7034 2.69438 21.1252 2.69375L21.125 2.69375L13.8125 2.69375C13.4495 2.69375 13.1013 2.83796 12.8446 3.09465C12.588 3.35134 12.4437 3.69948 12.4437 4.0625C12.4437 4.42551 12.588 4.77366 12.8446 5.03035C13.1013 5.28704 13.4495 5.43125 13.8125 5.43125Z" fill="#3A487F" stroke="#3A487F" stroke-width="0.3"/>
</svg>
