<svg width="354" height="245" viewBox="0 0 354 245" fill="none" xmlns="http://www.w3.org/2000/svg">
<g clip-path="url(#clip0)">
<path d="M339.931 243.61L195.192 243.644L163.511 243.653L153.036 243.657L121.414 243.665L2.79061 244.227C2.7146 243.978 2.6386 243.733 2.56682 243.488C-10.2734 200.784 28.7033 201.316 39.4704 188.045C43.3043 183.323 43.5619 176.849 36.6372 166.053C36.6034 166.003 36.5696 165.952 36.5359 165.897C32.4064 159.431 29.4 153.083 27.4113 146.883C23.2438 133.895 23.5352 121.554 27.2846 110.146C30.1263 101.5 34.9567 93.3912 41.3409 85.9493C43.8279 83.0478 46.5471 80.2518 49.4817 77.5614C108.384 23.5125 252.038 13.2704 271.912 107.701C283.182 161.238 301.009 130.263 337.676 168.3C349.777 180.857 353.86 193.642 353.995 205.024C354.253 226.898 339.931 243.61 339.931 243.61Z" fill="white"/>
<path d="M164.187 97.5895C163.782 100.516 163.076 103.612 162.042 106.89C160.125 112.967 157.081 119.658 152.74 126.998C151.828 128.544 151.051 130.001 150.405 131.386L27.4114 146.878C23.2439 133.891 23.5353 121.55 27.2848 110.142L159.737 74.474C161.958 77.8866 163.49 81.768 164.187 86.1563C164.74 89.645 164.761 93.4462 164.187 97.5895Z" fill="white"/>
<path d="M339.931 243.61L195.192 243.644L163.511 243.653L153.036 243.657L121.414 243.665L2.79061 244.227C2.7146 243.978 2.6386 243.733 2.56682 243.488C-10.2734 200.784 28.7033 201.316 39.4704 188.045C43.3043 183.323 43.5619 176.849 36.6372 166.053C36.6034 166.003 36.5696 165.952 36.5359 165.897C74.3388 150.321 74.1995 151.993 114.506 158.734C164.246 167.054 205.186 176.722 225.462 166.226C245.734 155.731 289.439 163.308 301.461 178.424C313.477 193.536 310.809 208.513 323.273 207.258C332.166 206.363 343.321 202.017 354 205.024C354.253 226.898 339.931 243.61 339.931 243.61Z" fill="#DDE8FD"/>
<path d="M106.382 170.64C106.382 170.64 89.2012 167.806 77.539 177.389C65.8768 186.973 72.7677 203.343 63.1407 205.459C49.2575 208.513 11.7248 214.067 20.6636 242.922C21.5799 245.878 118.116 242.922 118.116 242.922L113.953 178.242L106.382 170.64Z" fill="#77A4E5"/>
<path d="M246.545 192.387C246.545 192.387 267.061 188.637 281.303 200.302C295.549 211.968 289.055 221.551 296.685 224.051C304.315 226.551 315.103 231.442 312.684 243.788H243.745L246.545 192.387Z" fill="#77A4E5"/>
<path d="M330.953 243.64H321.685C321.187 243.218 322.027 242.263 322.905 242.196C323.285 242.166 323.771 242.246 324.32 242.364C324.446 240.671 325.177 233.052 327.921 233.36C331.008 233.702 327.921 236.713 327.047 238.5C326.401 239.822 325.717 241.714 325.409 242.609C325.658 242.664 325.92 242.715 326.186 242.766C326.596 241.507 328.116 237.284 330.054 237.529C332.325 237.816 331.413 239.514 329.8 240.519C328.618 241.258 327.166 242.31 326.477 242.816C327.06 242.914 327.672 242.977 328.289 242.96C329.876 242.918 330.653 243.387 330.953 243.64Z" fill="#3A487F"/>
<path d="M269.772 9.53256H106.387V234.618H269.772V9.53256Z" fill="#BED2FA"/>
<path d="M271.925 111.759H104.229V118.982H271.925V111.759Z" fill="#3A487F"/>
<path d="M247.777 144.125H203.146V203.47H247.777V144.125Z" fill="#FC6625"/>
<path d="M226.327 145.193C226.327 145.193 226.433 162.729 208.648 177.554C208.648 177.554 212.351 196.881 211.823 202.359H203.277V145.193H226.327Z" fill="white"/>
<path d="M227.881 175.066C227.881 175.066 226.032 175.269 224.947 177.098C223.862 178.931 221.759 186.854 220.222 188.472C218.685 190.09 213.268 193.325 213.268 193.325L214.64 194.216C214.64 194.216 222.886 191.707 224.098 190.254C225.31 188.797 227.024 180.996 227.024 180.996L227.881 175.066Z" fill="url(#paint0_linear)"/>
<path d="M229.705 163.916C229.705 163.916 229.811 161.306 233.569 161.141C237.327 160.981 240.033 164.148 240.156 165.88C240.278 167.612 239.51 170.302 241.975 172.089C244.441 173.875 243.229 182.196 237.407 182.196C231.588 182.196 228.118 181.858 228.096 178.851C228.075 175.843 227.978 173.124 230.292 172.287C232.606 171.451 229.705 163.916 229.705 163.916Z" fill="#0B0754"/>
<path d="M236.06 197.346C236.06 197.346 236.052 197.371 236.039 197.417C236.035 197.434 236.026 197.455 236.018 197.481C236.001 197.531 235.98 197.599 235.959 197.679C235.955 197.696 235.946 197.717 235.942 197.738C235.921 197.802 235.9 197.878 235.874 197.962C235.857 198.013 235.845 198.064 235.828 198.119C235.697 198.554 235.515 199.153 235.3 199.88C235.245 200.066 235.19 200.264 235.131 200.467C235.102 200.568 235.072 200.67 235.043 200.775C235.03 200.809 235.021 200.847 235.013 200.885C234.992 200.957 234.971 201.029 234.95 201.1C234.924 201.181 234.903 201.265 234.878 201.354C234.823 201.548 234.764 201.751 234.705 201.958C234.57 202.439 234.426 202.946 234.283 203.47H225.487C225.508 202.916 225.534 202.397 225.568 201.907C225.572 201.793 225.58 201.683 225.589 201.569C225.627 201.02 225.669 200.509 225.715 200.053C225.728 199.93 225.736 199.812 225.749 199.698C225.774 199.466 225.8 199.246 225.821 199.039C225.825 199.001 225.829 198.963 225.834 198.929C225.838 198.891 225.842 198.853 225.846 198.82C225.872 198.6 225.901 198.401 225.926 198.216C225.935 198.157 225.943 198.097 225.952 198.038C225.96 197.983 225.969 197.924 225.977 197.874C225.986 197.819 225.994 197.772 225.998 197.722C226.007 197.671 226.015 197.629 226.019 197.582C226.024 197.561 226.024 197.54 226.028 197.519C226.04 197.455 226.049 197.396 226.057 197.341C226.066 197.303 226.07 197.27 226.074 197.24C226.078 197.206 226.087 197.177 226.091 197.151C226.112 197.037 226.146 196.932 226.197 196.835C226.209 196.809 226.222 196.784 226.235 196.763C226.247 196.742 226.26 196.716 226.277 196.695C226.311 196.649 226.344 196.606 226.382 196.564C226.399 196.547 226.416 196.526 226.437 196.509C226.458 196.488 226.475 196.471 226.496 196.454C226.513 196.442 226.53 196.429 226.547 196.416C226.577 196.395 226.606 196.374 226.636 196.353C226.657 196.34 226.674 196.328 226.695 196.315C226.737 196.29 226.784 196.264 226.83 196.243C226.855 196.231 226.881 196.218 226.906 196.209C226.936 196.197 226.965 196.184 226.995 196.171C227.024 196.163 227.054 196.15 227.083 196.138C227.113 196.125 227.138 196.117 227.168 196.108C227.269 196.074 227.375 196.049 227.484 196.028C227.51 196.024 227.535 196.015 227.565 196.011C227.607 196.003 227.645 195.994 227.691 195.99C227.746 195.981 227.805 195.973 227.86 195.965C227.898 195.96 227.936 195.956 227.974 195.952C228.004 195.948 228.038 195.948 228.067 195.943C228.122 195.939 228.177 195.935 228.232 195.931C228.295 195.926 228.363 195.926 228.43 195.922C228.734 195.91 229.064 195.918 229.401 195.939C229.477 195.943 229.558 195.952 229.634 195.956C229.765 195.969 229.895 195.977 230.026 195.994C230.216 196.015 230.406 196.036 230.601 196.066C230.617 196.066 230.634 196.07 230.655 196.074C230.744 196.087 230.833 196.1 230.926 196.112C231.196 196.155 231.466 196.201 231.736 196.252C231.842 196.273 231.948 196.294 232.053 196.315L232.344 196.374C232.615 196.429 232.885 196.488 233.142 196.552C233.24 196.573 233.332 196.598 233.43 196.619C233.455 196.623 233.476 196.632 233.501 196.636C233.548 196.649 233.594 196.657 233.636 196.67C233.704 196.687 233.772 196.704 233.839 196.721C233.949 196.75 234.055 196.775 234.16 196.801C234.202 196.813 234.24 196.822 234.283 196.835C234.346 196.851 234.413 196.868 234.473 196.885C234.646 196.932 234.806 196.978 234.954 197.02C235.021 197.042 235.089 197.058 235.148 197.075C235.203 197.092 235.254 197.105 235.304 197.122C235.313 197.122 235.321 197.126 235.325 197.126C235.368 197.139 235.414 197.151 235.452 197.164C235.49 197.177 235.528 197.185 235.562 197.198C235.604 197.21 235.646 197.223 235.684 197.236C235.71 197.244 235.735 197.253 235.76 197.257C235.79 197.265 235.815 197.274 235.836 197.278C235.98 197.32 236.06 197.346 236.06 197.346Z" fill="#0B0754"/>
<path d="M236.06 197.346C236.06 197.346 236.052 197.371 236.039 197.417C236.035 197.434 236.026 197.455 236.018 197.481C236.001 197.531 235.98 197.599 235.959 197.679C235.955 197.696 235.946 197.717 235.942 197.738C235.921 197.802 235.9 197.878 235.874 197.962C235.857 198.013 235.845 198.064 235.828 198.119C235.697 198.554 235.515 199.153 235.3 199.88C235.245 200.066 235.19 200.264 235.131 200.467C235.102 200.568 235.072 200.67 235.043 200.775C235.03 200.809 235.021 200.847 235.013 200.885C234.992 200.957 234.971 201.029 234.95 201.1C234.924 201.181 234.903 201.265 234.878 201.354C234.823 201.548 234.764 201.751 234.705 201.958C234.57 202.439 234.426 202.946 234.283 203.47H225.487C225.508 202.916 225.534 202.397 225.568 201.907C225.572 201.793 225.58 201.683 225.589 201.569C225.627 201.02 225.669 200.509 225.715 200.053C225.728 199.93 225.736 199.812 225.749 199.698C225.774 199.466 225.8 199.246 225.821 199.039C225.825 199.001 225.829 198.963 225.834 198.929C225.838 198.891 225.842 198.853 225.846 198.82C225.872 198.6 225.901 198.401 225.926 198.216C225.935 198.157 225.943 198.097 225.952 198.038C225.96 197.983 225.969 197.924 225.977 197.874C225.986 197.819 225.994 197.772 225.998 197.722C226.007 197.671 226.015 197.629 226.019 197.582C226.024 197.561 226.024 197.54 226.028 197.519C226.04 197.455 226.049 197.396 226.057 197.341C226.066 197.303 226.07 197.27 226.074 197.24C226.078 197.206 226.087 197.177 226.091 197.151C226.112 197.037 226.146 196.932 226.197 196.835C226.209 196.809 226.222 196.784 226.235 196.763C226.247 196.742 226.26 196.716 226.277 196.695C226.311 196.649 226.344 196.606 226.382 196.564C226.399 196.547 226.416 196.526 226.437 196.509C226.458 196.488 226.475 196.471 226.496 196.454C226.513 196.442 226.53 196.429 226.547 196.416C226.577 196.395 226.606 196.374 226.636 196.353C226.657 196.34 226.674 196.328 226.695 196.315C226.737 196.29 226.784 196.264 226.83 196.243C226.855 196.231 226.881 196.218 226.906 196.209C226.936 196.197 226.965 196.184 226.995 196.171C227.024 196.163 227.054 196.15 227.083 196.138C227.113 196.125 227.138 196.117 227.168 196.108C227.269 196.074 227.375 196.049 227.484 196.028C227.51 196.024 227.535 196.015 227.565 196.011C227.607 196.003 227.645 195.994 227.691 195.99C227.746 195.981 227.805 195.973 227.86 195.965C227.898 195.96 227.936 195.956 227.974 195.952C228.004 195.948 228.038 195.948 228.067 195.943C228.122 195.939 228.177 195.935 228.232 195.931C228.295 195.926 228.363 195.926 228.43 195.922C228.734 195.91 229.064 195.918 229.401 195.939C229.477 195.943 229.558 195.952 229.634 195.956C229.765 195.969 229.895 195.977 230.026 195.994C230.216 196.015 230.406 196.036 230.601 196.066C230.617 196.066 230.634 196.07 230.655 196.074C230.744 196.087 230.833 196.1 230.926 196.112C231.196 196.155 231.466 196.201 231.736 196.252C231.842 196.273 231.948 196.294 232.053 196.315L232.344 196.374C232.615 196.429 232.885 196.488 233.142 196.552C233.24 196.573 233.332 196.598 233.43 196.619C233.455 196.623 233.476 196.632 233.501 196.636C233.548 196.649 233.594 196.657 233.636 196.67C233.704 196.687 233.772 196.704 233.839 196.721C233.949 196.75 234.055 196.775 234.16 196.801C234.202 196.813 234.24 196.822 234.283 196.835C234.346 196.851 234.413 196.868 234.473 196.885C234.646 196.932 234.806 196.978 234.954 197.02C235.021 197.037 235.089 197.058 235.148 197.075C235.203 197.092 235.254 197.105 235.304 197.122C235.313 197.122 235.321 197.126 235.325 197.126C235.368 197.139 235.414 197.151 235.452 197.164C235.49 197.177 235.528 197.185 235.562 197.198C235.604 197.21 235.646 197.223 235.684 197.236C235.71 197.244 235.735 197.253 235.76 197.257C235.79 197.265 235.815 197.274 235.836 197.278C235.98 197.32 236.06 197.346 236.06 197.346Z" fill="#060632"/>
<path d="M240.4 203.47H231.71C231.495 202.249 231.292 201.121 231.106 200.142C230.798 198.465 230.553 197.215 230.439 196.653C230.397 196.438 230.376 196.324 230.376 196.324C230.376 196.324 230.456 196.226 230.6 196.066C231.499 195.052 234.907 191.45 236.536 193.105C236.802 193.375 237.085 193.663 237.372 193.975C238.344 195.035 239.37 196.383 239.965 198.279C240.404 199.669 240.611 201.366 240.4 203.47Z" fill="#0B0754"/>
<path d="M237.939 175.599C237.939 175.599 237.783 176.49 237.567 177.862L234.134 178.352C234.134 178.352 229.764 188.071 229.118 188.932C228.907 189.215 228.05 189.866 226.986 190.613C226.944 188.354 226.847 186.026 226.635 184.709C226.509 183.932 226.61 182.931 226.83 181.862C226.83 181.854 226.834 181.849 226.834 181.841C226.885 181.596 226.944 181.347 227.003 181.098C227.011 181.068 227.02 181.043 227.024 181.013C227.797 177.972 229.291 174.737 229.291 174.737C229.367 174.737 229.958 174.555 230.959 174.458C231.027 174.255 231.082 174.053 231.124 173.854C231.386 172.604 231.187 171.451 231.187 171.451L234.886 170.323C235.055 174.137 235.393 174.716 235.481 174.804C235.486 174.804 235.486 174.804 235.486 174.804C236.254 174.99 237.073 175.248 237.939 175.599Z" fill="#FC9290"/>
<path d="M237.99 196.556L226.99 196.691C226.99 196.691 227.003 195.88 227.007 194.668C228.658 194.195 230.288 193.633 231.124 193.084C233.18 191.724 233.003 191.395 236.486 186.419C236.292 188.78 236.258 190.833 236.592 191.686C237.605 194.267 237.99 196.556 237.99 196.556Z" fill="url(#paint1_linear)"/>
<path d="M240.156 197.979C239.97 198.368 239.556 198.672 239.05 198.917C238.387 199.234 237.576 199.449 236.93 199.597C236.428 199.711 235.659 199.842 234.772 199.939C234.299 199.994 233.797 200.036 233.282 200.066C233.21 200.07 233.134 200.074 233.066 200.078C229.752 200.243 226.04 200.163 225.555 198.587C225.508 198.435 225.508 198.135 225.538 197.734C225.601 196.919 225.791 195.703 225.973 194.567C226.15 193.477 226.319 192.459 226.37 191.931C226.623 189.135 226.091 185.123 226.011 182.525C225.948 180.358 227.877 175.066 227.877 175.066C227.877 175.066 228.245 174.847 229.68 174.652C229.68 174.652 229.887 177.25 231.221 177.47C233.531 177.85 235.393 175.734 235.938 174.885C235.938 174.885 238.589 175.556 239.366 176.443C239.928 177.081 239.852 178.606 239.687 179.564C239.637 179.869 239.573 180.118 239.518 180.261C239.354 180.696 238.733 183.881 238.45 185.152C238.442 185.186 238.437 185.216 238.429 185.241C238.408 185.325 238.395 185.401 238.378 185.461V185.465C238.361 185.532 238.349 185.587 238.336 185.621C238.328 185.642 238.323 185.663 238.315 185.684V185.689C237.905 186.994 237.66 188.32 237.804 189.954C237.821 190.144 237.867 190.377 237.931 190.639C238.302 192.531 239.835 196.264 240.156 197.979Z" fill="#E75755"/>
<path d="M229.684 174.652C229.684 174.652 226.138 175.033 224.951 176.701C223.765 178.369 223.009 180.87 223.009 180.87C223.009 180.87 223.858 183.412 226.332 183.091C228.802 182.774 229.684 174.652 229.684 174.652Z" fill="#E75755"/>
<path d="M230.571 172.456C230.571 172.456 235.084 172.321 234.958 169.508C234.831 166.699 235.325 164.786 232.437 164.757C229.549 164.727 229.038 165.825 228.852 166.771C228.666 167.717 229.393 172.418 230.571 172.456Z" fill="url(#paint2_linear)"/>
<path d="M230.917 164.398C230.917 164.398 231.052 165.331 232.834 166.552C234.612 167.772 234.916 170.615 234.916 170.615C234.916 170.615 236.263 165.563 234.654 164.427C233.045 163.291 230.917 164.398 230.917 164.398Z" fill="#0B0754"/>
<path d="M232.374 162.805C232.374 162.805 230.064 162.586 228.422 165.179C227.717 166.294 228.265 168.038 228.996 168.955C228.996 168.955 229.237 166.573 230.495 165.77C231.762 164.972 232.374 162.805 232.374 162.805Z" fill="#0B0754"/>
<path d="M216.941 189.536C216.941 189.536 215.75 188.147 216.869 187.264C216.869 187.264 217.684 186.77 218.351 186.808C218.351 186.808 217.409 188.387 217.713 188.548C218.017 188.704 218.638 186.711 218.638 186.711C218.638 186.711 220.496 186.529 221.091 186.816C221.091 186.816 219.504 188.117 219.837 188.193C220.171 188.269 221.885 186.994 221.885 186.994C221.885 186.994 223.612 187.289 223.519 188.341C223.426 189.397 222.831 189.722 222.569 189.693C222.307 189.663 220.779 189.08 220.745 189.296C220.711 189.511 221.632 190.212 222.278 190.242C222.278 190.242 221.062 191.585 220.251 191.196C219.44 190.808 219.373 190.195 218.866 189.963C218.359 189.731 217.929 189.735 218.14 189.967C218.347 190.204 219.263 190.432 219.55 190.943C219.837 191.454 220.099 191.796 219.259 191.673C218.423 191.547 217.059 190.934 217 190.233C216.941 189.536 216.941 189.536 216.941 189.536Z" fill="#3662C1"/>
<path d="M222.67 188.371C222.67 188.371 217.979 188.189 216.94 189.532C216.94 189.532 216.712 190.22 216.007 190.846L215.897 191.145C215.897 191.145 216.712 190.288 216.999 190.237C217.004 190.237 216.548 188.573 222.67 188.371Z" fill="#3A49CD"/>
<path d="M216.007 190.846C216.007 190.846 214.998 191.589 214.931 192.924L215.112 192.94C215.112 192.94 215.433 191.564 216.016 191.027C216.598 190.487 216.007 190.846 216.007 190.846Z" fill="#3A49CD"/>
<path d="M212.781 187.788C212.781 187.788 214.673 186.728 213.791 185.287C213.791 185.287 213.085 184.405 212.325 184.177C212.325 184.177 212.731 186.322 212.325 186.373C211.92 186.423 212.047 183.948 212.047 183.948C212.047 183.948 210.054 182.99 209.268 183.066C209.268 183.066 210.506 185.161 210.1 185.11C209.695 185.059 208.31 182.939 208.31 182.939C208.31 182.939 206.266 182.559 205.937 183.771C205.608 184.983 206.14 185.587 206.444 185.663C206.748 185.739 208.69 185.714 208.639 185.967C208.589 186.221 207.275 186.622 206.545 186.398C206.545 186.398 207.351 188.392 208.411 188.29C209.471 188.189 209.8 187.534 210.455 187.484C211.109 187.433 211.591 187.61 211.261 187.788C210.932 187.965 209.821 187.847 209.294 188.295C208.762 188.746 208.335 189.025 209.319 189.224C210.303 189.426 212.072 189.3 212.422 188.544C212.781 187.788 212.781 187.788 212.781 187.788Z" fill="#77A4E5"/>
<path d="M206.875 184.151C206.875 184.151 212.178 185.87 212.782 187.788C212.782 187.788 212.757 188.645 213.289 189.629V190.009C213.289 190.009 212.736 188.721 212.432 188.544C212.427 188.544 213.614 186.88 206.875 184.151Z" fill="#3662C1"/>
<path d="M213.285 189.629C213.285 189.629 214.104 190.871 213.635 192.383L213.424 192.328C213.424 192.328 213.627 190.664 213.2 189.828C212.778 188.987 213.285 189.629 213.285 189.629Z" fill="#3662C1"/>
<path d="M215.792 186.326C215.792 186.326 213.297 184.928 214.462 183.032C214.462 183.032 215.396 181.866 216.392 181.566C216.392 181.566 215.86 184.396 216.392 184.464C216.924 184.531 216.759 181.267 216.759 181.267C216.759 181.267 219.39 180.004 220.42 180.101C220.42 180.101 218.79 182.863 219.322 182.795C219.854 182.728 221.687 179.932 221.687 179.932C221.687 179.932 224.381 179.434 224.816 181.03C225.246 182.627 224.55 183.425 224.149 183.526C223.747 183.628 221.189 183.594 221.252 183.927C221.32 184.261 223.051 184.793 224.013 184.493C224.013 184.493 222.949 187.125 221.552 186.989C220.154 186.854 219.719 185.993 218.858 185.925C217.992 185.858 217.359 186.09 217.794 186.326C218.225 186.559 219.69 186.402 220.391 186.998C221.092 187.593 221.653 187.957 220.357 188.223C219.061 188.489 216.73 188.324 216.265 187.323C215.792 186.326 215.792 186.326 215.792 186.326Z" fill="#77A4E5"/>
<path d="M223.578 181.533C223.578 181.533 216.59 183.796 215.792 186.326C215.792 186.326 215.826 187.458 215.125 188.755V189.253C215.125 189.253 215.855 187.555 216.257 187.323C216.261 187.323 214.694 185.127 223.578 181.533Z" fill="#3662C1"/>
<path d="M215.129 188.755C215.129 188.755 214.053 190.394 214.665 192.383L214.944 192.307C214.944 192.307 214.673 190.111 215.239 189.008C215.801 187.906 215.129 188.755 215.129 188.755Z" fill="#3662C1"/>
<path d="M220.597 191.817C220.597 194.516 218.41 196.708 215.708 196.708C215.146 196.708 214.602 196.611 214.099 196.438C212.191 195.77 210.818 193.954 210.818 191.817H220.597Z" fill="#0B0754"/>
<path d="M215.708 196.708C215.51 196.733 216.51 196.708 216.304 196.708C213.605 196.708 211.414 194.52 211.414 191.817H212.63C212.63 194.309 213.297 196.408 215.708 196.708Z" fill="#3662C1"/>
<path d="M220.665 196.953H210.751C210.751 196.788 210.819 196.636 210.928 196.526C211.038 196.416 211.19 196.349 211.355 196.349H220.061C220.395 196.353 220.665 196.623 220.665 196.953Z" fill="#060632"/>
<path d="M220.707 191.817H210.658V191.969H220.707V191.817Z" fill="#060632"/>
<path d="M236.634 186.208C236.584 186.28 236.533 186.352 236.487 186.419C233.003 191.395 233.181 191.724 231.124 193.084C230.288 193.633 228.658 194.195 227.007 194.668C224.537 195.377 222.021 195.893 222.021 195.893C222.021 195.893 219.901 196.277 219.251 196.497C217.984 196.923 216.291 195.567 216.578 195.023C216.869 194.482 219.318 193.646 219.694 193.747C219.745 193.76 219.796 193.777 219.85 193.789C219.677 193.667 219.5 193.536 219.403 193.447C219.04 193.13 219.31 192.936 219.31 192.936C219.732 193.122 220.792 193.38 220.906 193.637C221.016 193.899 221.666 194.174 221.666 194.174C221.666 194.174 224.774 192.176 226.986 190.613C228.05 189.866 228.907 189.215 229.119 188.932C229.765 188.071 234.135 178.352 234.135 178.352L237.568 177.862L239.772 177.546C239.772 177.546 240.274 181.034 236.634 186.208Z" fill="url(#paint3_linear)"/>
<path d="M236.28 176.249C236.28 176.249 233.379 178.525 232.606 179.636C231.833 180.747 231.124 183.235 231.124 183.235C231.124 183.235 234.164 185.14 239.4 183.763C239.4 183.763 240.793 177.279 239.366 176.439C237.939 175.594 236.613 176.245 236.613 176.245H236.28V176.249Z" fill="#E75755"/>
<path d="M227.492 145.193C227.492 145.193 230.739 159.553 245.737 164.634C245.737 164.634 245.594 186.766 243.9 192.586C242.207 198.41 241.785 202.355 241.785 202.355H245.737V145.193H227.492Z" fill="white"/>
<path d="M248.871 202.359H247.917V158.138V155.689V143.018H201.107V155.689V158.138V202.359H200.149C197.759 202.359 195.825 204.293 195.825 206.684V206.836H253.195V206.684C253.195 204.298 251.257 202.359 248.871 202.359ZM203.282 145.193H245.738V155.689H203.282V145.193ZM203.282 158.138H245.738V202.359H203.282V158.138Z" fill="#6D89CF"/>
<path d="M271.925 221.112H104.229V244.071H271.925V221.112Z" fill="#3A487F"/>
<path d="M144.21 245C144.21 245 141.103 233.829 128.195 230.082C115.287 226.332 116.119 228.207 104.457 221.542C92.7945 214.878 74.4736 219.042 70.7241 224.457C66.9746 229.871 58.2301 232.79 46.1541 232.579C34.0781 232.372 33.4658 244.134 33.4658 244.134L144.21 245Z" fill="#DDE8FD"/>
<path opacity="0.5" d="M175.744 144.125H131.113V203.47H175.744V144.125Z" fill="white"/>
<path d="M174.658 145.214H132.202V202.38H174.658V145.214Z" fill="#FC6625"/>
<path d="M149.506 195.551C149.506 195.551 147.057 198.891 147.057 202.376H163.672C163.672 202.376 162.781 196.957 158.998 195.551C155.219 194.14 149.506 195.551 149.506 195.551Z" fill="#0B0754"/>
<path d="M171.812 177.081C171.47 177.639 171.136 178.264 171.044 178.433C170.828 180.57 169.912 188.104 167.687 189.27C166.678 189.798 163.38 187.213 160.952 184.443C160.711 187.103 159.934 191.589 160.268 192.932C160.716 194.71 162.953 198.52 163.169 200.771C163.384 203.022 147.512 202.232 147.212 200.771C146.917 199.31 149.915 194.043 149.602 192.413C149.425 191.479 148.597 189.186 148.019 186.884C147.398 189 146.904 190.668 146.769 191.091C146.321 192.455 141.132 201.189 141.132 201.189C141.132 201.189 140.288 202.203 140.047 202.376C139.802 202.553 137.729 202.524 137.691 202.376C137.653 202.228 138.468 202.177 138.468 202.177C138.468 202.177 137.906 202.106 137.712 202.055C137.518 202.008 136.141 202.376 135.829 202.359C135.521 202.338 136.724 201.164 137.383 200.936C137.889 200.762 139.198 201.007 139.768 201.126C139.756 201.168 139.747 201.189 139.747 201.189H140.047C140.047 201.189 139.941 201.164 139.768 201.126C140.03 200.37 142.534 193.038 142.813 190.453C143.108 187.72 144.666 179.666 145.359 177.883C145.713 176.967 147.757 176.241 149.404 175.755C150.122 175.544 150.633 174.906 150.679 174.158C150.725 173.487 150.742 172.803 150.785 172.435C150.869 171.692 150.725 171.024 150.62 170.67C151.502 172.072 153.787 172.549 154.602 172.676C154.673 173.048 154.766 173.453 154.863 173.829C155.252 176.219 159.837 175.121 160.58 176.409C161.319 177.693 166.15 185.072 166.935 184.438C167.197 184.223 169.363 178.758 169.777 177.723V177.719C169.764 177.119 169.743 175.413 169.95 174.75C170.199 173.939 170.748 172.625 170.87 172.684C170.993 172.739 171.238 174.509 171.132 174.91C171.031 175.307 171.238 176.249 171.398 176.063C171.554 175.873 171.804 174.614 172.01 174.69C172.217 174.762 172.023 175.527 172.12 175.721C172.222 175.911 172.213 176.426 171.812 177.081Z" fill="url(#paint4_linear)"/>
<path d="M140.048 201.189H139.748C139.748 201.189 139.756 201.168 139.769 201.126C139.942 201.164 140.048 201.189 140.048 201.189Z" fill="url(#paint5_linear)"/>
<path d="M154.602 172.676C153.787 172.549 151.503 172.072 150.62 170.67C150.616 170.665 150.616 170.661 150.616 170.657C150.599 170.589 150.578 170.539 150.565 170.496C151.693 170.387 153.251 170.961 154.496 171.586V171.772C154.496 172.017 154.539 172.334 154.602 172.676Z" fill="url(#paint6_linear)"/>
<path d="M154.863 173.829C154.678 173.107 154.5 172.287 154.496 171.772C154.5 172.287 154.741 173.094 154.863 173.829Z" fill="#FC9290"/>
<path d="M154.496 171.586C153.251 170.961 151.693 170.387 150.565 170.496C150.544 170.429 150.527 170.391 150.527 170.391L154.374 170.091L154.602 170.074C154.534 170.615 154.501 171.122 154.496 171.586Z" fill="#FC9290"/>
<path d="M151.773 168.005C151.773 168.005 149.705 169.652 151.453 172.03C151.453 172.03 149.426 171.945 148.919 171.417C148.919 171.417 149.004 171.654 149.092 171.768C149.092 171.768 147.218 171.611 146.517 170.94C145.816 170.264 147.45 160.778 152.5 162.463C152.5 162.463 156.929 162.658 155.911 167.688C154.898 172.718 156.553 172.917 156.553 172.917C156.553 172.917 156.063 173.09 155.844 173.064C155.844 173.064 155.536 172.9 155.489 172.714C155.489 172.714 155.519 173.005 155.591 173.102C155.591 173.102 153.783 173.06 152.968 172.275C152.162 171.497 151.393 169.022 151.773 168.005Z" fill="#0B0754"/>
<path d="M149.949 170.078C149.949 170.078 149.054 168.207 148.97 166.683C148.906 165.597 149.92 161.72 153.808 162.759C153.808 162.759 154.944 163.008 155.936 163.87C156.726 164.554 157.82 165.956 156.021 169.229L155.523 170.349L149.949 170.078Z" fill="#0B0754"/>
<path d="M150.616 170.657C150.553 170.56 150.523 170.501 150.523 170.501C150.536 170.501 150.553 170.496 150.565 170.496C150.578 170.539 150.599 170.589 150.616 170.657Z" fill="#EA8888"/>
<path d="M154.898 172.718C154.898 172.718 154.788 172.705 154.602 172.676C153.787 172.549 151.503 172.072 150.621 170.67C150.616 170.665 150.616 170.661 150.616 170.657C150.346 170.23 150.211 169.719 150.283 169.107C150.646 166.007 150.249 163.853 153.45 164.047C156.646 164.246 157.123 165.5 157.254 166.564C157.385 167.629 156.207 172.773 154.898 172.718Z" fill="url(#paint7_linear)"/>
<path d="M155.725 164.246C155.725 164.246 153.931 167.722 151.773 168.009C149.62 168.296 148.779 167.629 148.779 167.629C148.779 167.629 150.536 166.547 151.131 164.36C151.131 164.36 154.902 162.391 155.725 164.246Z" fill="#0B0754"/>
<path d="M155.354 164.499C155.354 164.499 156.274 165.432 156.426 166.252C156.578 167.071 156.498 168.71 156.979 168.71C156.979 168.71 158.301 166.362 157.313 164.824C156.266 163.198 155.354 164.499 155.354 164.499Z" fill="#0B0754"/>
<path d="M155.527 164.647C155.527 164.647 154.104 168.338 151.317 169.242C151.317 169.242 154.235 167.219 154.759 164.731C155.282 162.244 155.527 164.647 155.527 164.647Z" fill="#0B0754"/>
<path d="M140.048 201.189H139.748C139.748 201.189 139.756 201.168 139.769 201.126C139.942 201.164 140.048 201.189 140.048 201.189Z" fill="url(#paint8_linear)"/>
<path d="M147.264 176.494C147.264 176.494 149.78 178.648 152.981 178.479C156.182 178.31 158.707 175.679 158.707 175.679C158.707 175.679 160.163 175.691 160.932 176.507C161.7 177.322 164.618 180.984 164.618 180.984C164.618 180.984 164.875 183.729 161.595 185.646L161.261 185.055C161.261 185.055 160.708 191.893 161.054 192.535C161.4 193.177 164.12 199.909 163.676 200.94C163.233 201.97 148.341 204.509 147.217 200.775C146.094 197.037 148.898 193.798 148.78 192.463C148.666 191.129 148.02 186.888 148.02 186.888C148.02 186.888 143.717 186.229 143.569 183.657C143.569 183.653 144.334 176.46 147.264 176.494Z" fill="white"/>
<path d="M177.817 202.359H176.862V158.138V155.689V143.018H130.049V155.689V158.138V202.359H129.09C126.7 202.359 124.767 204.293 124.767 206.684V206.836H182.136V206.684C182.14 204.298 180.202 202.359 177.817 202.359ZM132.228 145.193H174.684V155.689H132.228V145.193ZM132.228 158.138H174.684V202.359H132.228V158.138Z" fill="#6D89CF"/>
<path d="M174.042 146.131H132.996V148.196H174.042V146.131Z" fill="white"/>
<path d="M174.042 149.374H132.996V151.44H174.042V149.374Z" fill="white"/>
<path d="M174.042 152.618H132.996V154.683H174.042V152.618Z" fill="white"/>
<path d="M174.042 155.655H132.996V157.72H174.042V155.655Z" fill="white"/>
<path d="M174.042 159.072H132.996V161.137H174.042V159.072Z" fill="white"/>
<path d="M135.301 145.159H134.904V162.81H135.301V145.159Z" fill="white"/>
<path d="M172.374 145.159H171.978V162.81H172.374V145.159Z" fill="white"/>
<path d="M163.659 200.708H157.224V198.575H163.667C163.929 198.575 164.136 198.786 164.136 199.043V200.226C164.14 200.492 163.925 200.708 163.659 200.708Z" fill="#DDE8FD"/>
<path d="M169.296 199.449V199.77C169.296 199.943 169.25 200.104 169.169 200.239C169.009 200.518 168.705 200.703 168.363 200.703H157.038C156.962 200.703 156.903 200.644 156.903 200.568V200.522C156.903 200.446 156.962 200.387 157.038 200.387H163.942C163.98 200.34 164.01 200.294 164.039 200.243C164.102 200.12 164.14 199.981 164.14 199.833V199.424C164.14 199.348 164.132 199.276 164.111 199.208C164.081 199.09 164.026 198.984 163.95 198.891H157.038C156.962 198.891 156.903 198.832 156.903 198.756V198.71C156.903 198.634 156.962 198.575 157.038 198.575H168.418C168.819 198.575 169.157 198.845 169.262 199.212C169.288 199.284 169.296 199.364 169.296 199.449Z" fill="#6D89CF"/>
<path d="M169.262 199.208H164.111C164.081 199.09 164.026 198.984 163.95 198.891H157.038C156.962 198.891 156.903 198.832 156.903 198.756V198.71C156.903 198.634 156.962 198.575 157.038 198.575H168.418C168.819 198.57 169.161 198.841 169.262 199.208Z" fill="#3662C1"/>
<path d="M157.224 199.639L158.064 199.673L157.224 199.694V199.639Z" fill="#BED2FA"/>
<path d="M157.224 199.973L159.221 200.011L157.224 200.032V199.973Z" fill="#BED2FA"/>
<path d="M158.516 202.359H164.947V200.699H158.465C158.022 200.699 157.663 201.058 157.663 201.502C157.663 201.975 158.047 202.359 158.516 202.359Z" fill="#9E332E"/>
<path d="M164.119 202.359H171.901V200.699H164.111C163.908 200.699 163.743 200.864 163.743 201.067V201.987C163.743 202.19 163.912 202.359 164.119 202.359Z" fill="#DDE8FD"/>
<path d="M163.258 202.359H172.159C172.227 202.359 172.282 202.304 172.282 202.236C172.282 202.169 172.227 202.114 172.159 202.114H163.258C163.191 202.114 163.136 202.169 163.136 202.236C163.132 202.304 163.187 202.359 163.258 202.359Z" fill="#9E332E"/>
<path d="M163.258 200.948H172.159C172.227 200.948 172.282 200.893 172.282 200.826C172.282 200.758 172.227 200.703 172.159 200.703H163.258C163.191 200.703 163.136 200.758 163.136 200.826C163.132 200.893 163.187 200.948 163.258 200.948Z" fill="#9E332E"/>
<path d="M171.901 201.531L170.913 201.556L171.901 201.573V201.531Z" fill="#BED2FA"/>
<path d="M171.901 201.147L169.549 201.176L171.901 201.193V201.147Z" fill="#BED2FA"/>
<path d="M169.574 201.168C169.574 201.168 169.676 201.24 169.709 201.358C169.714 201.379 169.718 201.4 169.718 201.426C169.722 201.582 169.718 201.932 169.718 201.932L170.018 201.755L170.313 201.932V201.455C170.313 201.366 170.288 201.278 170.241 201.219C170.22 201.189 170.191 201.168 170.161 201.168H169.574Z" fill="#6D89CF"/>
<path d="M169.574 201.168C169.574 201.168 169.676 201.24 169.709 201.358L170.305 201.366C170.305 201.366 170.279 201.197 170.157 201.172H169.574V201.168Z" fill="#3662C1"/>
<path d="M174.819 40.9389H130.188V100.284H174.819V40.9389Z" fill="#FC6625"/>
<path d="M151.633 42.0075C151.633 42.0075 151.527 59.5437 169.312 74.3684C169.312 74.3684 165.609 93.6954 166.137 99.1733H174.683V42.0075H151.633Z" fill="white"/>
<path d="M135.715 75.2849C135.715 75.2849 131.995 75.8128 131.037 76.6491C129.415 78.0682 130.606 99.6463 130.606 99.6463C130.606 99.6463 136.201 100.107 136.201 99.6463C136.201 99.186 135.715 75.2849 135.715 75.2849Z" fill="#E75755"/>
<path d="M150.304 99.6886L142.302 100.284L136.729 100.698L135.551 100.787L135.479 100.284L135.415 99.8406L135.403 99.7435L135.12 97.7922V97.788L135.01 97.0193L134.668 94.6457L132.916 82.5072L132.426 79.1241C132.426 79.1241 132.054 75.9353 135.023 75.4116C135.238 75.3736 135.47 75.3313 135.707 75.2891C135.711 75.2891 135.715 75.2891 135.719 75.2891C136.724 75.1117 137.873 74.9048 139.004 74.7569C139.938 74.6387 140.858 74.5584 141.673 74.5753C142.023 74.5795 142.357 74.6049 142.661 74.6513C143.058 74.7062 143.404 74.7992 143.696 74.9385C143.729 74.9512 143.759 74.9681 143.793 74.9892C143.907 75.0484 144.012 75.1159 144.105 75.192C144.143 75.2257 144.181 75.2595 144.215 75.2933C144.316 75.3947 144.43 75.6101 144.565 75.9226C144.709 76.2605 144.869 76.7124 145.043 77.2573C145.283 78.0175 145.553 78.9509 145.836 80.0068C146.626 82.9675 147.529 86.8659 148.319 90.4137C148.344 90.5235 148.37 90.6291 148.391 90.7346C148.492 91.1908 148.594 91.6427 148.691 92.0862C148.695 92.1073 148.703 92.1284 148.708 92.1495C148.724 92.2298 148.741 92.3142 148.762 92.3945C148.813 92.6141 148.86 92.8295 148.906 93.0449C148.999 93.4715 149.088 93.8854 149.172 94.2824C149.75 96.9771 150.177 99.0213 150.287 99.5534C150.295 99.6379 150.304 99.6886 150.304 99.6886Z" fill="#E75755"/>
<path d="M145.245 77.1728C145.245 77.1728 146.507 79.0438 147.229 82.9802C147.862 86.4266 148.416 87.6979 149.328 88.4032C150.24 89.1086 155.323 91.195 155.323 91.195L154.943 92.0862C154.943 92.0862 147.495 91.0725 146.659 89.8266C145.823 88.5806 142.631 81.2232 142.88 79.5295C143.125 77.8359 145.245 77.1728 145.245 77.1728Z" fill="url(#paint9_linear)"/>
<path d="M162.307 100.28H156.159C156.007 99.6674 155.779 99.2789 155.344 99.2578C154.956 99.2366 152.836 99.4605 150.273 99.5492C146.207 99.6886 141.022 99.4901 139.857 97.4332C139.578 96.9433 139.375 96.4491 139.228 95.9718C139.207 95.9 139.185 95.8325 139.164 95.7607C138.924 94.8737 138.881 94.029 138.932 93.2983C138.962 92.8718 139.021 92.479 139.097 92.1411C139.274 91.2922 139.527 90.7642 139.527 90.7642L141.533 92.234L141.757 92.3987C141.757 92.3987 143.484 92.2678 145.853 92.1706C146.376 92.1495 146.938 92.1284 147.516 92.1115C147.803 92.1031 148.095 92.0946 148.39 92.0904C148.483 92.0862 148.58 92.0862 148.673 92.0862C149.391 92.0693 150.126 92.0651 150.86 92.0651C150.932 92.0651 151.008 92.0651 151.076 92.0651C151.249 92.0651 151.422 92.0651 151.591 92.0693C154.424 92.0989 157.114 92.2847 158.482 92.8C158.672 92.8718 158.841 92.952 158.976 93.0365C158.98 93.0407 158.984 93.0407 158.988 93.0449C159.985 93.6827 161.18 96.6941 162.307 100.28Z" fill="#E75755"/>
<path d="M156.667 100.28H142.306L136.733 100.694C136.463 100.567 136.218 100.432 136.002 100.28C135.804 100.145 135.635 99.9927 135.487 99.8322C135.458 99.7984 135.432 99.7688 135.407 99.735C135.318 99.6252 135.242 99.5112 135.179 99.3887C134.896 98.8481 134.799 98.3202 134.837 97.826C134.858 97.543 134.917 97.2727 135.014 97.0109C135.238 96.3858 135.648 95.8198 136.125 95.3256C137.324 94.0755 138.928 93.2983 138.928 93.2983C138.928 93.2983 138.933 93.2983 138.941 93.2983C139.102 93.3068 140.774 93.3913 142.99 93.5771C143.202 93.594 143.421 93.6151 143.641 93.632C145.372 93.7883 147.352 93.9995 149.164 94.2782C151.503 94.6414 153.563 95.1187 154.463 95.7353C155.159 96.2168 155.924 97.9654 156.667 100.28Z" fill="#ED6966"/>
<path d="M144.962 70.3644C144.962 70.356 144.962 70.3475 144.962 70.3349C144.957 70.0899 144.945 69.8449 144.928 69.6C144.877 68.8693 144.784 68.1597 144.649 67.5262C144.573 67.163 144.489 66.8251 144.392 66.5168C144.375 66.4703 144.362 66.4238 144.345 66.3774C144.113 65.6763 143.826 65.1652 143.513 64.9583C142.943 64.5824 142.234 64.4979 141.736 64.4937C141.871 64.3712 142.128 64.3374 142.128 64.3374C141.824 64.2698 141.115 64.5317 141.115 64.5317C136.931 62.5889 135.837 68.8693 135.829 70.3433C135.82 71.8173 135.719 73.511 133.485 74.6851C132.628 75.137 132.062 75.6777 131.708 76.2647C130.238 78.6722 132.349 81.7638 132.349 81.7638C132.358 81.768 132.59 82.0721 132.919 82.5029C133.772 83.6222 135.275 85.6199 135.275 85.6199C135.275 85.6199 135.275 85.6199 135.275 85.6157C135.271 85.3454 135.503 84.8216 135.896 84.1501C136.187 83.6559 136.568 83.0815 137.007 82.4733C137.214 82.1861 137.437 81.8863 137.67 81.5864C137.978 81.1894 138.307 80.7839 138.645 80.3827C138.776 80.2306 138.907 80.0744 139.038 79.9265C139.637 79.2423 140.262 78.5835 140.874 78.009C141.018 77.8739 141.157 77.7472 141.297 77.6205C141.47 77.4684 141.643 77.3206 141.816 77.1855C142.145 76.9194 142.462 76.6913 142.766 76.5055C142.779 76.497 142.796 76.4886 142.808 76.4801C142.85 76.4548 142.893 76.4294 142.935 76.4041C143.066 76.2394 143.18 76.0535 143.285 75.855C143.323 75.779 143.366 75.703 143.399 75.627C143.509 75.3989 143.606 75.1624 143.686 74.9343C143.936 74.2416 144.066 73.6166 144.092 73.5025C143.999 74.1023 143.898 74.588 143.784 74.985C143.708 75.2468 143.632 75.4707 143.56 75.6565C143.505 75.7917 143.45 75.9099 143.399 76.0155C143.378 76.062 143.353 76.1084 143.328 76.1465C143.361 76.1169 143.395 76.0916 143.425 76.062C143.547 75.9522 143.657 75.8339 143.762 75.6988C143.885 75.5425 143.995 75.3736 144.092 75.1877C144.763 73.9671 145.004 72.1425 144.962 70.3644Z" fill="#9E332E"/>
<path d="M142.627 77.629C142.463 77.933 142.142 78.1696 141.542 78.1442C140.52 78.0978 138.312 76.8603 138.506 75.9818C138.515 75.9395 138.536 75.8846 138.557 75.8255C138.384 75.5003 138.329 75.2046 138.384 75.0146C138.384 75.0146 138.591 74.9977 138.916 74.9808C139.161 74.343 139.439 73.3969 139.528 72.0158L139.714 72.0665L142.847 72.907C142.847 72.907 142.707 73.8995 142.644 74.8414C142.627 75.0484 142.619 75.2511 142.615 75.4411C142.703 75.4749 142.788 75.5087 142.864 75.5383C143.78 75.9226 143.877 77.3037 142.627 77.629Z" fill="url(#paint10_linear)"/>
<path d="M139.409 71.6991C139.409 71.6991 138.577 70.1659 138.438 68.8904C138.337 67.9823 139.017 64.6837 142.331 65.3848C142.331 65.3848 143.298 65.5453 144.168 66.2253C144.86 66.7659 145.84 67.8936 144.472 70.7192L144.1 71.6822L139.409 71.6991Z" fill="#9E332E"/>
<path d="M143.383 73.8404C143.383 73.8404 139.173 73.6292 139.346 71.0106C139.519 68.392 139.088 66.6012 141.782 66.6223C144.476 66.6477 144.932 67.6782 145.088 68.5694C145.245 69.4563 144.48 73.8277 143.383 73.8404Z" fill="url(#paint11_linear)"/>
<path d="M143.704 66.6857C143.704 66.6857 142.348 69.6802 140.55 70.0181C138.755 70.356 138.021 69.828 138.021 69.828C138.021 69.828 139.448 68.844 139.853 66.9814C139.853 66.9814 142.931 65.1652 143.704 66.6857Z" fill="#9E332E"/>
<path d="M143.399 66.9138C143.399 66.9138 144.214 67.6571 144.379 68.3371C144.544 69.0171 144.548 70.3982 144.949 70.3771C144.949 70.3771 145.954 68.3456 145.059 67.0996C144.113 65.7819 143.399 66.9138 143.399 66.9138Z" fill="#9E332E"/>
<path d="M147.593 92.6183C147.251 93.0238 146.191 93.1505 145.051 93.3363C144.156 93.4842 143.218 93.67 142.551 94.0628C141.035 94.954 136.078 97.9654 134.626 97.826C134.064 97.7711 134.17 96.6983 134.508 95.2707C135.044 93.0154 136.167 89.8899 136.167 88.5257C136.167 87.7824 136.412 86.0254 136.746 84.015C136.771 83.8545 136.8 83.6897 136.826 83.525C137.476 79.6182 138.384 75.0146 138.384 75.0146C138.384 75.0146 139.393 77.215 141.356 77.215C143.32 77.215 142.864 75.5383 142.864 75.5383C142.864 75.5383 144.654 75.7495 145.08 76.2056C145.503 76.6617 146.579 78.6341 146.791 79.1705C146.791 79.1705 146.833 79.8547 145.14 80.18C145.14 80.18 145.553 82.0383 145.6 83.2758C145.638 84.1923 144.975 87.0517 144.785 88.834C144.717 89.4633 144.709 89.9575 144.81 90.1856C144.941 90.4728 145.363 90.76 145.849 91.0387C146.807 91.5962 147.998 92.1326 147.593 92.6183Z" fill="#93B3F4"/>
<path d="M145.849 91.0387C146.934 92.8929 142.902 93.4504 142.235 93.8432C140.719 94.7343 136.078 97.9653 134.626 97.826C134.064 97.7711 134.17 96.6983 134.508 95.2707C135.044 93.0154 136.167 89.8899 136.167 88.5257C136.167 87.7824 136.412 86.0254 136.746 84.015L138.494 82.334C138.494 82.334 140.368 87.1784 142.154 87.9724C143.092 88.3863 144.067 88.6609 144.785 88.8298C144.717 89.4591 144.709 89.9533 144.81 90.1813C144.945 90.4728 145.368 90.76 145.849 91.0387Z" fill="#6D89CF"/>
<path d="M151.726 92.3903H146.225V93.0407H151.726V92.3903Z" fill="#3A49CD"/>
<path d="M150.557 92.952C150.612 92.7366 155.615 84.8808 155.615 84.8808H166.745L161.163 92.7408L150.557 92.952Z" fill="#3A49CD"/>
<path d="M151.025 93.0407C151.08 92.8253 156.096 84.8808 156.096 84.8808H166.741L161.429 93.0407H151.025Z" fill="#3662C1"/>
<path d="M159.837 89.231C159.728 89.5478 159.381 89.8055 159.065 89.8055C158.748 89.8055 158.579 89.5478 158.689 89.231C158.799 88.9143 159.145 88.6524 159.466 88.6524C159.778 88.6566 159.947 88.9143 159.837 89.231Z" fill="#BED2FA"/>
<path d="M149.248 90.3545C149.016 90.2574 147.238 90.5783 146.731 90.6755C145.123 90.3587 139.832 89.3028 139.574 88.9692C139.27 88.5764 138.608 76.666 137.848 76.4675C137.848 76.4675 136.353 75.5594 134.909 77.2826C133.465 79.0058 135.935 91.3217 138.08 91.951C140.457 92.6521 147.331 91.837 147.331 91.837C147.897 92.0313 148.881 92.1368 149.408 92.3142C150.101 92.5465 150.713 92.3522 150.869 92.0819C151.017 91.8159 149.518 90.4685 149.248 90.3545Z" fill="url(#paint12_linear)"/>
<path d="M138.383 75.0188C138.383 75.0188 135.313 75.2976 134.422 76.307C133.531 77.3164 133.27 80.0533 133.27 80.0533C133.27 80.0533 135.972 82.2368 139.232 81.3879L138.383 75.0188Z" fill="#93B3F4"/>
<path d="M150.472 42.0075C150.472 42.0075 147.225 56.3676 132.228 61.4485C132.228 61.4485 132.371 83.5799 134.064 89.4C135.757 95.2243 136.18 99.1691 136.18 99.1691H132.228V42.0075H150.472Z" fill="white"/>
<path d="M124.771 103.498V103.65H182.14V103.498C182.14 101.108 180.202 99.1733 177.816 99.1733H176.862V54.9527V52.503V39.8323H130.048V52.503V54.9527V99.1733H129.09C126.704 99.1733 124.771 101.112 124.771 103.498ZM174.683 52.503H132.227V42.0075H174.683V52.503ZM174.683 99.1733H132.227V54.9527H174.683V99.1733Z" fill="#6D89CF"/>
<path d="M167.463 94.861C167.463 94.861 168.97 95.4735 170.043 93.9361C170.043 93.9361 168.303 93.6404 167.463 94.861Z" fill="#3A49CD"/>
<path d="M167.357 94.2317C167.357 94.2317 167.252 93.6911 166.618 93.6742C166.622 93.6742 166.859 94.2191 167.357 94.2317Z" fill="#3A49CD"/>
<path d="M167.678 91.0767C167.678 91.0767 168.408 91.157 168.683 90.3545C168.678 90.3545 167.889 90.4432 167.678 91.0767Z" fill="#3A49CD"/>
<path d="M169.409 80.4883C167.935 80.1715 167.91 78.9636 167.91 78.9636C169.646 79.5127 169.409 80.4883 169.409 80.4883Z" fill="#3A49CD"/>
<path d="M169.511 80.2138C169.511 80.2138 170.431 80.5854 171.086 79.6478C171.086 79.6478 170.026 79.4662 169.511 80.2138Z" fill="#3A49CD"/>
<path d="M167.492 98.4004L167.302 98.62C167.273 98.6538 167.218 98.6327 167.218 98.5904C167.23 92.3818 168.016 86.8616 168.679 83.6095C169.401 80.0575 170.135 77.9584 170.14 77.9373C170.131 77.9584 169.473 80.0913 168.75 83.6348C168.088 86.8954 167.328 91.157 167.522 98.3244C167.526 98.3497 167.513 98.3793 167.492 98.4004Z" fill="#3A49CD"/>
<path d="M170.131 77.0841C169.895 77.2742 168.995 78.0809 169.869 78.7017C169.869 78.7017 170.541 78.9129 170.76 78.3976C170.929 78.0048 170.976 77.5656 170.988 77.3798C170.992 77.3333 170.954 77.2911 170.908 77.2868C170.857 77.2826 170.786 77.2699 170.718 77.2446C170.634 77.2108 170.591 77.0883 170.482 77.0588C170.41 77.0419 170.338 77.025 170.258 77.0334C170.211 77.0376 170.165 77.0588 170.131 77.0841Z" fill="#ED6966"/>
<path d="M169.629 78.4779C169.629 78.4779 169.895 78.6933 169.798 79.0312L169.794 79.1579C169.794 79.1579 169.865 78.8411 170.19 78.744C170.195 78.744 169.899 78.7777 169.629 78.4779Z" fill="#3A49CD"/>
<path d="M169.409 80.4883C167.935 80.1715 167.91 78.9636 167.91 78.9636C167.91 78.9636 169.08 79.6056 169.409 80.4883Z" fill="#6D89CF"/>
<path d="M167.995 79.6605C167.995 79.6605 167.066 80.0152 166.433 79.065C166.433 79.065 167.497 78.9087 167.995 79.6605Z" fill="#3A49CD"/>
<path d="M169.646 97.8851L169.832 98.1089C169.861 98.1427 169.916 98.1216 169.916 98.0794C170.03 91.8708 169.35 86.3379 168.755 83.0689C168.105 79.5042 167.412 77.3882 167.408 77.3671C167.417 77.3882 168.033 79.5338 168.683 83.09C169.283 86.3632 169.954 90.6375 169.617 97.8006C169.617 97.8344 169.629 97.864 169.646 97.8851Z" fill="#3A49CD"/>
<path d="M167.437 76.5224C167.669 76.7167 168.552 77.5403 167.665 78.1442C167.665 78.1442 166.99 78.3427 166.779 77.8232C166.618 77.4262 166.58 76.987 166.572 76.8011C166.567 76.7547 166.605 76.7124 166.656 76.7082C166.707 76.704 166.779 76.6955 166.846 76.6702C166.931 76.6406 166.973 76.5139 167.087 76.4886C167.159 76.4717 167.23 76.459 167.311 76.4675C167.361 76.4717 167.403 76.4928 167.437 76.5224Z" fill="#ED6966"/>
<path d="M167.911 77.9246C167.911 77.9246 167.64 78.1315 167.733 78.4779V78.6046C167.733 78.6046 167.67 78.2878 167.345 78.1822C167.341 78.1822 167.636 78.2202 167.911 77.9246Z" fill="#3A49CD"/>
<path d="M168.388 78.575C168.388 78.575 169.367 78.7397 169.802 77.6796C169.798 77.6796 168.725 77.7345 168.388 78.575Z" fill="#3A49CD"/>
<path d="M170.38 96.7659L170.241 97.0235C170.22 97.0615 170.161 97.0531 170.152 97.0108C168.809 90.9458 168.375 85.3918 168.311 82.0721C168.244 78.4483 168.497 76.2394 168.501 76.2141C168.497 76.2352 168.32 78.461 168.387 82.0763C168.451 85.4045 168.641 89.7294 170.389 96.6772C170.401 96.7067 170.397 96.7363 170.38 96.7659Z" fill="#3A49CD"/>
<path d="M168.307 75.3862C168.117 75.6228 167.416 76.6026 168.405 77.0207C168.405 77.0207 169.105 77.0799 169.207 76.5308C169.287 76.1085 169.236 75.6692 169.207 75.4876C169.198 75.4411 169.156 75.4074 169.105 75.4158C169.055 75.4242 168.983 75.4242 168.911 75.4158C168.823 75.4031 168.755 75.2891 168.641 75.2891C168.569 75.2891 168.497 75.2891 168.417 75.3144C168.375 75.3229 168.337 75.3525 168.307 75.3862Z" fill="#ED6966"/>
<path d="M168.126 76.856C168.126 76.856 168.434 77.0081 168.413 77.3629L168.438 77.4853C168.438 77.4853 168.438 77.1601 168.738 76.9954C168.734 76.9912 168.451 77.0883 168.126 76.856Z" fill="#3A49CD"/>
<path d="M169.194 77.4853C169.194 77.4853 169.194 76.7082 169.861 76.4675C169.861 76.4632 170.009 77.1094 169.194 77.4853Z" fill="#3A49CD"/>
<path d="M167.628 76.2352C167.628 76.2352 167.649 75.6439 167.1 75.4707C167.1 75.4749 166.965 76.024 167.628 76.2352Z" fill="#EA8888"/>
<path d="M169.422 79.7956C169.443 79.8125 169.709 79.2212 169.169 78.744C169.165 78.744 168.941 79.3817 169.422 79.7956Z" fill="#EA8888"/>
<path d="M169.798 79.7492C169.781 79.7534 169.794 79.4535 170.072 79.4113C170.077 79.4155 170.123 79.6605 169.798 79.7492Z" fill="#3A49CD"/>
<path d="M167.002 78.744C167.002 78.744 166.766 78.254 166.006 78.3385C166.006 78.3385 166.12 78.8664 167.002 78.744Z" fill="#3A49CD"/>
<path d="M171.191 99.1268H166.331C166.006 99.1268 165.753 98.8354 165.799 98.5144L168.063 82.9168C168.084 82.7732 168.21 82.6634 168.354 82.6634H169.076C169.232 82.6634 169.367 82.7775 169.388 82.9337L171.707 98.5313C171.753 98.8438 171.512 99.1268 171.191 99.1268Z" fill="#ED6966"/>
<path d="M167.408 98.658L168.607 82.6676C168.476 82.6845 168.371 82.7859 168.354 82.9168L166.091 98.5144C166.044 98.8396 166.293 99.1268 166.623 99.1268H167.594C167.471 99.017 167.395 98.8439 167.408 98.658Z" fill="#EA8888"/>
<path d="M300.332 135.631H299.311L299.319 135.551L299.627 132.827C299.636 132.738 299.712 132.675 299.8 132.675C299.813 132.675 299.821 132.675 299.834 132.675C299.893 132.683 299.944 132.708 299.986 132.742C300.033 132.784 300.066 132.848 300.075 132.92L300.332 135.631Z" fill="#A2C5F9"/>
<path d="M299.412 135.014H299.374L299.627 132.827C299.636 132.738 299.712 132.675 299.8 132.675C299.813 132.675 299.822 132.675 299.834 132.675C299.843 132.683 299.851 132.691 299.86 132.7C299.906 132.746 299.931 132.814 299.931 132.881L299.944 134.453C299.952 134.757 299.712 135.006 299.412 135.014Z" fill="#93B3F4"/>
<path d="M300.983 147.753H299.016V234.703H300.983V147.753Z" fill="#A2C5F9"/>
<path d="M299.923 147.753H299.016V234.703H299.923V147.753Z" fill="#93B3F4"/>
<path d="M303.136 220.829H296.866V243.834H303.136V220.829Z" fill="#A2C5F9"/>
<path d="M300.603 220.829H296.866V243.834H300.603V220.829Z" fill="#93B3F4"/>
<path d="M303.428 136.945C303.428 138.017 301.815 138.892 299.826 138.892C299.674 138.892 299.527 138.887 299.379 138.875C297.601 138.756 296.225 137.937 296.225 136.945C296.225 135.952 297.601 135.133 299.379 135.014C299.527 135.006 299.674 134.997 299.826 134.997C301.815 135.002 303.428 135.872 303.428 136.945Z" fill="#A2C5F9"/>
<path d="M301.561 136.945C301.561 137.81 300.662 138.554 299.374 138.875C297.596 138.756 296.22 137.937 296.22 136.945C296.22 135.952 297.596 135.133 299.374 135.014C300.662 135.335 301.561 136.079 301.561 136.945Z" fill="#93B3F4"/>
<path d="M303.128 149.467H296.858L294.646 138.82H304.999L303.128 149.467Z" fill="#93B3F4"/>
<path d="M305.56 138.017H294.088V139.039H305.56V138.017Z" fill="#A2C5F9"/>
<path d="M301.3 138.017H294.088V139.039H301.3V138.017Z" fill="#93B3F4"/>
<path d="M297.893 220.829H301.9L301.313 219.05C301.262 218.894 301.114 218.784 300.945 218.784H299.066C298.864 218.784 298.678 218.907 298.602 219.097L297.893 220.829Z" fill="#A2C5F9"/>
<path d="M295.389 139.339H304.23L302.503 148.91H297.428L295.389 139.339Z" fill="#C7DCF9"/>
<path d="M296.457 137.059C296.457 137.059 297.133 135.589 298.458 135.631C298.458 135.631 297.614 136.383 297.69 137.059C297.77 137.734 296.457 137.059 296.457 137.059Z" fill="#C7DCF9"/>
<path d="M304.825 138.017H294.822L295.641 136.852H304.048L304.825 138.017Z" fill="#A2C5F9"/>
<path d="M302.363 138.017H294.822L295.641 136.852H301.582L302.363 138.017Z" fill="#93B3F4"/>
<path d="M295.976 139.673H298.002L298.594 148.61H298.002L295.976 139.673Z" fill="#D2E4F9"/>
<path d="M89.7 69.9885L41.3369 85.9493C43.8239 83.0478 46.5431 80.2518 49.4777 77.5614L89.7 69.9885Z" fill="white"/>
<path d="M86.5498 81.3879C86.5498 79.6478 87.9601 78.2371 89.6997 78.2371C91.4393 78.2371 92.8496 79.6478 92.8496 81.3879C92.8496 83.128 91.4393 84.5387 89.6997 84.5387C87.9601 84.5344 86.5498 83.128 86.5498 81.3879Z" fill="white"/>
<path d="M279.073 0.000725961L96.6533 6.57361L97.1031 19.0636L279.523 12.4907L279.073 0.000725961Z" fill="#3A487F"/>
<path d="M180.414 25.958H126.629V37.4629H180.414V25.958Z" fill="#93B3F4"/>
<path opacity="0.5" d="M246.798 40.9389H202.167V100.284H246.798V40.9389Z" fill="white"/>
<path d="M245.709 42.0286H203.257V99.1944H245.709V42.0286Z" fill="#FC6625"/>
<path d="M213.352 41.45V57.7318C213.352 57.8754 213.352 58.0148 213.348 58.1499C213.322 59.4212 213.17 60.3968 212.993 60.3968H212.942C212.778 60.3968 212.634 59.5564 212.592 58.4202C212.588 58.3273 212.583 58.2302 212.583 58.133C212.583 58.1246 212.583 58.1203 212.583 58.1119C212.579 57.9852 212.579 57.8585 212.579 57.7275V41.3739C212.837 41.3908 213.094 41.4162 213.352 41.45Z" fill="#93B3F4"/>
<path d="M212.761 58.3357C209.945 58.3357 207.656 60.7516 207.656 63.7334H217.862C217.866 60.7516 215.582 58.3357 212.761 58.3357Z" fill="#93B3F4"/>
<path d="M213.171 58.3991C213.023 58.3653 212.875 58.3484 212.723 58.3484C210.887 58.3484 209.4 60.7558 209.4 63.7292H210.296C210.291 61.005 211.545 58.7539 213.171 58.3991Z" fill="#BED2FA"/>
<path d="M211.904 81.6498C211.904 81.6498 209.391 78.7186 211.747 76.8518C211.747 76.8518 213.47 75.8086 214.876 75.8931C214.876 75.8931 212.887 79.2297 213.529 79.5633C214.175 79.897 215.48 75.6819 215.48 75.6819C215.48 75.6819 219.398 75.3018 220.661 75.91C220.661 75.91 217.308 78.651 218.013 78.8158C218.719 78.9805 222.337 76.2858 222.337 76.2858C222.337 76.2858 225.985 76.9067 225.791 79.1325C225.597 81.3583 224.338 82.0468 223.785 81.9876C223.232 81.9285 220.002 80.6952 219.93 81.1472C219.859 81.5991 221.805 83.0816 223.169 83.1491C223.169 83.1491 220.597 85.9874 218.887 85.168C217.177 84.3486 217.034 83.052 215.966 82.5621C214.902 82.0763 213.989 82.0763 214.429 82.5747C214.868 83.0731 216.797 83.5546 217.405 84.6316C218.013 85.7086 218.562 86.4393 216.793 86.169C215.024 85.9029 212.149 84.6063 212.022 83.1238C211.904 81.6498 211.904 81.6498 211.904 81.6498Z" fill="#3662C1"/>
<path d="M224.001 79.2001C224.001 79.2001 214.091 78.82 211.904 81.654C211.904 81.654 211.419 83.1027 209.932 84.4246L209.7 85.0582C209.7 85.0582 211.419 83.2463 212.031 83.1365C212.031 83.1322 211.068 79.6225 224.001 79.2001Z" fill="#3662C1"/>
<path d="M209.932 84.4204C209.932 84.4204 207.804 85.9958 207.656 88.8045L208.04 88.8382C208.04 88.8382 208.72 85.9324 209.949 84.7963C211.178 83.6602 209.932 84.4204 209.932 84.4204Z" fill="#3662C1"/>
<path d="M205.452 82.0045C205.452 82.0045 205.452 82.0045 204.903 83.1787C204.878 83.2336 204.853 83.2885 204.827 83.3476V83.3519C204.591 83.8587 204 84.205 203.261 84.4204V74.8076C203.797 75.0399 204.16 75.2131 204.16 75.2131C204.16 75.2131 203.936 79.5971 204.654 79.5042C205.368 79.4155 204.654 75.6143 204.654 75.6143C205.993 76.0155 207.247 77.5825 207.247 77.5825C208.805 80.1251 205.452 82.0045 205.452 82.0045Z" fill="#6D89CF"/>
<path d="M206.347 85.2694V85.9409C206.347 85.9409 206.334 85.9156 206.313 85.8649C206.313 85.8607 206.313 85.8607 206.309 85.8607C206.284 85.7931 206.25 85.7297 206.22 85.6664C206.216 85.6495 206.208 85.6326 206.199 85.6157C206.195 85.603 206.186 85.5946 206.182 85.5819C206.123 85.451 206.047 85.2947 205.967 85.1258C205.967 85.1215 205.967 85.1215 205.963 85.1215C205.625 84.4331 205.144 83.5419 204.823 83.3519C204.823 83.3519 204.823 83.3519 204.823 83.3476C204.831 83.335 204.865 83.2801 204.899 83.1787C205.034 82.7817 205.131 81.7047 203.252 80.0702V79.4873C204.337 80.2729 205.169 81.1261 205.448 82.0046C205.448 82.0046 205.405 83.5208 206.339 85.2651C206.343 85.2694 206.347 85.2694 206.347 85.2694Z" fill="#3662C1"/>
<path d="M206.347 85.2694C206.347 85.2694 207.795 87.4698 206.967 90.1433L206.596 90.042C206.596 90.042 206.959 87.0939 206.199 85.6115C205.443 84.129 206.347 85.2694 206.347 85.2694Z" fill="#3662C1"/>
<path d="M209.468 77.2193C209.468 77.2193 205.047 74.7443 207.112 71.3823C207.112 71.3823 208.763 69.3212 210.528 68.7891C210.528 68.7891 209.586 73.7982 210.528 73.9165C211.469 74.0347 211.178 68.2569 211.178 68.2569C211.178 68.2569 215.831 66.0184 217.659 66.1958C217.659 66.1958 214.771 71.0867 215.713 70.9684C216.654 70.8502 219.897 65.9001 219.897 65.9001C219.897 65.9001 224.668 65.0174 225.437 67.8472C226.201 70.677 224.964 72.0919 224.259 72.2693C223.554 72.4467 219.015 72.3875 219.133 72.9746C219.251 73.5659 222.317 74.5077 224.022 73.9756C224.022 73.9756 222.135 78.6342 219.661 78.3976C217.186 78.1611 216.418 76.628 214.889 76.5097C213.357 76.3915 212.238 76.8054 213.002 77.2151C213.766 77.629 216.359 77.3502 217.6 78.4019C218.842 79.4535 219.838 80.104 217.541 80.5728C215.244 81.0458 211.119 80.7502 210.291 78.9805C209.468 77.2193 209.468 77.2193 209.468 77.2193Z" fill="#6D89CF"/>
<path d="M223.254 68.7341C223.254 68.7341 210.879 72.7423 209.464 77.2235C209.464 77.2235 209.523 79.2297 208.286 81.5273V82.41C208.286 82.41 209.582 79.4028 210.288 78.9932C210.292 78.9889 207.522 75.099 223.254 68.7341Z" fill="#3662C1"/>
<path d="M208.286 81.5231C208.286 81.5231 206.377 84.4204 207.467 87.9513L207.957 87.8204C207.957 87.8204 207.479 83.9347 208.48 81.9792C209.477 80.0237 208.286 81.5231 208.286 81.5231Z" fill="#3662C1"/>
<path d="M236.17 90.1138C236.17 90.1138 242.711 63.4547 243.184 61.2162C243.395 60.2194 244.041 59.8562 244.695 59.7633C243.547 59.645 242.711 59.6366 242.711 59.6366C240.448 59.6366 238.438 61.2584 237.712 63.6659C236.128 68.92 229.989 77.7134 227.033 87.5797C227.181 87.5754 236.17 90.1138 236.17 90.1138Z" fill="#ED6966"/>
<path d="M203.257 99.1944V94.198C204.443 91.9046 205.642 89.8308 206.681 88.2047C206.842 87.9555 206.998 87.7148 207.146 87.4909C207.192 87.4149 207.243 87.3431 207.293 87.2755C207.492 86.9799 207.682 86.7054 207.859 86.452C208.138 86.0676 208.387 85.734 208.611 85.4636C208.923 85.0835 209.324 84.7794 209.793 84.5471C209.831 84.526 209.873 84.5091 209.911 84.488C210.089 84.4078 210.274 84.3317 210.464 84.2684C210.486 84.2599 210.507 84.2557 210.524 84.2473C211.064 84.0699 211.672 83.9558 212.318 83.8925C213.728 83.7573 215.341 83.8629 216.933 84.0952C217.136 84.1248 217.338 84.1543 217.541 84.1881C218.424 84.3317 219.293 84.5091 220.113 84.695C220.117 84.695 220.117 84.695 220.121 84.695C220.421 84.7625 220.712 84.8343 220.995 84.9019C221.016 84.9061 221.037 84.9146 221.058 84.9188C221.156 84.9441 221.257 84.9695 221.354 84.9948C221.793 85.1089 222.211 85.2187 222.595 85.3285C224.196 85.7804 225.255 86.1563 225.255 86.1563L225.26 86.3717L225.281 87.1784L225.293 87.5754L225.323 88.7369V88.7876L225.327 88.9481L225.353 89.9575L225.357 90.042L225.589 99.2071H203.257V99.1944Z" fill="#ED6966"/>
<path d="M234.105 89.6872C233.97 89.6196 233.767 89.5183 233.505 89.3958C233.454 89.3704 233.404 89.3451 233.349 89.324C233.205 89.2564 233.049 89.1846 232.88 89.1043C232.673 89.0072 232.445 88.9016 232.196 88.7918C231.858 88.6355 231.487 88.4708 231.086 88.2934C230.967 88.2427 230.849 88.1921 230.727 88.1371C230.613 88.0865 230.495 88.0358 230.372 87.9851C230.372 87.9851 230.372 87.9851 230.368 87.9851C229.903 87.7866 229.405 87.5796 228.886 87.3727C228.4 87.1784 227.894 86.9799 227.374 86.7856L227.294 86.7518C225.841 86.2112 224.279 85.6917 222.721 85.2736C222.231 85.1426 221.746 85.0202 221.26 84.9146C221.197 84.8977 221.129 84.885 221.062 84.8723C221.057 84.8723 221.058 84.8681 221.049 84.8681C220.745 84.8005 220.441 84.7414 220.137 84.6907C220.133 84.6907 220.133 84.6907 220.129 84.6907C219.314 84.5429 218.52 84.4415 217.764 84.3993C217.582 84.3866 217.405 84.3824 217.232 84.3782C215.843 84.3444 214.606 84.5302 213.639 85.0244C212.98 85.3623 212.444 85.8395 212.076 86.49C211.696 87.1573 211.181 88.2301 210.603 89.5816C209.53 92.082 208.221 95.5495 207.103 99.2071H233.463L233.53 98.4637C233.53 98.4637 233.53 98.4637 233.53 98.4595L233.661 96.9897L234.307 89.8266V89.8055C234.303 89.7886 234.236 89.7506 234.105 89.6872Z" fill="#E75755"/>
<path d="M245.708 59.738V99.1944H244.18C243.09 99.0424 242.009 98.8734 240.954 98.6918C239.155 98.3835 237.449 98.0372 235.963 97.657C235.524 97.543 235.106 97.429 234.709 97.3107C234.468 97.2389 234.24 97.1671 234.021 97.0953C233.898 97.0573 233.776 97.0151 233.657 96.9728C231.998 96.3942 230.921 95.7564 230.79 95.0807C230.672 94.464 230.968 92.99 231.534 90.9881C231.534 90.9881 231.534 90.9881 231.534 90.9838C231.635 90.6206 231.745 90.2405 231.867 89.8435C231.922 89.6619 231.981 89.476 232.036 89.286C232.057 89.2142 232.082 89.1424 232.104 89.0706L232.129 88.9776C232.15 88.9143 232.171 88.8467 232.192 88.7834C232.196 88.7665 232.205 88.7496 232.209 88.7327C232.344 88.3103 232.484 87.8753 232.631 87.4234C232.842 86.7856 233.066 86.1267 233.299 85.4468C233.603 84.5598 233.923 83.6433 234.257 82.7099C234.354 82.4396 234.451 82.165 234.548 81.8905C234.899 80.9191 235.262 79.9308 235.625 78.9425C236.567 76.3999 237.546 73.8446 238.45 71.509C238.724 70.8079 238.99 70.1237 239.248 69.469V69.4648C239.425 69.0087 239.602 68.5652 239.771 68.1344C240.265 66.8758 240.616 65.6678 240.945 64.5782C241.435 62.9479 241.874 61.5879 242.676 60.7263C243.141 60.2237 243.732 59.8942 244.522 59.7802C244.568 59.776 244.614 59.7675 244.665 59.7633C244.665 59.7633 244.665 59.7633 244.669 59.7633H244.674C244.826 59.7464 244.986 59.738 245.155 59.738H245.708Z" fill="#FA7269"/>
<path d="M240.954 98.6918L238.298 89.9364L238.256 89.7928C238.256 89.7928 237.956 89.7632 237.42 89.7125C237.116 89.6872 236.74 89.6534 236.297 89.6154C235.592 89.5563 234.722 89.4845 233.734 89.4084C233.704 89.4084 233.679 89.4042 233.649 89.4042C233.607 89.4 233.557 89.4 233.514 89.3958C233.329 89.3789 233.139 89.3662 232.944 89.3535C232.856 89.3493 232.767 89.3409 232.678 89.3366C232.471 89.3197 232.264 89.3071 232.049 89.2944C230.55 89.193 228.874 89.0917 227.117 89.0114C226.687 88.9903 226.248 88.9734 225.808 88.9565C225.656 88.9523 225.5 88.9439 225.344 88.9396C224.293 88.9016 223.229 88.8721 222.169 88.8552C220.733 88.834 219.306 88.834 217.942 88.8636C217.832 88.8678 217.727 88.8678 217.621 88.872C216.941 88.8889 216.283 88.9143 215.645 88.9523C214.433 89.0199 213.302 89.1212 212.301 89.2648C211.689 89.3535 211.119 89.4549 210.612 89.5774C209.455 89.8519 208.594 90.2151 208.155 90.6882C207.196 91.7187 206.5 95.0258 205.997 99.1986H241.127L240.954 98.6918Z" fill="#FA7269"/>
<path d="M231.133 72.7001C231.133 72.7001 230.837 77.1264 230.664 78.2583C230.558 78.9171 229.608 81.7469 228.637 84.0952C228.283 83.9009 228.004 83.6349 228.042 83.9009C228.071 84.1037 228.261 84.3402 228.451 84.5387C228.388 84.6865 228.325 84.8343 228.261 84.9779C227.995 84.9568 227.7 84.9019 227.518 84.8175C227.324 84.7203 226.277 84.45 226.285 84.8259C226.29 85.0413 226.67 86.0549 227.62 86.3379C227.311 86.9166 227.041 87.3178 226.843 87.4318C225.872 87.9893 221.231 84.8977 221.231 84.8977L221.13 83.7869C221.13 83.7869 225.589 84.657 226.18 84.5936C226.767 84.5302 227.257 78.0513 228.443 75.6439C229.63 73.2365 231.133 72.7001 231.133 72.7001Z" fill="url(#paint13_linear)"/>
<path d="M241.499 71.8638C241.499 71.8638 235.465 70.5841 231.133 72.7001C231.133 72.7001 228.359 78.6764 228.443 79.69C228.528 80.7037 229.495 84.9273 228.621 86.5238C227.747 88.1203 236.652 90.95 238.252 89.966C239.856 88.9776 241.761 72.9619 241.499 71.8638Z" fill="white"/>
<path d="M219.842 96.031C219.437 96.9771 218.892 98.0456 218.284 99.1944H210.08C211.022 94.2824 211.862 90.8656 212.28 89.2606C212.457 88.5722 212.563 88.2174 212.563 88.2174C212.964 87.5121 213.441 87.1193 213.965 86.9672C213.965 86.9672 213.969 86.9672 213.973 86.963C215.075 86.6462 216.371 87.3854 217.524 88.4624C217.659 88.5891 217.794 88.7242 217.925 88.8594C218.36 89.3113 218.77 89.8012 219.129 90.2869C219.952 91.3977 220.526 92.4916 220.602 93.0449C220.704 93.7122 220.395 94.7512 219.842 96.031Z" fill="#060632"/>
<path d="M213.914 86.9884C213.914 86.9884 215.759 85.9283 219.956 86.8405C224.153 87.7528 227.586 89.9322 227.586 89.9322L216.887 90.3757L213.914 86.9884Z" fill="#060632"/>
<path d="M219.133 81.7681L218.753 78.2583L223.714 84.8006C223.714 84.8006 221.637 85.8353 221.514 85.6368C221.392 85.4383 219.133 81.7681 219.133 81.7681Z" fill="#B5453C"/>
<path d="M226.56 81.7681L231.145 88.7707H223.444L219.133 81.7681H226.56Z" fill="#9E332E"/>
<path d="M219.133 81.768L218.774 78.2921L221.367 81.54L219.133 81.768Z" fill="white"/>
<path d="M230.909 88.4117L231.259 88.1583L226.703 81.3879L226.56 81.768L230.909 88.4117Z" fill="#93B3F4"/>
<path d="M226.704 81.3879L219.454 81.5906L219.133 81.768H226.56L226.704 81.3879Z" fill="#BED2FA"/>
<path d="M229.136 99.1944H220.928C220.531 98.0625 220.168 97.0066 219.842 96.031C219.015 93.5602 218.411 91.6132 218.031 90.3334C217.828 89.6492 217.685 89.155 217.605 88.8678C217.55 88.6778 217.524 88.5806 217.524 88.5806C217.524 88.5426 217.524 88.5004 217.524 88.4624C217.537 87.5501 217.85 86.9419 218.356 86.5702C218.382 86.5491 218.411 86.5322 218.436 86.5153C219.268 85.962 220.569 85.9874 221.911 86.2915C223.111 86.5618 224.339 87.0559 225.294 87.5628C226.066 87.9725 226.657 88.3906 226.902 88.7031C226.919 88.7242 226.94 88.7496 226.957 88.7749C227.004 88.8425 227.054 88.9228 227.101 89.0072C227.223 89.2353 227.346 89.5225 227.46 89.8604C227.464 89.8773 227.472 89.8942 227.477 89.9111C227.481 89.9195 227.481 89.928 227.485 89.9364C227.945 91.3175 228.359 93.5138 228.718 96.0183C228.874 97.0362 229.009 98.109 229.136 99.1944Z" fill="#0B0754"/>
<path d="M218.44 86.5153C218.44 86.5153 221.616 83.6644 234.578 89.8055L223.934 89.966L218.44 86.5153Z" fill="#0B0754"/>
<path d="M240.869 89.5436C238.94 90.1687 231.399 86.9334 230.495 86.5407C230.495 86.5407 228.206 86.4731 227.729 86.3675C227.691 86.359 227.653 86.3506 227.619 86.3379C226.669 86.0549 226.289 85.0413 226.285 84.8259C226.277 84.45 227.324 84.7203 227.518 84.8174C227.7 84.9019 227.995 84.9568 228.261 84.9779C228.612 85.0075 228.907 84.9779 228.819 84.8892C228.751 84.8217 228.603 84.6907 228.451 84.5387C228.261 84.3402 228.071 84.1037 228.042 83.9009C228.004 83.6348 228.282 83.9009 228.637 84.0952C228.768 84.167 228.907 84.2261 229.047 84.2473C229.482 84.3064 230.664 85.1004 230.664 85.1004C230.664 85.1004 238.707 86.1943 238.999 86.0718C239.29 85.9536 239.826 71.8469 239.826 71.8469C239.826 71.8469 242.503 71.357 242.875 73.5363C243.246 75.7157 242.917 88.8805 240.869 89.5436Z" fill="url(#paint14_linear)"/>
<path d="M236.044 65.7396C236.044 65.7396 238.294 66.9729 236.559 69.431C236.559 69.431 238.514 69.714 239.021 69.1649C239.021 69.1649 238.94 69.4099 238.847 69.5282C238.847 69.5282 240.752 69.3339 241.457 68.6328C242.158 67.9317 240.304 58.2935 235.191 60.1096C235.191 60.1096 230.681 60.3926 231.813 65.4989C232.944 70.6052 231.26 70.8417 231.26 70.8417C231.26 70.8417 231.762 71.0064 231.986 70.9769C231.986 70.9769 232.298 70.8037 232.341 70.6136C232.341 70.6136 232.315 70.9093 232.244 71.0149C232.244 71.0149 234.085 70.9346 234.899 70.1195C235.719 69.3001 236.453 66.766 236.044 65.7396Z" fill="#0B0754"/>
<path d="M236.838 68.3076C236.838 68.3076 238.062 66.5801 238.413 65.0681C238.662 63.9869 240.026 59.5479 235.934 59.9154C235.934 59.9154 233.046 60.3377 231.897 61.0304C230.985 61.5794 229.647 62.7958 230.88 66.3985L231.188 67.6107L236.838 68.3076Z" fill="#0B0754"/>
<path d="M236.909 73.4561C235.841 73.9883 234.507 73.7137 234.203 73.4899C234.025 73.3589 234.275 72.5438 234.106 71.6949C233.907 70.6812 233.62 69.6211 233.62 69.6211L236.905 68.2738L237.099 68.1935C237.61 70.8544 238.075 71.0022 238.227 71.4414C238.375 71.8807 237.914 72.9619 236.909 73.4561Z" fill="url(#paint15_linear)"/>
<path d="M233.167 70.7066C233.167 70.7066 237.706 69.8999 237.162 67.0785C236.613 64.2572 236.832 62.2552 233.911 62.6522C230.989 63.0492 230.634 64.2361 230.592 65.2202C230.55 66.2042 231.972 70.8417 233.167 70.7066Z" fill="url(#paint16_linear)"/>
<path d="M231.943 61.9807C231.943 61.9807 234.177 65.7481 236.377 66.0015C238.577 66.2507 239.088 65.2919 239.088 65.2919C239.088 65.2919 237.276 64.2234 236.626 62.0102C236.626 62.006 232.746 60.0759 231.943 61.9807Z" fill="#0B0754"/>
<path d="M232.328 62.2341C232.328 62.2341 231.407 63.2055 231.268 64.0418C231.129 64.878 231.243 66.5463 230.753 66.559C230.753 66.559 229.359 64.1896 230.335 62.6058C231.369 60.9248 232.328 62.2341 232.328 62.2341Z" fill="#0B0754"/>
<path d="M232.154 62.3861C232.154 62.3861 233.679 66.1198 236.533 66.9898C236.533 66.9898 233.522 64.9836 232.935 62.4579C232.353 59.9323 232.154 62.3861 232.154 62.3861Z" fill="#0B0754"/>
<path d="M241.46 68.6286C240.759 69.3297 238.855 69.524 238.855 69.524C238.944 69.4057 239.024 69.1607 239.024 69.1607C238.028 69.9252 235.646 69.2832 235.646 69.2832C237.572 68.9158 237.031 66.1367 236.381 66.0015C236.06 63.9109 235.38 61.2965 235.063 60.1223C235.148 60.1097 235.199 60.1097 235.199 60.1097C240.308 58.2893 242.161 67.9275 241.46 68.6286Z" fill="#0B0754"/>
<path d="M238.953 71.6188C238.953 71.6188 241.904 71.6653 242.677 72.2988C243.454 72.9366 243.813 82.0468 243.813 82.0468C243.813 82.0468 242.415 81.6709 241.161 81.9581C239.907 82.2453 238.252 81.9581 238.252 81.9581L238.953 71.6188Z" fill="white"/>
<path d="M233.97 71.7836C233.97 71.7836 230.25 72.5311 229.402 73.5152C228.553 74.5035 226.843 79.4704 226.843 79.4704C226.843 79.4704 227.501 79.5718 227.843 80.0279C228.181 80.4883 229.292 80.2729 229.292 80.2729L233.97 71.7836Z" fill="white"/>
<path d="M227.189 99.1944C227.7 98.0878 228.215 97.0235 228.726 96.0183C229.744 94.0206 230.724 92.2805 231.534 90.9881C231.534 90.9881 231.534 90.9881 231.534 90.9838C231.805 90.5488 232.062 90.1645 232.29 89.8393C232.396 89.6914 232.493 89.5563 232.586 89.4338C232.611 89.4 232.641 89.3662 232.666 89.3324C232.679 89.3155 232.691 89.2986 232.708 89.2775C232.742 89.2395 232.771 89.2015 232.809 89.1677C232.831 89.1424 232.852 89.117 232.877 89.0959C232.894 89.079 232.911 89.0621 232.928 89.0452C233.346 88.644 233.878 88.3441 234.49 88.1329C235.166 87.9006 235.934 87.7697 236.757 87.7148C237.551 87.6641 238.391 87.6895 239.244 87.757C240.106 87.8288 240.976 87.9513 241.812 88.0991C242.099 88.1498 242.382 88.2047 242.66 88.2639C242.664 88.2639 242.669 88.2639 242.673 88.2639H242.677C243.813 88.4962 244.86 88.7623 245.709 88.9945V99.186H227.189V99.1944Z" fill="#ED6966"/>
<path d="M233.257 99.1944C233.346 98.9452 233.434 98.696 233.523 98.4511C233.523 98.4511 233.523 98.4511 233.523 98.4468C233.688 97.9865 233.852 97.5346 234.017 97.0953C234.481 95.8578 234.942 94.7132 235.364 93.7165C235.989 92.2382 236.546 91.0725 236.947 90.363C236.985 90.2996 237.023 90.232 237.065 90.1687C237.171 90.0082 237.289 89.8561 237.416 89.7168C237.572 89.5436 237.749 89.3873 237.939 89.2437C238.243 89.0199 238.585 88.8383 238.957 88.6947C239.764 88.3821 240.718 88.247 241.769 88.2427C242.061 88.2427 242.36 88.2512 242.664 88.2723C242.669 88.2723 242.673 88.2723 242.677 88.2723H242.681C243.188 88.3019 243.703 88.361 244.235 88.437C244.324 88.4497 244.412 88.4624 244.501 88.4793C244.522 88.4835 244.543 88.4835 244.569 88.4919C244.944 88.5511 245.329 88.6229 245.713 88.7031V99.1986H233.257V99.1944Z" fill="#E75755"/>
<path d="M248.871 99.1733H247.917V54.9527V52.503V39.8324H201.107V52.503V54.9527V99.1733H200.149C197.759 99.1733 195.825 101.108 195.825 103.498V103.65H253.195V103.498C253.195 101.112 251.257 99.1733 248.871 99.1733ZM203.282 42.0075H245.738V52.503H203.282V42.0075ZM203.282 54.9527H245.738V99.1733H203.282V54.9527Z" fill="#6D89CF"/>
<path d="M245.096 42.9451H204.051V45.0104H245.096V42.9451Z" fill="white"/>
<path d="M245.096 46.1888H204.051V48.2541H245.096V46.1888Z" fill="white"/>
<path d="M245.096 49.4325H204.051V51.4978H245.096V49.4325Z" fill="white"/>
<path d="M245.096 52.4692H204.051V54.5345H245.096V52.4692Z" fill="white"/>
<path d="M245.096 55.8819H204.051V57.9472H245.096V55.8819Z" fill="white"/>
<path d="M206.356 41.9737H205.959V59.6239H206.356V41.9737Z" fill="white"/>
<path d="M243.428 41.9737H243.031V59.6239H243.428V41.9737Z" fill="white"/>
<path d="M251.375 25.958H197.59V37.4629H251.375V25.958Z" fill="#93B3F4"/>
<path d="M180.414 127.087H126.629V138.592H180.414V127.087Z" fill="#3A487F"/>
<path d="M251.375 127.087H197.59V138.592H251.375V127.087Z" fill="#3A487F"/>
</g>
<defs>
<linearGradient id="paint0_linear" x1="213.273" y1="184.642" x2="227.881" y2="184.642" gradientUnits="userSpaceOnUse">
<stop stop-color="#FEBBBA"/>
<stop offset="1" stop-color="#FF928E"/>
</linearGradient>
<linearGradient id="paint1_linear" x1="226.991" y1="191.556" x2="237.991" y2="191.556" gradientUnits="userSpaceOnUse">
<stop stop-color="#FEBBBA"/>
<stop offset="1" stop-color="#FF928E"/>
</linearGradient>
<linearGradient id="paint2_linear" x1="228.823" y1="168.605" x2="234.957" y2="168.605" gradientUnits="userSpaceOnUse">
<stop stop-color="#FEBBBA"/>
<stop offset="1" stop-color="#FF928E"/>
</linearGradient>
<linearGradient id="paint3_linear" x1="216.547" y1="187.063" x2="239.796" y2="187.063" gradientUnits="userSpaceOnUse">
<stop stop-color="#FEBBBA"/>
<stop offset="1" stop-color="#FF928E"/>
</linearGradient>
<linearGradient id="paint4_linear" x1="135.78" y1="186.585" x2="172.176" y2="186.585" gradientUnits="userSpaceOnUse">
<stop stop-color="#FEBBBA"/>
<stop offset="1" stop-color="#FF928E"/>
</linearGradient>
<linearGradient id="paint5_linear" x1="139.749" y1="201.158" x2="140.049" y2="201.158" gradientUnits="userSpaceOnUse">
<stop stop-color="#FEBBBA"/>
<stop offset="1" stop-color="#FF928E"/>
</linearGradient>
<linearGradient id="paint6_linear" x1="150.566" y1="171.58" x2="154.603" y2="171.58" gradientUnits="userSpaceOnUse">
<stop stop-color="#FEBBBA"/>
<stop offset="1" stop-color="#FF928E"/>
</linearGradient>
<linearGradient id="paint7_linear" x1="150.265" y1="168.378" x2="157.265" y2="168.378" gradientUnits="userSpaceOnUse">
<stop stop-color="#FEBBBA"/>
<stop offset="1" stop-color="#FF928E"/>
</linearGradient>
<linearGradient id="paint8_linear" x1="139.749" y1="201.158" x2="140.049" y2="201.158" gradientUnits="userSpaceOnUse">
<stop stop-color="#FEBBBA"/>
<stop offset="1" stop-color="#FF928E"/>
</linearGradient>
<linearGradient id="paint9_linear" x1="142.866" y1="84.6301" x2="155.323" y2="84.6301" gradientUnits="userSpaceOnUse">
<stop stop-color="#FEBBBA"/>
<stop offset="1" stop-color="#FF928E"/>
</linearGradient>
<linearGradient id="paint10_linear" x1="138.364" y1="75.0819" x2="143.56" y2="75.0819" gradientUnits="userSpaceOnUse">
<stop stop-color="#FEBBBA"/>
<stop offset="1" stop-color="#FF928E"/>
</linearGradient>
<linearGradient id="paint11_linear" x1="139.34" y1="70.23" x2="145.109" y2="70.23" gradientUnits="userSpaceOnUse">
<stop stop-color="#FEBBBA"/>
<stop offset="1" stop-color="#FF928E"/>
</linearGradient>
<linearGradient id="paint12_linear" x1="134.475" y1="84.3234" x2="150.873" y2="84.3234" gradientUnits="userSpaceOnUse">
<stop stop-color="#FEBBBA"/>
<stop offset="1" stop-color="#FF928E"/>
</linearGradient>
<linearGradient id="paint13_linear" x1="221.131" y1="80.1005" x2="231.134" y2="80.1005" gradientUnits="userSpaceOnUse">
<stop stop-color="#FEBBBA"/>
<stop offset="1" stop-color="#FF928E"/>
</linearGradient>
<linearGradient id="paint14_linear" x1="226.286" y1="80.7126" x2="243.009" y2="80.7126" gradientUnits="userSpaceOnUse">
<stop stop-color="#FEBBBA"/>
<stop offset="1" stop-color="#FF928E"/>
</linearGradient>
<linearGradient id="paint15_linear" x1="233.621" y1="70.9794" x2="238.255" y2="70.9794" gradientUnits="userSpaceOnUse">
<stop stop-color="#FEBBBA"/>
<stop offset="1" stop-color="#FF928E"/>
</linearGradient>
<linearGradient id="paint16_linear" x1="230.587" y1="66.6532" x2="237.206" y2="66.6532" gradientUnits="userSpaceOnUse">
<stop stop-color="#FEBBBA"/>
<stop offset="1" stop-color="#FF928E"/>
</linearGradient>
<clipPath id="clip0">
<rect width="354" height="245" fill="white"/>
</clipPath>
</defs>
</svg>
