<svg width="14" height="9" viewBox="0 0 14 9" fill="none" xmlns="http://www.w3.org/2000/svg">
<path fill-rule="evenodd" clip-rule="evenodd" d="M13.4476 1.09339C13.5371 1.18627 13.6081 1.29662 13.6566 1.4181C13.705 1.53958 13.73 1.66982 13.73 1.80134C13.73 1.93287 13.705 2.0631 13.6566 2.18458C13.6081 2.30607 13.5371 2.41641 13.4476 2.5093L7.68084 8.50891C7.59156 8.60203 7.4855 8.67591 7.36873 8.72632C7.25196 8.77673 7.12678 8.80267 7.00036 8.80267C6.87394 8.80267 6.74876 8.77673 6.63199 8.72632C6.51522 8.67591 6.40916 8.60203 6.31988 8.50891L0.553103 2.5093C0.372629 2.32154 0.27124 2.06688 0.27124 1.80134C0.27124 1.53581 0.372629 1.28115 0.553103 1.09339C0.733578 0.905628 0.978354 0.800145 1.23358 0.800145C1.48881 0.800145 1.73359 0.905628 1.91406 1.09339L7.00036 6.38704L12.0867 1.09339C12.1759 1.00027 12.282 0.926389 12.3988 0.875979C12.5155 0.82557 12.6407 0.799622 12.7671 0.799622C12.8936 0.799622 13.0187 0.82557 13.1355 0.875979C13.2523 0.926389 13.3583 1.00027 13.4476 1.09339Z" fill="white"/>
</svg>
