<svg width="24" height="24" viewBox="0 0 24 24" fill="none" xmlns="http://www.w3.org/2000/svg">
<path d="M18.6291 18.6291C16.871 20.3873 14.4864 21.375 12 21.375C9.5136 21.375 7.12903 20.3873 5.37088 18.6291C3.61272 16.871 2.625 14.4864 2.625 12C2.625 9.5136 3.61272 7.12903 5.37087 5.37087C7.12903 3.61272 9.51359 2.625 12 2.625C14.4864 2.625 16.871 3.61272 18.6291 5.37087C20.3873 7.12903 21.375 9.51359 21.375 12C21.375 14.4864 20.3873 16.871 18.6291 18.6291ZM12 23.25C14.9837 23.25 17.8452 22.0647 19.955 19.955C22.0647 17.8452 23.25 14.9837 23.25 12C23.25 9.01631 22.0647 6.15483 19.9549 4.04505C17.8452 1.93526 14.9837 0.749998 12 0.749998C9.01631 0.749999 6.15483 1.93526 4.04505 4.04505C1.93527 6.15483 0.750001 9.01632 0.750002 12C0.750002 14.9837 1.93527 17.8452 4.04505 19.955C6.15484 22.0647 9.01632 23.25 12 23.25Z" fill="#FC6625" stroke="#FC6625" stroke-width="0.5"/>
<path d="M11.3634 15.8611L11.1331 15.7656C11.1803 15.6518 11.2495 15.5484 11.3368 15.4613C11.3368 15.4613 11.3369 15.4612 11.337 15.4611L14.7995 11.9999L11.3368 8.53845L11.3367 8.53842C11.2496 8.45128 11.1805 8.34784 11.1333 8.23399C11.0862 8.12014 11.0619 7.99812 11.0619 7.87489C11.0619 7.75166 11.0862 7.62964 11.1333 7.51579C11.1805 7.40195 11.2496 7.2985 11.3367 7.21137C11.4239 7.12423 11.5273 7.05511 11.6412 7.00795C11.755 6.9608 11.877 6.93652 12.0003 6.93652C12.1235 6.93652 12.2455 6.96079 12.3594 7.00795C12.4732 7.05511 12.5766 7.12423 12.6638 7.21137L16.7886 11.3361C16.7886 11.3362 16.7887 11.3363 16.7888 11.3364C16.876 11.4234 16.9452 11.5268 16.9924 11.6406L16.7615 11.7364L16.9924 11.6406C17.0397 11.7545 17.064 11.8766 17.064 11.9999C17.064 12.1232 17.0397 12.2453 16.9924 12.3592C16.9452 12.473 16.876 12.5764 16.7888 12.6634C16.7887 12.6635 16.7886 12.6636 16.7886 12.6636L12.664 16.7882L11.3634 15.8611ZM11.3634 15.8611L11.1331 15.7656C11.0859 15.8795 11.0615 16.0016 11.0615 16.1249C11.0615 16.2482 11.0859 16.3703 11.1331 16.4842C11.1803 16.598 11.2495 16.7013 11.3367 16.7884M11.3634 15.8611L11.7368 16.7611M11.7368 16.7611L11.6409 16.992C11.5271 16.9448 11.4237 16.8756 11.3367 16.7884M11.7368 16.7611L11.6409 16.992C11.7548 17.0393 11.8769 17.0636 12.0003 17.0636C12.1236 17.0636 12.2457 17.0393 12.3596 16.992C12.4734 16.9448 12.5767 16.8756 12.6638 16.7884L11.7368 16.7611ZM11.3367 16.7884C11.3366 16.7883 11.3366 16.7882 11.3365 16.7882L11.5135 16.6116L11.337 16.7886C11.3369 16.7885 11.3368 16.7884 11.3367 16.7884Z" fill="#FC6625" stroke="#FC6625" stroke-width="0.5"/>
<path d="M7.21209 11.3371C7.03627 11.5129 6.9375 11.7514 6.9375 12C6.9375 12.2486 7.03627 12.4871 7.21209 12.6629C7.3879 12.8387 7.62636 12.9375 7.875 12.9375L14.75 12.9375C14.9986 12.9375 15.2371 12.8387 15.4129 12.6629C15.5887 12.4871 15.6875 12.2486 15.6875 12C15.6875 11.7514 15.5887 11.5129 15.4129 11.3371C15.2371 11.1613 14.9986 11.0625 14.75 11.0625L7.875 11.0625C7.62636 11.0625 7.3879 11.1613 7.21209 11.3371Z" fill="#FC6625" stroke="#FC6625" stroke-width="0.5"/>
</svg>
